G04 (created by PCBNEW (2013-jul-07)-stable) date Thu 15 Dec 2016 11:15:11 PM CST*
%MOIN*%
G04 Gerber Fmt 3.4, Leading zero omitted, Abs format*
%FSLAX34Y34*%
G01*
G70*
G90*
G04 APERTURE LIST*
%ADD10C,0.005*%
%ADD11C,0.00393701*%
%ADD12C,0.00787402*%
%ADD13C,0.011811*%
G04 APERTURE END LIST*
G54D10*
G54D11*
X71750Y-42750D02*
X71750Y-57750D01*
X98500Y-42750D02*
X71750Y-42750D01*
X98500Y-57750D02*
X98500Y-42750D01*
X71750Y-57750D02*
X98500Y-57750D01*
G54D12*
X72325Y-47575D02*
X72675Y-47925D01*
X72675Y-47575D02*
X72325Y-47925D01*
X72325Y-49575D02*
X72675Y-49925D01*
X72675Y-49575D02*
X72325Y-49925D01*
X72325Y-50825D02*
X72675Y-51175D01*
X72675Y-50825D02*
X72325Y-51175D01*
X72325Y-53825D02*
X72675Y-54175D01*
X72675Y-53825D02*
X72325Y-54175D01*
X74075Y-49075D02*
X74425Y-49425D01*
X74425Y-49075D02*
X74075Y-49425D01*
X74075Y-52075D02*
X74425Y-52425D01*
X74425Y-52075D02*
X74075Y-52425D01*
X75075Y-49075D02*
X75425Y-49425D01*
X75425Y-49075D02*
X75075Y-49425D01*
X75075Y-52075D02*
X75425Y-52425D01*
X75425Y-52075D02*
X75075Y-52425D01*
X76075Y-49075D02*
X76425Y-49425D01*
X76425Y-49075D02*
X76075Y-49425D01*
X76075Y-52075D02*
X76425Y-52425D01*
X76425Y-52075D02*
X76075Y-52425D01*
X77075Y-49075D02*
X77425Y-49425D01*
X77425Y-49075D02*
X77075Y-49425D01*
X77075Y-52075D02*
X77425Y-52425D01*
X77425Y-52075D02*
X77075Y-52425D01*
X78075Y-49075D02*
X78425Y-49425D01*
X78425Y-49075D02*
X78075Y-49425D01*
X78075Y-52075D02*
X78425Y-52425D01*
X78425Y-52075D02*
X78075Y-52425D01*
X79075Y-49075D02*
X79425Y-49425D01*
X79425Y-49075D02*
X79075Y-49425D01*
X79075Y-52075D02*
X79425Y-52425D01*
X79425Y-52075D02*
X79075Y-52425D01*
X79075Y-56325D02*
X79425Y-56675D01*
X79425Y-56325D02*
X79075Y-56675D01*
X79825Y-47075D02*
X80175Y-47425D01*
X80175Y-47075D02*
X79825Y-47425D01*
X80075Y-49075D02*
X80425Y-49425D01*
X80425Y-49075D02*
X80075Y-49425D01*
X80075Y-52075D02*
X80425Y-52425D01*
X80425Y-52075D02*
X80075Y-52425D01*
X80075Y-54075D02*
X80425Y-54425D01*
X80425Y-54075D02*
X80075Y-54425D01*
X81075Y-49075D02*
X81425Y-49425D01*
X81425Y-49075D02*
X81075Y-49425D01*
X81075Y-52075D02*
X81425Y-52425D01*
X81425Y-52075D02*
X81075Y-52425D01*
X81075Y-54075D02*
X81425Y-54425D01*
X81425Y-54075D02*
X81075Y-54425D01*
X82075Y-54075D02*
X82425Y-54425D01*
X82425Y-54075D02*
X82075Y-54425D01*
X82075Y-56325D02*
X82425Y-56675D01*
X82425Y-56325D02*
X82075Y-56675D01*
X82575Y-50075D02*
X82925Y-50425D01*
X82925Y-50075D02*
X82575Y-50425D01*
X82575Y-52075D02*
X82925Y-52425D01*
X82925Y-52075D02*
X82575Y-52425D01*
X82825Y-47075D02*
X83175Y-47425D01*
X83175Y-47075D02*
X82825Y-47425D01*
X83075Y-56325D02*
X83425Y-56675D01*
X83425Y-56325D02*
X83075Y-56675D01*
X83325Y-53575D02*
X83675Y-53925D01*
X83675Y-53575D02*
X83325Y-53925D01*
X83325Y-54575D02*
X83675Y-54925D01*
X83675Y-54575D02*
X83325Y-54925D01*
X84075Y-46575D02*
X84425Y-46925D01*
X84425Y-46575D02*
X84075Y-46925D01*
X84075Y-56325D02*
X84425Y-56675D01*
X84425Y-56325D02*
X84075Y-56675D01*
X84325Y-49575D02*
X84675Y-49925D01*
X84675Y-49575D02*
X84325Y-49925D01*
X84325Y-51575D02*
X84675Y-51925D01*
X84675Y-51575D02*
X84325Y-51925D01*
X85075Y-46575D02*
X85425Y-46925D01*
X85425Y-46575D02*
X85075Y-46925D01*
X85075Y-56325D02*
X85425Y-56675D01*
X85425Y-56325D02*
X85075Y-56675D01*
X85325Y-53575D02*
X85675Y-53925D01*
X85675Y-53575D02*
X85325Y-53925D01*
X85325Y-54575D02*
X85675Y-54925D01*
X85675Y-54575D02*
X85325Y-54925D01*
X86075Y-46575D02*
X86425Y-46925D01*
X86425Y-46575D02*
X86075Y-46925D01*
X86075Y-49075D02*
X86425Y-49425D01*
X86425Y-49075D02*
X86075Y-49425D01*
X86075Y-52075D02*
X86425Y-52425D01*
X86425Y-52075D02*
X86075Y-52425D01*
X86075Y-53575D02*
X86425Y-53925D01*
X86425Y-53575D02*
X86075Y-53925D01*
X86075Y-54575D02*
X86425Y-54925D01*
X86425Y-54575D02*
X86075Y-54925D01*
X86075Y-55575D02*
X86425Y-55925D01*
X86425Y-55575D02*
X86075Y-55925D01*
X86075Y-56575D02*
X86425Y-56925D01*
X86425Y-56575D02*
X86075Y-56925D01*
X87075Y-45075D02*
X87425Y-45425D01*
X87425Y-45075D02*
X87075Y-45425D01*
X87075Y-48075D02*
X87425Y-48425D01*
X87425Y-48075D02*
X87075Y-48425D01*
X87075Y-49075D02*
X87425Y-49425D01*
X87425Y-49075D02*
X87075Y-49425D01*
X87075Y-52075D02*
X87425Y-52425D01*
X87425Y-52075D02*
X87075Y-52425D01*
X88075Y-46825D02*
X88425Y-47175D01*
X88425Y-46825D02*
X88075Y-47175D01*
X88075Y-47825D02*
X88425Y-48175D01*
X88425Y-47825D02*
X88075Y-48175D01*
X88075Y-49075D02*
X88425Y-49425D01*
X88425Y-49075D02*
X88075Y-49425D01*
X88075Y-52075D02*
X88425Y-52425D01*
X88425Y-52075D02*
X88075Y-52425D01*
X89075Y-49075D02*
X89425Y-49425D01*
X89425Y-49075D02*
X89075Y-49425D01*
X89075Y-52075D02*
X89425Y-52425D01*
X89425Y-52075D02*
X89075Y-52425D01*
X89075Y-53575D02*
X89425Y-53925D01*
X89425Y-53575D02*
X89075Y-53925D01*
X89075Y-54575D02*
X89425Y-54925D01*
X89425Y-54575D02*
X89075Y-54925D01*
X89075Y-55575D02*
X89425Y-55925D01*
X89425Y-55575D02*
X89075Y-55925D01*
X89075Y-56575D02*
X89425Y-56925D01*
X89425Y-56575D02*
X89075Y-56925D01*
X90075Y-49075D02*
X90425Y-49425D01*
X90425Y-49075D02*
X90075Y-49425D01*
X90075Y-52075D02*
X90425Y-52425D01*
X90425Y-52075D02*
X90075Y-52425D01*
X91075Y-49075D02*
X91425Y-49425D01*
X91425Y-49075D02*
X91075Y-49425D01*
X91075Y-52075D02*
X91425Y-52425D01*
X91425Y-52075D02*
X91075Y-52425D01*
X92075Y-49075D02*
X92425Y-49425D01*
X92425Y-49075D02*
X92075Y-49425D01*
X92075Y-52075D02*
X92425Y-52425D01*
X92425Y-52075D02*
X92075Y-52425D01*
X93075Y-49075D02*
X93425Y-49425D01*
X93425Y-49075D02*
X93075Y-49425D01*
X93075Y-52075D02*
X93425Y-52425D01*
X93425Y-52075D02*
X93075Y-52425D01*
X94825Y-46825D02*
X95175Y-47175D01*
X95175Y-46825D02*
X94825Y-47175D01*
X94825Y-49075D02*
X95175Y-49425D01*
X95175Y-49075D02*
X94825Y-49425D01*
X94825Y-51075D02*
X95175Y-51425D01*
X95175Y-51075D02*
X94825Y-51425D01*
X94825Y-53325D02*
X95175Y-53675D01*
X95175Y-53325D02*
X94825Y-53675D01*
X95825Y-46825D02*
X96175Y-47175D01*
X96175Y-46825D02*
X95825Y-47175D01*
X95825Y-53325D02*
X96175Y-53675D01*
X96175Y-53325D02*
X95825Y-53675D01*
X76460Y-44250D02*
G75*
G03X76460Y-44250I-210J0D01*
G74*
G01*
X76460Y-46500D02*
G75*
G03X76460Y-46500I-210J0D01*
G74*
G01*
X76460Y-47500D02*
G75*
G03X76460Y-47500I-210J0D01*
G74*
G01*
X77460Y-44250D02*
G75*
G03X77460Y-44250I-210J0D01*
G74*
G01*
X77460Y-54250D02*
G75*
G03X77460Y-54250I-210J0D01*
G74*
G01*
X77460Y-55250D02*
G75*
G03X77460Y-55250I-210J0D01*
G74*
G01*
X78460Y-44250D02*
G75*
G03X78460Y-44250I-210J0D01*
G74*
G01*
X78960Y-46500D02*
G75*
G03X78960Y-46500I-210J0D01*
G74*
G01*
X78960Y-47500D02*
G75*
G03X78960Y-47500I-210J0D01*
G74*
G01*
X79460Y-44250D02*
G75*
G03X79460Y-44250I-210J0D01*
G74*
G01*
X90460Y-45500D02*
G75*
G03X90460Y-45500I-210J0D01*
G74*
G01*
X90460Y-46500D02*
G75*
G03X90460Y-46500I-210J0D01*
G74*
G01*
X90960Y-54750D02*
G75*
G03X90960Y-54750I-210J0D01*
G74*
G01*
X90960Y-55750D02*
G75*
G03X90960Y-55750I-210J0D01*
G74*
G01*
X92960Y-54750D02*
G75*
G03X92960Y-54750I-210J0D01*
G74*
G01*
X92960Y-55750D02*
G75*
G03X92960Y-55750I-210J0D01*
G74*
G01*
X97210Y-49250D02*
G75*
G03X97210Y-49250I-210J0D01*
G74*
G01*
X97210Y-50250D02*
G75*
G03X97210Y-50250I-210J0D01*
G74*
G01*
X97210Y-51250D02*
G75*
G03X97210Y-51250I-210J0D01*
G74*
G01*
G54D13*
X72798Y-59546D02*
X72798Y-58365D01*
X73080Y-58365D01*
X73248Y-58422D01*
X73361Y-58534D01*
X73417Y-58647D01*
X73473Y-58872D01*
X73473Y-59040D01*
X73417Y-59265D01*
X73361Y-59378D01*
X73248Y-59490D01*
X73080Y-59546D01*
X72798Y-59546D01*
X73980Y-59546D02*
X73980Y-58759D01*
X73980Y-58984D02*
X74036Y-58872D01*
X74092Y-58815D01*
X74205Y-58759D01*
X74317Y-58759D01*
X74711Y-59546D02*
X74711Y-58759D01*
X74711Y-58365D02*
X74654Y-58422D01*
X74711Y-58478D01*
X74767Y-58422D01*
X74711Y-58365D01*
X74711Y-58478D01*
X75442Y-59546D02*
X75329Y-59490D01*
X75273Y-59378D01*
X75273Y-58365D01*
X76061Y-59546D02*
X75948Y-59490D01*
X75892Y-59378D01*
X75892Y-58365D01*
X77410Y-59546D02*
X77410Y-58365D01*
X77804Y-59209D01*
X78198Y-58365D01*
X78198Y-59546D01*
X79266Y-59546D02*
X79266Y-58928D01*
X79210Y-58815D01*
X79098Y-58759D01*
X78873Y-58759D01*
X78760Y-58815D01*
X79266Y-59490D02*
X79154Y-59546D01*
X78873Y-59546D01*
X78760Y-59490D01*
X78704Y-59378D01*
X78704Y-59265D01*
X78760Y-59153D01*
X78873Y-59097D01*
X79154Y-59097D01*
X79266Y-59040D01*
X79829Y-58759D02*
X79829Y-59940D01*
X79829Y-58815D02*
X79941Y-58759D01*
X80166Y-58759D01*
X80279Y-58815D01*
X80335Y-58872D01*
X80391Y-58984D01*
X80391Y-59321D01*
X80335Y-59434D01*
X80279Y-59490D01*
X80166Y-59546D01*
X79941Y-59546D01*
X79829Y-59490D01*
X80897Y-59434D02*
X80954Y-59490D01*
X80897Y-59546D01*
X80841Y-59490D01*
X80897Y-59434D01*
X80897Y-59546D01*
X80897Y-58815D02*
X80954Y-58872D01*
X80897Y-58928D01*
X80841Y-58872D01*
X80897Y-58815D01*
X80897Y-58928D01*
X71380Y-61374D02*
X71730Y-61724D01*
X71730Y-61374D02*
X71380Y-61724D01*
X73023Y-60846D02*
X73136Y-60846D01*
X73248Y-60902D01*
X73305Y-60958D01*
X73361Y-61071D01*
X73417Y-61296D01*
X73417Y-61577D01*
X73361Y-61802D01*
X73305Y-61914D01*
X73248Y-61971D01*
X73136Y-62027D01*
X73023Y-62027D01*
X72911Y-61971D01*
X72855Y-61914D01*
X72798Y-61802D01*
X72742Y-61577D01*
X72742Y-61296D01*
X72798Y-61071D01*
X72855Y-60958D01*
X72911Y-60902D01*
X73023Y-60846D01*
X73923Y-61914D02*
X73980Y-61971D01*
X73923Y-62027D01*
X73867Y-61971D01*
X73923Y-61914D01*
X73923Y-62027D01*
X74654Y-61352D02*
X74542Y-61296D01*
X74486Y-61239D01*
X74429Y-61127D01*
X74429Y-61071D01*
X74486Y-60958D01*
X74542Y-60902D01*
X74654Y-60846D01*
X74879Y-60846D01*
X74992Y-60902D01*
X75048Y-60958D01*
X75104Y-61071D01*
X75104Y-61127D01*
X75048Y-61239D01*
X74992Y-61296D01*
X74879Y-61352D01*
X74654Y-61352D01*
X74542Y-61408D01*
X74486Y-61464D01*
X74429Y-61577D01*
X74429Y-61802D01*
X74486Y-61914D01*
X74542Y-61971D01*
X74654Y-62027D01*
X74879Y-62027D01*
X74992Y-61971D01*
X75048Y-61914D01*
X75104Y-61802D01*
X75104Y-61577D01*
X75048Y-61464D01*
X74992Y-61408D01*
X74879Y-61352D01*
X75667Y-62027D02*
X75892Y-62027D01*
X76004Y-61971D01*
X76061Y-61914D01*
X76173Y-61746D01*
X76229Y-61521D01*
X76229Y-61071D01*
X76173Y-60958D01*
X76117Y-60902D01*
X76004Y-60846D01*
X75779Y-60846D01*
X75667Y-60902D01*
X75611Y-60958D01*
X75554Y-61071D01*
X75554Y-61352D01*
X75611Y-61464D01*
X75667Y-61521D01*
X75779Y-61577D01*
X76004Y-61577D01*
X76117Y-61521D01*
X76173Y-61464D01*
X76229Y-61352D01*
X76735Y-62027D02*
X76735Y-61239D01*
X76735Y-61352D02*
X76792Y-61296D01*
X76904Y-61239D01*
X77073Y-61239D01*
X77185Y-61296D01*
X77242Y-61408D01*
X77242Y-62027D01*
X77242Y-61408D02*
X77298Y-61296D01*
X77410Y-61239D01*
X77579Y-61239D01*
X77692Y-61296D01*
X77748Y-61408D01*
X77748Y-62027D01*
X78310Y-62027D02*
X78310Y-61239D01*
X78310Y-61352D02*
X78366Y-61296D01*
X78479Y-61239D01*
X78648Y-61239D01*
X78760Y-61296D01*
X78816Y-61408D01*
X78816Y-62027D01*
X78816Y-61408D02*
X78873Y-61296D01*
X78985Y-61239D01*
X79154Y-61239D01*
X79266Y-61296D01*
X79323Y-61408D01*
X79323Y-62027D01*
X81629Y-60789D02*
X80616Y-62308D01*
X83147Y-60846D02*
X83260Y-60846D01*
X83372Y-60902D01*
X83428Y-60958D01*
X83485Y-61071D01*
X83541Y-61296D01*
X83541Y-61577D01*
X83485Y-61802D01*
X83428Y-61914D01*
X83372Y-61971D01*
X83260Y-62027D01*
X83147Y-62027D01*
X83035Y-61971D01*
X82978Y-61914D01*
X82922Y-61802D01*
X82866Y-61577D01*
X82866Y-61296D01*
X82922Y-61071D01*
X82978Y-60958D01*
X83035Y-60902D01*
X83147Y-60846D01*
X84047Y-61914D02*
X84103Y-61971D01*
X84047Y-62027D01*
X83991Y-61971D01*
X84047Y-61914D01*
X84047Y-62027D01*
X84834Y-60846D02*
X84947Y-60846D01*
X85059Y-60902D01*
X85116Y-60958D01*
X85172Y-61071D01*
X85228Y-61296D01*
X85228Y-61577D01*
X85172Y-61802D01*
X85116Y-61914D01*
X85059Y-61971D01*
X84947Y-62027D01*
X84834Y-62027D01*
X84722Y-61971D01*
X84666Y-61914D01*
X84609Y-61802D01*
X84553Y-61577D01*
X84553Y-61296D01*
X84609Y-61071D01*
X84666Y-60958D01*
X84722Y-60902D01*
X84834Y-60846D01*
X85622Y-60846D02*
X86353Y-60846D01*
X85959Y-61296D01*
X86128Y-61296D01*
X86241Y-61352D01*
X86297Y-61408D01*
X86353Y-61521D01*
X86353Y-61802D01*
X86297Y-61914D01*
X86241Y-61971D01*
X86128Y-62027D01*
X85791Y-62027D01*
X85678Y-61971D01*
X85622Y-61914D01*
X87422Y-60846D02*
X86859Y-60846D01*
X86803Y-61408D01*
X86859Y-61352D01*
X86972Y-61296D01*
X87253Y-61296D01*
X87365Y-61352D01*
X87422Y-61408D01*
X87478Y-61521D01*
X87478Y-61802D01*
X87422Y-61914D01*
X87365Y-61971D01*
X87253Y-62027D01*
X86972Y-62027D01*
X86859Y-61971D01*
X86803Y-61914D01*
X87928Y-60846D02*
X87928Y-61071D01*
X88378Y-60846D02*
X88378Y-61071D01*
X90121Y-62477D02*
X90065Y-62420D01*
X89953Y-62252D01*
X89896Y-62139D01*
X89840Y-61971D01*
X89784Y-61689D01*
X89784Y-61464D01*
X89840Y-61183D01*
X89896Y-61014D01*
X89953Y-60902D01*
X90065Y-60733D01*
X90121Y-60677D01*
X90459Y-60846D02*
X91246Y-60846D01*
X90740Y-62027D01*
X92258Y-60846D02*
X91696Y-60846D01*
X91640Y-61408D01*
X91696Y-61352D01*
X91809Y-61296D01*
X92090Y-61296D01*
X92202Y-61352D01*
X92258Y-61408D01*
X92315Y-61521D01*
X92315Y-61802D01*
X92258Y-61914D01*
X92202Y-61971D01*
X92090Y-62027D01*
X91809Y-62027D01*
X91696Y-61971D01*
X91640Y-61914D01*
X93721Y-62027D02*
X93721Y-60846D01*
X94227Y-62027D02*
X94227Y-61408D01*
X94171Y-61296D01*
X94058Y-61239D01*
X93890Y-61239D01*
X93777Y-61296D01*
X93721Y-61352D01*
X94958Y-62027D02*
X94846Y-61971D01*
X94789Y-61914D01*
X94733Y-61802D01*
X94733Y-61464D01*
X94789Y-61352D01*
X94846Y-61296D01*
X94958Y-61239D01*
X95127Y-61239D01*
X95239Y-61296D01*
X95296Y-61352D01*
X95352Y-61464D01*
X95352Y-61802D01*
X95296Y-61914D01*
X95239Y-61971D01*
X95127Y-62027D01*
X94958Y-62027D01*
X96027Y-62027D02*
X95914Y-61971D01*
X95858Y-61858D01*
X95858Y-60846D01*
X96927Y-61971D02*
X96814Y-62027D01*
X96589Y-62027D01*
X96477Y-61971D01*
X96420Y-61858D01*
X96420Y-61408D01*
X96477Y-61296D01*
X96589Y-61239D01*
X96814Y-61239D01*
X96927Y-61296D01*
X96983Y-61408D01*
X96983Y-61521D01*
X96420Y-61633D01*
X97433Y-61971D02*
X97545Y-62027D01*
X97770Y-62027D01*
X97883Y-61971D01*
X97939Y-61858D01*
X97939Y-61802D01*
X97883Y-61689D01*
X97770Y-61633D01*
X97602Y-61633D01*
X97489Y-61577D01*
X97433Y-61464D01*
X97433Y-61408D01*
X97489Y-61296D01*
X97602Y-61239D01*
X97770Y-61239D01*
X97883Y-61296D01*
X98333Y-62477D02*
X98389Y-62420D01*
X98501Y-62252D01*
X98558Y-62139D01*
X98614Y-61971D01*
X98670Y-61689D01*
X98670Y-61464D01*
X98614Y-61183D01*
X98558Y-61014D01*
X98501Y-60902D01*
X98389Y-60733D01*
X98333Y-60677D01*
G54D12*
X71730Y-63108D02*
G75*
G03X71730Y-63108I-210J0D01*
G74*
G01*
G54D13*
X73417Y-63586D02*
X72742Y-63586D01*
X73080Y-63586D02*
X73080Y-62405D01*
X72967Y-62573D01*
X72855Y-62686D01*
X72742Y-62742D01*
X73923Y-63473D02*
X73980Y-63530D01*
X73923Y-63586D01*
X73867Y-63530D01*
X73923Y-63473D01*
X73923Y-63586D01*
X74711Y-62405D02*
X74823Y-62405D01*
X74936Y-62461D01*
X74992Y-62517D01*
X75048Y-62630D01*
X75104Y-62855D01*
X75104Y-63136D01*
X75048Y-63361D01*
X74992Y-63473D01*
X74936Y-63530D01*
X74823Y-63586D01*
X74711Y-63586D01*
X74598Y-63530D01*
X74542Y-63473D01*
X74486Y-63361D01*
X74429Y-63136D01*
X74429Y-62855D01*
X74486Y-62630D01*
X74542Y-62517D01*
X74598Y-62461D01*
X74711Y-62405D01*
X75498Y-62405D02*
X76285Y-62405D01*
X75779Y-63586D01*
X76735Y-63586D02*
X76735Y-62798D01*
X76735Y-62911D02*
X76792Y-62855D01*
X76904Y-62798D01*
X77073Y-62798D01*
X77185Y-62855D01*
X77242Y-62967D01*
X77242Y-63586D01*
X77242Y-62967D02*
X77298Y-62855D01*
X77410Y-62798D01*
X77579Y-62798D01*
X77692Y-62855D01*
X77748Y-62967D01*
X77748Y-63586D01*
X78310Y-63586D02*
X78310Y-62798D01*
X78310Y-62911D02*
X78366Y-62855D01*
X78479Y-62798D01*
X78648Y-62798D01*
X78760Y-62855D01*
X78816Y-62967D01*
X78816Y-63586D01*
X78816Y-62967D02*
X78873Y-62855D01*
X78985Y-62798D01*
X79154Y-62798D01*
X79266Y-62855D01*
X79323Y-62967D01*
X79323Y-63586D01*
X81629Y-62348D02*
X80616Y-63867D01*
X83147Y-62405D02*
X83260Y-62405D01*
X83372Y-62461D01*
X83428Y-62517D01*
X83485Y-62630D01*
X83541Y-62855D01*
X83541Y-63136D01*
X83485Y-63361D01*
X83428Y-63473D01*
X83372Y-63530D01*
X83260Y-63586D01*
X83147Y-63586D01*
X83035Y-63530D01*
X82978Y-63473D01*
X82922Y-63361D01*
X82866Y-63136D01*
X82866Y-62855D01*
X82922Y-62630D01*
X82978Y-62517D01*
X83035Y-62461D01*
X83147Y-62405D01*
X84047Y-63473D02*
X84103Y-63530D01*
X84047Y-63586D01*
X83991Y-63530D01*
X84047Y-63473D01*
X84047Y-63586D01*
X84834Y-62405D02*
X84947Y-62405D01*
X85059Y-62461D01*
X85116Y-62517D01*
X85172Y-62630D01*
X85228Y-62855D01*
X85228Y-63136D01*
X85172Y-63361D01*
X85116Y-63473D01*
X85059Y-63530D01*
X84947Y-63586D01*
X84834Y-63586D01*
X84722Y-63530D01*
X84666Y-63473D01*
X84609Y-63361D01*
X84553Y-63136D01*
X84553Y-62855D01*
X84609Y-62630D01*
X84666Y-62517D01*
X84722Y-62461D01*
X84834Y-62405D01*
X86241Y-62798D02*
X86241Y-63586D01*
X85959Y-62348D02*
X85678Y-63192D01*
X86409Y-63192D01*
X86803Y-62517D02*
X86859Y-62461D01*
X86972Y-62405D01*
X87253Y-62405D01*
X87365Y-62461D01*
X87422Y-62517D01*
X87478Y-62630D01*
X87478Y-62742D01*
X87422Y-62911D01*
X86747Y-63586D01*
X87478Y-63586D01*
X87928Y-62405D02*
X87928Y-62630D01*
X88378Y-62405D02*
X88378Y-62630D01*
X90121Y-64036D02*
X90065Y-63980D01*
X89953Y-63811D01*
X89896Y-63698D01*
X89840Y-63530D01*
X89784Y-63248D01*
X89784Y-63023D01*
X89840Y-62742D01*
X89896Y-62573D01*
X89953Y-62461D01*
X90065Y-62292D01*
X90121Y-62236D01*
X91190Y-63586D02*
X90515Y-63586D01*
X90852Y-63586D02*
X90852Y-62405D01*
X90740Y-62573D01*
X90627Y-62686D01*
X90515Y-62742D01*
X91752Y-63586D02*
X91977Y-63586D01*
X92090Y-63530D01*
X92146Y-63473D01*
X92258Y-63305D01*
X92315Y-63080D01*
X92315Y-62630D01*
X92258Y-62517D01*
X92202Y-62461D01*
X92090Y-62405D01*
X91865Y-62405D01*
X91752Y-62461D01*
X91696Y-62517D01*
X91640Y-62630D01*
X91640Y-62911D01*
X91696Y-63023D01*
X91752Y-63080D01*
X91865Y-63136D01*
X92090Y-63136D01*
X92202Y-63080D01*
X92258Y-63023D01*
X92315Y-62911D01*
X93721Y-63586D02*
X93721Y-62405D01*
X94227Y-63586D02*
X94227Y-62967D01*
X94171Y-62855D01*
X94058Y-62798D01*
X93890Y-62798D01*
X93777Y-62855D01*
X93721Y-62911D01*
X94958Y-63586D02*
X94846Y-63530D01*
X94789Y-63473D01*
X94733Y-63361D01*
X94733Y-63023D01*
X94789Y-62911D01*
X94846Y-62855D01*
X94958Y-62798D01*
X95127Y-62798D01*
X95239Y-62855D01*
X95296Y-62911D01*
X95352Y-63023D01*
X95352Y-63361D01*
X95296Y-63473D01*
X95239Y-63530D01*
X95127Y-63586D01*
X94958Y-63586D01*
X96027Y-63586D02*
X95914Y-63530D01*
X95858Y-63417D01*
X95858Y-62405D01*
X96927Y-63530D02*
X96814Y-63586D01*
X96589Y-63586D01*
X96477Y-63530D01*
X96420Y-63417D01*
X96420Y-62967D01*
X96477Y-62855D01*
X96589Y-62798D01*
X96814Y-62798D01*
X96927Y-62855D01*
X96983Y-62967D01*
X96983Y-63080D01*
X96420Y-63192D01*
X97433Y-63530D02*
X97545Y-63586D01*
X97770Y-63586D01*
X97883Y-63530D01*
X97939Y-63417D01*
X97939Y-63361D01*
X97883Y-63248D01*
X97770Y-63192D01*
X97602Y-63192D01*
X97489Y-63136D01*
X97433Y-63023D01*
X97433Y-62967D01*
X97489Y-62855D01*
X97602Y-62798D01*
X97770Y-62798D01*
X97883Y-62855D01*
X98333Y-64036D02*
X98389Y-63980D01*
X98501Y-63811D01*
X98558Y-63698D01*
X98614Y-63530D01*
X98670Y-63248D01*
X98670Y-63023D01*
X98614Y-62742D01*
X98558Y-62573D01*
X98501Y-62461D01*
X98389Y-62292D01*
X98333Y-62236D01*
M02*
