M48
;DRILL file {Pcbnew (2013-jul-07)-stable} date Thu 15 Dec 2016 11:15:11 PM CST
;FORMAT={2:4/ absolute / inch / suppress leading zeros}
FMAT,2
INCH,TZ
T1C0.035
T2C0.042
%
G90
G05
M72
T1
X72500Y-47750
X72500Y-49750
X72500Y-51000
X72500Y-54000
X74250Y-49250
X74250Y-52250
X75250Y-49250
X75250Y-52250
X76250Y-49250
X76250Y-52250
X77250Y-49250
X77250Y-52250
X78250Y-49250
X78250Y-52250
X79250Y-49250
X79250Y-52250
X79250Y-56500
X80000Y-47250
X80250Y-49250
X80250Y-52250
X80250Y-54250
X81250Y-49250
X81250Y-52250
X81250Y-54250
X82250Y-54250
X82250Y-56500
X82750Y-50250
X82750Y-52250
X83000Y-47250
X83250Y-56500
X83500Y-53750
X83500Y-54750
X84250Y-46750
X84250Y-56500
X84500Y-49750
X84500Y-51750
X85250Y-46750
X85250Y-56500
X85500Y-53750
X85500Y-54750
X86250Y-46750
X86250Y-49250
X86250Y-52250
X86250Y-53750
X86250Y-54750
X86250Y-55750
X86250Y-56750
X87250Y-45250
X87250Y-48250
X87250Y-49250
X87250Y-52250
X88250Y-47000
X88250Y-48000
X88250Y-49250
X88250Y-52250
X89250Y-49250
X89250Y-52250
X89250Y-53750
X89250Y-54750
X89250Y-55750
X89250Y-56750
X90250Y-49250
X90250Y-52250
X91250Y-49250
X91250Y-52250
X92250Y-49250
X92250Y-52250
X93250Y-49250
X93250Y-52250
X95000Y-47000
X95000Y-49250
X95000Y-51250
X95000Y-53500
X96000Y-47000
X96000Y-53500
T2
X76250Y-44250
X76250Y-46500
X76250Y-47500
X77250Y-44250
X77250Y-54250
X77250Y-55250
X78250Y-44250
X78750Y-46500
X78750Y-47500
X79250Y-44250
X90250Y-45500
X90250Y-46500
X90750Y-54750
X90750Y-55750
X92750Y-54750
X92750Y-55750
X97000Y-49250
X97000Y-50250
X97000Y-51250
T0
M30
