G04 (created by PCBNEW (2013-jul-07)-stable) date Thu 15 Dec 2016 11:15:19 PM CST*
%MOIN*%
G04 Gerber Fmt 3.4, Leading zero omitted, Abs format*
%FSLAX34Y34*%
G01*
G70*
G90*
G04 APERTURE LIST*
%ADD10C,0.00590551*%
%ADD11C,0.00787402*%
%ADD12C,0.01*%
%ADD13C,0.011811*%
%ADD14C,0.006*%
%ADD15C,0.005*%
%ADD16C,0.008*%
%ADD17C,0.015*%
%ADD18C,0.012*%
%ADD19C,0.003*%
%ADD20C,0.0125*%
%ADD21C,0.0075*%
%ADD22C,0.01125*%
G04 APERTURE END LIST*
G54D10*
G54D11*
X84262Y-45350D02*
G75*
G03X84262Y-45350I-412J0D01*
G74*
G01*
G54D12*
X83766Y-45161D02*
X84014Y-45161D01*
X83880Y-45314D01*
X83938Y-45314D01*
X83976Y-45333D01*
X83995Y-45352D01*
X84014Y-45390D01*
X84014Y-45485D01*
X83995Y-45523D01*
X83976Y-45542D01*
X83938Y-45561D01*
X83823Y-45561D01*
X83785Y-45542D01*
X83766Y-45523D01*
G54D11*
X80303Y-57300D02*
G75*
G03X80303Y-57300I-403J0D01*
G74*
G01*
X79110Y-55600D02*
G75*
G03X79110Y-55600I-460J0D01*
G74*
G01*
G54D12*
X79785Y-57150D02*
X79804Y-57130D01*
X79842Y-57111D01*
X79938Y-57111D01*
X79976Y-57130D01*
X79995Y-57150D01*
X80014Y-57188D01*
X80014Y-57226D01*
X79995Y-57283D01*
X79766Y-57511D01*
X80014Y-57511D01*
X78764Y-55761D02*
X78535Y-55761D01*
X78650Y-55761D02*
X78650Y-55361D01*
X78611Y-55419D01*
X78573Y-55457D01*
X78535Y-55476D01*
G54D13*
X79976Y-43552D02*
X79976Y-43052D01*
X80571Y-43028D02*
X80142Y-43671D01*
X80833Y-43052D02*
X80928Y-43052D01*
X80976Y-43076D01*
X81023Y-43123D01*
X81047Y-43219D01*
X81047Y-43385D01*
X81023Y-43480D01*
X80976Y-43528D01*
X80928Y-43552D01*
X80833Y-43552D01*
X80785Y-43528D01*
X80738Y-43480D01*
X80714Y-43385D01*
X80714Y-43219D01*
X80738Y-43123D01*
X80785Y-43076D01*
X80833Y-43052D01*
X98202Y-48547D02*
X97702Y-48547D01*
X97702Y-48357D01*
X97726Y-48309D01*
X97750Y-48285D01*
X97797Y-48261D01*
X97869Y-48261D01*
X97916Y-48285D01*
X97940Y-48309D01*
X97964Y-48357D01*
X97964Y-48547D01*
X97869Y-48095D02*
X98202Y-48000D01*
X97964Y-47904D01*
X98202Y-47809D01*
X97869Y-47714D01*
X98202Y-47523D02*
X97869Y-47523D01*
X97964Y-47523D02*
X97916Y-47500D01*
X97892Y-47476D01*
X97869Y-47428D01*
X97869Y-47380D01*
G54D11*
X74750Y-45750D02*
X71750Y-45750D01*
X74750Y-42750D02*
X74750Y-45750D01*
X95500Y-45750D02*
X95500Y-42750D01*
X98500Y-45750D02*
X95500Y-45750D01*
X95500Y-54750D02*
X95500Y-57750D01*
X98500Y-54750D02*
X95500Y-54750D01*
X74750Y-54750D02*
X71750Y-54750D01*
X74750Y-57750D02*
X74750Y-54750D01*
G54D12*
X84580Y-43642D02*
X84638Y-43661D01*
X84733Y-43661D01*
X84771Y-43642D01*
X84790Y-43623D01*
X84809Y-43585D01*
X84809Y-43547D01*
X84790Y-43509D01*
X84771Y-43490D01*
X84733Y-43471D01*
X84657Y-43452D01*
X84619Y-43433D01*
X84600Y-43414D01*
X84580Y-43376D01*
X84580Y-43338D01*
X84600Y-43300D01*
X84619Y-43280D01*
X84657Y-43261D01*
X84752Y-43261D01*
X84809Y-43280D01*
X84942Y-43395D02*
X85038Y-43661D01*
X85133Y-43395D02*
X85038Y-43661D01*
X85000Y-43757D01*
X84980Y-43776D01*
X84942Y-43795D01*
X85285Y-43395D02*
X85285Y-43661D01*
X85285Y-43433D02*
X85304Y-43414D01*
X85342Y-43395D01*
X85400Y-43395D01*
X85438Y-43414D01*
X85457Y-43452D01*
X85457Y-43661D01*
X85819Y-43642D02*
X85780Y-43661D01*
X85704Y-43661D01*
X85666Y-43642D01*
X85647Y-43623D01*
X85628Y-43585D01*
X85628Y-43471D01*
X85647Y-43433D01*
X85666Y-43414D01*
X85704Y-43395D01*
X85780Y-43395D01*
X85819Y-43414D01*
X84476Y-44321D02*
X84476Y-43921D01*
X84628Y-43921D01*
X84666Y-43940D01*
X84685Y-43960D01*
X84704Y-43998D01*
X84704Y-44055D01*
X84685Y-44093D01*
X84666Y-44112D01*
X84628Y-44131D01*
X84476Y-44131D01*
X85047Y-44055D02*
X85047Y-44321D01*
X84876Y-44055D02*
X84876Y-44264D01*
X84895Y-44302D01*
X84933Y-44321D01*
X84990Y-44321D01*
X85028Y-44302D01*
X85047Y-44283D01*
X85295Y-44321D02*
X85257Y-44302D01*
X85238Y-44264D01*
X85238Y-43921D01*
X85428Y-44302D02*
X85466Y-44321D01*
X85542Y-44321D01*
X85580Y-44302D01*
X85600Y-44264D01*
X85600Y-44245D01*
X85580Y-44207D01*
X85542Y-44188D01*
X85485Y-44188D01*
X85447Y-44169D01*
X85428Y-44131D01*
X85428Y-44112D01*
X85447Y-44074D01*
X85485Y-44055D01*
X85542Y-44055D01*
X85580Y-44074D01*
X85923Y-44302D02*
X85885Y-44321D01*
X85809Y-44321D01*
X85771Y-44302D01*
X85752Y-44264D01*
X85752Y-44112D01*
X85771Y-44074D01*
X85809Y-44055D01*
X85885Y-44055D01*
X85923Y-44074D01*
X85942Y-44112D01*
X85942Y-44150D01*
X85752Y-44188D01*
X84457Y-44581D02*
X84552Y-44981D01*
X84628Y-44696D01*
X84704Y-44981D01*
X84800Y-44581D01*
X84952Y-44981D02*
X84952Y-44715D01*
X84952Y-44581D02*
X84933Y-44600D01*
X84952Y-44620D01*
X84971Y-44600D01*
X84952Y-44581D01*
X84952Y-44620D01*
X85314Y-44981D02*
X85314Y-44581D01*
X85314Y-44962D02*
X85276Y-44981D01*
X85200Y-44981D01*
X85161Y-44962D01*
X85142Y-44943D01*
X85123Y-44905D01*
X85123Y-44791D01*
X85142Y-44753D01*
X85161Y-44734D01*
X85200Y-44715D01*
X85276Y-44715D01*
X85314Y-44734D01*
X85447Y-44715D02*
X85600Y-44715D01*
X85504Y-44581D02*
X85504Y-44924D01*
X85523Y-44962D01*
X85561Y-44981D01*
X85600Y-44981D01*
X85733Y-44981D02*
X85733Y-44581D01*
X85904Y-44981D02*
X85904Y-44772D01*
X85885Y-44734D01*
X85847Y-44715D01*
X85790Y-44715D01*
X85752Y-44734D01*
X85733Y-44753D01*
X84733Y-45527D02*
X84923Y-45527D01*
X84695Y-45641D02*
X84828Y-45241D01*
X84961Y-45641D01*
X85266Y-45641D02*
X85266Y-45241D01*
X85266Y-45622D02*
X85228Y-45641D01*
X85152Y-45641D01*
X85114Y-45622D01*
X85095Y-45603D01*
X85076Y-45565D01*
X85076Y-45451D01*
X85095Y-45413D01*
X85114Y-45394D01*
X85152Y-45375D01*
X85228Y-45375D01*
X85266Y-45394D01*
X85457Y-45375D02*
X85457Y-45718D01*
X85438Y-45756D01*
X85400Y-45775D01*
X85380Y-45775D01*
X85457Y-45241D02*
X85438Y-45260D01*
X85457Y-45280D01*
X85476Y-45260D01*
X85457Y-45241D01*
X85457Y-45280D01*
X85647Y-45603D02*
X85666Y-45622D01*
X85647Y-45641D01*
X85628Y-45622D01*
X85647Y-45603D01*
X85647Y-45641D01*
X80580Y-57202D02*
X80447Y-57202D01*
X80447Y-57411D02*
X80447Y-57011D01*
X80638Y-57011D01*
X80790Y-57411D02*
X80790Y-57145D01*
X80790Y-57221D02*
X80809Y-57183D01*
X80828Y-57164D01*
X80866Y-57145D01*
X80904Y-57145D01*
X81190Y-57392D02*
X81152Y-57411D01*
X81076Y-57411D01*
X81038Y-57392D01*
X81019Y-57354D01*
X81019Y-57202D01*
X81038Y-57164D01*
X81076Y-57145D01*
X81152Y-57145D01*
X81190Y-57164D01*
X81209Y-57202D01*
X81209Y-57240D01*
X81019Y-57278D01*
X81552Y-57145D02*
X81552Y-57545D01*
X81552Y-57392D02*
X81514Y-57411D01*
X81438Y-57411D01*
X81400Y-57392D01*
X81380Y-57373D01*
X81361Y-57335D01*
X81361Y-57221D01*
X81380Y-57183D01*
X81400Y-57164D01*
X81438Y-57145D01*
X81514Y-57145D01*
X81552Y-57164D01*
X82028Y-57297D02*
X82219Y-57297D01*
X81990Y-57411D02*
X82123Y-57011D01*
X82257Y-57411D01*
X82561Y-57411D02*
X82561Y-57011D01*
X82561Y-57392D02*
X82523Y-57411D01*
X82447Y-57411D01*
X82409Y-57392D01*
X82390Y-57373D01*
X82371Y-57335D01*
X82371Y-57221D01*
X82390Y-57183D01*
X82409Y-57164D01*
X82447Y-57145D01*
X82523Y-57145D01*
X82561Y-57164D01*
X82752Y-57145D02*
X82752Y-57488D01*
X82733Y-57526D01*
X82695Y-57545D01*
X82676Y-57545D01*
X82752Y-57011D02*
X82733Y-57030D01*
X82752Y-57050D01*
X82771Y-57030D01*
X82752Y-57011D01*
X82752Y-57050D01*
X78361Y-53711D02*
X78361Y-53311D01*
X78457Y-53311D01*
X78514Y-53330D01*
X78552Y-53369D01*
X78571Y-53407D01*
X78590Y-53483D01*
X78590Y-53540D01*
X78571Y-53616D01*
X78552Y-53654D01*
X78514Y-53692D01*
X78457Y-53711D01*
X78361Y-53711D01*
X78914Y-53692D02*
X78876Y-53711D01*
X78800Y-53711D01*
X78761Y-53692D01*
X78742Y-53654D01*
X78742Y-53502D01*
X78761Y-53464D01*
X78800Y-53445D01*
X78876Y-53445D01*
X78914Y-53464D01*
X78933Y-53502D01*
X78933Y-53540D01*
X78742Y-53578D01*
X79276Y-53711D02*
X79276Y-53502D01*
X79257Y-53464D01*
X79219Y-53445D01*
X79142Y-53445D01*
X79104Y-53464D01*
X79276Y-53692D02*
X79238Y-53711D01*
X79142Y-53711D01*
X79104Y-53692D01*
X79085Y-53654D01*
X79085Y-53616D01*
X79104Y-53578D01*
X79142Y-53559D01*
X79238Y-53559D01*
X79276Y-53540D01*
X79638Y-53711D02*
X79638Y-53311D01*
X79638Y-53692D02*
X79600Y-53711D01*
X79523Y-53711D01*
X79485Y-53692D01*
X79466Y-53673D01*
X79447Y-53635D01*
X79447Y-53521D01*
X79466Y-53483D01*
X79485Y-53464D01*
X79523Y-53445D01*
X79600Y-53445D01*
X79638Y-53464D01*
X78352Y-53971D02*
X78580Y-53971D01*
X78466Y-54371D02*
X78466Y-53971D01*
X78714Y-54371D02*
X78714Y-54105D01*
X78714Y-53971D02*
X78695Y-53990D01*
X78714Y-54010D01*
X78733Y-53990D01*
X78714Y-53971D01*
X78714Y-54010D01*
X78904Y-54371D02*
X78904Y-54105D01*
X78904Y-54143D02*
X78923Y-54124D01*
X78961Y-54105D01*
X79019Y-54105D01*
X79057Y-54124D01*
X79076Y-54162D01*
X79076Y-54371D01*
X79076Y-54162D02*
X79095Y-54124D01*
X79133Y-54105D01*
X79190Y-54105D01*
X79228Y-54124D01*
X79247Y-54162D01*
X79247Y-54371D01*
X79590Y-54352D02*
X79552Y-54371D01*
X79476Y-54371D01*
X79438Y-54352D01*
X79419Y-54314D01*
X79419Y-54162D01*
X79438Y-54124D01*
X79476Y-54105D01*
X79552Y-54105D01*
X79590Y-54124D01*
X79609Y-54162D01*
X79609Y-54200D01*
X79419Y-54238D01*
X78533Y-54917D02*
X78723Y-54917D01*
X78495Y-55031D02*
X78628Y-54631D01*
X78761Y-55031D01*
X79066Y-55031D02*
X79066Y-54631D01*
X79066Y-55012D02*
X79028Y-55031D01*
X78952Y-55031D01*
X78914Y-55012D01*
X78895Y-54993D01*
X78876Y-54955D01*
X78876Y-54841D01*
X78895Y-54803D01*
X78914Y-54784D01*
X78952Y-54765D01*
X79028Y-54765D01*
X79066Y-54784D01*
X79257Y-54765D02*
X79257Y-55108D01*
X79238Y-55146D01*
X79200Y-55165D01*
X79180Y-55165D01*
X79257Y-54631D02*
X79238Y-54650D01*
X79257Y-54670D01*
X79276Y-54650D01*
X79257Y-54631D01*
X79257Y-54670D01*
X79447Y-54993D02*
X79466Y-55012D01*
X79447Y-55031D01*
X79428Y-55012D01*
X79447Y-54993D01*
X79447Y-55031D01*
G54D13*
X92369Y-56476D02*
X92321Y-56452D01*
X92250Y-56452D01*
X92178Y-56476D01*
X92130Y-56523D01*
X92107Y-56571D01*
X92083Y-56666D01*
X92083Y-56738D01*
X92107Y-56833D01*
X92130Y-56880D01*
X92178Y-56928D01*
X92250Y-56952D01*
X92297Y-56952D01*
X92369Y-56928D01*
X92392Y-56904D01*
X92392Y-56738D01*
X92297Y-56738D01*
X92607Y-56952D02*
X92607Y-56452D01*
X92892Y-56952D01*
X92892Y-56452D01*
X93130Y-56952D02*
X93130Y-56452D01*
X93250Y-56452D01*
X93321Y-56476D01*
X93369Y-56523D01*
X93392Y-56571D01*
X93416Y-56666D01*
X93416Y-56738D01*
X93392Y-56833D01*
X93369Y-56880D01*
X93321Y-56928D01*
X93250Y-56952D01*
X93130Y-56952D01*
X76531Y-56029D02*
X76334Y-56029D01*
X76334Y-56339D02*
X76334Y-55748D01*
X76615Y-55748D01*
X76840Y-56339D02*
X76840Y-55945D01*
X76840Y-56057D02*
X76868Y-56001D01*
X76896Y-55973D01*
X76953Y-55945D01*
X77009Y-55945D01*
X77431Y-56310D02*
X77374Y-56339D01*
X77262Y-56339D01*
X77206Y-56310D01*
X77178Y-56254D01*
X77178Y-56029D01*
X77206Y-55973D01*
X77262Y-55945D01*
X77374Y-55945D01*
X77431Y-55973D01*
X77459Y-56029D01*
X77459Y-56085D01*
X77178Y-56142D01*
X77965Y-55945D02*
X77965Y-56535D01*
X77965Y-56310D02*
X77909Y-56339D01*
X77796Y-56339D01*
X77740Y-56310D01*
X77712Y-56282D01*
X77684Y-56226D01*
X77684Y-56057D01*
X77712Y-56001D01*
X77740Y-55973D01*
X77796Y-55945D01*
X77909Y-55945D01*
X77965Y-55973D01*
X90523Y-56952D02*
X90523Y-56452D01*
X90761Y-56619D02*
X90761Y-56952D01*
X90761Y-56666D02*
X90785Y-56642D01*
X90833Y-56619D01*
X90904Y-56619D01*
X90952Y-56642D01*
X90976Y-56690D01*
X90976Y-56952D01*
X79456Y-45898D02*
X79568Y-45898D01*
X79625Y-45926D01*
X79681Y-45982D01*
X79709Y-46095D01*
X79709Y-46292D01*
X79681Y-46404D01*
X79625Y-46460D01*
X79568Y-46489D01*
X79456Y-46489D01*
X79400Y-46460D01*
X79343Y-46404D01*
X79315Y-46292D01*
X79315Y-46095D01*
X79343Y-45982D01*
X79400Y-45926D01*
X79456Y-45898D01*
X80215Y-46095D02*
X80215Y-46489D01*
X79962Y-46095D02*
X79962Y-46404D01*
X79990Y-46460D01*
X80046Y-46489D01*
X80131Y-46489D01*
X80187Y-46460D01*
X80215Y-46432D01*
X80412Y-46095D02*
X80637Y-46095D01*
X80496Y-45898D02*
X80496Y-46404D01*
X80525Y-46460D01*
X80581Y-46489D01*
X80637Y-46489D01*
X81256Y-46095D02*
X81678Y-46095D01*
X81424Y-45842D02*
X81256Y-46601D01*
X81621Y-46348D02*
X81199Y-46348D01*
X81453Y-46601D02*
X81621Y-45842D01*
X81846Y-45954D02*
X81874Y-45926D01*
X81931Y-45898D01*
X82071Y-45898D01*
X82127Y-45926D01*
X82156Y-45954D01*
X82184Y-46010D01*
X82184Y-46067D01*
X82156Y-46151D01*
X81818Y-46489D01*
X82184Y-46489D01*
X72956Y-46148D02*
X73068Y-46148D01*
X73125Y-46176D01*
X73181Y-46232D01*
X73209Y-46345D01*
X73209Y-46542D01*
X73181Y-46654D01*
X73125Y-46710D01*
X73068Y-46739D01*
X72956Y-46739D01*
X72900Y-46710D01*
X72843Y-46654D01*
X72815Y-46542D01*
X72815Y-46345D01*
X72843Y-46232D01*
X72900Y-46176D01*
X72956Y-46148D01*
X73715Y-46345D02*
X73715Y-46739D01*
X73462Y-46345D02*
X73462Y-46654D01*
X73490Y-46710D01*
X73546Y-46739D01*
X73631Y-46739D01*
X73687Y-46710D01*
X73715Y-46682D01*
X73912Y-46345D02*
X74137Y-46345D01*
X73996Y-46148D02*
X73996Y-46654D01*
X74025Y-46710D01*
X74081Y-46739D01*
X74137Y-46739D01*
X74756Y-46345D02*
X75178Y-46345D01*
X74924Y-46092D02*
X74756Y-46851D01*
X75121Y-46598D02*
X74699Y-46598D01*
X74953Y-46851D02*
X75121Y-46092D01*
X75684Y-46739D02*
X75346Y-46739D01*
X75515Y-46739D02*
X75515Y-46148D01*
X75459Y-46232D01*
X75402Y-46289D01*
X75346Y-46317D01*
X89336Y-44710D02*
X89420Y-44739D01*
X89561Y-44739D01*
X89617Y-44710D01*
X89645Y-44682D01*
X89673Y-44626D01*
X89673Y-44570D01*
X89645Y-44514D01*
X89617Y-44485D01*
X89561Y-44457D01*
X89448Y-44429D01*
X89392Y-44401D01*
X89364Y-44373D01*
X89336Y-44317D01*
X89336Y-44260D01*
X89364Y-44204D01*
X89392Y-44176D01*
X89448Y-44148D01*
X89589Y-44148D01*
X89673Y-44176D01*
X89870Y-44345D02*
X90010Y-44739D01*
X90151Y-44345D02*
X90010Y-44739D01*
X89954Y-44879D01*
X89926Y-44907D01*
X89870Y-44935D01*
X90376Y-44345D02*
X90376Y-44739D01*
X90376Y-44401D02*
X90404Y-44373D01*
X90460Y-44345D01*
X90545Y-44345D01*
X90601Y-44373D01*
X90629Y-44429D01*
X90629Y-44739D01*
X91163Y-44710D02*
X91107Y-44739D01*
X90995Y-44739D01*
X90938Y-44710D01*
X90910Y-44682D01*
X90882Y-44626D01*
X90882Y-44457D01*
X90910Y-44401D01*
X90938Y-44373D01*
X90995Y-44345D01*
X91107Y-44345D01*
X91163Y-44373D01*
G54D14*
X73100Y-54400D02*
X73100Y-50600D01*
X73000Y-50500D02*
X72000Y-50500D01*
X71900Y-50600D02*
X71900Y-54400D01*
X72000Y-54500D02*
X73000Y-54500D01*
X73000Y-54500D02*
G75*
G03X73100Y-54400I0J100D01*
G74*
G01*
X71900Y-54400D02*
G75*
G03X72000Y-54500I100J0D01*
G74*
G01*
X72000Y-50500D02*
G75*
G03X71900Y-50600I0J-100D01*
G74*
G01*
X73100Y-50600D02*
G75*
G03X73000Y-50500I-100J0D01*
G74*
G01*
X83400Y-46650D02*
X79600Y-46650D01*
X79500Y-46750D02*
X79500Y-47750D01*
X79600Y-47850D02*
X83400Y-47850D01*
X83500Y-47750D02*
X83500Y-46750D01*
X83500Y-46750D02*
G75*
G03X83400Y-46650I-100J0D01*
G74*
G01*
X83400Y-47850D02*
G75*
G03X83500Y-47750I0J100D01*
G74*
G01*
X79500Y-47750D02*
G75*
G03X79600Y-47850I100J0D01*
G74*
G01*
X79600Y-46650D02*
G75*
G03X79500Y-46750I0J-100D01*
G74*
G01*
G54D15*
X96501Y-47000D02*
G75*
G03X96501Y-47000I-1001J0D01*
G74*
G01*
X96501Y-53500D02*
G75*
G03X96501Y-53500I-1001J0D01*
G74*
G01*
G54D16*
X93100Y-54500D02*
X93100Y-55950D01*
X93100Y-55950D02*
X92900Y-56150D01*
X92900Y-56150D02*
X92600Y-56150D01*
X92600Y-56150D02*
X92400Y-55950D01*
X92400Y-55950D02*
X92400Y-54500D01*
X92400Y-54500D02*
X92600Y-54300D01*
X92600Y-54300D02*
X92900Y-54300D01*
X92900Y-54300D02*
X93100Y-54500D01*
X78400Y-47750D02*
X78400Y-46300D01*
X78400Y-46300D02*
X78600Y-46100D01*
X78600Y-46100D02*
X78900Y-46100D01*
X78900Y-46100D02*
X79100Y-46300D01*
X79100Y-46300D02*
X79100Y-47750D01*
X79100Y-47750D02*
X78900Y-47950D01*
X78900Y-47950D02*
X78600Y-47950D01*
X78600Y-47950D02*
X78400Y-47750D01*
X75900Y-47750D02*
X75900Y-46300D01*
X75900Y-46300D02*
X76100Y-46100D01*
X76100Y-46100D02*
X76400Y-46100D01*
X76400Y-46100D02*
X76600Y-46300D01*
X76600Y-46300D02*
X76600Y-47750D01*
X76600Y-47750D02*
X76400Y-47950D01*
X76400Y-47950D02*
X76100Y-47950D01*
X76100Y-47950D02*
X75900Y-47750D01*
X76900Y-55500D02*
X76900Y-54050D01*
X76900Y-54050D02*
X77100Y-53850D01*
X77100Y-53850D02*
X77400Y-53850D01*
X77400Y-53850D02*
X77600Y-54050D01*
X77600Y-54050D02*
X77600Y-55500D01*
X77600Y-55500D02*
X77400Y-55700D01*
X77400Y-55700D02*
X77100Y-55700D01*
X77100Y-55700D02*
X76900Y-55500D01*
X89900Y-46750D02*
X89900Y-45300D01*
X89900Y-45300D02*
X90100Y-45100D01*
X90100Y-45100D02*
X90400Y-45100D01*
X90400Y-45100D02*
X90600Y-45300D01*
X90600Y-45300D02*
X90600Y-46750D01*
X90600Y-46750D02*
X90400Y-46950D01*
X90400Y-46950D02*
X90100Y-46950D01*
X90100Y-46950D02*
X89900Y-46750D01*
X90400Y-56000D02*
X90400Y-54550D01*
X90400Y-54550D02*
X90600Y-54350D01*
X90600Y-54350D02*
X90900Y-54350D01*
X90900Y-54350D02*
X91100Y-54550D01*
X91100Y-54550D02*
X91100Y-56000D01*
X91100Y-56000D02*
X90900Y-56200D01*
X90900Y-56200D02*
X90600Y-56200D01*
X90600Y-56200D02*
X90400Y-56000D01*
X87250Y-45250D02*
X87250Y-45450D01*
X87250Y-48250D02*
X87250Y-48050D01*
X87250Y-48050D02*
X87650Y-48050D01*
X87650Y-48050D02*
X87650Y-45450D01*
X87650Y-45450D02*
X86850Y-45450D01*
X86850Y-45450D02*
X86850Y-48050D01*
X86850Y-48050D02*
X87250Y-48050D01*
X87450Y-45450D02*
X87650Y-45650D01*
X89250Y-53750D02*
X89050Y-53750D01*
X86250Y-53750D02*
X86450Y-53750D01*
X86450Y-53750D02*
X86450Y-54150D01*
X86450Y-54150D02*
X89050Y-54150D01*
X89050Y-54150D02*
X89050Y-53350D01*
X89050Y-53350D02*
X86450Y-53350D01*
X86450Y-53350D02*
X86450Y-53750D01*
X89050Y-53950D02*
X88850Y-54150D01*
X89250Y-54750D02*
X89050Y-54750D01*
X86250Y-54750D02*
X86450Y-54750D01*
X86450Y-54750D02*
X86450Y-55150D01*
X86450Y-55150D02*
X89050Y-55150D01*
X89050Y-55150D02*
X89050Y-54350D01*
X89050Y-54350D02*
X86450Y-54350D01*
X86450Y-54350D02*
X86450Y-54750D01*
X89050Y-54950D02*
X88850Y-55150D01*
X82250Y-56500D02*
X82050Y-56500D01*
X79250Y-56500D02*
X79450Y-56500D01*
X79450Y-56500D02*
X79450Y-56900D01*
X79450Y-56900D02*
X82050Y-56900D01*
X82050Y-56900D02*
X82050Y-56100D01*
X82050Y-56100D02*
X79450Y-56100D01*
X79450Y-56100D02*
X79450Y-56500D01*
X82050Y-56700D02*
X81850Y-56900D01*
G54D17*
X73250Y-50250D02*
X73250Y-50250D01*
X73250Y-50250D02*
X73750Y-50250D01*
X73750Y-50250D02*
X73750Y-51250D01*
X73750Y-51250D02*
X73250Y-51250D01*
X73250Y-49750D02*
X82250Y-49750D01*
X82250Y-49750D02*
X82250Y-51750D01*
X82250Y-51750D02*
X73250Y-51750D01*
X73250Y-51750D02*
X73250Y-49750D01*
X85250Y-50250D02*
X85250Y-50250D01*
X85250Y-50250D02*
X85750Y-50250D01*
X85750Y-50250D02*
X85750Y-51250D01*
X85750Y-51250D02*
X85250Y-51250D01*
X85250Y-49750D02*
X94250Y-49750D01*
X94250Y-49750D02*
X94250Y-51750D01*
X94250Y-51750D02*
X85250Y-51750D01*
X85250Y-51750D02*
X85250Y-49750D01*
G54D18*
X72900Y-47350D02*
X72900Y-50150D01*
X72900Y-50150D02*
X72100Y-50150D01*
X72100Y-50150D02*
X72100Y-47350D01*
X72100Y-47350D02*
X72900Y-47350D01*
X72700Y-47350D02*
X72900Y-47550D01*
X95400Y-48850D02*
X95400Y-51650D01*
X95400Y-51650D02*
X94600Y-51650D01*
X94600Y-51650D02*
X94600Y-48850D01*
X94600Y-48850D02*
X95400Y-48850D01*
X95200Y-48850D02*
X95400Y-49050D01*
X84100Y-52150D02*
X84100Y-49350D01*
X84100Y-49350D02*
X84900Y-49350D01*
X84900Y-49350D02*
X84900Y-52150D01*
X84900Y-52150D02*
X84100Y-52150D01*
X84300Y-52150D02*
X84100Y-51950D01*
X83150Y-49850D02*
X83150Y-52650D01*
X83150Y-52650D02*
X82350Y-52650D01*
X82350Y-52650D02*
X82350Y-49850D01*
X82350Y-49850D02*
X83150Y-49850D01*
X82950Y-49850D02*
X83150Y-50050D01*
X85900Y-55150D02*
X83100Y-55150D01*
X83100Y-55150D02*
X83100Y-54350D01*
X83100Y-54350D02*
X85900Y-54350D01*
X85900Y-54350D02*
X85900Y-55150D01*
X85900Y-54950D02*
X85700Y-55150D01*
X85900Y-54150D02*
X83100Y-54150D01*
X83100Y-54150D02*
X83100Y-53350D01*
X83100Y-53350D02*
X85900Y-53350D01*
X85900Y-53350D02*
X85900Y-54150D01*
X85900Y-53950D02*
X85700Y-54150D01*
X88750Y-46520D02*
X88750Y-48500D01*
X88750Y-48500D02*
X87750Y-48500D01*
X87750Y-48500D02*
X87750Y-46500D01*
X87750Y-46500D02*
X88750Y-46500D01*
X88500Y-46500D02*
X88750Y-46750D01*
G54D12*
X75750Y-43000D02*
X79750Y-43000D01*
X79750Y-43000D02*
X79750Y-43750D01*
X79750Y-43750D02*
X79750Y-45500D01*
X79750Y-45500D02*
X75750Y-45500D01*
X75750Y-45500D02*
X75750Y-43750D01*
X75750Y-43750D02*
X75750Y-43000D01*
X75750Y-43750D02*
X79750Y-43750D01*
X95750Y-51750D02*
X95750Y-48750D01*
X95750Y-48750D02*
X96500Y-48750D01*
X96500Y-48750D02*
X98250Y-48750D01*
X98250Y-48750D02*
X98250Y-51750D01*
X98250Y-51750D02*
X96500Y-51750D01*
X96500Y-51750D02*
X95750Y-51750D01*
X96500Y-51750D02*
X96500Y-48750D01*
G54D10*
X85350Y-55800D02*
X84700Y-55800D01*
X85150Y-55600D02*
X85350Y-55800D01*
X85350Y-55800D02*
X85150Y-56000D01*
G54D14*
X83000Y-57300D02*
X85500Y-57300D01*
X85500Y-57300D02*
X85500Y-57050D01*
X85500Y-57050D02*
X85500Y-55950D01*
X85500Y-55950D02*
X85500Y-55631D01*
X85500Y-55631D02*
X83000Y-55631D01*
X83000Y-55631D02*
X83000Y-55950D01*
X83000Y-55950D02*
X83000Y-57050D01*
X83000Y-57050D02*
X83000Y-57300D01*
X83200Y-55950D02*
X83600Y-55550D01*
X85250Y-55700D02*
X85250Y-55900D01*
X85200Y-55800D02*
X85200Y-55950D01*
X85200Y-55650D02*
X85200Y-55800D01*
X85150Y-56000D02*
X85150Y-55600D01*
G54D19*
X83647Y-55750D02*
G75*
G03X83647Y-55750I-247J0D01*
G74*
G01*
G54D10*
X80150Y-54950D02*
X80800Y-54950D01*
X80350Y-55150D02*
X80150Y-54950D01*
X80150Y-54950D02*
X80350Y-54750D01*
G54D14*
X82500Y-53450D02*
X80000Y-53450D01*
X80000Y-53450D02*
X80000Y-53700D01*
X80000Y-53700D02*
X80000Y-54800D01*
X80000Y-54800D02*
X80000Y-55119D01*
X80000Y-55119D02*
X82500Y-55119D01*
X82500Y-55119D02*
X82500Y-54800D01*
X82500Y-54800D02*
X82500Y-53700D01*
X82500Y-53700D02*
X82500Y-53450D01*
X82300Y-54800D02*
X81900Y-55200D01*
X80250Y-55050D02*
X80250Y-54850D01*
X80300Y-54950D02*
X80300Y-54800D01*
X80300Y-55100D02*
X80300Y-54950D01*
X80350Y-54750D02*
X80350Y-55150D01*
G54D19*
X82347Y-55000D02*
G75*
G03X82347Y-55000I-247J0D01*
G74*
G01*
G54D10*
X84150Y-47450D02*
X84800Y-47450D01*
X84350Y-47650D02*
X84150Y-47450D01*
X84150Y-47450D02*
X84350Y-47250D01*
G54D14*
X86500Y-45950D02*
X84000Y-45950D01*
X84000Y-45950D02*
X84000Y-46200D01*
X84000Y-46200D02*
X84000Y-47300D01*
X84000Y-47300D02*
X84000Y-47619D01*
X84000Y-47619D02*
X86500Y-47619D01*
X86500Y-47619D02*
X86500Y-47300D01*
X86500Y-47300D02*
X86500Y-46200D01*
X86500Y-46200D02*
X86500Y-45950D01*
X86300Y-47300D02*
X85900Y-47700D01*
X84250Y-47550D02*
X84250Y-47350D01*
X84300Y-47450D02*
X84300Y-47300D01*
X84300Y-47600D02*
X84300Y-47450D01*
X84350Y-47250D02*
X84350Y-47650D01*
G54D19*
X86347Y-47500D02*
G75*
G03X86347Y-47500I-247J0D01*
G74*
G01*
G54D20*
X88550Y-56750D02*
X89250Y-56750D01*
X86950Y-56750D02*
X86250Y-56750D01*
X88350Y-56350D02*
X88350Y-57150D01*
X86950Y-56350D02*
X86950Y-57150D01*
X86950Y-57150D02*
X88550Y-57150D01*
X88550Y-57150D02*
X88550Y-56350D01*
X88550Y-56350D02*
X86950Y-56350D01*
X86950Y-55750D02*
X86250Y-55750D01*
X88550Y-55750D02*
X89250Y-55750D01*
X87150Y-56150D02*
X87150Y-55350D01*
X88550Y-56150D02*
X88550Y-55350D01*
X88550Y-55350D02*
X86950Y-55350D01*
X86950Y-55350D02*
X86950Y-56150D01*
X86950Y-56150D02*
X88550Y-56150D01*
G54D17*
X97900Y-44250D02*
G75*
G03X97900Y-44250I-900J0D01*
G74*
G01*
X74150Y-44250D02*
G75*
G03X74150Y-44250I-900J0D01*
G74*
G01*
X74150Y-56250D02*
G75*
G03X74150Y-56250I-900J0D01*
G74*
G01*
X97900Y-56250D02*
G75*
G03X97900Y-56250I-900J0D01*
G74*
G01*
G54D16*
X72673Y-52566D02*
X72692Y-52585D01*
X72711Y-52642D01*
X72711Y-52680D01*
X72692Y-52738D01*
X72654Y-52776D01*
X72616Y-52795D01*
X72540Y-52814D01*
X72483Y-52814D01*
X72407Y-52795D01*
X72369Y-52776D01*
X72330Y-52738D01*
X72311Y-52680D01*
X72311Y-52642D01*
X72330Y-52585D01*
X72350Y-52566D01*
X72311Y-52204D02*
X72311Y-52395D01*
X72502Y-52414D01*
X72483Y-52395D01*
X72464Y-52357D01*
X72464Y-52261D01*
X72483Y-52223D01*
X72502Y-52204D01*
X72540Y-52185D01*
X72635Y-52185D01*
X72673Y-52204D01*
X72692Y-52223D01*
X72711Y-52261D01*
X72711Y-52357D01*
X72692Y-52395D01*
X72673Y-52414D01*
X73311Y-54307D02*
X73311Y-54269D01*
X73330Y-54230D01*
X73350Y-54211D01*
X73388Y-54192D01*
X73464Y-54173D01*
X73559Y-54173D01*
X73635Y-54192D01*
X73673Y-54211D01*
X73692Y-54230D01*
X73711Y-54269D01*
X73711Y-54307D01*
X73692Y-54345D01*
X73673Y-54364D01*
X73635Y-54383D01*
X73559Y-54402D01*
X73464Y-54402D01*
X73388Y-54383D01*
X73350Y-54364D01*
X73330Y-54345D01*
X73311Y-54307D01*
X73673Y-54002D02*
X73692Y-53983D01*
X73711Y-54002D01*
X73692Y-54021D01*
X73673Y-54002D01*
X73711Y-54002D01*
X73711Y-53602D02*
X73711Y-53830D01*
X73711Y-53716D02*
X73311Y-53716D01*
X73369Y-53754D01*
X73407Y-53792D01*
X73426Y-53830D01*
X73445Y-53259D02*
X73711Y-53259D01*
X73445Y-53430D02*
X73654Y-53430D01*
X73692Y-53411D01*
X73711Y-53373D01*
X73711Y-53316D01*
X73692Y-53278D01*
X73673Y-53259D01*
X73502Y-52935D02*
X73502Y-53069D01*
X73711Y-53069D02*
X73311Y-53069D01*
X73311Y-52878D01*
X81433Y-47423D02*
X81414Y-47442D01*
X81357Y-47461D01*
X81319Y-47461D01*
X81261Y-47442D01*
X81223Y-47404D01*
X81204Y-47366D01*
X81185Y-47290D01*
X81185Y-47233D01*
X81204Y-47157D01*
X81223Y-47119D01*
X81261Y-47080D01*
X81319Y-47061D01*
X81357Y-47061D01*
X81414Y-47080D01*
X81433Y-47100D01*
X81776Y-47061D02*
X81700Y-47061D01*
X81661Y-47080D01*
X81642Y-47100D01*
X81604Y-47157D01*
X81585Y-47233D01*
X81585Y-47385D01*
X81604Y-47423D01*
X81623Y-47442D01*
X81661Y-47461D01*
X81738Y-47461D01*
X81776Y-47442D01*
X81795Y-47423D01*
X81814Y-47385D01*
X81814Y-47290D01*
X81795Y-47252D01*
X81776Y-47233D01*
X81738Y-47214D01*
X81661Y-47214D01*
X81623Y-47233D01*
X81604Y-47252D01*
X81585Y-47290D01*
X80892Y-48011D02*
X80930Y-48011D01*
X80969Y-48030D01*
X80988Y-48050D01*
X81007Y-48088D01*
X81026Y-48164D01*
X81026Y-48259D01*
X81007Y-48335D01*
X80988Y-48373D01*
X80969Y-48392D01*
X80930Y-48411D01*
X80892Y-48411D01*
X80854Y-48392D01*
X80835Y-48373D01*
X80816Y-48335D01*
X80797Y-48259D01*
X80797Y-48164D01*
X80816Y-48088D01*
X80835Y-48050D01*
X80854Y-48030D01*
X80892Y-48011D01*
X81197Y-48373D02*
X81216Y-48392D01*
X81197Y-48411D01*
X81178Y-48392D01*
X81197Y-48373D01*
X81197Y-48411D01*
X81597Y-48411D02*
X81369Y-48411D01*
X81483Y-48411D02*
X81483Y-48011D01*
X81445Y-48069D01*
X81407Y-48107D01*
X81369Y-48126D01*
X81940Y-48145D02*
X81940Y-48411D01*
X81769Y-48145D02*
X81769Y-48354D01*
X81788Y-48392D01*
X81826Y-48411D01*
X81883Y-48411D01*
X81921Y-48392D01*
X81940Y-48373D01*
X82264Y-48202D02*
X82130Y-48202D01*
X82130Y-48411D02*
X82130Y-48011D01*
X82321Y-48011D01*
X97333Y-46573D02*
X97314Y-46592D01*
X97257Y-46611D01*
X97219Y-46611D01*
X97161Y-46592D01*
X97123Y-46554D01*
X97104Y-46516D01*
X97085Y-46440D01*
X97085Y-46383D01*
X97104Y-46307D01*
X97123Y-46269D01*
X97161Y-46230D01*
X97219Y-46211D01*
X97257Y-46211D01*
X97314Y-46230D01*
X97333Y-46250D01*
X97561Y-46383D02*
X97523Y-46364D01*
X97504Y-46345D01*
X97485Y-46307D01*
X97485Y-46288D01*
X97504Y-46250D01*
X97523Y-46230D01*
X97561Y-46211D01*
X97638Y-46211D01*
X97676Y-46230D01*
X97695Y-46250D01*
X97714Y-46288D01*
X97714Y-46307D01*
X97695Y-46345D01*
X97676Y-46364D01*
X97638Y-46383D01*
X97561Y-46383D01*
X97523Y-46402D01*
X97504Y-46421D01*
X97485Y-46459D01*
X97485Y-46535D01*
X97504Y-46573D01*
X97523Y-46592D01*
X97561Y-46611D01*
X97638Y-46611D01*
X97676Y-46592D01*
X97695Y-46573D01*
X97714Y-46535D01*
X97714Y-46459D01*
X97695Y-46421D01*
X97676Y-46402D01*
X97638Y-46383D01*
X97121Y-47161D02*
X96892Y-47161D01*
X97007Y-47161D02*
X97007Y-46761D01*
X96969Y-46819D01*
X96930Y-46857D01*
X96892Y-46876D01*
X97369Y-46761D02*
X97407Y-46761D01*
X97445Y-46780D01*
X97464Y-46800D01*
X97483Y-46838D01*
X97502Y-46914D01*
X97502Y-47009D01*
X97483Y-47085D01*
X97464Y-47123D01*
X97445Y-47142D01*
X97407Y-47161D01*
X97369Y-47161D01*
X97330Y-47142D01*
X97311Y-47123D01*
X97292Y-47085D01*
X97273Y-47009D01*
X97273Y-46914D01*
X97292Y-46838D01*
X97311Y-46800D01*
X97330Y-46780D01*
X97369Y-46761D01*
X97845Y-46895D02*
X97845Y-47161D01*
X97673Y-46895D02*
X97673Y-47104D01*
X97692Y-47142D01*
X97730Y-47161D01*
X97788Y-47161D01*
X97826Y-47142D01*
X97845Y-47123D01*
X98169Y-46952D02*
X98035Y-46952D01*
X98035Y-47161D02*
X98035Y-46761D01*
X98226Y-46761D01*
G54D21*
X96585Y-47007D02*
X96814Y-47007D01*
X96700Y-47121D02*
X96700Y-46892D01*
G54D16*
X97283Y-53423D02*
X97264Y-53442D01*
X97207Y-53461D01*
X97169Y-53461D01*
X97111Y-53442D01*
X97073Y-53404D01*
X97054Y-53366D01*
X97035Y-53290D01*
X97035Y-53233D01*
X97054Y-53157D01*
X97073Y-53119D01*
X97111Y-53080D01*
X97169Y-53061D01*
X97207Y-53061D01*
X97264Y-53080D01*
X97283Y-53100D01*
X97473Y-53461D02*
X97550Y-53461D01*
X97588Y-53442D01*
X97607Y-53423D01*
X97645Y-53366D01*
X97664Y-53290D01*
X97664Y-53138D01*
X97645Y-53100D01*
X97626Y-53080D01*
X97588Y-53061D01*
X97511Y-53061D01*
X97473Y-53080D01*
X97454Y-53100D01*
X97435Y-53138D01*
X97435Y-53233D01*
X97454Y-53271D01*
X97473Y-53290D01*
X97511Y-53309D01*
X97588Y-53309D01*
X97626Y-53290D01*
X97645Y-53271D01*
X97664Y-53233D01*
X97021Y-54111D02*
X96792Y-54111D01*
X96907Y-54111D02*
X96907Y-53711D01*
X96869Y-53769D01*
X96830Y-53807D01*
X96792Y-53826D01*
X97269Y-53711D02*
X97307Y-53711D01*
X97345Y-53730D01*
X97364Y-53750D01*
X97383Y-53788D01*
X97402Y-53864D01*
X97402Y-53959D01*
X97383Y-54035D01*
X97364Y-54073D01*
X97345Y-54092D01*
X97307Y-54111D01*
X97269Y-54111D01*
X97230Y-54092D01*
X97211Y-54073D01*
X97192Y-54035D01*
X97173Y-53959D01*
X97173Y-53864D01*
X97192Y-53788D01*
X97211Y-53750D01*
X97230Y-53730D01*
X97269Y-53711D01*
X97745Y-53845D02*
X97745Y-54111D01*
X97573Y-53845D02*
X97573Y-54054D01*
X97592Y-54092D01*
X97630Y-54111D01*
X97688Y-54111D01*
X97726Y-54092D01*
X97745Y-54073D01*
X98069Y-53902D02*
X97935Y-53902D01*
X97935Y-54111D02*
X97935Y-53711D01*
X98126Y-53711D01*
G54D21*
X96535Y-53507D02*
X96764Y-53507D01*
X96650Y-53621D02*
X96650Y-53392D01*
G54D16*
X92454Y-54211D02*
X92454Y-53811D01*
X92607Y-53811D01*
X92645Y-53830D01*
X92664Y-53850D01*
X92683Y-53888D01*
X92683Y-53945D01*
X92664Y-53983D01*
X92645Y-54002D01*
X92607Y-54021D01*
X92454Y-54021D01*
X92911Y-53983D02*
X92873Y-53964D01*
X92854Y-53945D01*
X92835Y-53907D01*
X92835Y-53888D01*
X92854Y-53850D01*
X92873Y-53830D01*
X92911Y-53811D01*
X92988Y-53811D01*
X93026Y-53830D01*
X93045Y-53850D01*
X93064Y-53888D01*
X93064Y-53907D01*
X93045Y-53945D01*
X93026Y-53964D01*
X92988Y-53983D01*
X92911Y-53983D01*
X92873Y-54002D01*
X92854Y-54021D01*
X92835Y-54059D01*
X92835Y-54135D01*
X92854Y-54173D01*
X92873Y-54192D01*
X92911Y-54211D01*
X92988Y-54211D01*
X93026Y-54192D01*
X93045Y-54173D01*
X93064Y-54135D01*
X93064Y-54059D01*
X93045Y-54021D01*
X93026Y-54002D01*
X92988Y-53983D01*
X78454Y-48461D02*
X78454Y-48061D01*
X78607Y-48061D01*
X78645Y-48080D01*
X78664Y-48100D01*
X78683Y-48138D01*
X78683Y-48195D01*
X78664Y-48233D01*
X78645Y-48252D01*
X78607Y-48271D01*
X78454Y-48271D01*
X79026Y-48061D02*
X78950Y-48061D01*
X78911Y-48080D01*
X78892Y-48100D01*
X78854Y-48157D01*
X78835Y-48233D01*
X78835Y-48385D01*
X78854Y-48423D01*
X78873Y-48442D01*
X78911Y-48461D01*
X78988Y-48461D01*
X79026Y-48442D01*
X79045Y-48423D01*
X79064Y-48385D01*
X79064Y-48290D01*
X79045Y-48252D01*
X79026Y-48233D01*
X78988Y-48214D01*
X78911Y-48214D01*
X78873Y-48233D01*
X78854Y-48252D01*
X78835Y-48290D01*
X75904Y-48461D02*
X75904Y-48061D01*
X76057Y-48061D01*
X76095Y-48080D01*
X76114Y-48100D01*
X76133Y-48138D01*
X76133Y-48195D01*
X76114Y-48233D01*
X76095Y-48252D01*
X76057Y-48271D01*
X75904Y-48271D01*
X76495Y-48061D02*
X76304Y-48061D01*
X76285Y-48252D01*
X76304Y-48233D01*
X76342Y-48214D01*
X76438Y-48214D01*
X76476Y-48233D01*
X76495Y-48252D01*
X76514Y-48290D01*
X76514Y-48385D01*
X76495Y-48423D01*
X76476Y-48442D01*
X76438Y-48461D01*
X76342Y-48461D01*
X76304Y-48442D01*
X76285Y-48423D01*
X76954Y-53711D02*
X76954Y-53311D01*
X77107Y-53311D01*
X77145Y-53330D01*
X77164Y-53350D01*
X77183Y-53388D01*
X77183Y-53445D01*
X77164Y-53483D01*
X77145Y-53502D01*
X77107Y-53521D01*
X76954Y-53521D01*
X77316Y-53311D02*
X77583Y-53311D01*
X77411Y-53711D01*
X89954Y-47461D02*
X89954Y-47061D01*
X90107Y-47061D01*
X90145Y-47080D01*
X90164Y-47100D01*
X90183Y-47138D01*
X90183Y-47195D01*
X90164Y-47233D01*
X90145Y-47252D01*
X90107Y-47271D01*
X89954Y-47271D01*
X90526Y-47195D02*
X90526Y-47461D01*
X90430Y-47042D02*
X90335Y-47328D01*
X90583Y-47328D01*
X90454Y-54211D02*
X90454Y-53811D01*
X90607Y-53811D01*
X90645Y-53830D01*
X90664Y-53850D01*
X90683Y-53888D01*
X90683Y-53945D01*
X90664Y-53983D01*
X90645Y-54002D01*
X90607Y-54021D01*
X90454Y-54021D01*
X90816Y-53811D02*
X91064Y-53811D01*
X90930Y-53964D01*
X90988Y-53964D01*
X91026Y-53983D01*
X91045Y-54002D01*
X91064Y-54040D01*
X91064Y-54135D01*
X91045Y-54173D01*
X91026Y-54192D01*
X90988Y-54211D01*
X90873Y-54211D01*
X90835Y-54192D01*
X90816Y-54173D01*
X87411Y-47466D02*
X87221Y-47599D01*
X87411Y-47695D02*
X87011Y-47695D01*
X87011Y-47542D01*
X87030Y-47504D01*
X87050Y-47485D01*
X87088Y-47466D01*
X87145Y-47466D01*
X87183Y-47485D01*
X87202Y-47504D01*
X87221Y-47542D01*
X87221Y-47695D01*
X87145Y-47123D02*
X87411Y-47123D01*
X86992Y-47219D02*
X87278Y-47314D01*
X87278Y-47066D01*
X87411Y-46235D02*
X87411Y-46464D01*
X87411Y-46349D02*
X87011Y-46349D01*
X87069Y-46388D01*
X87107Y-46426D01*
X87126Y-46464D01*
X87411Y-46064D02*
X87011Y-46064D01*
X87411Y-45835D02*
X87183Y-46007D01*
X87011Y-45835D02*
X87240Y-46064D01*
X87033Y-53911D02*
X86900Y-53721D01*
X86804Y-53911D02*
X86804Y-53511D01*
X86957Y-53511D01*
X86995Y-53530D01*
X87014Y-53550D01*
X87033Y-53588D01*
X87033Y-53645D01*
X87014Y-53683D01*
X86995Y-53702D01*
X86957Y-53721D01*
X86804Y-53721D01*
X87414Y-53911D02*
X87185Y-53911D01*
X87300Y-53911D02*
X87300Y-53511D01*
X87261Y-53569D01*
X87223Y-53607D01*
X87185Y-53626D01*
X87995Y-53695D02*
X87995Y-53961D01*
X87900Y-53542D02*
X87804Y-53828D01*
X88052Y-53828D01*
X88166Y-53561D02*
X88433Y-53561D01*
X88261Y-53961D01*
X88661Y-53561D02*
X88700Y-53561D01*
X88738Y-53580D01*
X88757Y-53600D01*
X88776Y-53638D01*
X88795Y-53714D01*
X88795Y-53809D01*
X88776Y-53885D01*
X88757Y-53923D01*
X88738Y-53942D01*
X88700Y-53961D01*
X88661Y-53961D01*
X88623Y-53942D01*
X88604Y-53923D01*
X88585Y-53885D01*
X88566Y-53809D01*
X88566Y-53714D01*
X88585Y-53638D01*
X88604Y-53600D01*
X88623Y-53580D01*
X88661Y-53561D01*
X86983Y-54911D02*
X86850Y-54721D01*
X86754Y-54911D02*
X86754Y-54511D01*
X86907Y-54511D01*
X86945Y-54530D01*
X86964Y-54550D01*
X86983Y-54588D01*
X86983Y-54645D01*
X86964Y-54683D01*
X86945Y-54702D01*
X86907Y-54721D01*
X86754Y-54721D01*
X87135Y-54550D02*
X87154Y-54530D01*
X87192Y-54511D01*
X87288Y-54511D01*
X87326Y-54530D01*
X87345Y-54550D01*
X87364Y-54588D01*
X87364Y-54626D01*
X87345Y-54683D01*
X87116Y-54911D01*
X87364Y-54911D01*
X87995Y-54645D02*
X87995Y-54911D01*
X87900Y-54492D02*
X87804Y-54778D01*
X88052Y-54778D01*
X88166Y-54511D02*
X88433Y-54511D01*
X88261Y-54911D01*
X88661Y-54511D02*
X88700Y-54511D01*
X88738Y-54530D01*
X88757Y-54550D01*
X88776Y-54588D01*
X88795Y-54664D01*
X88795Y-54759D01*
X88776Y-54835D01*
X88757Y-54873D01*
X88738Y-54892D01*
X88700Y-54911D01*
X88661Y-54911D01*
X88623Y-54892D01*
X88604Y-54873D01*
X88585Y-54835D01*
X88566Y-54759D01*
X88566Y-54664D01*
X88585Y-54588D01*
X88604Y-54550D01*
X88623Y-54530D01*
X88661Y-54511D01*
X80083Y-56711D02*
X79950Y-56521D01*
X79854Y-56711D02*
X79854Y-56311D01*
X80007Y-56311D01*
X80045Y-56330D01*
X80064Y-56350D01*
X80083Y-56388D01*
X80083Y-56445D01*
X80064Y-56483D01*
X80045Y-56502D01*
X80007Y-56521D01*
X79854Y-56521D01*
X80426Y-56311D02*
X80350Y-56311D01*
X80311Y-56330D01*
X80292Y-56350D01*
X80254Y-56407D01*
X80235Y-56483D01*
X80235Y-56635D01*
X80254Y-56673D01*
X80273Y-56692D01*
X80311Y-56711D01*
X80388Y-56711D01*
X80426Y-56692D01*
X80445Y-56673D01*
X80464Y-56635D01*
X80464Y-56540D01*
X80445Y-56502D01*
X80426Y-56483D01*
X80388Y-56464D01*
X80311Y-56464D01*
X80273Y-56483D01*
X80254Y-56502D01*
X80235Y-56540D01*
X81314Y-56711D02*
X81085Y-56711D01*
X81200Y-56711D02*
X81200Y-56311D01*
X81161Y-56369D01*
X81123Y-56407D01*
X81085Y-56426D01*
X81485Y-56711D02*
X81485Y-56311D01*
X81714Y-56711D02*
X81542Y-56483D01*
X81714Y-56311D02*
X81485Y-56540D01*
G54D22*
X74907Y-49892D02*
X74907Y-50378D01*
X74928Y-50435D01*
X74950Y-50464D01*
X74992Y-50492D01*
X75078Y-50492D01*
X75121Y-50464D01*
X75142Y-50435D01*
X75164Y-50378D01*
X75164Y-49892D01*
X75357Y-49950D02*
X75378Y-49921D01*
X75421Y-49892D01*
X75528Y-49892D01*
X75571Y-49921D01*
X75592Y-49950D01*
X75614Y-50007D01*
X75614Y-50064D01*
X75592Y-50150D01*
X75335Y-50492D01*
X75614Y-50492D01*
G54D18*
G54D22*
X77039Y-51464D02*
X77103Y-51492D01*
X77210Y-51492D01*
X77253Y-51464D01*
X77275Y-51435D01*
X77296Y-51378D01*
X77296Y-51321D01*
X77275Y-51264D01*
X77253Y-51235D01*
X77210Y-51207D01*
X77125Y-51178D01*
X77082Y-51150D01*
X77060Y-51121D01*
X77039Y-51064D01*
X77039Y-51007D01*
X77060Y-50950D01*
X77082Y-50921D01*
X77125Y-50892D01*
X77232Y-50892D01*
X77296Y-50921D01*
X77725Y-50921D02*
X77682Y-50892D01*
X77617Y-50892D01*
X77553Y-50921D01*
X77510Y-50978D01*
X77489Y-51035D01*
X77467Y-51150D01*
X77467Y-51235D01*
X77489Y-51350D01*
X77510Y-51407D01*
X77553Y-51464D01*
X77617Y-51492D01*
X77660Y-51492D01*
X77725Y-51464D01*
X77746Y-51435D01*
X77746Y-51235D01*
X77660Y-51235D01*
X77896Y-50892D02*
X78175Y-50892D01*
X78025Y-51121D01*
X78089Y-51121D01*
X78132Y-51150D01*
X78153Y-51178D01*
X78175Y-51235D01*
X78175Y-51378D01*
X78153Y-51435D01*
X78132Y-51464D01*
X78089Y-51492D01*
X77960Y-51492D01*
X77917Y-51464D01*
X77896Y-51435D01*
X78582Y-50892D02*
X78367Y-50892D01*
X78346Y-51178D01*
X78367Y-51150D01*
X78410Y-51121D01*
X78517Y-51121D01*
X78560Y-51150D01*
X78582Y-51178D01*
X78603Y-51235D01*
X78603Y-51378D01*
X78582Y-51435D01*
X78560Y-51464D01*
X78517Y-51492D01*
X78410Y-51492D01*
X78367Y-51464D01*
X78346Y-51435D01*
X78775Y-50950D02*
X78796Y-50921D01*
X78839Y-50892D01*
X78946Y-50892D01*
X78989Y-50921D01*
X79010Y-50950D01*
X79032Y-51007D01*
X79032Y-51064D01*
X79010Y-51150D01*
X78753Y-51492D01*
X79032Y-51492D01*
X79439Y-50892D02*
X79225Y-50892D01*
X79203Y-51178D01*
X79225Y-51150D01*
X79267Y-51121D01*
X79375Y-51121D01*
X79417Y-51150D01*
X79439Y-51178D01*
X79460Y-51235D01*
X79460Y-51378D01*
X79439Y-51435D01*
X79417Y-51464D01*
X79375Y-51492D01*
X79267Y-51492D01*
X79225Y-51464D01*
X79203Y-51435D01*
G54D18*
G54D22*
X86907Y-49892D02*
X86907Y-50378D01*
X86928Y-50435D01*
X86950Y-50464D01*
X86992Y-50492D01*
X87078Y-50492D01*
X87121Y-50464D01*
X87142Y-50435D01*
X87164Y-50378D01*
X87164Y-49892D01*
X87614Y-50492D02*
X87357Y-50492D01*
X87485Y-50492D02*
X87485Y-49892D01*
X87442Y-49978D01*
X87400Y-50035D01*
X87357Y-50064D01*
G54D18*
G54D22*
X88846Y-50892D02*
X89146Y-50892D01*
X88953Y-51492D01*
X89510Y-51092D02*
X89510Y-51492D01*
X89403Y-50864D02*
X89296Y-51292D01*
X89575Y-51292D01*
X89960Y-51492D02*
X89746Y-51492D01*
X89746Y-50892D01*
X90089Y-51464D02*
X90153Y-51492D01*
X90260Y-51492D01*
X90303Y-51464D01*
X90325Y-51435D01*
X90346Y-51378D01*
X90346Y-51321D01*
X90325Y-51264D01*
X90303Y-51235D01*
X90260Y-51207D01*
X90175Y-51178D01*
X90132Y-51150D01*
X90110Y-51121D01*
X90089Y-51064D01*
X90089Y-51007D01*
X90110Y-50950D01*
X90132Y-50921D01*
X90175Y-50892D01*
X90282Y-50892D01*
X90346Y-50921D01*
X90775Y-51492D02*
X90517Y-51492D01*
X90646Y-51492D02*
X90646Y-50892D01*
X90603Y-50978D01*
X90560Y-51035D01*
X90517Y-51064D01*
X90946Y-50950D02*
X90967Y-50921D01*
X91010Y-50892D01*
X91117Y-50892D01*
X91160Y-50921D01*
X91182Y-50950D01*
X91203Y-51007D01*
X91203Y-51064D01*
X91182Y-51150D01*
X90925Y-51492D01*
X91203Y-51492D01*
X91353Y-50892D02*
X91632Y-50892D01*
X91482Y-51121D01*
X91546Y-51121D01*
X91589Y-51150D01*
X91610Y-51178D01*
X91632Y-51235D01*
X91632Y-51378D01*
X91610Y-51435D01*
X91589Y-51464D01*
X91546Y-51492D01*
X91417Y-51492D01*
X91374Y-51464D01*
X91353Y-51435D01*
G54D18*
G54D16*
X72623Y-49007D02*
X72642Y-49026D01*
X72661Y-49083D01*
X72661Y-49121D01*
X72642Y-49178D01*
X72604Y-49216D01*
X72566Y-49235D01*
X72490Y-49254D01*
X72433Y-49254D01*
X72357Y-49235D01*
X72319Y-49216D01*
X72280Y-49178D01*
X72261Y-49121D01*
X72261Y-49083D01*
X72280Y-49026D01*
X72300Y-49007D01*
X72661Y-48626D02*
X72661Y-48854D01*
X72661Y-48740D02*
X72261Y-48740D01*
X72319Y-48778D01*
X72357Y-48816D01*
X72376Y-48854D01*
X72661Y-48245D02*
X72661Y-48473D01*
X72661Y-48359D02*
X72261Y-48359D01*
X72319Y-48397D01*
X72357Y-48435D01*
X72376Y-48473D01*
X73111Y-49397D02*
X73111Y-49359D01*
X73130Y-49321D01*
X73150Y-49302D01*
X73188Y-49283D01*
X73264Y-49264D01*
X73359Y-49264D01*
X73435Y-49283D01*
X73473Y-49302D01*
X73492Y-49321D01*
X73511Y-49359D01*
X73511Y-49397D01*
X73492Y-49435D01*
X73473Y-49454D01*
X73435Y-49473D01*
X73359Y-49492D01*
X73264Y-49492D01*
X73188Y-49473D01*
X73150Y-49454D01*
X73130Y-49435D01*
X73111Y-49397D01*
X73473Y-49092D02*
X73492Y-49073D01*
X73511Y-49092D01*
X73492Y-49111D01*
X73473Y-49092D01*
X73511Y-49092D01*
X73111Y-48826D02*
X73111Y-48788D01*
X73130Y-48750D01*
X73150Y-48730D01*
X73188Y-48711D01*
X73264Y-48692D01*
X73359Y-48692D01*
X73435Y-48711D01*
X73473Y-48730D01*
X73492Y-48750D01*
X73511Y-48788D01*
X73511Y-48826D01*
X73492Y-48864D01*
X73473Y-48883D01*
X73435Y-48902D01*
X73359Y-48921D01*
X73264Y-48921D01*
X73188Y-48902D01*
X73150Y-48883D01*
X73130Y-48864D01*
X73111Y-48826D01*
X73511Y-48311D02*
X73511Y-48540D01*
X73511Y-48426D02*
X73111Y-48426D01*
X73169Y-48464D01*
X73207Y-48502D01*
X73226Y-48540D01*
X73245Y-47969D02*
X73511Y-47969D01*
X73245Y-48140D02*
X73454Y-48140D01*
X73492Y-48121D01*
X73511Y-48083D01*
X73511Y-48026D01*
X73492Y-47988D01*
X73473Y-47969D01*
X73302Y-47645D02*
X73302Y-47778D01*
X73511Y-47778D02*
X73111Y-47778D01*
X73111Y-47588D01*
X95123Y-50316D02*
X95142Y-50335D01*
X95161Y-50392D01*
X95161Y-50430D01*
X95142Y-50488D01*
X95104Y-50526D01*
X95066Y-50545D01*
X94990Y-50564D01*
X94933Y-50564D01*
X94857Y-50545D01*
X94819Y-50526D01*
X94780Y-50488D01*
X94761Y-50430D01*
X94761Y-50392D01*
X94780Y-50335D01*
X94800Y-50316D01*
X94761Y-50183D02*
X94761Y-49916D01*
X95161Y-50088D01*
G54D21*
X94314Y-51871D02*
X94342Y-51871D01*
X94371Y-51885D01*
X94385Y-51900D01*
X94400Y-51928D01*
X94414Y-51985D01*
X94414Y-52057D01*
X94400Y-52114D01*
X94385Y-52142D01*
X94371Y-52157D01*
X94342Y-52171D01*
X94314Y-52171D01*
X94285Y-52157D01*
X94271Y-52142D01*
X94257Y-52114D01*
X94242Y-52057D01*
X94242Y-51985D01*
X94257Y-51928D01*
X94271Y-51900D01*
X94285Y-51885D01*
X94314Y-51871D01*
X94542Y-52142D02*
X94557Y-52157D01*
X94542Y-52171D01*
X94528Y-52157D01*
X94542Y-52142D01*
X94542Y-52171D01*
X94742Y-51871D02*
X94771Y-51871D01*
X94800Y-51885D01*
X94814Y-51900D01*
X94828Y-51928D01*
X94842Y-51985D01*
X94842Y-52057D01*
X94828Y-52114D01*
X94814Y-52142D01*
X94800Y-52157D01*
X94771Y-52171D01*
X94742Y-52171D01*
X94714Y-52157D01*
X94700Y-52142D01*
X94685Y-52114D01*
X94671Y-52057D01*
X94671Y-51985D01*
X94685Y-51928D01*
X94700Y-51900D01*
X94714Y-51885D01*
X94742Y-51871D01*
X95128Y-52171D02*
X94957Y-52171D01*
X95042Y-52171D02*
X95042Y-51871D01*
X95014Y-51914D01*
X94985Y-51942D01*
X94957Y-51957D01*
X95385Y-51971D02*
X95385Y-52171D01*
X95257Y-51971D02*
X95257Y-52128D01*
X95271Y-52157D01*
X95300Y-52171D01*
X95342Y-52171D01*
X95371Y-52157D01*
X95385Y-52142D01*
X95628Y-52014D02*
X95528Y-52014D01*
X95528Y-52171D02*
X95528Y-51871D01*
X95671Y-51871D01*
G54D16*
X84623Y-51007D02*
X84642Y-51026D01*
X84661Y-51083D01*
X84661Y-51121D01*
X84642Y-51178D01*
X84604Y-51216D01*
X84566Y-51235D01*
X84490Y-51254D01*
X84433Y-51254D01*
X84357Y-51235D01*
X84319Y-51216D01*
X84280Y-51178D01*
X84261Y-51121D01*
X84261Y-51083D01*
X84280Y-51026D01*
X84300Y-51007D01*
X84661Y-50626D02*
X84661Y-50854D01*
X84661Y-50740D02*
X84261Y-50740D01*
X84319Y-50778D01*
X84357Y-50816D01*
X84376Y-50854D01*
X84261Y-50378D02*
X84261Y-50340D01*
X84280Y-50302D01*
X84300Y-50283D01*
X84338Y-50264D01*
X84414Y-50245D01*
X84509Y-50245D01*
X84585Y-50264D01*
X84623Y-50283D01*
X84642Y-50302D01*
X84661Y-50340D01*
X84661Y-50378D01*
X84642Y-50416D01*
X84623Y-50435D01*
X84585Y-50454D01*
X84509Y-50473D01*
X84414Y-50473D01*
X84338Y-50454D01*
X84300Y-50435D01*
X84280Y-50416D01*
X84261Y-50378D01*
G54D21*
X83864Y-52271D02*
X83892Y-52271D01*
X83921Y-52285D01*
X83935Y-52300D01*
X83950Y-52328D01*
X83964Y-52385D01*
X83964Y-52457D01*
X83950Y-52514D01*
X83935Y-52542D01*
X83921Y-52557D01*
X83892Y-52571D01*
X83864Y-52571D01*
X83835Y-52557D01*
X83821Y-52542D01*
X83807Y-52514D01*
X83792Y-52457D01*
X83792Y-52385D01*
X83807Y-52328D01*
X83821Y-52300D01*
X83835Y-52285D01*
X83864Y-52271D01*
X84092Y-52542D02*
X84107Y-52557D01*
X84092Y-52571D01*
X84078Y-52557D01*
X84092Y-52542D01*
X84092Y-52571D01*
X84292Y-52271D02*
X84321Y-52271D01*
X84350Y-52285D01*
X84364Y-52300D01*
X84378Y-52328D01*
X84392Y-52385D01*
X84392Y-52457D01*
X84378Y-52514D01*
X84364Y-52542D01*
X84350Y-52557D01*
X84321Y-52571D01*
X84292Y-52571D01*
X84264Y-52557D01*
X84250Y-52542D01*
X84235Y-52514D01*
X84221Y-52457D01*
X84221Y-52385D01*
X84235Y-52328D01*
X84250Y-52300D01*
X84264Y-52285D01*
X84292Y-52271D01*
X84678Y-52571D02*
X84507Y-52571D01*
X84592Y-52571D02*
X84592Y-52271D01*
X84564Y-52314D01*
X84535Y-52342D01*
X84507Y-52357D01*
X84935Y-52371D02*
X84935Y-52571D01*
X84807Y-52371D02*
X84807Y-52528D01*
X84821Y-52557D01*
X84850Y-52571D01*
X84892Y-52571D01*
X84921Y-52557D01*
X84935Y-52542D01*
X85178Y-52414D02*
X85078Y-52414D01*
X85078Y-52571D02*
X85078Y-52271D01*
X85221Y-52271D01*
G54D16*
X82873Y-51316D02*
X82892Y-51335D01*
X82911Y-51392D01*
X82911Y-51430D01*
X82892Y-51488D01*
X82854Y-51526D01*
X82816Y-51545D01*
X82740Y-51564D01*
X82683Y-51564D01*
X82607Y-51545D01*
X82569Y-51526D01*
X82530Y-51488D01*
X82511Y-51430D01*
X82511Y-51392D01*
X82530Y-51335D01*
X82550Y-51316D01*
X82645Y-50973D02*
X82911Y-50973D01*
X82492Y-51069D02*
X82778Y-51164D01*
X82778Y-50916D01*
G54D15*
X83251Y-52633D02*
X83251Y-52609D01*
X83263Y-52585D01*
X83275Y-52573D01*
X83298Y-52561D01*
X83346Y-52550D01*
X83405Y-52550D01*
X83453Y-52561D01*
X83477Y-52573D01*
X83489Y-52585D01*
X83501Y-52609D01*
X83501Y-52633D01*
X83489Y-52657D01*
X83477Y-52669D01*
X83453Y-52680D01*
X83405Y-52692D01*
X83346Y-52692D01*
X83298Y-52680D01*
X83275Y-52669D01*
X83263Y-52657D01*
X83251Y-52633D01*
X83477Y-52442D02*
X83489Y-52430D01*
X83501Y-52442D01*
X83489Y-52454D01*
X83477Y-52442D01*
X83501Y-52442D01*
X83251Y-52276D02*
X83251Y-52252D01*
X83263Y-52228D01*
X83275Y-52216D01*
X83298Y-52204D01*
X83346Y-52192D01*
X83405Y-52192D01*
X83453Y-52204D01*
X83477Y-52216D01*
X83489Y-52228D01*
X83501Y-52252D01*
X83501Y-52276D01*
X83489Y-52300D01*
X83477Y-52311D01*
X83453Y-52323D01*
X83405Y-52335D01*
X83346Y-52335D01*
X83298Y-52323D01*
X83275Y-52311D01*
X83263Y-52300D01*
X83251Y-52276D01*
X83251Y-52038D02*
X83251Y-52014D01*
X83263Y-51990D01*
X83275Y-51978D01*
X83298Y-51966D01*
X83346Y-51954D01*
X83405Y-51954D01*
X83453Y-51966D01*
X83477Y-51978D01*
X83489Y-51990D01*
X83501Y-52014D01*
X83501Y-52038D01*
X83489Y-52061D01*
X83477Y-52073D01*
X83453Y-52085D01*
X83405Y-52097D01*
X83346Y-52097D01*
X83298Y-52085D01*
X83275Y-52073D01*
X83263Y-52061D01*
X83251Y-52038D01*
X83501Y-51716D02*
X83501Y-51859D01*
X83501Y-51788D02*
X83251Y-51788D01*
X83286Y-51811D01*
X83310Y-51835D01*
X83322Y-51859D01*
X83334Y-51502D02*
X83501Y-51502D01*
X83334Y-51609D02*
X83465Y-51609D01*
X83489Y-51597D01*
X83501Y-51573D01*
X83501Y-51538D01*
X83489Y-51514D01*
X83477Y-51502D01*
X83370Y-51300D02*
X83370Y-51383D01*
X83501Y-51383D02*
X83251Y-51383D01*
X83251Y-51264D01*
X83596Y-50907D02*
X83584Y-50919D01*
X83548Y-50942D01*
X83525Y-50954D01*
X83489Y-50966D01*
X83429Y-50978D01*
X83382Y-50978D01*
X83322Y-50966D01*
X83286Y-50954D01*
X83263Y-50942D01*
X83227Y-50919D01*
X83215Y-50907D01*
X83501Y-50811D02*
X83251Y-50811D01*
X83429Y-50728D01*
X83251Y-50645D01*
X83501Y-50645D01*
X83501Y-50526D02*
X83334Y-50526D01*
X83251Y-50526D02*
X83263Y-50538D01*
X83275Y-50526D01*
X83263Y-50514D01*
X83251Y-50526D01*
X83275Y-50526D01*
X83489Y-50300D02*
X83501Y-50323D01*
X83501Y-50371D01*
X83489Y-50395D01*
X83477Y-50407D01*
X83453Y-50419D01*
X83382Y-50419D01*
X83358Y-50407D01*
X83346Y-50395D01*
X83334Y-50371D01*
X83334Y-50323D01*
X83346Y-50300D01*
X83501Y-50085D02*
X83370Y-50085D01*
X83346Y-50097D01*
X83334Y-50121D01*
X83334Y-50169D01*
X83346Y-50192D01*
X83489Y-50085D02*
X83501Y-50109D01*
X83501Y-50169D01*
X83489Y-50192D01*
X83465Y-50204D01*
X83441Y-50204D01*
X83417Y-50192D01*
X83405Y-50169D01*
X83405Y-50109D01*
X83394Y-50085D01*
X83596Y-49990D02*
X83584Y-49978D01*
X83548Y-49954D01*
X83525Y-49942D01*
X83489Y-49930D01*
X83429Y-49919D01*
X83382Y-49919D01*
X83322Y-49930D01*
X83286Y-49942D01*
X83263Y-49954D01*
X83227Y-49978D01*
X83215Y-49990D01*
G54D16*
X84433Y-54873D02*
X84414Y-54892D01*
X84357Y-54911D01*
X84319Y-54911D01*
X84261Y-54892D01*
X84223Y-54854D01*
X84204Y-54816D01*
X84185Y-54740D01*
X84185Y-54683D01*
X84204Y-54607D01*
X84223Y-54569D01*
X84261Y-54530D01*
X84319Y-54511D01*
X84357Y-54511D01*
X84414Y-54530D01*
X84433Y-54550D01*
X84585Y-54550D02*
X84604Y-54530D01*
X84642Y-54511D01*
X84738Y-54511D01*
X84776Y-54530D01*
X84795Y-54550D01*
X84814Y-54588D01*
X84814Y-54626D01*
X84795Y-54683D01*
X84566Y-54911D01*
X84814Y-54911D01*
G54D15*
X82750Y-55123D02*
X82740Y-55114D01*
X82730Y-55095D01*
X82730Y-55047D01*
X82740Y-55028D01*
X82750Y-55019D01*
X82769Y-55009D01*
X82788Y-55009D01*
X82816Y-55019D01*
X82930Y-55133D01*
X82930Y-55009D01*
X82750Y-54933D02*
X82740Y-54923D01*
X82730Y-54904D01*
X82730Y-54857D01*
X82740Y-54838D01*
X82750Y-54828D01*
X82769Y-54819D01*
X82788Y-54819D01*
X82816Y-54828D01*
X82930Y-54942D01*
X82930Y-54819D01*
X82730Y-54695D02*
X82730Y-54676D01*
X82740Y-54657D01*
X82750Y-54647D01*
X82769Y-54638D01*
X82807Y-54628D01*
X82854Y-54628D01*
X82892Y-54638D01*
X82911Y-54647D01*
X82921Y-54657D01*
X82930Y-54676D01*
X82930Y-54695D01*
X82921Y-54714D01*
X82911Y-54723D01*
X82892Y-54733D01*
X82854Y-54742D01*
X82807Y-54742D01*
X82769Y-54733D01*
X82750Y-54723D01*
X82740Y-54714D01*
X82730Y-54695D01*
X82797Y-54542D02*
X82997Y-54542D01*
X82807Y-54542D02*
X82797Y-54523D01*
X82797Y-54485D01*
X82807Y-54466D01*
X82816Y-54457D01*
X82835Y-54447D01*
X82892Y-54447D01*
X82911Y-54457D01*
X82921Y-54466D01*
X82930Y-54485D01*
X82930Y-54523D01*
X82921Y-54542D01*
X82826Y-54295D02*
X82826Y-54361D01*
X82930Y-54361D02*
X82730Y-54361D01*
X82730Y-54266D01*
G54D16*
X84433Y-53873D02*
X84414Y-53892D01*
X84357Y-53911D01*
X84319Y-53911D01*
X84261Y-53892D01*
X84223Y-53854D01*
X84204Y-53816D01*
X84185Y-53740D01*
X84185Y-53683D01*
X84204Y-53607D01*
X84223Y-53569D01*
X84261Y-53530D01*
X84319Y-53511D01*
X84357Y-53511D01*
X84414Y-53530D01*
X84433Y-53550D01*
X84814Y-53911D02*
X84585Y-53911D01*
X84700Y-53911D02*
X84700Y-53511D01*
X84661Y-53569D01*
X84623Y-53607D01*
X84585Y-53626D01*
G54D15*
X82750Y-54073D02*
X82740Y-54064D01*
X82730Y-54045D01*
X82730Y-53997D01*
X82740Y-53978D01*
X82750Y-53969D01*
X82769Y-53959D01*
X82788Y-53959D01*
X82816Y-53969D01*
X82930Y-54083D01*
X82930Y-53959D01*
X82750Y-53883D02*
X82740Y-53873D01*
X82730Y-53854D01*
X82730Y-53807D01*
X82740Y-53788D01*
X82750Y-53778D01*
X82769Y-53769D01*
X82788Y-53769D01*
X82816Y-53778D01*
X82930Y-53892D01*
X82930Y-53769D01*
X82730Y-53645D02*
X82730Y-53626D01*
X82740Y-53607D01*
X82750Y-53597D01*
X82769Y-53588D01*
X82807Y-53578D01*
X82854Y-53578D01*
X82892Y-53588D01*
X82911Y-53597D01*
X82921Y-53607D01*
X82930Y-53626D01*
X82930Y-53645D01*
X82921Y-53664D01*
X82911Y-53673D01*
X82892Y-53683D01*
X82854Y-53692D01*
X82807Y-53692D01*
X82769Y-53683D01*
X82750Y-53673D01*
X82740Y-53664D01*
X82730Y-53645D01*
X82797Y-53492D02*
X82997Y-53492D01*
X82807Y-53492D02*
X82797Y-53473D01*
X82797Y-53435D01*
X82807Y-53416D01*
X82816Y-53407D01*
X82835Y-53397D01*
X82892Y-53397D01*
X82911Y-53407D01*
X82921Y-53416D01*
X82930Y-53435D01*
X82930Y-53473D01*
X82921Y-53492D01*
X82826Y-53245D02*
X82826Y-53311D01*
X82930Y-53311D02*
X82730Y-53311D01*
X82730Y-53216D01*
G54D16*
X88223Y-45966D02*
X88242Y-45985D01*
X88261Y-46042D01*
X88261Y-46080D01*
X88242Y-46138D01*
X88204Y-46176D01*
X88166Y-46195D01*
X88090Y-46214D01*
X88033Y-46214D01*
X87957Y-46195D01*
X87919Y-46176D01*
X87880Y-46138D01*
X87861Y-46080D01*
X87861Y-46042D01*
X87880Y-45985D01*
X87900Y-45966D01*
X87861Y-45833D02*
X87861Y-45585D01*
X88014Y-45719D01*
X88014Y-45661D01*
X88033Y-45623D01*
X88052Y-45604D01*
X88090Y-45585D01*
X88185Y-45585D01*
X88223Y-45604D01*
X88242Y-45623D01*
X88261Y-45661D01*
X88261Y-45776D01*
X88242Y-45814D01*
X88223Y-45833D01*
X88500Y-46257D02*
X88480Y-46238D01*
X88461Y-46199D01*
X88461Y-46104D01*
X88480Y-46066D01*
X88500Y-46047D01*
X88538Y-46028D01*
X88576Y-46028D01*
X88633Y-46047D01*
X88861Y-46276D01*
X88861Y-46028D01*
X88500Y-45876D02*
X88480Y-45857D01*
X88461Y-45819D01*
X88461Y-45723D01*
X88480Y-45685D01*
X88500Y-45666D01*
X88538Y-45647D01*
X88576Y-45647D01*
X88633Y-45666D01*
X88861Y-45895D01*
X88861Y-45647D01*
X88595Y-45476D02*
X88995Y-45476D01*
X88614Y-45476D02*
X88595Y-45438D01*
X88595Y-45361D01*
X88614Y-45323D01*
X88633Y-45304D01*
X88671Y-45285D01*
X88785Y-45285D01*
X88823Y-45304D01*
X88842Y-45323D01*
X88861Y-45361D01*
X88861Y-45438D01*
X88842Y-45476D01*
X88652Y-44980D02*
X88652Y-45114D01*
X88861Y-45114D02*
X88461Y-45114D01*
X88461Y-44923D01*
X74954Y-43561D02*
X74954Y-43161D01*
X75107Y-43161D01*
X75145Y-43180D01*
X75164Y-43200D01*
X75183Y-43238D01*
X75183Y-43295D01*
X75164Y-43333D01*
X75145Y-43352D01*
X75107Y-43371D01*
X74954Y-43371D01*
X75564Y-43561D02*
X75335Y-43561D01*
X75450Y-43561D02*
X75450Y-43161D01*
X75411Y-43219D01*
X75373Y-43257D01*
X75335Y-43276D01*
X98161Y-52595D02*
X97761Y-52595D01*
X97761Y-52442D01*
X97780Y-52404D01*
X97800Y-52385D01*
X97838Y-52366D01*
X97895Y-52366D01*
X97933Y-52385D01*
X97952Y-52404D01*
X97971Y-52442D01*
X97971Y-52595D01*
X97800Y-52214D02*
X97780Y-52195D01*
X97761Y-52157D01*
X97761Y-52061D01*
X97780Y-52023D01*
X97800Y-52004D01*
X97838Y-51985D01*
X97876Y-51985D01*
X97933Y-52004D01*
X98161Y-52233D01*
X98161Y-51985D01*
X83783Y-55561D02*
X83650Y-55371D01*
X83554Y-55561D02*
X83554Y-55161D01*
X83707Y-55161D01*
X83745Y-55180D01*
X83764Y-55200D01*
X83783Y-55238D01*
X83783Y-55295D01*
X83764Y-55333D01*
X83745Y-55352D01*
X83707Y-55371D01*
X83554Y-55371D01*
X84145Y-55161D02*
X83954Y-55161D01*
X83935Y-55352D01*
X83954Y-55333D01*
X83992Y-55314D01*
X84088Y-55314D01*
X84126Y-55333D01*
X84145Y-55352D01*
X84164Y-55390D01*
X84164Y-55485D01*
X84145Y-55523D01*
X84126Y-55542D01*
X84088Y-55561D01*
X83992Y-55561D01*
X83954Y-55542D01*
X83935Y-55523D01*
X84685Y-55200D02*
X84704Y-55180D01*
X84742Y-55161D01*
X84838Y-55161D01*
X84876Y-55180D01*
X84895Y-55200D01*
X84914Y-55238D01*
X84914Y-55276D01*
X84895Y-55333D01*
X84666Y-55561D01*
X84914Y-55561D01*
X85085Y-55561D02*
X85085Y-55161D01*
X85314Y-55561D02*
X85142Y-55333D01*
X85314Y-55161D02*
X85085Y-55390D01*
X80433Y-55711D02*
X80300Y-55521D01*
X80204Y-55711D02*
X80204Y-55311D01*
X80357Y-55311D01*
X80395Y-55330D01*
X80414Y-55350D01*
X80433Y-55388D01*
X80433Y-55445D01*
X80414Y-55483D01*
X80395Y-55502D01*
X80357Y-55521D01*
X80204Y-55521D01*
X80566Y-55311D02*
X80833Y-55311D01*
X80661Y-55711D01*
X81433Y-55711D02*
X81204Y-55711D01*
X81319Y-55711D02*
X81319Y-55311D01*
X81280Y-55369D01*
X81242Y-55407D01*
X81204Y-55426D01*
X81680Y-55311D02*
X81719Y-55311D01*
X81757Y-55330D01*
X81776Y-55350D01*
X81795Y-55388D01*
X81814Y-55464D01*
X81814Y-55559D01*
X81795Y-55635D01*
X81776Y-55673D01*
X81757Y-55692D01*
X81719Y-55711D01*
X81680Y-55711D01*
X81642Y-55692D01*
X81623Y-55673D01*
X81604Y-55635D01*
X81585Y-55559D01*
X81585Y-55464D01*
X81604Y-55388D01*
X81623Y-55350D01*
X81642Y-55330D01*
X81680Y-55311D01*
X82061Y-55311D02*
X82100Y-55311D01*
X82138Y-55330D01*
X82157Y-55350D01*
X82176Y-55388D01*
X82195Y-55464D01*
X82195Y-55559D01*
X82176Y-55635D01*
X82157Y-55673D01*
X82138Y-55692D01*
X82100Y-55711D01*
X82061Y-55711D01*
X82023Y-55692D01*
X82004Y-55673D01*
X81985Y-55635D01*
X81966Y-55559D01*
X81966Y-55464D01*
X81985Y-55388D01*
X82004Y-55350D01*
X82023Y-55330D01*
X82061Y-55311D01*
X85033Y-48111D02*
X84900Y-47921D01*
X84804Y-48111D02*
X84804Y-47711D01*
X84957Y-47711D01*
X84995Y-47730D01*
X85014Y-47750D01*
X85033Y-47788D01*
X85033Y-47845D01*
X85014Y-47883D01*
X84995Y-47902D01*
X84957Y-47921D01*
X84804Y-47921D01*
X85166Y-47711D02*
X85414Y-47711D01*
X85280Y-47864D01*
X85338Y-47864D01*
X85376Y-47883D01*
X85395Y-47902D01*
X85414Y-47940D01*
X85414Y-48035D01*
X85395Y-48073D01*
X85376Y-48092D01*
X85338Y-48111D01*
X85223Y-48111D01*
X85185Y-48092D01*
X85166Y-48073D01*
X84645Y-48400D02*
X84664Y-48380D01*
X84702Y-48361D01*
X84797Y-48361D01*
X84835Y-48380D01*
X84854Y-48400D01*
X84873Y-48438D01*
X84873Y-48476D01*
X84854Y-48533D01*
X84626Y-48761D01*
X84873Y-48761D01*
X85121Y-48361D02*
X85159Y-48361D01*
X85197Y-48380D01*
X85216Y-48400D01*
X85235Y-48438D01*
X85254Y-48514D01*
X85254Y-48609D01*
X85235Y-48685D01*
X85216Y-48723D01*
X85197Y-48742D01*
X85159Y-48761D01*
X85121Y-48761D01*
X85083Y-48742D01*
X85064Y-48723D01*
X85045Y-48685D01*
X85026Y-48609D01*
X85026Y-48514D01*
X85045Y-48438D01*
X85064Y-48400D01*
X85083Y-48380D01*
X85121Y-48361D01*
X85426Y-48761D02*
X85426Y-48361D01*
X85654Y-48761D02*
X85483Y-48533D01*
X85654Y-48361D02*
X85426Y-48590D01*
X87454Y-56911D02*
X87454Y-56511D01*
X87550Y-56511D01*
X87607Y-56530D01*
X87645Y-56569D01*
X87664Y-56607D01*
X87683Y-56683D01*
X87683Y-56740D01*
X87664Y-56816D01*
X87645Y-56854D01*
X87607Y-56892D01*
X87550Y-56911D01*
X87454Y-56911D01*
X88064Y-56911D02*
X87835Y-56911D01*
X87950Y-56911D02*
X87950Y-56511D01*
X87911Y-56569D01*
X87873Y-56607D01*
X87835Y-56626D01*
G54D15*
X88821Y-57380D02*
X88707Y-57380D01*
X88764Y-57380D02*
X88764Y-57180D01*
X88745Y-57209D01*
X88726Y-57228D01*
X88707Y-57238D01*
X88907Y-57380D02*
X88907Y-57180D01*
X89021Y-57380D01*
X89021Y-57180D01*
X89202Y-57247D02*
X89202Y-57380D01*
X89154Y-57171D02*
X89107Y-57314D01*
X89230Y-57314D01*
X89411Y-57380D02*
X89297Y-57380D01*
X89354Y-57380D02*
X89354Y-57180D01*
X89335Y-57209D01*
X89316Y-57228D01*
X89297Y-57238D01*
X89583Y-57247D02*
X89583Y-57380D01*
X89535Y-57171D02*
X89488Y-57314D01*
X89611Y-57314D01*
X89716Y-57266D02*
X89697Y-57257D01*
X89688Y-57247D01*
X89678Y-57228D01*
X89678Y-57219D01*
X89688Y-57200D01*
X89697Y-57190D01*
X89716Y-57180D01*
X89754Y-57180D01*
X89773Y-57190D01*
X89783Y-57200D01*
X89792Y-57219D01*
X89792Y-57228D01*
X89783Y-57247D01*
X89773Y-57257D01*
X89754Y-57266D01*
X89716Y-57266D01*
X89697Y-57276D01*
X89688Y-57285D01*
X89678Y-57304D01*
X89678Y-57342D01*
X89688Y-57361D01*
X89697Y-57371D01*
X89716Y-57380D01*
X89754Y-57380D01*
X89773Y-57371D01*
X89783Y-57361D01*
X89792Y-57342D01*
X89792Y-57304D01*
X89783Y-57285D01*
X89773Y-57276D01*
X89754Y-57266D01*
G54D16*
X87454Y-55911D02*
X87454Y-55511D01*
X87550Y-55511D01*
X87607Y-55530D01*
X87645Y-55569D01*
X87664Y-55607D01*
X87683Y-55683D01*
X87683Y-55740D01*
X87664Y-55816D01*
X87645Y-55854D01*
X87607Y-55892D01*
X87550Y-55911D01*
X87454Y-55911D01*
X87835Y-55550D02*
X87854Y-55530D01*
X87892Y-55511D01*
X87988Y-55511D01*
X88026Y-55530D01*
X88045Y-55550D01*
X88064Y-55588D01*
X88064Y-55626D01*
X88045Y-55683D01*
X87816Y-55911D01*
X88064Y-55911D01*
G54D15*
X88871Y-56330D02*
X88757Y-56330D01*
X88814Y-56330D02*
X88814Y-56130D01*
X88795Y-56159D01*
X88776Y-56178D01*
X88757Y-56188D01*
X88957Y-56330D02*
X88957Y-56130D01*
X89071Y-56330D01*
X89071Y-56130D01*
X89252Y-56197D02*
X89252Y-56330D01*
X89204Y-56121D02*
X89157Y-56264D01*
X89280Y-56264D01*
X89461Y-56330D02*
X89347Y-56330D01*
X89404Y-56330D02*
X89404Y-56130D01*
X89385Y-56159D01*
X89366Y-56178D01*
X89347Y-56188D01*
X89633Y-56197D02*
X89633Y-56330D01*
X89585Y-56121D02*
X89538Y-56264D01*
X89661Y-56264D01*
X89766Y-56216D02*
X89747Y-56207D01*
X89738Y-56197D01*
X89728Y-56178D01*
X89728Y-56169D01*
X89738Y-56150D01*
X89747Y-56140D01*
X89766Y-56130D01*
X89804Y-56130D01*
X89823Y-56140D01*
X89833Y-56150D01*
X89842Y-56169D01*
X89842Y-56178D01*
X89833Y-56197D01*
X89823Y-56207D01*
X89804Y-56216D01*
X89766Y-56216D01*
X89747Y-56226D01*
X89738Y-56235D01*
X89728Y-56254D01*
X89728Y-56292D01*
X89738Y-56311D01*
X89747Y-56321D01*
X89766Y-56330D01*
X89804Y-56330D01*
X89823Y-56321D01*
X89833Y-56311D01*
X89842Y-56292D01*
X89842Y-56254D01*
X89833Y-56235D01*
X89823Y-56226D01*
X89804Y-56216D01*
M02*
