G04 (created by PCBNEW (2013-jul-07)-stable) date Thu 15 Dec 2016 11:15:19 PM CST*
%MOIN*%
G04 Gerber Fmt 3.4, Leading zero omitted, Abs format*
%FSLAX34Y34*%
G01*
G70*
G90*
G04 APERTURE LIST*
%ADD10C,0.00590551*%
%ADD11C,0.0075*%
%ADD12C,0.011811*%
G04 APERTURE END LIST*
G54D10*
G54D11*
X77907Y-43371D02*
X77907Y-43071D01*
X77764Y-43371D02*
X77764Y-43071D01*
X77592Y-43371D01*
X77592Y-43071D01*
X79421Y-43071D02*
X79364Y-43071D01*
X79335Y-43085D01*
X79307Y-43114D01*
X79292Y-43171D01*
X79292Y-43271D01*
X79307Y-43328D01*
X79335Y-43357D01*
X79364Y-43371D01*
X79421Y-43371D01*
X79450Y-43357D01*
X79478Y-43328D01*
X79492Y-43271D01*
X79492Y-43171D01*
X79478Y-43114D01*
X79450Y-43085D01*
X79421Y-43071D01*
X79178Y-43100D02*
X79164Y-43085D01*
X79135Y-43071D01*
X79064Y-43071D01*
X79035Y-43085D01*
X79021Y-43100D01*
X79007Y-43128D01*
X79007Y-43157D01*
X79021Y-43200D01*
X79192Y-43371D01*
X79007Y-43371D01*
X76421Y-43071D02*
X76364Y-43071D01*
X76335Y-43085D01*
X76307Y-43114D01*
X76292Y-43171D01*
X76292Y-43271D01*
X76307Y-43328D01*
X76335Y-43357D01*
X76364Y-43371D01*
X76421Y-43371D01*
X76450Y-43357D01*
X76478Y-43328D01*
X76492Y-43271D01*
X76492Y-43171D01*
X76478Y-43114D01*
X76450Y-43085D01*
X76421Y-43071D01*
X76007Y-43371D02*
X76178Y-43371D01*
X76092Y-43371D02*
X76092Y-43071D01*
X76121Y-43114D01*
X76150Y-43142D01*
X76178Y-43157D01*
X97985Y-51057D02*
X97971Y-51028D01*
X97971Y-50985D01*
X97985Y-50942D01*
X98014Y-50914D01*
X98042Y-50900D01*
X98100Y-50885D01*
X98142Y-50885D01*
X98200Y-50900D01*
X98228Y-50914D01*
X98257Y-50942D01*
X98271Y-50985D01*
X98271Y-51014D01*
X98257Y-51057D01*
X98242Y-51071D01*
X98142Y-51071D01*
X98142Y-51014D01*
X98071Y-51200D02*
X98271Y-51200D01*
X98100Y-51200D02*
X98085Y-51214D01*
X98071Y-51242D01*
X98071Y-51285D01*
X98085Y-51314D01*
X98114Y-51328D01*
X98271Y-51328D01*
X98271Y-51600D02*
X97971Y-51600D01*
X98257Y-51600D02*
X98271Y-51571D01*
X98271Y-51514D01*
X98257Y-51485D01*
X98242Y-51471D01*
X98214Y-51457D01*
X98128Y-51457D01*
X98100Y-51471D01*
X98085Y-51485D01*
X98071Y-51514D01*
X98071Y-51571D01*
X98085Y-51600D01*
X98157Y-49814D02*
X98157Y-50042D01*
X98271Y-49928D02*
X98042Y-49928D01*
X97971Y-50328D02*
X97971Y-50185D01*
X98114Y-50171D01*
X98100Y-50185D01*
X98085Y-50214D01*
X98085Y-50285D01*
X98100Y-50314D01*
X98114Y-50328D01*
X98142Y-50342D01*
X98214Y-50342D01*
X98242Y-50328D01*
X98257Y-50314D01*
X98271Y-50285D01*
X98271Y-50214D01*
X98257Y-50185D01*
X98242Y-50171D01*
X97971Y-50428D02*
X98271Y-50528D01*
X97971Y-50628D01*
X98157Y-48571D02*
X98157Y-48800D01*
X98271Y-48685D02*
X98042Y-48685D01*
X98271Y-49100D02*
X98271Y-48928D01*
X98271Y-49014D02*
X97971Y-49014D01*
X98014Y-48985D01*
X98042Y-48957D01*
X98057Y-48928D01*
X97971Y-49371D02*
X97971Y-49228D01*
X98114Y-49214D01*
X98100Y-49228D01*
X98085Y-49257D01*
X98085Y-49328D01*
X98100Y-49357D01*
X98114Y-49371D01*
X98142Y-49385D01*
X98214Y-49385D01*
X98242Y-49371D01*
X98257Y-49357D01*
X98271Y-49328D01*
X98271Y-49257D01*
X98257Y-49228D01*
X98242Y-49214D01*
X97971Y-49471D02*
X98271Y-49571D01*
X97971Y-49671D01*
G54D12*
X89775Y-43732D02*
X89804Y-43760D01*
X89888Y-43789D01*
X89944Y-43789D01*
X90029Y-43760D01*
X90085Y-43704D01*
X90113Y-43648D01*
X90141Y-43535D01*
X90141Y-43451D01*
X90113Y-43339D01*
X90085Y-43282D01*
X90029Y-43226D01*
X89944Y-43198D01*
X89888Y-43198D01*
X89804Y-43226D01*
X89775Y-43254D01*
X89438Y-43789D02*
X89494Y-43760D01*
X89522Y-43732D01*
X89551Y-43676D01*
X89551Y-43507D01*
X89522Y-43451D01*
X89494Y-43423D01*
X89438Y-43395D01*
X89354Y-43395D01*
X89297Y-43423D01*
X89269Y-43451D01*
X89241Y-43507D01*
X89241Y-43676D01*
X89269Y-43732D01*
X89297Y-43760D01*
X89354Y-43789D01*
X89438Y-43789D01*
X88988Y-43395D02*
X88988Y-43985D01*
X88988Y-43423D02*
X88932Y-43395D01*
X88819Y-43395D01*
X88763Y-43423D01*
X88735Y-43451D01*
X88707Y-43507D01*
X88707Y-43676D01*
X88735Y-43732D01*
X88763Y-43760D01*
X88819Y-43789D01*
X88932Y-43789D01*
X88988Y-43760D01*
X88510Y-43395D02*
X88369Y-43789D01*
X88229Y-43395D02*
X88369Y-43789D01*
X88426Y-43929D01*
X88454Y-43957D01*
X88510Y-43985D01*
X88004Y-43789D02*
X88004Y-43395D01*
X88004Y-43507D02*
X87976Y-43451D01*
X87948Y-43423D01*
X87891Y-43395D01*
X87835Y-43395D01*
X87638Y-43789D02*
X87638Y-43395D01*
X87638Y-43198D02*
X87666Y-43226D01*
X87638Y-43254D01*
X87610Y-43226D01*
X87638Y-43198D01*
X87638Y-43254D01*
X87104Y-43395D02*
X87104Y-43873D01*
X87132Y-43929D01*
X87160Y-43957D01*
X87216Y-43985D01*
X87301Y-43985D01*
X87357Y-43957D01*
X87104Y-43760D02*
X87160Y-43789D01*
X87273Y-43789D01*
X87329Y-43760D01*
X87357Y-43732D01*
X87385Y-43676D01*
X87385Y-43507D01*
X87357Y-43451D01*
X87329Y-43423D01*
X87273Y-43395D01*
X87160Y-43395D01*
X87104Y-43423D01*
X86823Y-43789D02*
X86823Y-43198D01*
X86570Y-43789D02*
X86570Y-43479D01*
X86598Y-43423D01*
X86654Y-43395D01*
X86738Y-43395D01*
X86795Y-43423D01*
X86823Y-43451D01*
X86373Y-43395D02*
X86148Y-43395D01*
X86288Y-43198D02*
X86288Y-43704D01*
X86260Y-43760D01*
X86204Y-43789D01*
X86148Y-43789D01*
X85782Y-44014D02*
X85810Y-43985D01*
X85867Y-43901D01*
X85895Y-43845D01*
X85923Y-43760D01*
X85951Y-43620D01*
X85951Y-43507D01*
X85923Y-43367D01*
X85895Y-43282D01*
X85867Y-43226D01*
X85810Y-43142D01*
X85782Y-43114D01*
X85304Y-43760D02*
X85360Y-43789D01*
X85473Y-43789D01*
X85529Y-43760D01*
X85557Y-43732D01*
X85585Y-43676D01*
X85585Y-43507D01*
X85557Y-43451D01*
X85529Y-43423D01*
X85473Y-43395D01*
X85360Y-43395D01*
X85304Y-43423D01*
X85107Y-44014D02*
X85079Y-43985D01*
X85023Y-43901D01*
X84995Y-43845D01*
X84967Y-43760D01*
X84939Y-43620D01*
X84939Y-43507D01*
X84967Y-43367D01*
X84995Y-43282D01*
X85023Y-43226D01*
X85079Y-43142D01*
X85107Y-43114D01*
X84657Y-43789D02*
X84657Y-43198D01*
X84517Y-43198D01*
X84432Y-43226D01*
X84376Y-43282D01*
X84348Y-43339D01*
X84320Y-43451D01*
X84320Y-43535D01*
X84348Y-43648D01*
X84376Y-43704D01*
X84432Y-43760D01*
X84517Y-43789D01*
X84657Y-43789D01*
X83842Y-43760D02*
X83898Y-43789D01*
X84011Y-43789D01*
X84067Y-43760D01*
X84095Y-43704D01*
X84095Y-43479D01*
X84067Y-43423D01*
X84011Y-43395D01*
X83898Y-43395D01*
X83842Y-43423D01*
X83814Y-43479D01*
X83814Y-43535D01*
X84095Y-43592D01*
X83617Y-43395D02*
X83504Y-43789D01*
X83392Y-43507D01*
X83279Y-43789D01*
X83167Y-43395D01*
X83026Y-43395D02*
X82801Y-43395D01*
X82942Y-43198D02*
X82942Y-43704D01*
X82914Y-43760D01*
X82858Y-43789D01*
X82801Y-43789D01*
X82605Y-43789D02*
X82605Y-43395D01*
X82605Y-43507D02*
X82576Y-43451D01*
X82548Y-43423D01*
X82492Y-43395D01*
X82436Y-43395D01*
X82155Y-43789D02*
X82211Y-43760D01*
X82239Y-43732D01*
X82267Y-43676D01*
X82267Y-43507D01*
X82239Y-43451D01*
X82211Y-43423D01*
X82155Y-43395D01*
X82070Y-43395D01*
X82014Y-43423D01*
X81986Y-43451D01*
X81958Y-43507D01*
X81958Y-43676D01*
X81986Y-43732D01*
X82014Y-43760D01*
X82070Y-43789D01*
X82155Y-43789D01*
X81705Y-43395D02*
X81705Y-43789D01*
X81705Y-43451D02*
X81676Y-43423D01*
X81620Y-43395D01*
X81536Y-43395D01*
X81480Y-43423D01*
X81452Y-43479D01*
X81452Y-43789D01*
X81170Y-43789D02*
X81170Y-43395D01*
X81170Y-43198D02*
X81198Y-43226D01*
X81170Y-43254D01*
X81142Y-43226D01*
X81170Y-43198D01*
X81170Y-43254D01*
X80636Y-43760D02*
X80692Y-43789D01*
X80805Y-43789D01*
X80861Y-43760D01*
X80889Y-43732D01*
X80917Y-43676D01*
X80917Y-43507D01*
X80889Y-43451D01*
X80861Y-43423D01*
X80805Y-43395D01*
X80692Y-43395D01*
X80636Y-43423D01*
X80411Y-43760D02*
X80355Y-43789D01*
X80242Y-43789D01*
X80186Y-43760D01*
X80158Y-43704D01*
X80158Y-43676D01*
X80186Y-43620D01*
X80242Y-43592D01*
X80327Y-43592D01*
X80383Y-43564D01*
X80411Y-43507D01*
X80411Y-43479D01*
X80383Y-43423D01*
X80327Y-43395D01*
X80242Y-43395D01*
X80186Y-43423D01*
X87287Y-44199D02*
X87259Y-44171D01*
X87202Y-44143D01*
X87062Y-44143D01*
X87006Y-44171D01*
X86977Y-44199D01*
X86949Y-44255D01*
X86949Y-44312D01*
X86977Y-44396D01*
X87315Y-44733D01*
X86949Y-44733D01*
X86584Y-44143D02*
X86527Y-44143D01*
X86471Y-44171D01*
X86443Y-44199D01*
X86415Y-44255D01*
X86387Y-44368D01*
X86387Y-44508D01*
X86415Y-44621D01*
X86443Y-44677D01*
X86471Y-44705D01*
X86527Y-44733D01*
X86584Y-44733D01*
X86640Y-44705D01*
X86668Y-44677D01*
X86696Y-44621D01*
X86724Y-44508D01*
X86724Y-44368D01*
X86696Y-44255D01*
X86668Y-44199D01*
X86640Y-44171D01*
X86584Y-44143D01*
X85824Y-44733D02*
X86162Y-44733D01*
X85993Y-44733D02*
X85993Y-44143D01*
X86049Y-44227D01*
X86106Y-44283D01*
X86162Y-44312D01*
X85318Y-44143D02*
X85431Y-44143D01*
X85487Y-44171D01*
X85515Y-44199D01*
X85571Y-44283D01*
X85599Y-44396D01*
X85599Y-44621D01*
X85571Y-44677D01*
X85543Y-44705D01*
X85487Y-44733D01*
X85374Y-44733D01*
X85318Y-44705D01*
X85290Y-44677D01*
X85262Y-44621D01*
X85262Y-44480D01*
X85290Y-44424D01*
X85318Y-44396D01*
X85374Y-44368D01*
X85487Y-44368D01*
X85543Y-44396D01*
X85571Y-44424D01*
X85599Y-44480D01*
X84700Y-44733D02*
X85037Y-44733D01*
X84868Y-44733D02*
X84868Y-44143D01*
X84925Y-44227D01*
X84981Y-44283D01*
X85037Y-44312D01*
X84475Y-44199D02*
X84446Y-44171D01*
X84390Y-44143D01*
X84250Y-44143D01*
X84193Y-44171D01*
X84165Y-44199D01*
X84137Y-44255D01*
X84137Y-44312D01*
X84165Y-44396D01*
X84503Y-44733D01*
X84137Y-44733D01*
X83575Y-44733D02*
X83912Y-44733D01*
X83743Y-44733D02*
X83743Y-44143D01*
X83800Y-44227D01*
X83856Y-44283D01*
X83912Y-44312D01*
X83040Y-44143D02*
X83322Y-44143D01*
X83350Y-44424D01*
X83322Y-44396D01*
X83265Y-44368D01*
X83125Y-44368D01*
X83069Y-44396D01*
X83040Y-44424D01*
X83012Y-44480D01*
X83012Y-44621D01*
X83040Y-44677D01*
X83069Y-44705D01*
X83125Y-44733D01*
X83265Y-44733D01*
X83322Y-44705D01*
X83350Y-44677D01*
X95315Y-43198D02*
X94977Y-43198D01*
X95146Y-43789D02*
X95146Y-43198D01*
X94556Y-43760D02*
X94612Y-43789D01*
X94724Y-43789D01*
X94781Y-43760D01*
X94809Y-43704D01*
X94809Y-43479D01*
X94781Y-43423D01*
X94724Y-43395D01*
X94612Y-43395D01*
X94556Y-43423D01*
X94527Y-43479D01*
X94527Y-43535D01*
X94809Y-43592D01*
X94302Y-43760D02*
X94246Y-43789D01*
X94134Y-43789D01*
X94078Y-43760D01*
X94049Y-43704D01*
X94049Y-43676D01*
X94078Y-43620D01*
X94134Y-43592D01*
X94218Y-43592D01*
X94274Y-43564D01*
X94302Y-43507D01*
X94302Y-43479D01*
X94274Y-43423D01*
X94218Y-43395D01*
X94134Y-43395D01*
X94078Y-43423D01*
X93712Y-43789D02*
X93768Y-43760D01*
X93796Y-43704D01*
X93796Y-43198D01*
X93234Y-43789D02*
X93234Y-43479D01*
X93262Y-43423D01*
X93318Y-43395D01*
X93431Y-43395D01*
X93487Y-43423D01*
X93234Y-43760D02*
X93290Y-43789D01*
X93431Y-43789D01*
X93487Y-43760D01*
X93515Y-43704D01*
X93515Y-43648D01*
X93487Y-43592D01*
X93431Y-43564D01*
X93290Y-43564D01*
X93234Y-43535D01*
X92165Y-43732D02*
X92193Y-43760D01*
X92278Y-43789D01*
X92334Y-43789D01*
X92418Y-43760D01*
X92475Y-43704D01*
X92503Y-43648D01*
X92531Y-43535D01*
X92531Y-43451D01*
X92503Y-43339D01*
X92475Y-43282D01*
X92418Y-43226D01*
X92334Y-43198D01*
X92278Y-43198D01*
X92193Y-43226D01*
X92165Y-43254D01*
X91828Y-43789D02*
X91884Y-43760D01*
X91912Y-43732D01*
X91940Y-43676D01*
X91940Y-43507D01*
X91912Y-43451D01*
X91884Y-43423D01*
X91828Y-43395D01*
X91743Y-43395D01*
X91687Y-43423D01*
X91659Y-43451D01*
X91631Y-43507D01*
X91631Y-43676D01*
X91659Y-43732D01*
X91687Y-43760D01*
X91743Y-43789D01*
X91828Y-43789D01*
X91378Y-43789D02*
X91378Y-43395D01*
X91378Y-43198D02*
X91406Y-43226D01*
X91378Y-43254D01*
X91350Y-43226D01*
X91378Y-43198D01*
X91378Y-43254D01*
X91012Y-43789D02*
X91069Y-43760D01*
X91097Y-43704D01*
X91097Y-43198D01*
X95470Y-44733D02*
X95470Y-44143D01*
X95329Y-44143D01*
X95245Y-44171D01*
X95188Y-44227D01*
X95160Y-44283D01*
X95132Y-44396D01*
X95132Y-44480D01*
X95160Y-44593D01*
X95188Y-44649D01*
X95245Y-44705D01*
X95329Y-44733D01*
X95470Y-44733D01*
X94654Y-44705D02*
X94710Y-44733D01*
X94823Y-44733D01*
X94879Y-44705D01*
X94907Y-44649D01*
X94907Y-44424D01*
X94879Y-44368D01*
X94823Y-44340D01*
X94710Y-44340D01*
X94654Y-44368D01*
X94626Y-44424D01*
X94626Y-44480D01*
X94907Y-44537D01*
X94120Y-44733D02*
X94120Y-44424D01*
X94148Y-44368D01*
X94204Y-44340D01*
X94317Y-44340D01*
X94373Y-44368D01*
X94120Y-44705D02*
X94176Y-44733D01*
X94317Y-44733D01*
X94373Y-44705D01*
X94401Y-44649D01*
X94401Y-44593D01*
X94373Y-44537D01*
X94317Y-44508D01*
X94176Y-44508D01*
X94120Y-44480D01*
X93585Y-44733D02*
X93585Y-44143D01*
X93585Y-44705D02*
X93642Y-44733D01*
X93754Y-44733D01*
X93810Y-44705D01*
X93838Y-44677D01*
X93867Y-44621D01*
X93867Y-44452D01*
X93838Y-44396D01*
X93810Y-44368D01*
X93754Y-44340D01*
X93642Y-44340D01*
X93585Y-44368D01*
X93304Y-44508D02*
X92854Y-44508D01*
X92657Y-44143D02*
X92320Y-44143D01*
X92489Y-44733D02*
X92489Y-44143D01*
X92123Y-44733D02*
X92123Y-44340D01*
X92123Y-44143D02*
X92151Y-44171D01*
X92123Y-44199D01*
X92095Y-44171D01*
X92123Y-44143D01*
X92123Y-44199D01*
X91842Y-44733D02*
X91842Y-44340D01*
X91842Y-44396D02*
X91814Y-44368D01*
X91757Y-44340D01*
X91673Y-44340D01*
X91617Y-44368D01*
X91589Y-44424D01*
X91589Y-44733D01*
X91589Y-44424D02*
X91561Y-44368D01*
X91504Y-44340D01*
X91420Y-44340D01*
X91364Y-44368D01*
X91336Y-44424D01*
X91336Y-44733D01*
X90829Y-44705D02*
X90886Y-44733D01*
X90998Y-44733D01*
X91054Y-44705D01*
X91083Y-44649D01*
X91083Y-44424D01*
X91054Y-44368D01*
X90998Y-44340D01*
X90886Y-44340D01*
X90829Y-44368D01*
X90801Y-44424D01*
X90801Y-44480D01*
X91083Y-44537D01*
X95048Y-45678D02*
X95048Y-45088D01*
X94907Y-45088D01*
X94823Y-45116D01*
X94766Y-45172D01*
X94738Y-45228D01*
X94710Y-45341D01*
X94710Y-45425D01*
X94738Y-45538D01*
X94766Y-45594D01*
X94823Y-45650D01*
X94907Y-45678D01*
X95048Y-45678D01*
X94457Y-45678D02*
X94457Y-45285D01*
X94457Y-45397D02*
X94429Y-45341D01*
X94401Y-45313D01*
X94345Y-45285D01*
X94288Y-45285D01*
X94092Y-45678D02*
X94092Y-45285D01*
X94092Y-45088D02*
X94120Y-45116D01*
X94092Y-45144D01*
X94063Y-45116D01*
X94092Y-45088D01*
X94092Y-45144D01*
X93867Y-45285D02*
X93726Y-45678D01*
X93585Y-45285D01*
X93135Y-45650D02*
X93192Y-45678D01*
X93304Y-45678D01*
X93360Y-45650D01*
X93389Y-45594D01*
X93389Y-45369D01*
X93360Y-45313D01*
X93304Y-45285D01*
X93192Y-45285D01*
X93135Y-45313D01*
X93107Y-45369D01*
X93107Y-45425D01*
X93389Y-45481D01*
X92854Y-45678D02*
X92854Y-45285D01*
X92854Y-45397D02*
X92826Y-45341D01*
X92798Y-45313D01*
X92742Y-45285D01*
X92685Y-45285D01*
X92123Y-45088D02*
X91926Y-45678D01*
X91729Y-45088D01*
X91223Y-45678D02*
X91561Y-45678D01*
X91392Y-45678D02*
X91392Y-45088D01*
X91448Y-45172D01*
X91504Y-45228D01*
X91561Y-45256D01*
M02*
