G04 (created by PCBNEW (2013-jul-07)-stable) date Thu 15 Dec 2016 11:15:19 PM CST*
%MOIN*%
G04 Gerber Fmt 3.4, Leading zero omitted, Abs format*
%FSLAX34Y34*%
G01*
G70*
G90*
G04 APERTURE LIST*
%ADD10C,0.00590551*%
%ADD11C,0.07*%
%ADD12R,0.06X0.06*%
%ADD13C,0.06*%
%ADD14R,0.06X0.09*%
%ADD15O,0.06X0.09*%
%ADD16O,0.06X0.12*%
%ADD17O,0.12X0.06*%
%ADD18C,0.15*%
G04 APERTURE END LIST*
G54D10*
G54D11*
X72500Y-51000D03*
X72500Y-54000D03*
X80000Y-47250D03*
X83000Y-47250D03*
G54D12*
X96000Y-47000D03*
G54D13*
X95000Y-47000D03*
G54D12*
X96000Y-53500D03*
G54D13*
X95000Y-53500D03*
G54D11*
X92750Y-54750D03*
X92750Y-55750D03*
X78750Y-47500D03*
X78750Y-46500D03*
X76250Y-47500D03*
X76250Y-46500D03*
X77250Y-55250D03*
X77250Y-54250D03*
X90250Y-46500D03*
X90250Y-45500D03*
X90750Y-55750D03*
X90750Y-54750D03*
G54D13*
X87250Y-45250D03*
X87250Y-48250D03*
X89250Y-53750D03*
X86250Y-53750D03*
X89250Y-54750D03*
X86250Y-54750D03*
X82250Y-56500D03*
X79250Y-56500D03*
G54D14*
X74250Y-52250D03*
G54D15*
X75250Y-52250D03*
X76250Y-52250D03*
X77250Y-52250D03*
X78250Y-52250D03*
X79250Y-52250D03*
X80250Y-52250D03*
X81250Y-52250D03*
X81250Y-49250D03*
X80250Y-49250D03*
X79250Y-49250D03*
X78250Y-49250D03*
X77250Y-49250D03*
X76250Y-49250D03*
X75250Y-49250D03*
X74250Y-49250D03*
G54D14*
X86250Y-52250D03*
G54D15*
X87250Y-52250D03*
X88250Y-52250D03*
X89250Y-52250D03*
X90250Y-52250D03*
X91250Y-52250D03*
X92250Y-52250D03*
X93250Y-52250D03*
X93250Y-49250D03*
X92250Y-49250D03*
X91250Y-49250D03*
X90250Y-49250D03*
X89250Y-49250D03*
X88250Y-49250D03*
X87250Y-49250D03*
X86250Y-49250D03*
G54D13*
X72500Y-47750D03*
X72500Y-49750D03*
X95000Y-49250D03*
X95000Y-51250D03*
X84500Y-51750D03*
X84500Y-49750D03*
X82750Y-50250D03*
X82750Y-52250D03*
X85500Y-54750D03*
X83500Y-54750D03*
X85500Y-53750D03*
X83500Y-53750D03*
X88250Y-47000D03*
X88250Y-48000D03*
G54D16*
X76250Y-44250D03*
X77250Y-44250D03*
X78250Y-44250D03*
X79250Y-44250D03*
G54D17*
X97000Y-51250D03*
X97000Y-50250D03*
X97000Y-49250D03*
G54D16*
X83250Y-56500D03*
X85250Y-56500D03*
X84250Y-56500D03*
X82250Y-54250D03*
X80250Y-54250D03*
X81250Y-54250D03*
X86250Y-46750D03*
X84250Y-46750D03*
X85250Y-46750D03*
G54D12*
X89250Y-56750D03*
G54D13*
X86250Y-56750D03*
G54D12*
X86250Y-55750D03*
G54D13*
X89250Y-55750D03*
G54D18*
X97000Y-44250D03*
X73250Y-44250D03*
X73250Y-56250D03*
X97000Y-56250D03*
M02*
