G04 This is an RS-274x file exported by *
G04 gerbv version 2.6.0 *
G04 More information is available about gerbv at *
G04 http://gerbv.gpleda.org/ *
G04 --End of header info--*
%MOIN*%
%FSLAX34Y34*%
%IPPOS*%
G04 --Define apertures--*
%ADD10C,0.0059*%
%ADD11C,0.0700*%
%ADD12R,0.0600X0.0600*%
%ADD13C,0.0600*%
%ADD14R,0.0600X0.0900*%
%ADD15O,0.0600X0.0900*%
%ADD16O,0.0600X0.1200*%
%ADD17O,0.1200X0.0600*%
%ADD18C,0.0300*%
%ADD19C,0.0080*%
G04 --Start main section--*
G54D11*
G01X0072500Y-051000D03*
G01X0072500Y-054000D03*
G01X0080000Y-047250D03*
G01X0083000Y-047250D03*
G54D12*
G01X0096000Y-047000D03*
G54D13*
G01X0095000Y-047000D03*
G54D12*
G01X0096000Y-053500D03*
G54D13*
G01X0095000Y-053500D03*
G54D11*
G01X0092750Y-054750D03*
G01X0092750Y-055750D03*
G01X0078750Y-047500D03*
G01X0078750Y-046500D03*
G01X0076250Y-047500D03*
G01X0076250Y-046500D03*
G01X0077250Y-055250D03*
G01X0077250Y-054250D03*
G01X0090250Y-046500D03*
G01X0090250Y-045500D03*
G01X0090750Y-055750D03*
G01X0090750Y-054750D03*
G54D13*
G01X0087250Y-045250D03*
G01X0087250Y-048250D03*
G01X0089250Y-053750D03*
G01X0086250Y-053750D03*
G01X0089250Y-054750D03*
G01X0086250Y-054750D03*
G01X0082250Y-056500D03*
G01X0079250Y-056500D03*
G54D14*
G01X0074250Y-052250D03*
G54D15*
G01X0075250Y-052250D03*
G01X0076250Y-052250D03*
G01X0077250Y-052250D03*
G01X0078250Y-052250D03*
G01X0079250Y-052250D03*
G01X0080250Y-052250D03*
G01X0081250Y-052250D03*
G01X0081250Y-049250D03*
G01X0080250Y-049250D03*
G01X0079250Y-049250D03*
G01X0078250Y-049250D03*
G01X0077250Y-049250D03*
G01X0076250Y-049250D03*
G01X0075250Y-049250D03*
G01X0074250Y-049250D03*
G54D14*
G01X0086250Y-052250D03*
G54D15*
G01X0087250Y-052250D03*
G01X0088250Y-052250D03*
G01X0089250Y-052250D03*
G01X0090250Y-052250D03*
G01X0091250Y-052250D03*
G01X0092250Y-052250D03*
G01X0093250Y-052250D03*
G01X0093250Y-049250D03*
G01X0092250Y-049250D03*
G01X0091250Y-049250D03*
G01X0090250Y-049250D03*
G01X0089250Y-049250D03*
G01X0088250Y-049250D03*
G01X0087250Y-049250D03*
G01X0086250Y-049250D03*
G54D13*
G01X0072500Y-047750D03*
G01X0072500Y-049750D03*
G01X0095000Y-049250D03*
G01X0095000Y-051250D03*
G01X0084500Y-051750D03*
G01X0084500Y-049750D03*
G01X0082750Y-050250D03*
G01X0082750Y-052250D03*
G01X0085500Y-054750D03*
G01X0083500Y-054750D03*
G01X0085500Y-053750D03*
G01X0083500Y-053750D03*
G01X0088250Y-047000D03*
G01X0088250Y-048000D03*
G54D16*
G01X0076250Y-044250D03*
G01X0077250Y-044250D03*
G01X0078250Y-044250D03*
G01X0079250Y-044250D03*
G54D17*
G01X0097000Y-051250D03*
G01X0097000Y-050250D03*
G01X0097000Y-049250D03*
G54D16*
G01X0083250Y-056500D03*
G01X0085250Y-056500D03*
G01X0084250Y-056500D03*
G01X0082250Y-054250D03*
G01X0080250Y-054250D03*
G01X0081250Y-054250D03*
G01X0086250Y-046750D03*
G01X0084250Y-046750D03*
G01X0085250Y-046750D03*
G54D12*
G01X0089250Y-056750D03*
G54D13*
G01X0086250Y-056750D03*
G54D12*
G01X0086250Y-055750D03*
G54D13*
G01X0089250Y-055750D03*
G54D18*
G01X0086250Y-050000D02*
G01X0084500Y-051750D01*
G01X0077250Y-049250D02*
G01X0077250Y-048500D01*
G01X0073000Y-048250D02*
G01X0072500Y-047750D01*
G01X0077000Y-048250D02*
G01X0073000Y-048250D01*
G01X0077250Y-048500D02*
G01X0077000Y-048250D01*
G01X0096000Y-053500D02*
G01X0096000Y-050250D01*
G01X0088250Y-052250D02*
G01X0088250Y-050250D01*
G01X0097000Y-050250D02*
G01X0096000Y-050250D01*
G01X0096000Y-050250D02*
G01X0088250Y-050250D01*
G01X0088250Y-050250D02*
G01X0086500Y-050250D01*
G01X0086250Y-050000D02*
G01X0086250Y-049250D01*
G01X0086500Y-050250D02*
G01X0086250Y-050000D01*
G01X0077750Y-044750D02*
G01X0077250Y-044250D01*
G01X0077750Y-044750D02*
G01X0078250Y-044250D01*
G01X0077750Y-048000D02*
G01X0077750Y-044750D01*
G01X0083750Y-049000D02*
G01X0083750Y-048750D01*
G01X0089250Y-053750D02*
G01X0088500Y-053000D01*
G01X0084000Y-053000D02*
G01X0083750Y-052750D01*
G01X0088500Y-053000D02*
G01X0084000Y-053000D01*
G01X0083750Y-049000D02*
G01X0083750Y-052750D01*
G01X0078000Y-048250D02*
G01X0077750Y-048000D01*
G01X0083250Y-048250D02*
G01X0078000Y-048250D01*
G01X0083750Y-048750D02*
G01X0083250Y-048250D01*
G01X0076250Y-046500D02*
G01X0076250Y-044250D01*
G01X0078750Y-046500D02*
G01X0079250Y-044250D01*
G01X0093250Y-049250D02*
G01X0095000Y-047000D01*
G01X0082750Y-050250D02*
G01X0082500Y-050250D01*
G01X0082000Y-052500D02*
G01X0083500Y-053750D01*
G01X0082000Y-050750D02*
G01X0082000Y-052500D01*
G01X0082500Y-050250D02*
G01X0082000Y-050750D01*
G01X0086250Y-053750D02*
G01X0087000Y-053750D01*
G01X0087000Y-056750D02*
G01X0086250Y-056750D01*
G01X0087250Y-056500D02*
G01X0087000Y-056750D01*
G01X0087250Y-054000D02*
G01X0087250Y-056500D01*
G01X0087000Y-053750D02*
G01X0087250Y-054000D01*
G01X0078250Y-052250D02*
G01X0078250Y-053000D01*
G01X0082250Y-053750D02*
G01X0082250Y-054250D01*
G01X0081750Y-053250D02*
G01X0082250Y-053750D01*
G01X0078500Y-053250D02*
G01X0081750Y-053250D01*
G01X0078250Y-053000D02*
G01X0078500Y-053250D01*
G01X0086250Y-046750D02*
G01X0086250Y-046000D01*
G01X0087000Y-045250D02*
G01X0087250Y-045250D01*
G01X0086250Y-046000D02*
G01X0087000Y-045250D01*
G01X0074250Y-052250D02*
G01X0074250Y-051000D01*
G01X0081250Y-050250D02*
G01X0081250Y-049250D01*
G01X0081000Y-050500D02*
G01X0081250Y-050250D01*
G01X0074750Y-050500D02*
G01X0081000Y-050500D01*
G01X0074250Y-051000D02*
G01X0074750Y-050500D01*
G01X0074250Y-049250D02*
G01X0074250Y-049750D01*
G01X0073250Y-053250D02*
G01X0072500Y-054000D01*
G01X0073250Y-050750D02*
G01X0073250Y-053250D01*
G01X0074250Y-049750D02*
G01X0073250Y-050750D01*
G01X0089250Y-049250D02*
G01X0089250Y-047500D01*
G01X0089250Y-047500D02*
G01X0090250Y-046500D01*
G54D10*
G36*
G01X0072590Y-051005D02*
G01X0072505Y-051090D01*
G01X0072500Y-051084D01*
G01X0072494Y-051090D01*
G01X0072409Y-051005D01*
G01X0072415Y-051000D01*
G01X0072409Y-050994D01*
G01X0072494Y-050909D01*
G01X0072500Y-050915D01*
G01X0072505Y-050909D01*
G01X0072590Y-050994D01*
G01X0072584Y-051000D01*
G01X0072590Y-051005D01*
G01X0072590Y-051005D01*
G37*
G54D19*
G01X0072590Y-051005D02*
G01X0072505Y-051090D01*
G01X0072505Y-051090D02*
G01X0072500Y-051084D01*
G01X0072500Y-051084D02*
G01X0072494Y-051090D01*
G01X0072494Y-051090D02*
G01X0072409Y-051005D01*
G01X0072409Y-051005D02*
G01X0072415Y-051000D01*
G01X0072415Y-051000D02*
G01X0072409Y-050994D01*
G01X0072409Y-050994D02*
G01X0072494Y-050909D01*
G01X0072494Y-050909D02*
G01X0072500Y-050915D01*
G01X0072500Y-050915D02*
G01X0072505Y-050909D01*
G01X0072505Y-050909D02*
G01X0072590Y-050994D01*
G01X0072590Y-050994D02*
G01X0072584Y-051000D01*
G01X0072584Y-051000D02*
G01X0072590Y-051005D01*
G54D10*
G36*
G01X0073725Y-048740D02*
G01X0073658Y-048839D01*
G01X0073610Y-049084D01*
G01X0073610Y-049415D01*
G01X0073656Y-049650D01*
G01X0073046Y-050260D01*
G01X0073046Y-049819D01*
G01X0073031Y-049605D01*
G01X0072978Y-049476D01*
G01X0072886Y-049448D01*
G01X0072801Y-049532D01*
G01X0072801Y-049363D01*
G01X0072773Y-049271D01*
G01X0072569Y-049203D01*
G01X0072355Y-049218D01*
G01X0072226Y-049271D01*
G01X0072198Y-049363D01*
G01X0072500Y-049665D01*
G01X0072801Y-049363D01*
G01X0072801Y-049532D01*
G01X0072584Y-049750D01*
G01X0072886Y-050051D01*
G01X0072978Y-050023D01*
G01X0073046Y-049819D01*
G01X0073046Y-050260D01*
G01X0072903Y-050403D01*
G01X0072820Y-050527D01*
G01X0072803Y-050480D01*
G01X0072801Y-050479D01*
G01X0072801Y-050136D01*
G01X0072500Y-049834D01*
G01X0072198Y-050136D01*
G01X0072226Y-050228D01*
G01X0072430Y-050296D01*
G01X0072644Y-050281D01*
G01X0072773Y-050228D01*
G01X0072801Y-050136D01*
G01X0072801Y-050479D01*
G01X0072581Y-050403D01*
G01X0072347Y-050418D01*
G01X0072196Y-050480D01*
G01X0072161Y-050576D01*
G01X0072117Y-050532D01*
G01X0072109Y-050540D01*
G01X0072109Y-050050D01*
G01X0072113Y-050051D01*
G01X0072415Y-049750D01*
G01X0072113Y-049448D01*
G01X0072109Y-049449D01*
G01X0072109Y-048264D01*
G01X0072136Y-048292D01*
G01X0072372Y-048389D01*
G01X0072446Y-048389D01*
G01X0072653Y-048596D01*
G01X0072812Y-048702D01*
G01X0072812Y-048702D01*
G01X0073000Y-048740D01*
G01X0073725Y-048740D01*
G01X0073725Y-048740D01*
G37*
G54D19*
G01X0073725Y-048740D02*
G01X0073658Y-048839D01*
G01X0073658Y-048839D02*
G01X0073610Y-049084D01*
G01X0073610Y-049084D02*
G01X0073610Y-049415D01*
G01X0073610Y-049415D02*
G01X0073656Y-049650D01*
G01X0073656Y-049650D02*
G01X0073046Y-050260D01*
G01X0073046Y-050260D02*
G01X0073046Y-049819D01*
G01X0073046Y-049819D02*
G01X0073031Y-049605D01*
G01X0073031Y-049605D02*
G01X0072978Y-049476D01*
G01X0072978Y-049476D02*
G01X0072886Y-049448D01*
G01X0072886Y-049448D02*
G01X0072801Y-049532D01*
G01X0072801Y-049532D02*
G01X0072801Y-049363D01*
G01X0072801Y-049363D02*
G01X0072773Y-049271D01*
G01X0072773Y-049271D02*
G01X0072569Y-049203D01*
G01X0072569Y-049203D02*
G01X0072355Y-049218D01*
G01X0072355Y-049218D02*
G01X0072226Y-049271D01*
G01X0072226Y-049271D02*
G01X0072198Y-049363D01*
G01X0072198Y-049363D02*
G01X0072500Y-049665D01*
G01X0072500Y-049665D02*
G01X0072801Y-049363D01*
G01X0072801Y-049363D02*
G01X0072801Y-049532D01*
G01X0072801Y-049532D02*
G01X0072584Y-049750D01*
G01X0072584Y-049750D02*
G01X0072886Y-050051D01*
G01X0072886Y-050051D02*
G01X0072978Y-050023D01*
G01X0072978Y-050023D02*
G01X0073046Y-049819D01*
G01X0073046Y-049819D02*
G01X0073046Y-050260D01*
G01X0073046Y-050260D02*
G01X0072903Y-050403D01*
G01X0072903Y-050403D02*
G01X0072820Y-050527D01*
G01X0072820Y-050527D02*
G01X0072803Y-050480D01*
G01X0072803Y-050480D02*
G01X0072801Y-050479D01*
G01X0072801Y-050479D02*
G01X0072801Y-050136D01*
G01X0072801Y-050136D02*
G01X0072500Y-049834D01*
G01X0072500Y-049834D02*
G01X0072198Y-050136D01*
G01X0072198Y-050136D02*
G01X0072226Y-050228D01*
G01X0072226Y-050228D02*
G01X0072430Y-050296D01*
G01X0072430Y-050296D02*
G01X0072644Y-050281D01*
G01X0072644Y-050281D02*
G01X0072773Y-050228D01*
G01X0072773Y-050228D02*
G01X0072801Y-050136D01*
G01X0072801Y-050136D02*
G01X0072801Y-050479D01*
G01X0072801Y-050479D02*
G01X0072581Y-050403D01*
G01X0072581Y-050403D02*
G01X0072347Y-050418D01*
G01X0072347Y-050418D02*
G01X0072196Y-050480D01*
G01X0072196Y-050480D02*
G01X0072161Y-050576D01*
G01X0072161Y-050576D02*
G01X0072117Y-050532D01*
G01X0072117Y-050532D02*
G01X0072109Y-050540D01*
G01X0072109Y-050540D02*
G01X0072109Y-050050D01*
G01X0072109Y-050050D02*
G01X0072113Y-050051D01*
G01X0072113Y-050051D02*
G01X0072415Y-049750D01*
G01X0072415Y-049750D02*
G01X0072113Y-049448D01*
G01X0072113Y-049448D02*
G01X0072109Y-049449D01*
G01X0072109Y-049449D02*
G01X0072109Y-048264D01*
G01X0072109Y-048264D02*
G01X0072136Y-048292D01*
G01X0072136Y-048292D02*
G01X0072372Y-048389D01*
G01X0072372Y-048389D02*
G01X0072446Y-048389D01*
G01X0072446Y-048389D02*
G01X0072653Y-048596D01*
G01X0072653Y-048596D02*
G01X0072812Y-048702D01*
G01X0072812Y-048702D02*
G01X0072812Y-048702D01*
G01X0072812Y-048702D02*
G01X0073000Y-048740D01*
G01X0073000Y-048740D02*
G01X0073725Y-048740D01*
G54D10*
G36*
G01X0079021Y-050010D02*
G01X0077478Y-050010D01*
G01X0077494Y-050006D01*
G01X0077702Y-049868D01*
G01X0077810Y-049705D01*
G01X0077910Y-049824D01*
G01X0078106Y-049920D01*
G01X0078190Y-049876D01*
G01X0078190Y-049310D01*
G01X0078182Y-049310D01*
G01X0078182Y-049190D01*
G01X0078190Y-049190D01*
G01X0078190Y-049182D01*
G01X0078310Y-049182D01*
G01X0078310Y-049190D01*
G01X0078317Y-049190D01*
G01X0078317Y-049310D01*
G01X0078310Y-049310D01*
G01X0078310Y-049876D01*
G01X0078393Y-049920D01*
G01X0078589Y-049824D01*
G01X0078689Y-049705D01*
G01X0078797Y-049868D01*
G01X0079005Y-050006D01*
G01X0079021Y-050010D01*
G01X0079021Y-050010D01*
G37*
G54D19*
G01X0079021Y-050010D02*
G01X0077478Y-050010D01*
G01X0077478Y-050010D02*
G01X0077494Y-050006D01*
G01X0077494Y-050006D02*
G01X0077702Y-049868D01*
G01X0077702Y-049868D02*
G01X0077810Y-049705D01*
G01X0077810Y-049705D02*
G01X0077910Y-049824D01*
G01X0077910Y-049824D02*
G01X0078106Y-049920D01*
G01X0078106Y-049920D02*
G01X0078190Y-049876D01*
G01X0078190Y-049876D02*
G01X0078190Y-049310D01*
G01X0078190Y-049310D02*
G01X0078182Y-049310D01*
G01X0078182Y-049310D02*
G01X0078182Y-049190D01*
G01X0078182Y-049190D02*
G01X0078190Y-049190D01*
G01X0078190Y-049190D02*
G01X0078190Y-049182D01*
G01X0078190Y-049182D02*
G01X0078310Y-049182D01*
G01X0078310Y-049182D02*
G01X0078310Y-049190D01*
G01X0078310Y-049190D02*
G01X0078317Y-049190D01*
G01X0078317Y-049190D02*
G01X0078317Y-049310D01*
G01X0078317Y-049310D02*
G01X0078310Y-049310D01*
G01X0078310Y-049310D02*
G01X0078310Y-049876D01*
G01X0078310Y-049876D02*
G01X0078393Y-049920D01*
G01X0078393Y-049920D02*
G01X0078589Y-049824D01*
G01X0078589Y-049824D02*
G01X0078689Y-049705D01*
G01X0078689Y-049705D02*
G01X0078797Y-049868D01*
G01X0078797Y-049868D02*
G01X0079005Y-050006D01*
G01X0079005Y-050006D02*
G01X0079021Y-050010D01*
G54D10*
G36*
G01X0080760Y-050010D02*
G01X0079478Y-050010D01*
G01X0079494Y-050006D01*
G01X0079702Y-049868D01*
G01X0079810Y-049705D01*
G01X0079910Y-049824D01*
G01X0080106Y-049920D01*
G01X0080190Y-049876D01*
G01X0080190Y-049310D01*
G01X0080182Y-049310D01*
G01X0080182Y-049190D01*
G01X0080190Y-049190D01*
G01X0080190Y-049182D01*
G01X0080310Y-049182D01*
G01X0080310Y-049190D01*
G01X0080317Y-049190D01*
G01X0080317Y-049310D01*
G01X0080310Y-049310D01*
G01X0080310Y-049876D01*
G01X0080393Y-049920D01*
G01X0080589Y-049824D01*
G01X0080689Y-049705D01*
G01X0080760Y-049811D01*
G01X0080760Y-050010D01*
G01X0080760Y-050010D01*
G37*
G54D19*
G01X0080760Y-050010D02*
G01X0079478Y-050010D01*
G01X0079478Y-050010D02*
G01X0079494Y-050006D01*
G01X0079494Y-050006D02*
G01X0079702Y-049868D01*
G01X0079702Y-049868D02*
G01X0079810Y-049705D01*
G01X0079810Y-049705D02*
G01X0079910Y-049824D01*
G01X0079910Y-049824D02*
G01X0080106Y-049920D01*
G01X0080106Y-049920D02*
G01X0080190Y-049876D01*
G01X0080190Y-049876D02*
G01X0080190Y-049310D01*
G01X0080190Y-049310D02*
G01X0080182Y-049310D01*
G01X0080182Y-049310D02*
G01X0080182Y-049190D01*
G01X0080182Y-049190D02*
G01X0080190Y-049190D01*
G01X0080190Y-049190D02*
G01X0080190Y-049182D01*
G01X0080190Y-049182D02*
G01X0080310Y-049182D01*
G01X0080310Y-049182D02*
G01X0080310Y-049190D01*
G01X0080310Y-049190D02*
G01X0080317Y-049190D01*
G01X0080317Y-049190D02*
G01X0080317Y-049310D01*
G01X0080317Y-049310D02*
G01X0080310Y-049310D01*
G01X0080310Y-049310D02*
G01X0080310Y-049876D01*
G01X0080310Y-049876D02*
G01X0080393Y-049920D01*
G01X0080393Y-049920D02*
G01X0080589Y-049824D01*
G01X0080589Y-049824D02*
G01X0080689Y-049705D01*
G01X0080689Y-049705D02*
G01X0080760Y-049811D01*
G01X0080760Y-049811D02*
G01X0080760Y-050010D01*
G54D10*
G36*
G01X0098140Y-054710D02*
G01X0097820Y-054710D01*
G01X0097820Y-051393D01*
G01X0097776Y-051310D01*
G01X0097060Y-051310D01*
G01X0097060Y-051790D01*
G01X0097360Y-051790D01*
G01X0097562Y-051725D01*
G01X0097724Y-051589D01*
G01X0097820Y-051393D01*
G01X0097820Y-054710D01*
G01X0095533Y-054710D01*
G01X0095460Y-054783D01*
G01X0095460Y-057390D01*
G01X0095301Y-057390D01*
G01X0093790Y-057390D01*
G01X0093790Y-052460D01*
G01X0093790Y-052310D01*
G01X0093790Y-052190D01*
G01X0093790Y-052040D01*
G01X0093725Y-051837D01*
G01X0093589Y-051675D01*
G01X0093393Y-051579D01*
G01X0093310Y-051623D01*
G01X0093310Y-052190D01*
G01X0093790Y-052190D01*
G01X0093790Y-052310D01*
G01X0093310Y-052310D01*
G01X0093310Y-052876D01*
G01X0093393Y-052920D01*
G01X0093589Y-052824D01*
G01X0093725Y-052662D01*
G01X0093790Y-052460D01*
G01X0093790Y-057390D01*
G01X0093346Y-057390D01*
G01X0093346Y-055831D01*
G01X0093346Y-054831D01*
G01X0093331Y-054597D01*
G01X0093269Y-054446D01*
G01X0093190Y-054417D01*
G01X0093190Y-052876D01*
G01X0093190Y-052310D01*
G01X0093182Y-052310D01*
G01X0093182Y-052190D01*
G01X0093190Y-052190D01*
G01X0093190Y-051623D01*
G01X0093106Y-051579D01*
G01X0092910Y-051675D01*
G01X0092810Y-051794D01*
G01X0092702Y-051631D01*
G01X0092494Y-051493D01*
G01X0092250Y-051444D01*
G01X0092005Y-051493D01*
G01X0091797Y-051631D01*
G01X0091689Y-051794D01*
G01X0091589Y-051675D01*
G01X0091393Y-051579D01*
G01X0091310Y-051623D01*
G01X0091310Y-052190D01*
G01X0091317Y-052190D01*
G01X0091317Y-052310D01*
G01X0091310Y-052310D01*
G01X0091310Y-052876D01*
G01X0091393Y-052920D01*
G01X0091589Y-052824D01*
G01X0091689Y-052705D01*
G01X0091797Y-052868D01*
G01X0092005Y-053006D01*
G01X0092250Y-053055D01*
G01X0092494Y-053006D01*
G01X0092702Y-052868D01*
G01X0092810Y-052705D01*
G01X0092910Y-052824D01*
G01X0093106Y-052920D01*
G01X0093190Y-052876D01*
G01X0093190Y-054417D01*
G01X0093173Y-054411D01*
G01X0093088Y-054496D01*
G01X0093088Y-054326D01*
G01X0093053Y-054230D01*
G01X0092831Y-054153D01*
G01X0092597Y-054168D01*
G01X0092446Y-054230D01*
G01X0092411Y-054326D01*
G01X0092750Y-054665D01*
G01X0093088Y-054326D01*
G01X0093088Y-054496D01*
G01X0092834Y-054750D01*
G01X0093173Y-055088D01*
G01X0093269Y-055053D01*
G01X0093346Y-054831D01*
G01X0093346Y-055831D01*
G01X0093331Y-055597D01*
G01X0093269Y-055446D01*
G01X0093173Y-055411D01*
G01X0093088Y-055496D01*
G01X0093088Y-055326D01*
G01X0093060Y-055250D01*
G01X0093088Y-055173D01*
G01X0092750Y-054834D01*
G01X0092665Y-054919D01*
G01X0092665Y-054750D01*
G01X0092326Y-054411D01*
G01X0092230Y-054446D01*
G01X0092153Y-054668D01*
G01X0092168Y-054902D01*
G01X0092230Y-055053D01*
G01X0092326Y-055088D01*
G01X0092665Y-054750D01*
G01X0092665Y-054919D01*
G01X0092411Y-055173D01*
G01X0092439Y-055250D01*
G01X0092411Y-055326D01*
G01X0092750Y-055665D01*
G01X0093088Y-055326D01*
G01X0093088Y-055496D01*
G01X0092834Y-055750D01*
G01X0093173Y-056088D01*
G01X0093269Y-056053D01*
G01X0093346Y-055831D01*
G01X0093346Y-057390D01*
G01X0093088Y-057390D01*
G01X0093088Y-056173D01*
G01X0092750Y-055834D01*
G01X0092665Y-055919D01*
G01X0092665Y-055750D01*
G01X0092326Y-055411D01*
G01X0092230Y-055446D01*
G01X0092153Y-055668D01*
G01X0092168Y-055902D01*
G01X0092230Y-056053D01*
G01X0092326Y-056088D01*
G01X0092665Y-055750D01*
G01X0092665Y-055919D01*
G01X0092411Y-056173D01*
G01X0092446Y-056269D01*
G01X0092668Y-056346D01*
G01X0092902Y-056331D01*
G01X0093053Y-056269D01*
G01X0093088Y-056173D01*
G01X0093088Y-057390D01*
G01X0091440Y-057390D01*
G01X0091440Y-055613D01*
G01X0091335Y-055359D01*
G01X0091225Y-055249D01*
G01X0091334Y-055141D01*
G01X0091439Y-054887D01*
G01X0091440Y-054613D01*
G01X0091335Y-054359D01*
G01X0091141Y-054165D01*
G01X0090887Y-054060D01*
G01X0090613Y-054059D01*
G01X0090359Y-054164D01*
G01X0090165Y-054358D01*
G01X0090060Y-054612D01*
G01X0090059Y-054886D01*
G01X0090164Y-055140D01*
G01X0090274Y-055250D01*
G01X0090165Y-055358D01*
G01X0090060Y-055612D01*
G01X0090059Y-055886D01*
G01X0090164Y-056140D01*
G01X0090358Y-056334D01*
G01X0090612Y-056439D01*
G01X0090886Y-056440D01*
G01X0091140Y-056335D01*
G01X0091334Y-056141D01*
G01X0091439Y-055887D01*
G01X0091440Y-055613D01*
G01X0091440Y-057390D01*
G01X0085190Y-057390D01*
G01X0085190Y-057276D01*
G01X0085190Y-056560D01*
G01X0085190Y-056440D01*
G01X0085190Y-055723D01*
G01X0085106Y-055679D01*
G01X0084910Y-055775D01*
G01X0084774Y-055937D01*
G01X0084750Y-056013D01*
G01X0084725Y-055937D01*
G01X0084589Y-055775D01*
G01X0084393Y-055679D01*
G01X0084310Y-055723D01*
G01X0084310Y-056440D01*
G01X0084710Y-056440D01*
G01X0084790Y-056440D01*
G01X0085190Y-056440D01*
G01X0085190Y-056560D01*
G01X0084790Y-056560D01*
G01X0084710Y-056560D01*
G01X0084310Y-056560D01*
G01X0084310Y-057276D01*
G01X0084393Y-057320D01*
G01X0084589Y-057224D01*
G01X0084725Y-057062D01*
G01X0084750Y-056986D01*
G01X0084774Y-057062D01*
G01X0084910Y-057224D01*
G01X0085106Y-057320D01*
G01X0085190Y-057276D01*
G01X0085190Y-057390D01*
G01X0083523Y-057390D01*
G01X0083702Y-057270D01*
G01X0083812Y-057107D01*
G01X0083910Y-057224D01*
G01X0084106Y-057320D01*
G01X0084190Y-057276D01*
G01X0084190Y-056560D01*
G01X0084182Y-056560D01*
G01X0084182Y-056440D01*
G01X0084190Y-056440D01*
G01X0084190Y-055723D01*
G01X0084106Y-055679D01*
G01X0084046Y-055709D01*
G01X0084046Y-054819D01*
G01X0084031Y-054605D01*
G01X0083978Y-054476D01*
G01X0083886Y-054448D01*
G01X0083801Y-054532D01*
G01X0083801Y-054363D01*
G01X0083773Y-054271D01*
G01X0083714Y-054252D01*
G01X0083773Y-054228D01*
G01X0083801Y-054136D01*
G01X0083500Y-053834D01*
G01X0083415Y-053919D01*
G01X0083415Y-053750D01*
G01X0083113Y-053448D01*
G01X0083021Y-053476D01*
G01X0082953Y-053680D01*
G01X0082968Y-053894D01*
G01X0083021Y-054023D01*
G01X0083113Y-054051D01*
G01X0083415Y-053750D01*
G01X0083415Y-053919D01*
G01X0083198Y-054136D01*
G01X0083226Y-054228D01*
G01X0083285Y-054247D01*
G01X0083226Y-054271D01*
G01X0083198Y-054363D01*
G01X0083500Y-054665D01*
G01X0083801Y-054363D01*
G01X0083801Y-054532D01*
G01X0083584Y-054750D01*
G01X0083886Y-055051D01*
G01X0083978Y-055023D01*
G01X0084046Y-054819D01*
G01X0084046Y-055709D01*
G01X0083910Y-055775D01*
G01X0083812Y-055892D01*
G01X0083801Y-055877D01*
G01X0083801Y-055136D01*
G01X0083500Y-054834D01*
G01X0083415Y-054919D01*
G01X0083415Y-054750D01*
G01X0083113Y-054448D01*
G01X0083021Y-054476D01*
G01X0082953Y-054680D01*
G01X0082968Y-054894D01*
G01X0083021Y-055023D01*
G01X0083113Y-055051D01*
G01X0083415Y-054750D01*
G01X0083415Y-054919D01*
G01X0083198Y-055136D01*
G01X0083226Y-055228D01*
G01X0083430Y-055296D01*
G01X0083644Y-055281D01*
G01X0083773Y-055228D01*
G01X0083801Y-055136D01*
G01X0083801Y-055877D01*
G01X0083702Y-055729D01*
G01X0083494Y-055590D01*
G01X0083250Y-055541D01*
G01X0083005Y-055590D01*
G01X0082797Y-055729D01*
G01X0082658Y-055936D01*
G01X0082647Y-055992D01*
G01X0082613Y-055957D01*
G01X0082377Y-055860D01*
G01X0082123Y-055859D01*
G01X0081887Y-055957D01*
G01X0081707Y-056136D01*
G01X0081610Y-056372D01*
G01X0081609Y-056626D01*
G01X0081707Y-056862D01*
G01X0081886Y-057042D01*
G01X0082122Y-057139D01*
G01X0082376Y-057140D01*
G01X0082612Y-057042D01*
G01X0082647Y-057007D01*
G01X0082658Y-057063D01*
G01X0082797Y-057270D01*
G01X0082976Y-057390D01*
G01X0079890Y-057390D01*
G01X0079890Y-056373D01*
G01X0079792Y-056137D01*
G01X0079613Y-055957D01*
G01X0079377Y-055860D01*
G01X0079123Y-055859D01*
G01X0078887Y-055957D01*
G01X0078707Y-056136D01*
G01X0078610Y-056372D01*
G01X0078609Y-056626D01*
G01X0078707Y-056862D01*
G01X0078886Y-057042D01*
G01X0079122Y-057139D01*
G01X0079376Y-057140D01*
G01X0079612Y-057042D01*
G01X0079792Y-056863D01*
G01X0079889Y-056627D01*
G01X0079890Y-056373D01*
G01X0079890Y-057390D01*
G01X0077940Y-057390D01*
G01X0077940Y-055113D01*
G01X0077835Y-054859D01*
G01X0077725Y-054749D01*
G01X0077834Y-054641D01*
G01X0077939Y-054387D01*
G01X0077940Y-054113D01*
G01X0077835Y-053859D01*
G01X0077641Y-053665D01*
G01X0077387Y-053560D01*
G01X0077113Y-053559D01*
G01X0076859Y-053664D01*
G01X0076665Y-053858D01*
G01X0076560Y-054112D01*
G01X0076559Y-054386D01*
G01X0076664Y-054640D01*
G01X0076774Y-054750D01*
G01X0076665Y-054858D01*
G01X0076560Y-055112D01*
G01X0076559Y-055386D01*
G01X0076664Y-055640D01*
G01X0076858Y-055834D01*
G01X0077112Y-055939D01*
G01X0077386Y-055940D01*
G01X0077640Y-055835D01*
G01X0077834Y-055641D01*
G01X0077939Y-055387D01*
G01X0077940Y-055113D01*
G01X0077940Y-057390D01*
G01X0074790Y-057390D01*
G01X0074790Y-054783D01*
G01X0074716Y-054710D01*
G01X0072109Y-054710D01*
G01X0072109Y-054585D01*
G01X0072362Y-054689D01*
G01X0072636Y-054690D01*
G01X0072890Y-054585D01*
G01X0073084Y-054391D01*
G01X0073189Y-054137D01*
G01X0073189Y-054002D01*
G01X0073596Y-053596D01*
G01X0073596Y-053596D01*
G01X0073702Y-053437D01*
G01X0073739Y-053250D01*
G01X0073740Y-053250D01*
G01X0073740Y-052970D01*
G01X0073757Y-052988D01*
G01X0073882Y-053039D01*
G01X0074017Y-053040D01*
G01X0074617Y-053040D01*
G01X0074742Y-052988D01*
G01X0074836Y-052894D01*
G01X0075005Y-053006D01*
G01X0075250Y-053055D01*
G01X0075494Y-053006D01*
G01X0075702Y-052868D01*
G01X0075749Y-052797D01*
G01X0075797Y-052868D01*
G01X0076005Y-053006D01*
G01X0076250Y-053055D01*
G01X0076494Y-053006D01*
G01X0076702Y-052868D01*
G01X0076749Y-052797D01*
G01X0076797Y-052868D01*
G01X0077005Y-053006D01*
G01X0077250Y-053055D01*
G01X0077494Y-053006D01*
G01X0077702Y-052868D01*
G01X0077749Y-052797D01*
G01X0077760Y-052811D01*
G01X0077760Y-053000D01*
G01X0077797Y-053187D01*
G01X0077903Y-053346D01*
G01X0078153Y-053596D01*
G01X0078153Y-053596D01*
G01X0078312Y-053702D01*
G01X0078500Y-053740D01*
G01X0079648Y-053740D01*
G01X0079610Y-053931D01*
G01X0079610Y-054568D01*
G01X0079658Y-054813D01*
G01X0079797Y-055020D01*
G01X0080005Y-055159D01*
G01X0080250Y-055208D01*
G01X0080494Y-055159D01*
G01X0080702Y-055020D01*
G01X0080750Y-054949D01*
G01X0080797Y-055020D01*
G01X0081005Y-055159D01*
G01X0081250Y-055208D01*
G01X0081494Y-055159D01*
G01X0081702Y-055020D01*
G01X0081750Y-054949D01*
G01X0081797Y-055020D01*
G01X0082005Y-055159D01*
G01X0082250Y-055208D01*
G01X0082494Y-055159D01*
G01X0082702Y-055020D01*
G01X0082841Y-054813D01*
G01X0082890Y-054568D01*
G01X0082890Y-053931D01*
G01X0082841Y-053686D01*
G01X0082702Y-053479D01*
G01X0082602Y-053411D01*
G01X0082596Y-053403D01*
G01X0082096Y-052903D01*
G01X0081937Y-052797D01*
G01X0081771Y-052764D01*
G01X0081841Y-052660D01*
G01X0081890Y-052415D01*
G01X0081890Y-052084D01*
G01X0081841Y-051839D01*
G01X0081702Y-051631D01*
G01X0081494Y-051493D01*
G01X0081250Y-051444D01*
G01X0081005Y-051493D01*
G01X0080797Y-051631D01*
G01X0080750Y-051702D01*
G01X0080702Y-051631D01*
G01X0080494Y-051493D01*
G01X0080250Y-051444D01*
G01X0080005Y-051493D01*
G01X0079797Y-051631D01*
G01X0079750Y-051702D01*
G01X0079702Y-051631D01*
G01X0079494Y-051493D01*
G01X0079250Y-051444D01*
G01X0079005Y-051493D01*
G01X0078797Y-051631D01*
G01X0078750Y-051702D01*
G01X0078702Y-051631D01*
G01X0078494Y-051493D01*
G01X0078250Y-051444D01*
G01X0078005Y-051493D01*
G01X0077797Y-051631D01*
G01X0077750Y-051702D01*
G01X0077702Y-051631D01*
G01X0077494Y-051493D01*
G01X0077250Y-051444D01*
G01X0077005Y-051493D01*
G01X0076797Y-051631D01*
G01X0076750Y-051702D01*
G01X0076702Y-051631D01*
G01X0076494Y-051493D01*
G01X0076250Y-051444D01*
G01X0076005Y-051493D01*
G01X0075797Y-051631D01*
G01X0075750Y-051702D01*
G01X0075702Y-051631D01*
G01X0075494Y-051493D01*
G01X0075250Y-051444D01*
G01X0075005Y-051493D01*
G01X0074836Y-051605D01*
G01X0074742Y-051511D01*
G01X0074740Y-051510D01*
G01X0074740Y-051202D01*
G01X0074952Y-050990D01*
G01X0081000Y-050990D01*
G01X0081187Y-050952D01*
G01X0081187Y-050952D01*
G01X0081346Y-050846D01*
G01X0081596Y-050596D01*
G01X0081596Y-050596D01*
G01X0081702Y-050437D01*
G01X0081739Y-050250D01*
G01X0081740Y-050250D01*
G01X0081740Y-049811D01*
G01X0081841Y-049660D01*
G01X0081890Y-049415D01*
G01X0081890Y-049084D01*
G01X0081841Y-048839D01*
G01X0081774Y-048740D01*
G01X0083047Y-048740D01*
G01X0083260Y-048952D01*
G01X0083260Y-049000D01*
G01X0083260Y-050053D01*
G01X0083228Y-049976D01*
G01X0083136Y-049948D01*
G01X0083051Y-050032D01*
G01X0083051Y-049863D01*
G01X0083023Y-049771D01*
G01X0082819Y-049703D01*
G01X0082605Y-049718D01*
G01X0082476Y-049771D01*
G01X0082448Y-049863D01*
G01X0082750Y-050165D01*
G01X0083051Y-049863D01*
G01X0083051Y-050032D01*
G01X0082834Y-050250D01*
G01X0083136Y-050551D01*
G01X0083228Y-050523D01*
G01X0083260Y-050427D01*
G01X0083260Y-051855D01*
G01X0083113Y-051707D01*
G01X0083051Y-051682D01*
G01X0083051Y-050636D01*
G01X0082750Y-050334D01*
G01X0082665Y-050419D01*
G01X0082665Y-050250D01*
G01X0082363Y-049948D01*
G01X0082271Y-049976D01*
G01X0082203Y-050180D01*
G01X0082218Y-050394D01*
G01X0082271Y-050523D01*
G01X0082363Y-050551D01*
G01X0082665Y-050250D01*
G01X0082665Y-050419D01*
G01X0082448Y-050636D01*
G01X0082476Y-050728D01*
G01X0082680Y-050796D01*
G01X0082894Y-050781D01*
G01X0083023Y-050728D01*
G01X0083051Y-050636D01*
G01X0083051Y-051682D01*
G01X0082877Y-051610D01*
G01X0082623Y-051609D01*
G01X0082387Y-051707D01*
G01X0082207Y-051886D01*
G01X0082110Y-052122D01*
G01X0082109Y-052376D01*
G01X0082207Y-052612D01*
G01X0082386Y-052792D01*
G01X0082622Y-052889D01*
G01X0082876Y-052890D01*
G01X0083112Y-052792D01*
G01X0083260Y-052645D01*
G01X0083260Y-052750D01*
G01X0083297Y-052937D01*
G01X0083403Y-053096D01*
G01X0083514Y-053207D01*
G01X0083355Y-053218D01*
G01X0083226Y-053271D01*
G01X0083198Y-053363D01*
G01X0083500Y-053665D01*
G01X0083505Y-053659D01*
G01X0083590Y-053744D01*
G01X0083584Y-053750D01*
G01X0083886Y-054051D01*
G01X0083978Y-054023D01*
G01X0084046Y-053819D01*
G01X0084031Y-053605D01*
G01X0083982Y-053486D01*
G01X0084000Y-053490D01*
G01X0084914Y-053490D01*
G01X0084860Y-053622D01*
G01X0084859Y-053876D01*
G01X0084957Y-054112D01*
G01X0085094Y-054250D01*
G01X0084957Y-054386D01*
G01X0084860Y-054622D01*
G01X0084859Y-054876D01*
G01X0084957Y-055112D01*
G01X0085136Y-055292D01*
G01X0085372Y-055389D01*
G01X0085610Y-055390D01*
G01X0085609Y-055517D01*
G01X0085609Y-055800D01*
G01X0085589Y-055775D01*
G01X0085393Y-055679D01*
G01X0085310Y-055723D01*
G01X0085310Y-056440D01*
G01X0085317Y-056440D01*
G01X0085317Y-056560D01*
G01X0085310Y-056560D01*
G01X0085310Y-057276D01*
G01X0085393Y-057320D01*
G01X0085589Y-057224D01*
G01X0085699Y-057093D01*
G01X0085707Y-057112D01*
G01X0085886Y-057292D01*
G01X0086122Y-057389D01*
G01X0086376Y-057390D01*
G01X0086612Y-057292D01*
G01X0086665Y-057240D01*
G01X0087000Y-057240D01*
G01X0087187Y-057202D01*
G01X0087187Y-057202D01*
G01X0087346Y-057096D01*
G01X0087596Y-056846D01*
G01X0087596Y-056846D01*
G01X0087702Y-056687D01*
G01X0087739Y-056500D01*
G01X0087740Y-056500D01*
G01X0087740Y-054000D01*
G01X0087702Y-053812D01*
G01X0087596Y-053653D01*
G01X0087596Y-053653D01*
G01X0087432Y-053490D01*
G01X0088297Y-053490D01*
G01X0088609Y-053802D01*
G01X0088609Y-053876D01*
G01X0088707Y-054112D01*
G01X0088844Y-054250D01*
G01X0088707Y-054386D01*
G01X0088610Y-054622D01*
G01X0088609Y-054876D01*
G01X0088707Y-055112D01*
G01X0088844Y-055250D01*
G01X0088707Y-055386D01*
G01X0088610Y-055622D01*
G01X0088609Y-055876D01*
G01X0088707Y-056112D01*
G01X0088757Y-056162D01*
G01X0088661Y-056257D01*
G01X0088610Y-056382D01*
G01X0088609Y-056517D01*
G01X0088609Y-057117D01*
G01X0088661Y-057242D01*
G01X0088757Y-057338D01*
G01X0088882Y-057389D01*
G01X0089017Y-057390D01*
G01X0089617Y-057390D01*
G01X0089742Y-057338D01*
G01X0089838Y-057242D01*
G01X0089889Y-057117D01*
G01X0089890Y-056982D01*
G01X0089890Y-056382D01*
G01X0089838Y-056257D01*
G01X0089743Y-056162D01*
G01X0089792Y-056113D01*
G01X0089889Y-055877D01*
G01X0089890Y-055623D01*
G01X0089792Y-055387D01*
G01X0089655Y-055249D01*
G01X0089792Y-055113D01*
G01X0089889Y-054877D01*
G01X0089890Y-054623D01*
G01X0089792Y-054387D01*
G01X0089655Y-054249D01*
G01X0089792Y-054113D01*
G01X0089889Y-053877D01*
G01X0089890Y-053623D01*
G01X0089792Y-053387D01*
G01X0089613Y-053207D01*
G01X0089377Y-053110D01*
G01X0089303Y-053110D01*
G01X0089248Y-053055D01*
G01X0089250Y-053055D01*
G01X0089494Y-053006D01*
G01X0089702Y-052868D01*
G01X0089750Y-052797D01*
G01X0089797Y-052868D01*
G01X0090005Y-053006D01*
G01X0090250Y-053055D01*
G01X0090494Y-053006D01*
G01X0090702Y-052868D01*
G01X0090810Y-052705D01*
G01X0090910Y-052824D01*
G01X0091106Y-052920D01*
G01X0091190Y-052876D01*
G01X0091190Y-052310D01*
G01X0091182Y-052310D01*
G01X0091182Y-052190D01*
G01X0091190Y-052190D01*
G01X0091190Y-051623D01*
G01X0091106Y-051579D01*
G01X0090910Y-051675D01*
G01X0090810Y-051794D01*
G01X0090702Y-051631D01*
G01X0090494Y-051493D01*
G01X0090250Y-051444D01*
G01X0090005Y-051493D01*
G01X0089797Y-051631D01*
G01X0089750Y-051702D01*
G01X0089702Y-051631D01*
G01X0089494Y-051493D01*
G01X0089250Y-051444D01*
G01X0089005Y-051493D01*
G01X0088797Y-051631D01*
G01X0088750Y-051702D01*
G01X0088740Y-051688D01*
G01X0088740Y-050740D01*
G01X0094803Y-050740D01*
G01X0094726Y-050771D01*
G01X0094698Y-050863D01*
G01X0095000Y-051165D01*
G01X0095301Y-050863D01*
G01X0095273Y-050771D01*
G01X0095177Y-050740D01*
G01X0095510Y-050740D01*
G01X0095510Y-051053D01*
G01X0095478Y-050976D01*
G01X0095386Y-050948D01*
G01X0095084Y-051250D01*
G01X0095386Y-051551D01*
G01X0095478Y-051523D01*
G01X0095510Y-051427D01*
G01X0095510Y-052910D01*
G01X0095507Y-052911D01*
G01X0095411Y-053007D01*
G01X0095374Y-053097D01*
G01X0095346Y-053068D01*
G01X0095301Y-053113D01*
G01X0095301Y-051636D01*
G01X0095000Y-051334D01*
G01X0094915Y-051419D01*
G01X0094915Y-051250D01*
G01X0094613Y-050948D01*
G01X0094521Y-050976D01*
G01X0094453Y-051180D01*
G01X0094468Y-051394D01*
G01X0094521Y-051523D01*
G01X0094613Y-051551D01*
G01X0094915Y-051250D01*
G01X0094915Y-051419D01*
G01X0094698Y-051636D01*
G01X0094726Y-051728D01*
G01X0094930Y-051796D01*
G01X0095144Y-051781D01*
G01X0095273Y-051728D01*
G01X0095301Y-051636D01*
G01X0095301Y-053113D01*
G01X0095301Y-053113D01*
G01X0095273Y-053021D01*
G01X0095069Y-052953D01*
G01X0094855Y-052968D01*
G01X0094726Y-053021D01*
G01X0094698Y-053113D01*
G01X0095000Y-053415D01*
G01X0095005Y-053409D01*
G01X0095090Y-053494D01*
G01X0095084Y-053500D01*
G01X0095090Y-053505D01*
G01X0095005Y-053590D01*
G01X0095000Y-053584D01*
G01X0094915Y-053669D01*
G01X0094915Y-053500D01*
G01X0094613Y-053198D01*
G01X0094521Y-053226D01*
G01X0094453Y-053430D01*
G01X0094468Y-053644D01*
G01X0094521Y-053773D01*
G01X0094613Y-053801D01*
G01X0094915Y-053500D01*
G01X0094915Y-053669D01*
G01X0094698Y-053886D01*
G01X0094726Y-053978D01*
G01X0094930Y-054046D01*
G01X0095144Y-054031D01*
G01X0095273Y-053978D01*
G01X0095301Y-053886D01*
G01X0095301Y-053886D01*
G01X0095346Y-053931D01*
G01X0095374Y-053902D01*
G01X0095411Y-053992D01*
G01X0095507Y-054088D01*
G01X0095632Y-054139D01*
G01X0095767Y-054140D01*
G01X0096367Y-054140D01*
G01X0096492Y-054088D01*
G01X0096588Y-053992D01*
G01X0096639Y-053867D01*
G01X0096640Y-053732D01*
G01X0096640Y-053132D01*
G01X0096588Y-053007D01*
G01X0096492Y-052911D01*
G01X0096490Y-052910D01*
G01X0096490Y-051742D01*
G01X0096640Y-051790D01*
G01X0096940Y-051790D01*
G01X0096940Y-051310D01*
G01X0096932Y-051310D01*
G01X0096932Y-051190D01*
G01X0096940Y-051190D01*
G01X0096940Y-051182D01*
G01X0097060Y-051182D01*
G01X0097060Y-051190D01*
G01X0097776Y-051190D01*
G01X0097820Y-051106D01*
G01X0097724Y-050910D01*
G01X0097607Y-050812D01*
G01X0097770Y-050702D01*
G01X0097909Y-050494D01*
G01X0097958Y-050250D01*
G01X0097909Y-050005D01*
G01X0097770Y-049797D01*
G01X0097699Y-049749D01*
G01X0097770Y-049702D01*
G01X0097909Y-049494D01*
G01X0097958Y-049250D01*
G01X0097909Y-049005D01*
G01X0097770Y-048797D01*
G01X0097563Y-048658D01*
G01X0097318Y-048610D01*
G01X0096681Y-048610D01*
G01X0096640Y-048618D01*
G01X0096640Y-047232D01*
G01X0096640Y-046632D01*
G01X0096588Y-046507D01*
G01X0096492Y-046411D01*
G01X0096367Y-046360D01*
G01X0096232Y-046359D01*
G01X0095632Y-046359D01*
G01X0095507Y-046411D01*
G01X0095411Y-046507D01*
G01X0095374Y-046597D01*
G01X0095346Y-046568D01*
G01X0095301Y-046613D01*
G01X0095273Y-046521D01*
G01X0095069Y-046453D01*
G01X0094855Y-046468D01*
G01X0094726Y-046521D01*
G01X0094698Y-046613D01*
G01X0095000Y-046915D01*
G01X0095005Y-046909D01*
G01X0095090Y-046994D01*
G01X0095084Y-047000D01*
G01X0095090Y-047005D01*
G01X0095005Y-047090D01*
G01X0095000Y-047084D01*
G01X0094915Y-047169D01*
G01X0094915Y-047000D01*
G01X0094613Y-046698D01*
G01X0094521Y-046726D01*
G01X0094453Y-046930D01*
G01X0094468Y-047144D01*
G01X0094521Y-047273D01*
G01X0094613Y-047301D01*
G01X0094915Y-047000D01*
G01X0094915Y-047169D01*
G01X0094698Y-047386D01*
G01X0094726Y-047478D01*
G01X0094930Y-047546D01*
G01X0095144Y-047531D01*
G01X0095273Y-047478D01*
G01X0095301Y-047386D01*
G01X0095301Y-047386D01*
G01X0095346Y-047431D01*
G01X0095374Y-047402D01*
G01X0095411Y-047492D01*
G01X0095507Y-047588D01*
G01X0095632Y-047639D01*
G01X0095767Y-047640D01*
G01X0096367Y-047640D01*
G01X0096492Y-047588D01*
G01X0096588Y-047492D01*
G01X0096639Y-047367D01*
G01X0096640Y-047232D01*
G01X0096640Y-048618D01*
G01X0096436Y-048658D01*
G01X0096229Y-048797D01*
G01X0096090Y-049005D01*
G01X0096041Y-049250D01*
G01X0096090Y-049494D01*
G01X0096229Y-049702D01*
G01X0096300Y-049750D01*
G01X0096285Y-049760D01*
G01X0096000Y-049760D01*
G01X0095394Y-049760D01*
G01X0095542Y-049613D01*
G01X0095639Y-049377D01*
G01X0095640Y-049123D01*
G01X0095542Y-048887D01*
G01X0095363Y-048707D01*
G01X0095301Y-048682D01*
G01X0095127Y-048610D01*
G01X0094873Y-048609D01*
G01X0094637Y-048707D01*
G01X0094457Y-048886D01*
G01X0094360Y-049122D01*
G01X0094359Y-049376D01*
G01X0094457Y-049612D01*
G01X0094604Y-049760D01*
G01X0093643Y-049760D01*
G01X0093725Y-049662D01*
G01X0093790Y-049460D01*
G01X0093790Y-049310D01*
G01X0093790Y-049190D01*
G01X0093790Y-049040D01*
G01X0093725Y-048837D01*
G01X0093589Y-048675D01*
G01X0093393Y-048579D01*
G01X0093310Y-048623D01*
G01X0093310Y-049190D01*
G01X0093790Y-049190D01*
G01X0093790Y-049310D01*
G01X0093310Y-049310D01*
G01X0093310Y-049317D01*
G01X0093190Y-049317D01*
G01X0093190Y-049310D01*
G01X0093190Y-049190D01*
G01X0093190Y-048623D01*
G01X0093106Y-048579D01*
G01X0092910Y-048675D01*
G01X0092774Y-048837D01*
G01X0092750Y-048913D01*
G01X0092725Y-048837D01*
G01X0092589Y-048675D01*
G01X0092393Y-048579D01*
G01X0092310Y-048623D01*
G01X0092310Y-049190D01*
G01X0092710Y-049190D01*
G01X0092790Y-049190D01*
G01X0093190Y-049190D01*
G01X0093190Y-049310D01*
G01X0092790Y-049310D01*
G01X0092710Y-049310D01*
G01X0092310Y-049310D01*
G01X0092310Y-049317D01*
G01X0092190Y-049317D01*
G01X0092190Y-049310D01*
G01X0092190Y-049190D01*
G01X0092190Y-048623D01*
G01X0092106Y-048579D01*
G01X0091910Y-048675D01*
G01X0091774Y-048837D01*
G01X0091750Y-048913D01*
G01X0091725Y-048837D01*
G01X0091589Y-048675D01*
G01X0091393Y-048579D01*
G01X0091310Y-048623D01*
G01X0091310Y-049190D01*
G01X0091710Y-049190D01*
G01X0091790Y-049190D01*
G01X0092190Y-049190D01*
G01X0092190Y-049310D01*
G01X0091790Y-049310D01*
G01X0091710Y-049310D01*
G01X0091310Y-049310D01*
G01X0091310Y-049317D01*
G01X0091190Y-049317D01*
G01X0091190Y-049310D01*
G01X0091182Y-049310D01*
G01X0091182Y-049190D01*
G01X0091190Y-049190D01*
G01X0091190Y-048623D01*
G01X0091106Y-048579D01*
G01X0090910Y-048675D01*
G01X0090810Y-048794D01*
G01X0090702Y-048631D01*
G01X0090494Y-048493D01*
G01X0090250Y-048444D01*
G01X0090005Y-048493D01*
G01X0089797Y-048631D01*
G01X0089750Y-048702D01*
G01X0089740Y-048688D01*
G01X0089740Y-047702D01*
G01X0090252Y-047190D01*
G01X0090386Y-047190D01*
G01X0090640Y-047085D01*
G01X0090834Y-046891D01*
G01X0090939Y-046637D01*
G01X0090940Y-046363D01*
G01X0090835Y-046109D01*
G01X0090725Y-045999D01*
G01X0090834Y-045891D01*
G01X0090939Y-045637D01*
G01X0090940Y-045363D01*
G01X0090835Y-045109D01*
G01X0090641Y-044915D01*
G01X0090387Y-044810D01*
G01X0090113Y-044809D01*
G01X0089859Y-044914D01*
G01X0089665Y-045108D01*
G01X0089560Y-045362D01*
G01X0089559Y-045636D01*
G01X0089664Y-045890D01*
G01X0089774Y-046000D01*
G01X0089665Y-046108D01*
G01X0089560Y-046362D01*
G01X0089560Y-046497D01*
G01X0088903Y-047153D01*
G01X0088839Y-047249D01*
G01X0088889Y-047127D01*
G01X0088890Y-046873D01*
G01X0088792Y-046637D01*
G01X0088613Y-046457D01*
G01X0088377Y-046360D01*
G01X0088123Y-046359D01*
G01X0087887Y-046457D01*
G01X0087707Y-046636D01*
G01X0087610Y-046872D01*
G01X0087609Y-047126D01*
G01X0087707Y-047362D01*
G01X0087886Y-047542D01*
G01X0087960Y-047572D01*
G01X0087948Y-047613D01*
G01X0088250Y-047915D01*
G01X0088551Y-047613D01*
G01X0088539Y-047572D01*
G01X0088612Y-047542D01*
G01X0088786Y-047369D01*
G01X0088760Y-047500D01*
G01X0088760Y-047803D01*
G01X0088728Y-047726D01*
G01X0088636Y-047698D01*
G01X0088334Y-048000D01*
G01X0088636Y-048301D01*
G01X0088728Y-048273D01*
G01X0088760Y-048177D01*
G01X0088760Y-048688D01*
G01X0088689Y-048794D01*
G01X0088589Y-048675D01*
G01X0088551Y-048657D01*
G01X0088393Y-048579D01*
G01X0088310Y-048623D01*
G01X0088310Y-049190D01*
G01X0088317Y-049190D01*
G01X0088317Y-049310D01*
G01X0088310Y-049310D01*
G01X0088310Y-049317D01*
G01X0088190Y-049317D01*
G01X0088190Y-049310D01*
G01X0088182Y-049310D01*
G01X0088182Y-049190D01*
G01X0088190Y-049190D01*
G01X0088190Y-048623D01*
G01X0088106Y-048579D01*
G01X0087910Y-048675D01*
G01X0087810Y-048794D01*
G01X0087730Y-048674D01*
G01X0087792Y-048613D01*
G01X0087878Y-048405D01*
G01X0087903Y-048431D01*
G01X0087948Y-048386D01*
G01X0087976Y-048478D01*
G01X0088180Y-048546D01*
G01X0088394Y-048531D01*
G01X0088523Y-048478D01*
G01X0088551Y-048386D01*
G01X0088250Y-048084D01*
G01X0088244Y-048090D01*
G01X0088159Y-048005D01*
G01X0088165Y-048000D01*
G01X0087863Y-047698D01*
G01X0087771Y-047726D01*
G01X0087736Y-047831D01*
G01X0087613Y-047707D01*
G01X0087377Y-047610D01*
G01X0087123Y-047609D01*
G01X0086887Y-047707D01*
G01X0086707Y-047886D01*
G01X0086610Y-048122D01*
G01X0086609Y-048376D01*
G01X0086707Y-048612D01*
G01X0086769Y-048674D01*
G01X0086750Y-048702D01*
G01X0086702Y-048631D01*
G01X0086494Y-048493D01*
G01X0086250Y-048444D01*
G01X0086005Y-048493D01*
G01X0085797Y-048631D01*
G01X0085658Y-048839D01*
G01X0085610Y-049084D01*
G01X0085610Y-049415D01*
G01X0085658Y-049660D01*
G01X0085754Y-049803D01*
G01X0085046Y-050510D01*
G01X0085046Y-049819D01*
G01X0085031Y-049605D01*
G01X0084978Y-049476D01*
G01X0084886Y-049448D01*
G01X0084584Y-049750D01*
G01X0084886Y-050051D01*
G01X0084978Y-050023D01*
G01X0085046Y-049819D01*
G01X0085046Y-050510D01*
G01X0084447Y-051109D01*
G01X0084373Y-051109D01*
G01X0084240Y-051164D01*
G01X0084240Y-050232D01*
G01X0084430Y-050296D01*
G01X0084644Y-050281D01*
G01X0084773Y-050228D01*
G01X0084801Y-050136D01*
G01X0084500Y-049834D01*
G01X0084494Y-049840D01*
G01X0084409Y-049755D01*
G01X0084415Y-049750D01*
G01X0084409Y-049744D01*
G01X0084494Y-049659D01*
G01X0084500Y-049665D01*
G01X0084801Y-049363D01*
G01X0084773Y-049271D01*
G01X0084569Y-049203D01*
G01X0084355Y-049218D01*
G01X0084240Y-049266D01*
G01X0084240Y-049000D01*
G01X0084240Y-048750D01*
G01X0084202Y-048562D01*
G01X0084202Y-048562D01*
G01X0084096Y-048403D01*
G01X0083596Y-047903D01*
G01X0083437Y-047797D01*
G01X0083429Y-047795D01*
G01X0083584Y-047641D01*
G01X0083689Y-047387D01*
G01X0083689Y-047360D01*
G01X0083797Y-047520D01*
G01X0084005Y-047659D01*
G01X0084250Y-047708D01*
G01X0084494Y-047659D01*
G01X0084702Y-047520D01*
G01X0084750Y-047449D01*
G01X0084797Y-047520D01*
G01X0085005Y-047659D01*
G01X0085250Y-047708D01*
G01X0085494Y-047659D01*
G01X0085702Y-047520D01*
G01X0085750Y-047449D01*
G01X0085797Y-047520D01*
G01X0086005Y-047659D01*
G01X0086250Y-047708D01*
G01X0086494Y-047659D01*
G01X0086702Y-047520D01*
G01X0086841Y-047313D01*
G01X0086890Y-047068D01*
G01X0086890Y-046431D01*
G01X0086841Y-046186D01*
G01X0086807Y-046135D01*
G01X0087073Y-045869D01*
G01X0087122Y-045889D01*
G01X0087376Y-045890D01*
G01X0087612Y-045792D01*
G01X0087792Y-045613D01*
G01X0087889Y-045377D01*
G01X0087890Y-045123D01*
G01X0087792Y-044887D01*
G01X0087613Y-044707D01*
G01X0087377Y-044610D01*
G01X0087123Y-044609D01*
G01X0086887Y-044707D01*
G01X0086767Y-044827D01*
G01X0086767Y-044827D01*
G01X0086653Y-044903D01*
G01X0085903Y-045653D01*
G01X0085797Y-045812D01*
G01X0085760Y-046000D01*
G01X0085760Y-046035D01*
G01X0085750Y-046050D01*
G01X0085702Y-045979D01*
G01X0085494Y-045840D01*
G01X0085250Y-045791D01*
G01X0085005Y-045840D01*
G01X0084797Y-045979D01*
G01X0084750Y-046050D01*
G01X0084702Y-045979D01*
G01X0084494Y-045840D01*
G01X0084250Y-045791D01*
G01X0084005Y-045840D01*
G01X0083797Y-045979D01*
G01X0083658Y-046186D01*
G01X0083610Y-046431D01*
G01X0083610Y-046919D01*
G01X0083585Y-046859D01*
G01X0083391Y-046665D01*
G01X0083137Y-046560D01*
G01X0082863Y-046559D01*
G01X0082609Y-046664D01*
G01X0082415Y-046858D01*
G01X0082310Y-047112D01*
G01X0082309Y-047386D01*
G01X0082414Y-047640D01*
G01X0082534Y-047760D01*
G01X0080596Y-047760D01*
G01X0080596Y-047331D01*
G01X0080581Y-047097D01*
G01X0080519Y-046946D01*
G01X0080423Y-046911D01*
G01X0080338Y-046996D01*
G01X0080338Y-046826D01*
G01X0080303Y-046730D01*
G01X0080081Y-046653D01*
G01X0079847Y-046668D01*
G01X0079696Y-046730D01*
G01X0079661Y-046826D01*
G01X0080000Y-047165D01*
G01X0080338Y-046826D01*
G01X0080338Y-046996D01*
G01X0080084Y-047250D01*
G01X0080423Y-047588D01*
G01X0080519Y-047553D01*
G01X0080596Y-047331D01*
G01X0080596Y-047760D01*
G01X0080306Y-047760D01*
G01X0080338Y-047673D01*
G01X0080000Y-047334D01*
G01X0079661Y-047673D01*
G01X0079693Y-047760D01*
G01X0079389Y-047760D01*
G01X0079439Y-047637D01*
G01X0079440Y-047455D01*
G01X0079480Y-047553D01*
G01X0079576Y-047588D01*
G01X0079915Y-047250D01*
G01X0079576Y-046911D01*
G01X0079480Y-046946D01*
G01X0079403Y-047168D01*
G01X0079411Y-047294D01*
G01X0079335Y-047109D01*
G01X0079225Y-046999D01*
G01X0079334Y-046891D01*
G01X0079439Y-046637D01*
G01X0079440Y-046363D01*
G01X0079337Y-046114D01*
G01X0079558Y-045117D01*
G01X0079702Y-045020D01*
G01X0079841Y-044813D01*
G01X0079890Y-044568D01*
G01X0079890Y-043931D01*
G01X0079841Y-043686D01*
G01X0079702Y-043479D01*
G01X0079494Y-043340D01*
G01X0079250Y-043291D01*
G01X0079005Y-043340D01*
G01X0078797Y-043479D01*
G01X0078750Y-043550D01*
G01X0078702Y-043479D01*
G01X0078494Y-043340D01*
G01X0078250Y-043291D01*
G01X0078005Y-043340D01*
G01X0077797Y-043479D01*
G01X0077750Y-043550D01*
G01X0077702Y-043479D01*
G01X0077494Y-043340D01*
G01X0077250Y-043291D01*
G01X0077005Y-043340D01*
G01X0076797Y-043479D01*
G01X0076750Y-043550D01*
G01X0076702Y-043479D01*
G01X0076494Y-043340D01*
G01X0076250Y-043291D01*
G01X0076005Y-043340D01*
G01X0075797Y-043479D01*
G01X0075658Y-043686D01*
G01X0075610Y-043931D01*
G01X0075610Y-044568D01*
G01X0075658Y-044813D01*
G01X0075760Y-044964D01*
G01X0075760Y-046014D01*
G01X0075665Y-046108D01*
G01X0075560Y-046362D01*
G01X0075559Y-046636D01*
G01X0075664Y-046890D01*
G01X0075774Y-047000D01*
G01X0075665Y-047108D01*
G01X0075560Y-047362D01*
G01X0075559Y-047636D01*
G01X0075610Y-047760D01*
G01X0073202Y-047760D01*
G01X0073140Y-047697D01*
G01X0073140Y-047623D01*
G01X0073042Y-047387D01*
G01X0072863Y-047207D01*
G01X0072627Y-047110D01*
G01X0072373Y-047109D01*
G01X0072137Y-047207D01*
G01X0072109Y-047235D01*
G01X0072109Y-045790D01*
G01X0074716Y-045790D01*
G01X0074790Y-045716D01*
G01X0074790Y-043109D01*
G01X0095460Y-043109D01*
G01X0095460Y-045716D01*
G01X0095533Y-045790D01*
G01X0098140Y-045790D01*
G01X0098140Y-054710D01*
G01X0098140Y-054710D01*
G37*
G54D19*
G01X0098140Y-054710D02*
G01X0097820Y-054710D01*
G01X0097820Y-054710D02*
G01X0097820Y-051393D01*
G01X0097820Y-051393D02*
G01X0097776Y-051310D01*
G01X0097776Y-051310D02*
G01X0097060Y-051310D01*
G01X0097060Y-051310D02*
G01X0097060Y-051790D01*
G01X0097060Y-051790D02*
G01X0097360Y-051790D01*
G01X0097360Y-051790D02*
G01X0097562Y-051725D01*
G01X0097562Y-051725D02*
G01X0097724Y-051589D01*
G01X0097724Y-051589D02*
G01X0097820Y-051393D01*
G01X0097820Y-051393D02*
G01X0097820Y-054710D01*
G01X0097820Y-054710D02*
G01X0095533Y-054710D01*
G01X0095533Y-054710D02*
G01X0095460Y-054783D01*
G01X0095460Y-054783D02*
G01X0095460Y-057390D01*
G01X0095460Y-057390D02*
G01X0095301Y-057390D01*
G01X0095301Y-057390D02*
G01X0093790Y-057390D01*
G01X0093790Y-057390D02*
G01X0093790Y-052460D01*
G01X0093790Y-052460D02*
G01X0093790Y-052310D01*
G01X0093790Y-052310D02*
G01X0093790Y-052190D01*
G01X0093790Y-052190D02*
G01X0093790Y-052040D01*
G01X0093790Y-052040D02*
G01X0093725Y-051837D01*
G01X0093725Y-051837D02*
G01X0093589Y-051675D01*
G01X0093589Y-051675D02*
G01X0093393Y-051579D01*
G01X0093393Y-051579D02*
G01X0093310Y-051623D01*
G01X0093310Y-051623D02*
G01X0093310Y-052190D01*
G01X0093310Y-052190D02*
G01X0093790Y-052190D01*
G01X0093790Y-052190D02*
G01X0093790Y-052310D01*
G01X0093790Y-052310D02*
G01X0093310Y-052310D01*
G01X0093310Y-052310D02*
G01X0093310Y-052876D01*
G01X0093310Y-052876D02*
G01X0093393Y-052920D01*
G01X0093393Y-052920D02*
G01X0093589Y-052824D01*
G01X0093589Y-052824D02*
G01X0093725Y-052662D01*
G01X0093725Y-052662D02*
G01X0093790Y-052460D01*
G01X0093790Y-052460D02*
G01X0093790Y-057390D01*
G01X0093790Y-057390D02*
G01X0093346Y-057390D01*
G01X0093346Y-057390D02*
G01X0093346Y-055831D01*
G01X0093346Y-055831D02*
G01X0093346Y-054831D01*
G01X0093346Y-054831D02*
G01X0093331Y-054597D01*
G01X0093331Y-054597D02*
G01X0093269Y-054446D01*
G01X0093269Y-054446D02*
G01X0093190Y-054417D01*
G01X0093190Y-054417D02*
G01X0093190Y-052876D01*
G01X0093190Y-052876D02*
G01X0093190Y-052310D01*
G01X0093190Y-052310D02*
G01X0093182Y-052310D01*
G01X0093182Y-052310D02*
G01X0093182Y-052190D01*
G01X0093182Y-052190D02*
G01X0093190Y-052190D01*
G01X0093190Y-052190D02*
G01X0093190Y-051623D01*
G01X0093190Y-051623D02*
G01X0093106Y-051579D01*
G01X0093106Y-051579D02*
G01X0092910Y-051675D01*
G01X0092910Y-051675D02*
G01X0092810Y-051794D01*
G01X0092810Y-051794D02*
G01X0092702Y-051631D01*
G01X0092702Y-051631D02*
G01X0092494Y-051493D01*
G01X0092494Y-051493D02*
G01X0092250Y-051444D01*
G01X0092250Y-051444D02*
G01X0092005Y-051493D01*
G01X0092005Y-051493D02*
G01X0091797Y-051631D01*
G01X0091797Y-051631D02*
G01X0091689Y-051794D01*
G01X0091689Y-051794D02*
G01X0091589Y-051675D01*
G01X0091589Y-051675D02*
G01X0091393Y-051579D01*
G01X0091393Y-051579D02*
G01X0091310Y-051623D01*
G01X0091310Y-051623D02*
G01X0091310Y-052190D01*
G01X0091310Y-052190D02*
G01X0091317Y-052190D01*
G01X0091317Y-052190D02*
G01X0091317Y-052310D01*
G01X0091317Y-052310D02*
G01X0091310Y-052310D01*
G01X0091310Y-052310D02*
G01X0091310Y-052876D01*
G01X0091310Y-052876D02*
G01X0091393Y-052920D01*
G01X0091393Y-052920D02*
G01X0091589Y-052824D01*
G01X0091589Y-052824D02*
G01X0091689Y-052705D01*
G01X0091689Y-052705D02*
G01X0091797Y-052868D01*
G01X0091797Y-052868D02*
G01X0092005Y-053006D01*
G01X0092005Y-053006D02*
G01X0092250Y-053055D01*
G01X0092250Y-053055D02*
G01X0092494Y-053006D01*
G01X0092494Y-053006D02*
G01X0092702Y-052868D01*
G01X0092702Y-052868D02*
G01X0092810Y-052705D01*
G01X0092810Y-052705D02*
G01X0092910Y-052824D01*
G01X0092910Y-052824D02*
G01X0093106Y-052920D01*
G01X0093106Y-052920D02*
G01X0093190Y-052876D01*
G01X0093190Y-052876D02*
G01X0093190Y-054417D01*
G01X0093190Y-054417D02*
G01X0093173Y-054411D01*
G01X0093173Y-054411D02*
G01X0093088Y-054496D01*
G01X0093088Y-054496D02*
G01X0093088Y-054326D01*
G01X0093088Y-054326D02*
G01X0093053Y-054230D01*
G01X0093053Y-054230D02*
G01X0092831Y-054153D01*
G01X0092831Y-054153D02*
G01X0092597Y-054168D01*
G01X0092597Y-054168D02*
G01X0092446Y-054230D01*
G01X0092446Y-054230D02*
G01X0092411Y-054326D01*
G01X0092411Y-054326D02*
G01X0092750Y-054665D01*
G01X0092750Y-054665D02*
G01X0093088Y-054326D01*
G01X0093088Y-054326D02*
G01X0093088Y-054496D01*
G01X0093088Y-054496D02*
G01X0092834Y-054750D01*
G01X0092834Y-054750D02*
G01X0093173Y-055088D01*
G01X0093173Y-055088D02*
G01X0093269Y-055053D01*
G01X0093269Y-055053D02*
G01X0093346Y-054831D01*
G01X0093346Y-054831D02*
G01X0093346Y-055831D01*
G01X0093346Y-055831D02*
G01X0093331Y-055597D01*
G01X0093331Y-055597D02*
G01X0093269Y-055446D01*
G01X0093269Y-055446D02*
G01X0093173Y-055411D01*
G01X0093173Y-055411D02*
G01X0093088Y-055496D01*
G01X0093088Y-055496D02*
G01X0093088Y-055326D01*
G01X0093088Y-055326D02*
G01X0093060Y-055250D01*
G01X0093060Y-055250D02*
G01X0093088Y-055173D01*
G01X0093088Y-055173D02*
G01X0092750Y-054834D01*
G01X0092750Y-054834D02*
G01X0092665Y-054919D01*
G01X0092665Y-054919D02*
G01X0092665Y-054750D01*
G01X0092665Y-054750D02*
G01X0092326Y-054411D01*
G01X0092326Y-054411D02*
G01X0092230Y-054446D01*
G01X0092230Y-054446D02*
G01X0092153Y-054668D01*
G01X0092153Y-054668D02*
G01X0092168Y-054902D01*
G01X0092168Y-054902D02*
G01X0092230Y-055053D01*
G01X0092230Y-055053D02*
G01X0092326Y-055088D01*
G01X0092326Y-055088D02*
G01X0092665Y-054750D01*
G01X0092665Y-054750D02*
G01X0092665Y-054919D01*
G01X0092665Y-054919D02*
G01X0092411Y-055173D01*
G01X0092411Y-055173D02*
G01X0092439Y-055250D01*
G01X0092439Y-055250D02*
G01X0092411Y-055326D01*
G01X0092411Y-055326D02*
G01X0092750Y-055665D01*
G01X0092750Y-055665D02*
G01X0093088Y-055326D01*
G01X0093088Y-055326D02*
G01X0093088Y-055496D01*
G01X0093088Y-055496D02*
G01X0092834Y-055750D01*
G01X0092834Y-055750D02*
G01X0093173Y-056088D01*
G01X0093173Y-056088D02*
G01X0093269Y-056053D01*
G01X0093269Y-056053D02*
G01X0093346Y-055831D01*
G01X0093346Y-055831D02*
G01X0093346Y-057390D01*
G01X0093346Y-057390D02*
G01X0093088Y-057390D01*
G01X0093088Y-057390D02*
G01X0093088Y-056173D01*
G01X0093088Y-056173D02*
G01X0092750Y-055834D01*
G01X0092750Y-055834D02*
G01X0092665Y-055919D01*
G01X0092665Y-055919D02*
G01X0092665Y-055750D01*
G01X0092665Y-055750D02*
G01X0092326Y-055411D01*
G01X0092326Y-055411D02*
G01X0092230Y-055446D01*
G01X0092230Y-055446D02*
G01X0092153Y-055668D01*
G01X0092153Y-055668D02*
G01X0092168Y-055902D01*
G01X0092168Y-055902D02*
G01X0092230Y-056053D01*
G01X0092230Y-056053D02*
G01X0092326Y-056088D01*
G01X0092326Y-056088D02*
G01X0092665Y-055750D01*
G01X0092665Y-055750D02*
G01X0092665Y-055919D01*
G01X0092665Y-055919D02*
G01X0092411Y-056173D01*
G01X0092411Y-056173D02*
G01X0092446Y-056269D01*
G01X0092446Y-056269D02*
G01X0092668Y-056346D01*
G01X0092668Y-056346D02*
G01X0092902Y-056331D01*
G01X0092902Y-056331D02*
G01X0093053Y-056269D01*
G01X0093053Y-056269D02*
G01X0093088Y-056173D01*
G01X0093088Y-056173D02*
G01X0093088Y-057390D01*
G01X0093088Y-057390D02*
G01X0091440Y-057390D01*
G01X0091440Y-057390D02*
G01X0091440Y-055613D01*
G01X0091440Y-055613D02*
G01X0091335Y-055359D01*
G01X0091335Y-055359D02*
G01X0091225Y-055249D01*
G01X0091225Y-055249D02*
G01X0091334Y-055141D01*
G01X0091334Y-055141D02*
G01X0091439Y-054887D01*
G01X0091439Y-054887D02*
G01X0091440Y-054613D01*
G01X0091440Y-054613D02*
G01X0091335Y-054359D01*
G01X0091335Y-054359D02*
G01X0091141Y-054165D01*
G01X0091141Y-054165D02*
G01X0090887Y-054060D01*
G01X0090887Y-054060D02*
G01X0090613Y-054059D01*
G01X0090613Y-054059D02*
G01X0090359Y-054164D01*
G01X0090359Y-054164D02*
G01X0090165Y-054358D01*
G01X0090165Y-054358D02*
G01X0090060Y-054612D01*
G01X0090060Y-054612D02*
G01X0090059Y-054886D01*
G01X0090059Y-054886D02*
G01X0090164Y-055140D01*
G01X0090164Y-055140D02*
G01X0090274Y-055250D01*
G01X0090274Y-055250D02*
G01X0090165Y-055358D01*
G01X0090165Y-055358D02*
G01X0090060Y-055612D01*
G01X0090060Y-055612D02*
G01X0090059Y-055886D01*
G01X0090059Y-055886D02*
G01X0090164Y-056140D01*
G01X0090164Y-056140D02*
G01X0090358Y-056334D01*
G01X0090358Y-056334D02*
G01X0090612Y-056439D01*
G01X0090612Y-056439D02*
G01X0090886Y-056440D01*
G01X0090886Y-056440D02*
G01X0091140Y-056335D01*
G01X0091140Y-056335D02*
G01X0091334Y-056141D01*
G01X0091334Y-056141D02*
G01X0091439Y-055887D01*
G01X0091439Y-055887D02*
G01X0091440Y-055613D01*
G01X0091440Y-055613D02*
G01X0091440Y-057390D01*
G01X0091440Y-057390D02*
G01X0085190Y-057390D01*
G01X0085190Y-057390D02*
G01X0085190Y-057276D01*
G01X0085190Y-057276D02*
G01X0085190Y-056560D01*
G01X0085190Y-056560D02*
G01X0085190Y-056440D01*
G01X0085190Y-056440D02*
G01X0085190Y-055723D01*
G01X0085190Y-055723D02*
G01X0085106Y-055679D01*
G01X0085106Y-055679D02*
G01X0084910Y-055775D01*
G01X0084910Y-055775D02*
G01X0084774Y-055937D01*
G01X0084774Y-055937D02*
G01X0084750Y-056013D01*
G01X0084750Y-056013D02*
G01X0084725Y-055937D01*
G01X0084725Y-055937D02*
G01X0084589Y-055775D01*
G01X0084589Y-055775D02*
G01X0084393Y-055679D01*
G01X0084393Y-055679D02*
G01X0084310Y-055723D01*
G01X0084310Y-055723D02*
G01X0084310Y-056440D01*
G01X0084310Y-056440D02*
G01X0084710Y-056440D01*
G01X0084710Y-056440D02*
G01X0084790Y-056440D01*
G01X0084790Y-056440D02*
G01X0085190Y-056440D01*
G01X0085190Y-056440D02*
G01X0085190Y-056560D01*
G01X0085190Y-056560D02*
G01X0084790Y-056560D01*
G01X0084790Y-056560D02*
G01X0084710Y-056560D01*
G01X0084710Y-056560D02*
G01X0084310Y-056560D01*
G01X0084310Y-056560D02*
G01X0084310Y-057276D01*
G01X0084310Y-057276D02*
G01X0084393Y-057320D01*
G01X0084393Y-057320D02*
G01X0084589Y-057224D01*
G01X0084589Y-057224D02*
G01X0084725Y-057062D01*
G01X0084725Y-057062D02*
G01X0084750Y-056986D01*
G01X0084750Y-056986D02*
G01X0084774Y-057062D01*
G01X0084774Y-057062D02*
G01X0084910Y-057224D01*
G01X0084910Y-057224D02*
G01X0085106Y-057320D01*
G01X0085106Y-057320D02*
G01X0085190Y-057276D01*
G01X0085190Y-057276D02*
G01X0085190Y-057390D01*
G01X0085190Y-057390D02*
G01X0083523Y-057390D01*
G01X0083523Y-057390D02*
G01X0083702Y-057270D01*
G01X0083702Y-057270D02*
G01X0083812Y-057107D01*
G01X0083812Y-057107D02*
G01X0083910Y-057224D01*
G01X0083910Y-057224D02*
G01X0084106Y-057320D01*
G01X0084106Y-057320D02*
G01X0084190Y-057276D01*
G01X0084190Y-057276D02*
G01X0084190Y-056560D01*
G01X0084190Y-056560D02*
G01X0084182Y-056560D01*
G01X0084182Y-056560D02*
G01X0084182Y-056440D01*
G01X0084182Y-056440D02*
G01X0084190Y-056440D01*
G01X0084190Y-056440D02*
G01X0084190Y-055723D01*
G01X0084190Y-055723D02*
G01X0084106Y-055679D01*
G01X0084106Y-055679D02*
G01X0084046Y-055709D01*
G01X0084046Y-055709D02*
G01X0084046Y-054819D01*
G01X0084046Y-054819D02*
G01X0084031Y-054605D01*
G01X0084031Y-054605D02*
G01X0083978Y-054476D01*
G01X0083978Y-054476D02*
G01X0083886Y-054448D01*
G01X0083886Y-054448D02*
G01X0083801Y-054532D01*
G01X0083801Y-054532D02*
G01X0083801Y-054363D01*
G01X0083801Y-054363D02*
G01X0083773Y-054271D01*
G01X0083773Y-054271D02*
G01X0083714Y-054252D01*
G01X0083714Y-054252D02*
G01X0083773Y-054228D01*
G01X0083773Y-054228D02*
G01X0083801Y-054136D01*
G01X0083801Y-054136D02*
G01X0083500Y-053834D01*
G01X0083500Y-053834D02*
G01X0083415Y-053919D01*
G01X0083415Y-053919D02*
G01X0083415Y-053750D01*
G01X0083415Y-053750D02*
G01X0083113Y-053448D01*
G01X0083113Y-053448D02*
G01X0083021Y-053476D01*
G01X0083021Y-053476D02*
G01X0082953Y-053680D01*
G01X0082953Y-053680D02*
G01X0082968Y-053894D01*
G01X0082968Y-053894D02*
G01X0083021Y-054023D01*
G01X0083021Y-054023D02*
G01X0083113Y-054051D01*
G01X0083113Y-054051D02*
G01X0083415Y-053750D01*
G01X0083415Y-053750D02*
G01X0083415Y-053919D01*
G01X0083415Y-053919D02*
G01X0083198Y-054136D01*
G01X0083198Y-054136D02*
G01X0083226Y-054228D01*
G01X0083226Y-054228D02*
G01X0083285Y-054247D01*
G01X0083285Y-054247D02*
G01X0083226Y-054271D01*
G01X0083226Y-054271D02*
G01X0083198Y-054363D01*
G01X0083198Y-054363D02*
G01X0083500Y-054665D01*
G01X0083500Y-054665D02*
G01X0083801Y-054363D01*
G01X0083801Y-054363D02*
G01X0083801Y-054532D01*
G01X0083801Y-054532D02*
G01X0083584Y-054750D01*
G01X0083584Y-054750D02*
G01X0083886Y-055051D01*
G01X0083886Y-055051D02*
G01X0083978Y-055023D01*
G01X0083978Y-055023D02*
G01X0084046Y-054819D01*
G01X0084046Y-054819D02*
G01X0084046Y-055709D01*
G01X0084046Y-055709D02*
G01X0083910Y-055775D01*
G01X0083910Y-055775D02*
G01X0083812Y-055892D01*
G01X0083812Y-055892D02*
G01X0083801Y-055877D01*
G01X0083801Y-055877D02*
G01X0083801Y-055136D01*
G01X0083801Y-055136D02*
G01X0083500Y-054834D01*
G01X0083500Y-054834D02*
G01X0083415Y-054919D01*
G01X0083415Y-054919D02*
G01X0083415Y-054750D01*
G01X0083415Y-054750D02*
G01X0083113Y-054448D01*
G01X0083113Y-054448D02*
G01X0083021Y-054476D01*
G01X0083021Y-054476D02*
G01X0082953Y-054680D01*
G01X0082953Y-054680D02*
G01X0082968Y-054894D01*
G01X0082968Y-054894D02*
G01X0083021Y-055023D01*
G01X0083021Y-055023D02*
G01X0083113Y-055051D01*
G01X0083113Y-055051D02*
G01X0083415Y-054750D01*
G01X0083415Y-054750D02*
G01X0083415Y-054919D01*
G01X0083415Y-054919D02*
G01X0083198Y-055136D01*
G01X0083198Y-055136D02*
G01X0083226Y-055228D01*
G01X0083226Y-055228D02*
G01X0083430Y-055296D01*
G01X0083430Y-055296D02*
G01X0083644Y-055281D01*
G01X0083644Y-055281D02*
G01X0083773Y-055228D01*
G01X0083773Y-055228D02*
G01X0083801Y-055136D01*
G01X0083801Y-055136D02*
G01X0083801Y-055877D01*
G01X0083801Y-055877D02*
G01X0083702Y-055729D01*
G01X0083702Y-055729D02*
G01X0083494Y-055590D01*
G01X0083494Y-055590D02*
G01X0083250Y-055541D01*
G01X0083250Y-055541D02*
G01X0083005Y-055590D01*
G01X0083005Y-055590D02*
G01X0082797Y-055729D01*
G01X0082797Y-055729D02*
G01X0082658Y-055936D01*
G01X0082658Y-055936D02*
G01X0082647Y-055992D01*
G01X0082647Y-055992D02*
G01X0082613Y-055957D01*
G01X0082613Y-055957D02*
G01X0082377Y-055860D01*
G01X0082377Y-055860D02*
G01X0082123Y-055859D01*
G01X0082123Y-055859D02*
G01X0081887Y-055957D01*
G01X0081887Y-055957D02*
G01X0081707Y-056136D01*
G01X0081707Y-056136D02*
G01X0081610Y-056372D01*
G01X0081610Y-056372D02*
G01X0081609Y-056626D01*
G01X0081609Y-056626D02*
G01X0081707Y-056862D01*
G01X0081707Y-056862D02*
G01X0081886Y-057042D01*
G01X0081886Y-057042D02*
G01X0082122Y-057139D01*
G01X0082122Y-057139D02*
G01X0082376Y-057140D01*
G01X0082376Y-057140D02*
G01X0082612Y-057042D01*
G01X0082612Y-057042D02*
G01X0082647Y-057007D01*
G01X0082647Y-057007D02*
G01X0082658Y-057063D01*
G01X0082658Y-057063D02*
G01X0082797Y-057270D01*
G01X0082797Y-057270D02*
G01X0082976Y-057390D01*
G01X0082976Y-057390D02*
G01X0079890Y-057390D01*
G01X0079890Y-057390D02*
G01X0079890Y-056373D01*
G01X0079890Y-056373D02*
G01X0079792Y-056137D01*
G01X0079792Y-056137D02*
G01X0079613Y-055957D01*
G01X0079613Y-055957D02*
G01X0079377Y-055860D01*
G01X0079377Y-055860D02*
G01X0079123Y-055859D01*
G01X0079123Y-055859D02*
G01X0078887Y-055957D01*
G01X0078887Y-055957D02*
G01X0078707Y-056136D01*
G01X0078707Y-056136D02*
G01X0078610Y-056372D01*
G01X0078610Y-056372D02*
G01X0078609Y-056626D01*
G01X0078609Y-056626D02*
G01X0078707Y-056862D01*
G01X0078707Y-056862D02*
G01X0078886Y-057042D01*
G01X0078886Y-057042D02*
G01X0079122Y-057139D01*
G01X0079122Y-057139D02*
G01X0079376Y-057140D01*
G01X0079376Y-057140D02*
G01X0079612Y-057042D01*
G01X0079612Y-057042D02*
G01X0079792Y-056863D01*
G01X0079792Y-056863D02*
G01X0079889Y-056627D01*
G01X0079889Y-056627D02*
G01X0079890Y-056373D01*
G01X0079890Y-056373D02*
G01X0079890Y-057390D01*
G01X0079890Y-057390D02*
G01X0077940Y-057390D01*
G01X0077940Y-057390D02*
G01X0077940Y-055113D01*
G01X0077940Y-055113D02*
G01X0077835Y-054859D01*
G01X0077835Y-054859D02*
G01X0077725Y-054749D01*
G01X0077725Y-054749D02*
G01X0077834Y-054641D01*
G01X0077834Y-054641D02*
G01X0077939Y-054387D01*
G01X0077939Y-054387D02*
G01X0077940Y-054113D01*
G01X0077940Y-054113D02*
G01X0077835Y-053859D01*
G01X0077835Y-053859D02*
G01X0077641Y-053665D01*
G01X0077641Y-053665D02*
G01X0077387Y-053560D01*
G01X0077387Y-053560D02*
G01X0077113Y-053559D01*
G01X0077113Y-053559D02*
G01X0076859Y-053664D01*
G01X0076859Y-053664D02*
G01X0076665Y-053858D01*
G01X0076665Y-053858D02*
G01X0076560Y-054112D01*
G01X0076560Y-054112D02*
G01X0076559Y-054386D01*
G01X0076559Y-054386D02*
G01X0076664Y-054640D01*
G01X0076664Y-054640D02*
G01X0076774Y-054750D01*
G01X0076774Y-054750D02*
G01X0076665Y-054858D01*
G01X0076665Y-054858D02*
G01X0076560Y-055112D01*
G01X0076560Y-055112D02*
G01X0076559Y-055386D01*
G01X0076559Y-055386D02*
G01X0076664Y-055640D01*
G01X0076664Y-055640D02*
G01X0076858Y-055834D01*
G01X0076858Y-055834D02*
G01X0077112Y-055939D01*
G01X0077112Y-055939D02*
G01X0077386Y-055940D01*
G01X0077386Y-055940D02*
G01X0077640Y-055835D01*
G01X0077640Y-055835D02*
G01X0077834Y-055641D01*
G01X0077834Y-055641D02*
G01X0077939Y-055387D01*
G01X0077939Y-055387D02*
G01X0077940Y-055113D01*
G01X0077940Y-055113D02*
G01X0077940Y-057390D01*
G01X0077940Y-057390D02*
G01X0074790Y-057390D01*
G01X0074790Y-057390D02*
G01X0074790Y-054783D01*
G01X0074790Y-054783D02*
G01X0074716Y-054710D01*
G01X0074716Y-054710D02*
G01X0072109Y-054710D01*
G01X0072109Y-054710D02*
G01X0072109Y-054585D01*
G01X0072109Y-054585D02*
G01X0072362Y-054689D01*
G01X0072362Y-054689D02*
G01X0072636Y-054690D01*
G01X0072636Y-054690D02*
G01X0072890Y-054585D01*
G01X0072890Y-054585D02*
G01X0073084Y-054391D01*
G01X0073084Y-054391D02*
G01X0073189Y-054137D01*
G01X0073189Y-054137D02*
G01X0073189Y-054002D01*
G01X0073189Y-054002D02*
G01X0073596Y-053596D01*
G01X0073596Y-053596D02*
G01X0073596Y-053596D01*
G01X0073596Y-053596D02*
G01X0073702Y-053437D01*
G01X0073702Y-053437D02*
G01X0073739Y-053250D01*
G01X0073739Y-053250D02*
G01X0073740Y-053250D01*
G01X0073740Y-053250D02*
G01X0073740Y-052970D01*
G01X0073740Y-052970D02*
G01X0073757Y-052988D01*
G01X0073757Y-052988D02*
G01X0073882Y-053039D01*
G01X0073882Y-053039D02*
G01X0074017Y-053040D01*
G01X0074017Y-053040D02*
G01X0074617Y-053040D01*
G01X0074617Y-053040D02*
G01X0074742Y-052988D01*
G01X0074742Y-052988D02*
G01X0074836Y-052894D01*
G01X0074836Y-052894D02*
G01X0075005Y-053006D01*
G01X0075005Y-053006D02*
G01X0075250Y-053055D01*
G01X0075250Y-053055D02*
G01X0075494Y-053006D01*
G01X0075494Y-053006D02*
G01X0075702Y-052868D01*
G01X0075702Y-052868D02*
G01X0075749Y-052797D01*
G01X0075749Y-052797D02*
G01X0075797Y-052868D01*
G01X0075797Y-052868D02*
G01X0076005Y-053006D01*
G01X0076005Y-053006D02*
G01X0076250Y-053055D01*
G01X0076250Y-053055D02*
G01X0076494Y-053006D01*
G01X0076494Y-053006D02*
G01X0076702Y-052868D01*
G01X0076702Y-052868D02*
G01X0076749Y-052797D01*
G01X0076749Y-052797D02*
G01X0076797Y-052868D01*
G01X0076797Y-052868D02*
G01X0077005Y-053006D01*
G01X0077005Y-053006D02*
G01X0077250Y-053055D01*
G01X0077250Y-053055D02*
G01X0077494Y-053006D01*
G01X0077494Y-053006D02*
G01X0077702Y-052868D01*
G01X0077702Y-052868D02*
G01X0077749Y-052797D01*
G01X0077749Y-052797D02*
G01X0077760Y-052811D01*
G01X0077760Y-052811D02*
G01X0077760Y-053000D01*
G01X0077760Y-053000D02*
G01X0077797Y-053187D01*
G01X0077797Y-053187D02*
G01X0077903Y-053346D01*
G01X0077903Y-053346D02*
G01X0078153Y-053596D01*
G01X0078153Y-053596D02*
G01X0078153Y-053596D01*
G01X0078153Y-053596D02*
G01X0078312Y-053702D01*
G01X0078312Y-053702D02*
G01X0078500Y-053740D01*
G01X0078500Y-053740D02*
G01X0079648Y-053740D01*
G01X0079648Y-053740D02*
G01X0079610Y-053931D01*
G01X0079610Y-053931D02*
G01X0079610Y-054568D01*
G01X0079610Y-054568D02*
G01X0079658Y-054813D01*
G01X0079658Y-054813D02*
G01X0079797Y-055020D01*
G01X0079797Y-055020D02*
G01X0080005Y-055159D01*
G01X0080005Y-055159D02*
G01X0080250Y-055208D01*
G01X0080250Y-055208D02*
G01X0080494Y-055159D01*
G01X0080494Y-055159D02*
G01X0080702Y-055020D01*
G01X0080702Y-055020D02*
G01X0080750Y-054949D01*
G01X0080750Y-054949D02*
G01X0080797Y-055020D01*
G01X0080797Y-055020D02*
G01X0081005Y-055159D01*
G01X0081005Y-055159D02*
G01X0081250Y-055208D01*
G01X0081250Y-055208D02*
G01X0081494Y-055159D01*
G01X0081494Y-055159D02*
G01X0081702Y-055020D01*
G01X0081702Y-055020D02*
G01X0081750Y-054949D01*
G01X0081750Y-054949D02*
G01X0081797Y-055020D01*
G01X0081797Y-055020D02*
G01X0082005Y-055159D01*
G01X0082005Y-055159D02*
G01X0082250Y-055208D01*
G01X0082250Y-055208D02*
G01X0082494Y-055159D01*
G01X0082494Y-055159D02*
G01X0082702Y-055020D01*
G01X0082702Y-055020D02*
G01X0082841Y-054813D01*
G01X0082841Y-054813D02*
G01X0082890Y-054568D01*
G01X0082890Y-054568D02*
G01X0082890Y-053931D01*
G01X0082890Y-053931D02*
G01X0082841Y-053686D01*
G01X0082841Y-053686D02*
G01X0082702Y-053479D01*
G01X0082702Y-053479D02*
G01X0082602Y-053411D01*
G01X0082602Y-053411D02*
G01X0082596Y-053403D01*
G01X0082596Y-053403D02*
G01X0082096Y-052903D01*
G01X0082096Y-052903D02*
G01X0081937Y-052797D01*
G01X0081937Y-052797D02*
G01X0081771Y-052764D01*
G01X0081771Y-052764D02*
G01X0081841Y-052660D01*
G01X0081841Y-052660D02*
G01X0081890Y-052415D01*
G01X0081890Y-052415D02*
G01X0081890Y-052084D01*
G01X0081890Y-052084D02*
G01X0081841Y-051839D01*
G01X0081841Y-051839D02*
G01X0081702Y-051631D01*
G01X0081702Y-051631D02*
G01X0081494Y-051493D01*
G01X0081494Y-051493D02*
G01X0081250Y-051444D01*
G01X0081250Y-051444D02*
G01X0081005Y-051493D01*
G01X0081005Y-051493D02*
G01X0080797Y-051631D01*
G01X0080797Y-051631D02*
G01X0080750Y-051702D01*
G01X0080750Y-051702D02*
G01X0080702Y-051631D01*
G01X0080702Y-051631D02*
G01X0080494Y-051493D01*
G01X0080494Y-051493D02*
G01X0080250Y-051444D01*
G01X0080250Y-051444D02*
G01X0080005Y-051493D01*
G01X0080005Y-051493D02*
G01X0079797Y-051631D01*
G01X0079797Y-051631D02*
G01X0079750Y-051702D01*
G01X0079750Y-051702D02*
G01X0079702Y-051631D01*
G01X0079702Y-051631D02*
G01X0079494Y-051493D01*
G01X0079494Y-051493D02*
G01X0079250Y-051444D01*
G01X0079250Y-051444D02*
G01X0079005Y-051493D01*
G01X0079005Y-051493D02*
G01X0078797Y-051631D01*
G01X0078797Y-051631D02*
G01X0078750Y-051702D01*
G01X0078750Y-051702D02*
G01X0078702Y-051631D01*
G01X0078702Y-051631D02*
G01X0078494Y-051493D01*
G01X0078494Y-051493D02*
G01X0078250Y-051444D01*
G01X0078250Y-051444D02*
G01X0078005Y-051493D01*
G01X0078005Y-051493D02*
G01X0077797Y-051631D01*
G01X0077797Y-051631D02*
G01X0077750Y-051702D01*
G01X0077750Y-051702D02*
G01X0077702Y-051631D01*
G01X0077702Y-051631D02*
G01X0077494Y-051493D01*
G01X0077494Y-051493D02*
G01X0077250Y-051444D01*
G01X0077250Y-051444D02*
G01X0077005Y-051493D01*
G01X0077005Y-051493D02*
G01X0076797Y-051631D01*
G01X0076797Y-051631D02*
G01X0076750Y-051702D01*
G01X0076750Y-051702D02*
G01X0076702Y-051631D01*
G01X0076702Y-051631D02*
G01X0076494Y-051493D01*
G01X0076494Y-051493D02*
G01X0076250Y-051444D01*
G01X0076250Y-051444D02*
G01X0076005Y-051493D01*
G01X0076005Y-051493D02*
G01X0075797Y-051631D01*
G01X0075797Y-051631D02*
G01X0075750Y-051702D01*
G01X0075750Y-051702D02*
G01X0075702Y-051631D01*
G01X0075702Y-051631D02*
G01X0075494Y-051493D01*
G01X0075494Y-051493D02*
G01X0075250Y-051444D01*
G01X0075250Y-051444D02*
G01X0075005Y-051493D01*
G01X0075005Y-051493D02*
G01X0074836Y-051605D01*
G01X0074836Y-051605D02*
G01X0074742Y-051511D01*
G01X0074742Y-051511D02*
G01X0074740Y-051510D01*
G01X0074740Y-051510D02*
G01X0074740Y-051202D01*
G01X0074740Y-051202D02*
G01X0074952Y-050990D01*
G01X0074952Y-050990D02*
G01X0081000Y-050990D01*
G01X0081000Y-050990D02*
G01X0081187Y-050952D01*
G01X0081187Y-050952D02*
G01X0081187Y-050952D01*
G01X0081187Y-050952D02*
G01X0081346Y-050846D01*
G01X0081346Y-050846D02*
G01X0081596Y-050596D01*
G01X0081596Y-050596D02*
G01X0081596Y-050596D01*
G01X0081596Y-050596D02*
G01X0081702Y-050437D01*
G01X0081702Y-050437D02*
G01X0081739Y-050250D01*
G01X0081739Y-050250D02*
G01X0081740Y-050250D01*
G01X0081740Y-050250D02*
G01X0081740Y-049811D01*
G01X0081740Y-049811D02*
G01X0081841Y-049660D01*
G01X0081841Y-049660D02*
G01X0081890Y-049415D01*
G01X0081890Y-049415D02*
G01X0081890Y-049084D01*
G01X0081890Y-049084D02*
G01X0081841Y-048839D01*
G01X0081841Y-048839D02*
G01X0081774Y-048740D01*
G01X0081774Y-048740D02*
G01X0083047Y-048740D01*
G01X0083047Y-048740D02*
G01X0083260Y-048952D01*
G01X0083260Y-048952D02*
G01X0083260Y-049000D01*
G01X0083260Y-049000D02*
G01X0083260Y-050053D01*
G01X0083260Y-050053D02*
G01X0083228Y-049976D01*
G01X0083228Y-049976D02*
G01X0083136Y-049948D01*
G01X0083136Y-049948D02*
G01X0083051Y-050032D01*
G01X0083051Y-050032D02*
G01X0083051Y-049863D01*
G01X0083051Y-049863D02*
G01X0083023Y-049771D01*
G01X0083023Y-049771D02*
G01X0082819Y-049703D01*
G01X0082819Y-049703D02*
G01X0082605Y-049718D01*
G01X0082605Y-049718D02*
G01X0082476Y-049771D01*
G01X0082476Y-049771D02*
G01X0082448Y-049863D01*
G01X0082448Y-049863D02*
G01X0082750Y-050165D01*
G01X0082750Y-050165D02*
G01X0083051Y-049863D01*
G01X0083051Y-049863D02*
G01X0083051Y-050032D01*
G01X0083051Y-050032D02*
G01X0082834Y-050250D01*
G01X0082834Y-050250D02*
G01X0083136Y-050551D01*
G01X0083136Y-050551D02*
G01X0083228Y-050523D01*
G01X0083228Y-050523D02*
G01X0083260Y-050427D01*
G01X0083260Y-050427D02*
G01X0083260Y-051855D01*
G01X0083260Y-051855D02*
G01X0083113Y-051707D01*
G01X0083113Y-051707D02*
G01X0083051Y-051682D01*
G01X0083051Y-051682D02*
G01X0083051Y-050636D01*
G01X0083051Y-050636D02*
G01X0082750Y-050334D01*
G01X0082750Y-050334D02*
G01X0082665Y-050419D01*
G01X0082665Y-050419D02*
G01X0082665Y-050250D01*
G01X0082665Y-050250D02*
G01X0082363Y-049948D01*
G01X0082363Y-049948D02*
G01X0082271Y-049976D01*
G01X0082271Y-049976D02*
G01X0082203Y-050180D01*
G01X0082203Y-050180D02*
G01X0082218Y-050394D01*
G01X0082218Y-050394D02*
G01X0082271Y-050523D01*
G01X0082271Y-050523D02*
G01X0082363Y-050551D01*
G01X0082363Y-050551D02*
G01X0082665Y-050250D01*
G01X0082665Y-050250D02*
G01X0082665Y-050419D01*
G01X0082665Y-050419D02*
G01X0082448Y-050636D01*
G01X0082448Y-050636D02*
G01X0082476Y-050728D01*
G01X0082476Y-050728D02*
G01X0082680Y-050796D01*
G01X0082680Y-050796D02*
G01X0082894Y-050781D01*
G01X0082894Y-050781D02*
G01X0083023Y-050728D01*
G01X0083023Y-050728D02*
G01X0083051Y-050636D01*
G01X0083051Y-050636D02*
G01X0083051Y-051682D01*
G01X0083051Y-051682D02*
G01X0082877Y-051610D01*
G01X0082877Y-051610D02*
G01X0082623Y-051609D01*
G01X0082623Y-051609D02*
G01X0082387Y-051707D01*
G01X0082387Y-051707D02*
G01X0082207Y-051886D01*
G01X0082207Y-051886D02*
G01X0082110Y-052122D01*
G01X0082110Y-052122D02*
G01X0082109Y-052376D01*
G01X0082109Y-052376D02*
G01X0082207Y-052612D01*
G01X0082207Y-052612D02*
G01X0082386Y-052792D01*
G01X0082386Y-052792D02*
G01X0082622Y-052889D01*
G01X0082622Y-052889D02*
G01X0082876Y-052890D01*
G01X0082876Y-052890D02*
G01X0083112Y-052792D01*
G01X0083112Y-052792D02*
G01X0083260Y-052645D01*
G01X0083260Y-052645D02*
G01X0083260Y-052750D01*
G01X0083260Y-052750D02*
G01X0083297Y-052937D01*
G01X0083297Y-052937D02*
G01X0083403Y-053096D01*
G01X0083403Y-053096D02*
G01X0083514Y-053207D01*
G01X0083514Y-053207D02*
G01X0083355Y-053218D01*
G01X0083355Y-053218D02*
G01X0083226Y-053271D01*
G01X0083226Y-053271D02*
G01X0083198Y-053363D01*
G01X0083198Y-053363D02*
G01X0083500Y-053665D01*
G01X0083500Y-053665D02*
G01X0083505Y-053659D01*
G01X0083505Y-053659D02*
G01X0083590Y-053744D01*
G01X0083590Y-053744D02*
G01X0083584Y-053750D01*
G01X0083584Y-053750D02*
G01X0083886Y-054051D01*
G01X0083886Y-054051D02*
G01X0083978Y-054023D01*
G01X0083978Y-054023D02*
G01X0084046Y-053819D01*
G01X0084046Y-053819D02*
G01X0084031Y-053605D01*
G01X0084031Y-053605D02*
G01X0083982Y-053486D01*
G01X0083982Y-053486D02*
G01X0084000Y-053490D01*
G01X0084000Y-053490D02*
G01X0084914Y-053490D01*
G01X0084914Y-053490D02*
G01X0084860Y-053622D01*
G01X0084860Y-053622D02*
G01X0084859Y-053876D01*
G01X0084859Y-053876D02*
G01X0084957Y-054112D01*
G01X0084957Y-054112D02*
G01X0085094Y-054250D01*
G01X0085094Y-054250D02*
G01X0084957Y-054386D01*
G01X0084957Y-054386D02*
G01X0084860Y-054622D01*
G01X0084860Y-054622D02*
G01X0084859Y-054876D01*
G01X0084859Y-054876D02*
G01X0084957Y-055112D01*
G01X0084957Y-055112D02*
G01X0085136Y-055292D01*
G01X0085136Y-055292D02*
G01X0085372Y-055389D01*
G01X0085372Y-055389D02*
G01X0085610Y-055390D01*
G01X0085610Y-055390D02*
G01X0085609Y-055517D01*
G01X0085609Y-055517D02*
G01X0085609Y-055800D01*
G01X0085609Y-055800D02*
G01X0085589Y-055775D01*
G01X0085589Y-055775D02*
G01X0085393Y-055679D01*
G01X0085393Y-055679D02*
G01X0085310Y-055723D01*
G01X0085310Y-055723D02*
G01X0085310Y-056440D01*
G01X0085310Y-056440D02*
G01X0085317Y-056440D01*
G01X0085317Y-056440D02*
G01X0085317Y-056560D01*
G01X0085317Y-056560D02*
G01X0085310Y-056560D01*
G01X0085310Y-056560D02*
G01X0085310Y-057276D01*
G01X0085310Y-057276D02*
G01X0085393Y-057320D01*
G01X0085393Y-057320D02*
G01X0085589Y-057224D01*
G01X0085589Y-057224D02*
G01X0085699Y-057093D01*
G01X0085699Y-057093D02*
G01X0085707Y-057112D01*
G01X0085707Y-057112D02*
G01X0085886Y-057292D01*
G01X0085886Y-057292D02*
G01X0086122Y-057389D01*
G01X0086122Y-057389D02*
G01X0086376Y-057390D01*
G01X0086376Y-057390D02*
G01X0086612Y-057292D01*
G01X0086612Y-057292D02*
G01X0086665Y-057240D01*
G01X0086665Y-057240D02*
G01X0087000Y-057240D01*
G01X0087000Y-057240D02*
G01X0087187Y-057202D01*
G01X0087187Y-057202D02*
G01X0087187Y-057202D01*
G01X0087187Y-057202D02*
G01X0087346Y-057096D01*
G01X0087346Y-057096D02*
G01X0087596Y-056846D01*
G01X0087596Y-056846D02*
G01X0087596Y-056846D01*
G01X0087596Y-056846D02*
G01X0087702Y-056687D01*
G01X0087702Y-056687D02*
G01X0087739Y-056500D01*
G01X0087739Y-056500D02*
G01X0087740Y-056500D01*
G01X0087740Y-056500D02*
G01X0087740Y-054000D01*
G01X0087740Y-054000D02*
G01X0087702Y-053812D01*
G01X0087702Y-053812D02*
G01X0087596Y-053653D01*
G01X0087596Y-053653D02*
G01X0087596Y-053653D01*
G01X0087596Y-053653D02*
G01X0087432Y-053490D01*
G01X0087432Y-053490D02*
G01X0088297Y-053490D01*
G01X0088297Y-053490D02*
G01X0088609Y-053802D01*
G01X0088609Y-053802D02*
G01X0088609Y-053876D01*
G01X0088609Y-053876D02*
G01X0088707Y-054112D01*
G01X0088707Y-054112D02*
G01X0088844Y-054250D01*
G01X0088844Y-054250D02*
G01X0088707Y-054386D01*
G01X0088707Y-054386D02*
G01X0088610Y-054622D01*
G01X0088610Y-054622D02*
G01X0088609Y-054876D01*
G01X0088609Y-054876D02*
G01X0088707Y-055112D01*
G01X0088707Y-055112D02*
G01X0088844Y-055250D01*
G01X0088844Y-055250D02*
G01X0088707Y-055386D01*
G01X0088707Y-055386D02*
G01X0088610Y-055622D01*
G01X0088610Y-055622D02*
G01X0088609Y-055876D01*
G01X0088609Y-055876D02*
G01X0088707Y-056112D01*
G01X0088707Y-056112D02*
G01X0088757Y-056162D01*
G01X0088757Y-056162D02*
G01X0088661Y-056257D01*
G01X0088661Y-056257D02*
G01X0088610Y-056382D01*
G01X0088610Y-056382D02*
G01X0088609Y-056517D01*
G01X0088609Y-056517D02*
G01X0088609Y-057117D01*
G01X0088609Y-057117D02*
G01X0088661Y-057242D01*
G01X0088661Y-057242D02*
G01X0088757Y-057338D01*
G01X0088757Y-057338D02*
G01X0088882Y-057389D01*
G01X0088882Y-057389D02*
G01X0089017Y-057390D01*
G01X0089017Y-057390D02*
G01X0089617Y-057390D01*
G01X0089617Y-057390D02*
G01X0089742Y-057338D01*
G01X0089742Y-057338D02*
G01X0089838Y-057242D01*
G01X0089838Y-057242D02*
G01X0089889Y-057117D01*
G01X0089889Y-057117D02*
G01X0089890Y-056982D01*
G01X0089890Y-056982D02*
G01X0089890Y-056382D01*
G01X0089890Y-056382D02*
G01X0089838Y-056257D01*
G01X0089838Y-056257D02*
G01X0089743Y-056162D01*
G01X0089743Y-056162D02*
G01X0089792Y-056113D01*
G01X0089792Y-056113D02*
G01X0089889Y-055877D01*
G01X0089889Y-055877D02*
G01X0089890Y-055623D01*
G01X0089890Y-055623D02*
G01X0089792Y-055387D01*
G01X0089792Y-055387D02*
G01X0089655Y-055249D01*
G01X0089655Y-055249D02*
G01X0089792Y-055113D01*
G01X0089792Y-055113D02*
G01X0089889Y-054877D01*
G01X0089889Y-054877D02*
G01X0089890Y-054623D01*
G01X0089890Y-054623D02*
G01X0089792Y-054387D01*
G01X0089792Y-054387D02*
G01X0089655Y-054249D01*
G01X0089655Y-054249D02*
G01X0089792Y-054113D01*
G01X0089792Y-054113D02*
G01X0089889Y-053877D01*
G01X0089889Y-053877D02*
G01X0089890Y-053623D01*
G01X0089890Y-053623D02*
G01X0089792Y-053387D01*
G01X0089792Y-053387D02*
G01X0089613Y-053207D01*
G01X0089613Y-053207D02*
G01X0089377Y-053110D01*
G01X0089377Y-053110D02*
G01X0089303Y-053110D01*
G01X0089303Y-053110D02*
G01X0089248Y-053055D01*
G01X0089248Y-053055D02*
G01X0089250Y-053055D01*
G01X0089250Y-053055D02*
G01X0089494Y-053006D01*
G01X0089494Y-053006D02*
G01X0089702Y-052868D01*
G01X0089702Y-052868D02*
G01X0089750Y-052797D01*
G01X0089750Y-052797D02*
G01X0089797Y-052868D01*
G01X0089797Y-052868D02*
G01X0090005Y-053006D01*
G01X0090005Y-053006D02*
G01X0090250Y-053055D01*
G01X0090250Y-053055D02*
G01X0090494Y-053006D01*
G01X0090494Y-053006D02*
G01X0090702Y-052868D01*
G01X0090702Y-052868D02*
G01X0090810Y-052705D01*
G01X0090810Y-052705D02*
G01X0090910Y-052824D01*
G01X0090910Y-052824D02*
G01X0091106Y-052920D01*
G01X0091106Y-052920D02*
G01X0091190Y-052876D01*
G01X0091190Y-052876D02*
G01X0091190Y-052310D01*
G01X0091190Y-052310D02*
G01X0091182Y-052310D01*
G01X0091182Y-052310D02*
G01X0091182Y-052190D01*
G01X0091182Y-052190D02*
G01X0091190Y-052190D01*
G01X0091190Y-052190D02*
G01X0091190Y-051623D01*
G01X0091190Y-051623D02*
G01X0091106Y-051579D01*
G01X0091106Y-051579D02*
G01X0090910Y-051675D01*
G01X0090910Y-051675D02*
G01X0090810Y-051794D01*
G01X0090810Y-051794D02*
G01X0090702Y-051631D01*
G01X0090702Y-051631D02*
G01X0090494Y-051493D01*
G01X0090494Y-051493D02*
G01X0090250Y-051444D01*
G01X0090250Y-051444D02*
G01X0090005Y-051493D01*
G01X0090005Y-051493D02*
G01X0089797Y-051631D01*
G01X0089797Y-051631D02*
G01X0089750Y-051702D01*
G01X0089750Y-051702D02*
G01X0089702Y-051631D01*
G01X0089702Y-051631D02*
G01X0089494Y-051493D01*
G01X0089494Y-051493D02*
G01X0089250Y-051444D01*
G01X0089250Y-051444D02*
G01X0089005Y-051493D01*
G01X0089005Y-051493D02*
G01X0088797Y-051631D01*
G01X0088797Y-051631D02*
G01X0088750Y-051702D01*
G01X0088750Y-051702D02*
G01X0088740Y-051688D01*
G01X0088740Y-051688D02*
G01X0088740Y-050740D01*
G01X0088740Y-050740D02*
G01X0094803Y-050740D01*
G01X0094803Y-050740D02*
G01X0094726Y-050771D01*
G01X0094726Y-050771D02*
G01X0094698Y-050863D01*
G01X0094698Y-050863D02*
G01X0095000Y-051165D01*
G01X0095000Y-051165D02*
G01X0095301Y-050863D01*
G01X0095301Y-050863D02*
G01X0095273Y-050771D01*
G01X0095273Y-050771D02*
G01X0095177Y-050740D01*
G01X0095177Y-050740D02*
G01X0095510Y-050740D01*
G01X0095510Y-050740D02*
G01X0095510Y-051053D01*
G01X0095510Y-051053D02*
G01X0095478Y-050976D01*
G01X0095478Y-050976D02*
G01X0095386Y-050948D01*
G01X0095386Y-050948D02*
G01X0095084Y-051250D01*
G01X0095084Y-051250D02*
G01X0095386Y-051551D01*
G01X0095386Y-051551D02*
G01X0095478Y-051523D01*
G01X0095478Y-051523D02*
G01X0095510Y-051427D01*
G01X0095510Y-051427D02*
G01X0095510Y-052910D01*
G01X0095510Y-052910D02*
G01X0095507Y-052911D01*
G01X0095507Y-052911D02*
G01X0095411Y-053007D01*
G01X0095411Y-053007D02*
G01X0095374Y-053097D01*
G01X0095374Y-053097D02*
G01X0095346Y-053068D01*
G01X0095346Y-053068D02*
G01X0095301Y-053113D01*
G01X0095301Y-053113D02*
G01X0095301Y-051636D01*
G01X0095301Y-051636D02*
G01X0095000Y-051334D01*
G01X0095000Y-051334D02*
G01X0094915Y-051419D01*
G01X0094915Y-051419D02*
G01X0094915Y-051250D01*
G01X0094915Y-051250D02*
G01X0094613Y-050948D01*
G01X0094613Y-050948D02*
G01X0094521Y-050976D01*
G01X0094521Y-050976D02*
G01X0094453Y-051180D01*
G01X0094453Y-051180D02*
G01X0094468Y-051394D01*
G01X0094468Y-051394D02*
G01X0094521Y-051523D01*
G01X0094521Y-051523D02*
G01X0094613Y-051551D01*
G01X0094613Y-051551D02*
G01X0094915Y-051250D01*
G01X0094915Y-051250D02*
G01X0094915Y-051419D01*
G01X0094915Y-051419D02*
G01X0094698Y-051636D01*
G01X0094698Y-051636D02*
G01X0094726Y-051728D01*
G01X0094726Y-051728D02*
G01X0094930Y-051796D01*
G01X0094930Y-051796D02*
G01X0095144Y-051781D01*
G01X0095144Y-051781D02*
G01X0095273Y-051728D01*
G01X0095273Y-051728D02*
G01X0095301Y-051636D01*
G01X0095301Y-051636D02*
G01X0095301Y-053113D01*
G01X0095301Y-053113D02*
G01X0095301Y-053113D01*
G01X0095301Y-053113D02*
G01X0095273Y-053021D01*
G01X0095273Y-053021D02*
G01X0095069Y-052953D01*
G01X0095069Y-052953D02*
G01X0094855Y-052968D01*
G01X0094855Y-052968D02*
G01X0094726Y-053021D01*
G01X0094726Y-053021D02*
G01X0094698Y-053113D01*
G01X0094698Y-053113D02*
G01X0095000Y-053415D01*
G01X0095000Y-053415D02*
G01X0095005Y-053409D01*
G01X0095005Y-053409D02*
G01X0095090Y-053494D01*
G01X0095090Y-053494D02*
G01X0095084Y-053500D01*
G01X0095084Y-053500D02*
G01X0095090Y-053505D01*
G01X0095090Y-053505D02*
G01X0095005Y-053590D01*
G01X0095005Y-053590D02*
G01X0095000Y-053584D01*
G01X0095000Y-053584D02*
G01X0094915Y-053669D01*
G01X0094915Y-053669D02*
G01X0094915Y-053500D01*
G01X0094915Y-053500D02*
G01X0094613Y-053198D01*
G01X0094613Y-053198D02*
G01X0094521Y-053226D01*
G01X0094521Y-053226D02*
G01X0094453Y-053430D01*
G01X0094453Y-053430D02*
G01X0094468Y-053644D01*
G01X0094468Y-053644D02*
G01X0094521Y-053773D01*
G01X0094521Y-053773D02*
G01X0094613Y-053801D01*
G01X0094613Y-053801D02*
G01X0094915Y-053500D01*
G01X0094915Y-053500D02*
G01X0094915Y-053669D01*
G01X0094915Y-053669D02*
G01X0094698Y-053886D01*
G01X0094698Y-053886D02*
G01X0094726Y-053978D01*
G01X0094726Y-053978D02*
G01X0094930Y-054046D01*
G01X0094930Y-054046D02*
G01X0095144Y-054031D01*
G01X0095144Y-054031D02*
G01X0095273Y-053978D01*
G01X0095273Y-053978D02*
G01X0095301Y-053886D01*
G01X0095301Y-053886D02*
G01X0095301Y-053886D01*
G01X0095301Y-053886D02*
G01X0095346Y-053931D01*
G01X0095346Y-053931D02*
G01X0095374Y-053902D01*
G01X0095374Y-053902D02*
G01X0095411Y-053992D01*
G01X0095411Y-053992D02*
G01X0095507Y-054088D01*
G01X0095507Y-054088D02*
G01X0095632Y-054139D01*
G01X0095632Y-054139D02*
G01X0095767Y-054140D01*
G01X0095767Y-054140D02*
G01X0096367Y-054140D01*
G01X0096367Y-054140D02*
G01X0096492Y-054088D01*
G01X0096492Y-054088D02*
G01X0096588Y-053992D01*
G01X0096588Y-053992D02*
G01X0096639Y-053867D01*
G01X0096639Y-053867D02*
G01X0096640Y-053732D01*
G01X0096640Y-053732D02*
G01X0096640Y-053132D01*
G01X0096640Y-053132D02*
G01X0096588Y-053007D01*
G01X0096588Y-053007D02*
G01X0096492Y-052911D01*
G01X0096492Y-052911D02*
G01X0096490Y-052910D01*
G01X0096490Y-052910D02*
G01X0096490Y-051742D01*
G01X0096490Y-051742D02*
G01X0096640Y-051790D01*
G01X0096640Y-051790D02*
G01X0096940Y-051790D01*
G01X0096940Y-051790D02*
G01X0096940Y-051310D01*
G01X0096940Y-051310D02*
G01X0096932Y-051310D01*
G01X0096932Y-051310D02*
G01X0096932Y-051190D01*
G01X0096932Y-051190D02*
G01X0096940Y-051190D01*
G01X0096940Y-051190D02*
G01X0096940Y-051182D01*
G01X0096940Y-051182D02*
G01X0097060Y-051182D01*
G01X0097060Y-051182D02*
G01X0097060Y-051190D01*
G01X0097060Y-051190D02*
G01X0097776Y-051190D01*
G01X0097776Y-051190D02*
G01X0097820Y-051106D01*
G01X0097820Y-051106D02*
G01X0097724Y-050910D01*
G01X0097724Y-050910D02*
G01X0097607Y-050812D01*
G01X0097607Y-050812D02*
G01X0097770Y-050702D01*
G01X0097770Y-050702D02*
G01X0097909Y-050494D01*
G01X0097909Y-050494D02*
G01X0097958Y-050250D01*
G01X0097958Y-050250D02*
G01X0097909Y-050005D01*
G01X0097909Y-050005D02*
G01X0097770Y-049797D01*
G01X0097770Y-049797D02*
G01X0097699Y-049749D01*
G01X0097699Y-049749D02*
G01X0097770Y-049702D01*
G01X0097770Y-049702D02*
G01X0097909Y-049494D01*
G01X0097909Y-049494D02*
G01X0097958Y-049250D01*
G01X0097958Y-049250D02*
G01X0097909Y-049005D01*
G01X0097909Y-049005D02*
G01X0097770Y-048797D01*
G01X0097770Y-048797D02*
G01X0097563Y-048658D01*
G01X0097563Y-048658D02*
G01X0097318Y-048610D01*
G01X0097318Y-048610D02*
G01X0096681Y-048610D01*
G01X0096681Y-048610D02*
G01X0096640Y-048618D01*
G01X0096640Y-048618D02*
G01X0096640Y-047232D01*
G01X0096640Y-047232D02*
G01X0096640Y-046632D01*
G01X0096640Y-046632D02*
G01X0096588Y-046507D01*
G01X0096588Y-046507D02*
G01X0096492Y-046411D01*
G01X0096492Y-046411D02*
G01X0096367Y-046360D01*
G01X0096367Y-046360D02*
G01X0096232Y-046359D01*
G01X0096232Y-046359D02*
G01X0095632Y-046359D01*
G01X0095632Y-046359D02*
G01X0095507Y-046411D01*
G01X0095507Y-046411D02*
G01X0095411Y-046507D01*
G01X0095411Y-046507D02*
G01X0095374Y-046597D01*
G01X0095374Y-046597D02*
G01X0095346Y-046568D01*
G01X0095346Y-046568D02*
G01X0095301Y-046613D01*
G01X0095301Y-046613D02*
G01X0095273Y-046521D01*
G01X0095273Y-046521D02*
G01X0095069Y-046453D01*
G01X0095069Y-046453D02*
G01X0094855Y-046468D01*
G01X0094855Y-046468D02*
G01X0094726Y-046521D01*
G01X0094726Y-046521D02*
G01X0094698Y-046613D01*
G01X0094698Y-046613D02*
G01X0095000Y-046915D01*
G01X0095000Y-046915D02*
G01X0095005Y-046909D01*
G01X0095005Y-046909D02*
G01X0095090Y-046994D01*
G01X0095090Y-046994D02*
G01X0095084Y-047000D01*
G01X0095084Y-047000D02*
G01X0095090Y-047005D01*
G01X0095090Y-047005D02*
G01X0095005Y-047090D01*
G01X0095005Y-047090D02*
G01X0095000Y-047084D01*
G01X0095000Y-047084D02*
G01X0094915Y-047169D01*
G01X0094915Y-047169D02*
G01X0094915Y-047000D01*
G01X0094915Y-047000D02*
G01X0094613Y-046698D01*
G01X0094613Y-046698D02*
G01X0094521Y-046726D01*
G01X0094521Y-046726D02*
G01X0094453Y-046930D01*
G01X0094453Y-046930D02*
G01X0094468Y-047144D01*
G01X0094468Y-047144D02*
G01X0094521Y-047273D01*
G01X0094521Y-047273D02*
G01X0094613Y-047301D01*
G01X0094613Y-047301D02*
G01X0094915Y-047000D01*
G01X0094915Y-047000D02*
G01X0094915Y-047169D01*
G01X0094915Y-047169D02*
G01X0094698Y-047386D01*
G01X0094698Y-047386D02*
G01X0094726Y-047478D01*
G01X0094726Y-047478D02*
G01X0094930Y-047546D01*
G01X0094930Y-047546D02*
G01X0095144Y-047531D01*
G01X0095144Y-047531D02*
G01X0095273Y-047478D01*
G01X0095273Y-047478D02*
G01X0095301Y-047386D01*
G01X0095301Y-047386D02*
G01X0095301Y-047386D01*
G01X0095301Y-047386D02*
G01X0095346Y-047431D01*
G01X0095346Y-047431D02*
G01X0095374Y-047402D01*
G01X0095374Y-047402D02*
G01X0095411Y-047492D01*
G01X0095411Y-047492D02*
G01X0095507Y-047588D01*
G01X0095507Y-047588D02*
G01X0095632Y-047639D01*
G01X0095632Y-047639D02*
G01X0095767Y-047640D01*
G01X0095767Y-047640D02*
G01X0096367Y-047640D01*
G01X0096367Y-047640D02*
G01X0096492Y-047588D01*
G01X0096492Y-047588D02*
G01X0096588Y-047492D01*
G01X0096588Y-047492D02*
G01X0096639Y-047367D01*
G01X0096639Y-047367D02*
G01X0096640Y-047232D01*
G01X0096640Y-047232D02*
G01X0096640Y-048618D01*
G01X0096640Y-048618D02*
G01X0096436Y-048658D01*
G01X0096436Y-048658D02*
G01X0096229Y-048797D01*
G01X0096229Y-048797D02*
G01X0096090Y-049005D01*
G01X0096090Y-049005D02*
G01X0096041Y-049250D01*
G01X0096041Y-049250D02*
G01X0096090Y-049494D01*
G01X0096090Y-049494D02*
G01X0096229Y-049702D01*
G01X0096229Y-049702D02*
G01X0096300Y-049750D01*
G01X0096300Y-049750D02*
G01X0096285Y-049760D01*
G01X0096285Y-049760D02*
G01X0096000Y-049760D01*
G01X0096000Y-049760D02*
G01X0095394Y-049760D01*
G01X0095394Y-049760D02*
G01X0095542Y-049613D01*
G01X0095542Y-049613D02*
G01X0095639Y-049377D01*
G01X0095639Y-049377D02*
G01X0095640Y-049123D01*
G01X0095640Y-049123D02*
G01X0095542Y-048887D01*
G01X0095542Y-048887D02*
G01X0095363Y-048707D01*
G01X0095363Y-048707D02*
G01X0095301Y-048682D01*
G01X0095301Y-048682D02*
G01X0095127Y-048610D01*
G01X0095127Y-048610D02*
G01X0094873Y-048609D01*
G01X0094873Y-048609D02*
G01X0094637Y-048707D01*
G01X0094637Y-048707D02*
G01X0094457Y-048886D01*
G01X0094457Y-048886D02*
G01X0094360Y-049122D01*
G01X0094360Y-049122D02*
G01X0094359Y-049376D01*
G01X0094359Y-049376D02*
G01X0094457Y-049612D01*
G01X0094457Y-049612D02*
G01X0094604Y-049760D01*
G01X0094604Y-049760D02*
G01X0093643Y-049760D01*
G01X0093643Y-049760D02*
G01X0093725Y-049662D01*
G01X0093725Y-049662D02*
G01X0093790Y-049460D01*
G01X0093790Y-049460D02*
G01X0093790Y-049310D01*
G01X0093790Y-049310D02*
G01X0093790Y-049190D01*
G01X0093790Y-049190D02*
G01X0093790Y-049040D01*
G01X0093790Y-049040D02*
G01X0093725Y-048837D01*
G01X0093725Y-048837D02*
G01X0093589Y-048675D01*
G01X0093589Y-048675D02*
G01X0093393Y-048579D01*
G01X0093393Y-048579D02*
G01X0093310Y-048623D01*
G01X0093310Y-048623D02*
G01X0093310Y-049190D01*
G01X0093310Y-049190D02*
G01X0093790Y-049190D01*
G01X0093790Y-049190D02*
G01X0093790Y-049310D01*
G01X0093790Y-049310D02*
G01X0093310Y-049310D01*
G01X0093310Y-049310D02*
G01X0093310Y-049317D01*
G01X0093310Y-049317D02*
G01X0093190Y-049317D01*
G01X0093190Y-049317D02*
G01X0093190Y-049310D01*
G01X0093190Y-049310D02*
G01X0093190Y-049190D01*
G01X0093190Y-049190D02*
G01X0093190Y-048623D01*
G01X0093190Y-048623D02*
G01X0093106Y-048579D01*
G01X0093106Y-048579D02*
G01X0092910Y-048675D01*
G01X0092910Y-048675D02*
G01X0092774Y-048837D01*
G01X0092774Y-048837D02*
G01X0092750Y-048913D01*
G01X0092750Y-048913D02*
G01X0092725Y-048837D01*
G01X0092725Y-048837D02*
G01X0092589Y-048675D01*
G01X0092589Y-048675D02*
G01X0092393Y-048579D01*
G01X0092393Y-048579D02*
G01X0092310Y-048623D01*
G01X0092310Y-048623D02*
G01X0092310Y-049190D01*
G01X0092310Y-049190D02*
G01X0092710Y-049190D01*
G01X0092710Y-049190D02*
G01X0092790Y-049190D01*
G01X0092790Y-049190D02*
G01X0093190Y-049190D01*
G01X0093190Y-049190D02*
G01X0093190Y-049310D01*
G01X0093190Y-049310D02*
G01X0092790Y-049310D01*
G01X0092790Y-049310D02*
G01X0092710Y-049310D01*
G01X0092710Y-049310D02*
G01X0092310Y-049310D01*
G01X0092310Y-049310D02*
G01X0092310Y-049317D01*
G01X0092310Y-049317D02*
G01X0092190Y-049317D01*
G01X0092190Y-049317D02*
G01X0092190Y-049310D01*
G01X0092190Y-049310D02*
G01X0092190Y-049190D01*
G01X0092190Y-049190D02*
G01X0092190Y-048623D01*
G01X0092190Y-048623D02*
G01X0092106Y-048579D01*
G01X0092106Y-048579D02*
G01X0091910Y-048675D01*
G01X0091910Y-048675D02*
G01X0091774Y-048837D01*
G01X0091774Y-048837D02*
G01X0091750Y-048913D01*
G01X0091750Y-048913D02*
G01X0091725Y-048837D01*
G01X0091725Y-048837D02*
G01X0091589Y-048675D01*
G01X0091589Y-048675D02*
G01X0091393Y-048579D01*
G01X0091393Y-048579D02*
G01X0091310Y-048623D01*
G01X0091310Y-048623D02*
G01X0091310Y-049190D01*
G01X0091310Y-049190D02*
G01X0091710Y-049190D01*
G01X0091710Y-049190D02*
G01X0091790Y-049190D01*
G01X0091790Y-049190D02*
G01X0092190Y-049190D01*
G01X0092190Y-049190D02*
G01X0092190Y-049310D01*
G01X0092190Y-049310D02*
G01X0091790Y-049310D01*
G01X0091790Y-049310D02*
G01X0091710Y-049310D01*
G01X0091710Y-049310D02*
G01X0091310Y-049310D01*
G01X0091310Y-049310D02*
G01X0091310Y-049317D01*
G01X0091310Y-049317D02*
G01X0091190Y-049317D01*
G01X0091190Y-049317D02*
G01X0091190Y-049310D01*
G01X0091190Y-049310D02*
G01X0091182Y-049310D01*
G01X0091182Y-049310D02*
G01X0091182Y-049190D01*
G01X0091182Y-049190D02*
G01X0091190Y-049190D01*
G01X0091190Y-049190D02*
G01X0091190Y-048623D01*
G01X0091190Y-048623D02*
G01X0091106Y-048579D01*
G01X0091106Y-048579D02*
G01X0090910Y-048675D01*
G01X0090910Y-048675D02*
G01X0090810Y-048794D01*
G01X0090810Y-048794D02*
G01X0090702Y-048631D01*
G01X0090702Y-048631D02*
G01X0090494Y-048493D01*
G01X0090494Y-048493D02*
G01X0090250Y-048444D01*
G01X0090250Y-048444D02*
G01X0090005Y-048493D01*
G01X0090005Y-048493D02*
G01X0089797Y-048631D01*
G01X0089797Y-048631D02*
G01X0089750Y-048702D01*
G01X0089750Y-048702D02*
G01X0089740Y-048688D01*
G01X0089740Y-048688D02*
G01X0089740Y-047702D01*
G01X0089740Y-047702D02*
G01X0090252Y-047190D01*
G01X0090252Y-047190D02*
G01X0090386Y-047190D01*
G01X0090386Y-047190D02*
G01X0090640Y-047085D01*
G01X0090640Y-047085D02*
G01X0090834Y-046891D01*
G01X0090834Y-046891D02*
G01X0090939Y-046637D01*
G01X0090939Y-046637D02*
G01X0090940Y-046363D01*
G01X0090940Y-046363D02*
G01X0090835Y-046109D01*
G01X0090835Y-046109D02*
G01X0090725Y-045999D01*
G01X0090725Y-045999D02*
G01X0090834Y-045891D01*
G01X0090834Y-045891D02*
G01X0090939Y-045637D01*
G01X0090939Y-045637D02*
G01X0090940Y-045363D01*
G01X0090940Y-045363D02*
G01X0090835Y-045109D01*
G01X0090835Y-045109D02*
G01X0090641Y-044915D01*
G01X0090641Y-044915D02*
G01X0090387Y-044810D01*
G01X0090387Y-044810D02*
G01X0090113Y-044809D01*
G01X0090113Y-044809D02*
G01X0089859Y-044914D01*
G01X0089859Y-044914D02*
G01X0089665Y-045108D01*
G01X0089665Y-045108D02*
G01X0089560Y-045362D01*
G01X0089560Y-045362D02*
G01X0089559Y-045636D01*
G01X0089559Y-045636D02*
G01X0089664Y-045890D01*
G01X0089664Y-045890D02*
G01X0089774Y-046000D01*
G01X0089774Y-046000D02*
G01X0089665Y-046108D01*
G01X0089665Y-046108D02*
G01X0089560Y-046362D01*
G01X0089560Y-046362D02*
G01X0089560Y-046497D01*
G01X0089560Y-046497D02*
G01X0088903Y-047153D01*
G01X0088903Y-047153D02*
G01X0088839Y-047249D01*
G01X0088839Y-047249D02*
G01X0088889Y-047127D01*
G01X0088889Y-047127D02*
G01X0088890Y-046873D01*
G01X0088890Y-046873D02*
G01X0088792Y-046637D01*
G01X0088792Y-046637D02*
G01X0088613Y-046457D01*
G01X0088613Y-046457D02*
G01X0088377Y-046360D01*
G01X0088377Y-046360D02*
G01X0088123Y-046359D01*
G01X0088123Y-046359D02*
G01X0087887Y-046457D01*
G01X0087887Y-046457D02*
G01X0087707Y-046636D01*
G01X0087707Y-046636D02*
G01X0087610Y-046872D01*
G01X0087610Y-046872D02*
G01X0087609Y-047126D01*
G01X0087609Y-047126D02*
G01X0087707Y-047362D01*
G01X0087707Y-047362D02*
G01X0087886Y-047542D01*
G01X0087886Y-047542D02*
G01X0087960Y-047572D01*
G01X0087960Y-047572D02*
G01X0087948Y-047613D01*
G01X0087948Y-047613D02*
G01X0088250Y-047915D01*
G01X0088250Y-047915D02*
G01X0088551Y-047613D01*
G01X0088551Y-047613D02*
G01X0088539Y-047572D01*
G01X0088539Y-047572D02*
G01X0088612Y-047542D01*
G01X0088612Y-047542D02*
G01X0088786Y-047369D01*
G01X0088786Y-047369D02*
G01X0088760Y-047500D01*
G01X0088760Y-047500D02*
G01X0088760Y-047803D01*
G01X0088760Y-047803D02*
G01X0088728Y-047726D01*
G01X0088728Y-047726D02*
G01X0088636Y-047698D01*
G01X0088636Y-047698D02*
G01X0088334Y-048000D01*
G01X0088334Y-048000D02*
G01X0088636Y-048301D01*
G01X0088636Y-048301D02*
G01X0088728Y-048273D01*
G01X0088728Y-048273D02*
G01X0088760Y-048177D01*
G01X0088760Y-048177D02*
G01X0088760Y-048688D01*
G01X0088760Y-048688D02*
G01X0088689Y-048794D01*
G01X0088689Y-048794D02*
G01X0088589Y-048675D01*
G01X0088589Y-048675D02*
G01X0088551Y-048657D01*
G01X0088551Y-048657D02*
G01X0088393Y-048579D01*
G01X0088393Y-048579D02*
G01X0088310Y-048623D01*
G01X0088310Y-048623D02*
G01X0088310Y-049190D01*
G01X0088310Y-049190D02*
G01X0088317Y-049190D01*
G01X0088317Y-049190D02*
G01X0088317Y-049310D01*
G01X0088317Y-049310D02*
G01X0088310Y-049310D01*
G01X0088310Y-049310D02*
G01X0088310Y-049317D01*
G01X0088310Y-049317D02*
G01X0088190Y-049317D01*
G01X0088190Y-049317D02*
G01X0088190Y-049310D01*
G01X0088190Y-049310D02*
G01X0088182Y-049310D01*
G01X0088182Y-049310D02*
G01X0088182Y-049190D01*
G01X0088182Y-049190D02*
G01X0088190Y-049190D01*
G01X0088190Y-049190D02*
G01X0088190Y-048623D01*
G01X0088190Y-048623D02*
G01X0088106Y-048579D01*
G01X0088106Y-048579D02*
G01X0087910Y-048675D01*
G01X0087910Y-048675D02*
G01X0087810Y-048794D01*
G01X0087810Y-048794D02*
G01X0087730Y-048674D01*
G01X0087730Y-048674D02*
G01X0087792Y-048613D01*
G01X0087792Y-048613D02*
G01X0087878Y-048405D01*
G01X0087878Y-048405D02*
G01X0087903Y-048431D01*
G01X0087903Y-048431D02*
G01X0087948Y-048386D01*
G01X0087948Y-048386D02*
G01X0087976Y-048478D01*
G01X0087976Y-048478D02*
G01X0088180Y-048546D01*
G01X0088180Y-048546D02*
G01X0088394Y-048531D01*
G01X0088394Y-048531D02*
G01X0088523Y-048478D01*
G01X0088523Y-048478D02*
G01X0088551Y-048386D01*
G01X0088551Y-048386D02*
G01X0088250Y-048084D01*
G01X0088250Y-048084D02*
G01X0088244Y-048090D01*
G01X0088244Y-048090D02*
G01X0088159Y-048005D01*
G01X0088159Y-048005D02*
G01X0088165Y-048000D01*
G01X0088165Y-048000D02*
G01X0087863Y-047698D01*
G01X0087863Y-047698D02*
G01X0087771Y-047726D01*
G01X0087771Y-047726D02*
G01X0087736Y-047831D01*
G01X0087736Y-047831D02*
G01X0087613Y-047707D01*
G01X0087613Y-047707D02*
G01X0087377Y-047610D01*
G01X0087377Y-047610D02*
G01X0087123Y-047609D01*
G01X0087123Y-047609D02*
G01X0086887Y-047707D01*
G01X0086887Y-047707D02*
G01X0086707Y-047886D01*
G01X0086707Y-047886D02*
G01X0086610Y-048122D01*
G01X0086610Y-048122D02*
G01X0086609Y-048376D01*
G01X0086609Y-048376D02*
G01X0086707Y-048612D01*
G01X0086707Y-048612D02*
G01X0086769Y-048674D01*
G01X0086769Y-048674D02*
G01X0086750Y-048702D01*
G01X0086750Y-048702D02*
G01X0086702Y-048631D01*
G01X0086702Y-048631D02*
G01X0086494Y-048493D01*
G01X0086494Y-048493D02*
G01X0086250Y-048444D01*
G01X0086250Y-048444D02*
G01X0086005Y-048493D01*
G01X0086005Y-048493D02*
G01X0085797Y-048631D01*
G01X0085797Y-048631D02*
G01X0085658Y-048839D01*
G01X0085658Y-048839D02*
G01X0085610Y-049084D01*
G01X0085610Y-049084D02*
G01X0085610Y-049415D01*
G01X0085610Y-049415D02*
G01X0085658Y-049660D01*
G01X0085658Y-049660D02*
G01X0085754Y-049803D01*
G01X0085754Y-049803D02*
G01X0085046Y-050510D01*
G01X0085046Y-050510D02*
G01X0085046Y-049819D01*
G01X0085046Y-049819D02*
G01X0085031Y-049605D01*
G01X0085031Y-049605D02*
G01X0084978Y-049476D01*
G01X0084978Y-049476D02*
G01X0084886Y-049448D01*
G01X0084886Y-049448D02*
G01X0084584Y-049750D01*
G01X0084584Y-049750D02*
G01X0084886Y-050051D01*
G01X0084886Y-050051D02*
G01X0084978Y-050023D01*
G01X0084978Y-050023D02*
G01X0085046Y-049819D01*
G01X0085046Y-049819D02*
G01X0085046Y-050510D01*
G01X0085046Y-050510D02*
G01X0084447Y-051109D01*
G01X0084447Y-051109D02*
G01X0084373Y-051109D01*
G01X0084373Y-051109D02*
G01X0084240Y-051164D01*
G01X0084240Y-051164D02*
G01X0084240Y-050232D01*
G01X0084240Y-050232D02*
G01X0084430Y-050296D01*
G01X0084430Y-050296D02*
G01X0084644Y-050281D01*
G01X0084644Y-050281D02*
G01X0084773Y-050228D01*
G01X0084773Y-050228D02*
G01X0084801Y-050136D01*
G01X0084801Y-050136D02*
G01X0084500Y-049834D01*
G01X0084500Y-049834D02*
G01X0084494Y-049840D01*
G01X0084494Y-049840D02*
G01X0084409Y-049755D01*
G01X0084409Y-049755D02*
G01X0084415Y-049750D01*
G01X0084415Y-049750D02*
G01X0084409Y-049744D01*
G01X0084409Y-049744D02*
G01X0084494Y-049659D01*
G01X0084494Y-049659D02*
G01X0084500Y-049665D01*
G01X0084500Y-049665D02*
G01X0084801Y-049363D01*
G01X0084801Y-049363D02*
G01X0084773Y-049271D01*
G01X0084773Y-049271D02*
G01X0084569Y-049203D01*
G01X0084569Y-049203D02*
G01X0084355Y-049218D01*
G01X0084355Y-049218D02*
G01X0084240Y-049266D01*
G01X0084240Y-049266D02*
G01X0084240Y-049000D01*
G01X0084240Y-049000D02*
G01X0084240Y-048750D01*
G01X0084240Y-048750D02*
G01X0084202Y-048562D01*
G01X0084202Y-048562D02*
G01X0084202Y-048562D01*
G01X0084202Y-048562D02*
G01X0084096Y-048403D01*
G01X0084096Y-048403D02*
G01X0083596Y-047903D01*
G01X0083596Y-047903D02*
G01X0083437Y-047797D01*
G01X0083437Y-047797D02*
G01X0083429Y-047795D01*
G01X0083429Y-047795D02*
G01X0083584Y-047641D01*
G01X0083584Y-047641D02*
G01X0083689Y-047387D01*
G01X0083689Y-047387D02*
G01X0083689Y-047360D01*
G01X0083689Y-047360D02*
G01X0083797Y-047520D01*
G01X0083797Y-047520D02*
G01X0084005Y-047659D01*
G01X0084005Y-047659D02*
G01X0084250Y-047708D01*
G01X0084250Y-047708D02*
G01X0084494Y-047659D01*
G01X0084494Y-047659D02*
G01X0084702Y-047520D01*
G01X0084702Y-047520D02*
G01X0084750Y-047449D01*
G01X0084750Y-047449D02*
G01X0084797Y-047520D01*
G01X0084797Y-047520D02*
G01X0085005Y-047659D01*
G01X0085005Y-047659D02*
G01X0085250Y-047708D01*
G01X0085250Y-047708D02*
G01X0085494Y-047659D01*
G01X0085494Y-047659D02*
G01X0085702Y-047520D01*
G01X0085702Y-047520D02*
G01X0085750Y-047449D01*
G01X0085750Y-047449D02*
G01X0085797Y-047520D01*
G01X0085797Y-047520D02*
G01X0086005Y-047659D01*
G01X0086005Y-047659D02*
G01X0086250Y-047708D01*
G01X0086250Y-047708D02*
G01X0086494Y-047659D01*
G01X0086494Y-047659D02*
G01X0086702Y-047520D01*
G01X0086702Y-047520D02*
G01X0086841Y-047313D01*
G01X0086841Y-047313D02*
G01X0086890Y-047068D01*
G01X0086890Y-047068D02*
G01X0086890Y-046431D01*
G01X0086890Y-046431D02*
G01X0086841Y-046186D01*
G01X0086841Y-046186D02*
G01X0086807Y-046135D01*
G01X0086807Y-046135D02*
G01X0087073Y-045869D01*
G01X0087073Y-045869D02*
G01X0087122Y-045889D01*
G01X0087122Y-045889D02*
G01X0087376Y-045890D01*
G01X0087376Y-045890D02*
G01X0087612Y-045792D01*
G01X0087612Y-045792D02*
G01X0087792Y-045613D01*
G01X0087792Y-045613D02*
G01X0087889Y-045377D01*
G01X0087889Y-045377D02*
G01X0087890Y-045123D01*
G01X0087890Y-045123D02*
G01X0087792Y-044887D01*
G01X0087792Y-044887D02*
G01X0087613Y-044707D01*
G01X0087613Y-044707D02*
G01X0087377Y-044610D01*
G01X0087377Y-044610D02*
G01X0087123Y-044609D01*
G01X0087123Y-044609D02*
G01X0086887Y-044707D01*
G01X0086887Y-044707D02*
G01X0086767Y-044827D01*
G01X0086767Y-044827D02*
G01X0086767Y-044827D01*
G01X0086767Y-044827D02*
G01X0086653Y-044903D01*
G01X0086653Y-044903D02*
G01X0085903Y-045653D01*
G01X0085903Y-045653D02*
G01X0085797Y-045812D01*
G01X0085797Y-045812D02*
G01X0085760Y-046000D01*
G01X0085760Y-046000D02*
G01X0085760Y-046035D01*
G01X0085760Y-046035D02*
G01X0085750Y-046050D01*
G01X0085750Y-046050D02*
G01X0085702Y-045979D01*
G01X0085702Y-045979D02*
G01X0085494Y-045840D01*
G01X0085494Y-045840D02*
G01X0085250Y-045791D01*
G01X0085250Y-045791D02*
G01X0085005Y-045840D01*
G01X0085005Y-045840D02*
G01X0084797Y-045979D01*
G01X0084797Y-045979D02*
G01X0084750Y-046050D01*
G01X0084750Y-046050D02*
G01X0084702Y-045979D01*
G01X0084702Y-045979D02*
G01X0084494Y-045840D01*
G01X0084494Y-045840D02*
G01X0084250Y-045791D01*
G01X0084250Y-045791D02*
G01X0084005Y-045840D01*
G01X0084005Y-045840D02*
G01X0083797Y-045979D01*
G01X0083797Y-045979D02*
G01X0083658Y-046186D01*
G01X0083658Y-046186D02*
G01X0083610Y-046431D01*
G01X0083610Y-046431D02*
G01X0083610Y-046919D01*
G01X0083610Y-046919D02*
G01X0083585Y-046859D01*
G01X0083585Y-046859D02*
G01X0083391Y-046665D01*
G01X0083391Y-046665D02*
G01X0083137Y-046560D01*
G01X0083137Y-046560D02*
G01X0082863Y-046559D01*
G01X0082863Y-046559D02*
G01X0082609Y-046664D01*
G01X0082609Y-046664D02*
G01X0082415Y-046858D01*
G01X0082415Y-046858D02*
G01X0082310Y-047112D01*
G01X0082310Y-047112D02*
G01X0082309Y-047386D01*
G01X0082309Y-047386D02*
G01X0082414Y-047640D01*
G01X0082414Y-047640D02*
G01X0082534Y-047760D01*
G01X0082534Y-047760D02*
G01X0080596Y-047760D01*
G01X0080596Y-047760D02*
G01X0080596Y-047331D01*
G01X0080596Y-047331D02*
G01X0080581Y-047097D01*
G01X0080581Y-047097D02*
G01X0080519Y-046946D01*
G01X0080519Y-046946D02*
G01X0080423Y-046911D01*
G01X0080423Y-046911D02*
G01X0080338Y-046996D01*
G01X0080338Y-046996D02*
G01X0080338Y-046826D01*
G01X0080338Y-046826D02*
G01X0080303Y-046730D01*
G01X0080303Y-046730D02*
G01X0080081Y-046653D01*
G01X0080081Y-046653D02*
G01X0079847Y-046668D01*
G01X0079847Y-046668D02*
G01X0079696Y-046730D01*
G01X0079696Y-046730D02*
G01X0079661Y-046826D01*
G01X0079661Y-046826D02*
G01X0080000Y-047165D01*
G01X0080000Y-047165D02*
G01X0080338Y-046826D01*
G01X0080338Y-046826D02*
G01X0080338Y-046996D01*
G01X0080338Y-046996D02*
G01X0080084Y-047250D01*
G01X0080084Y-047250D02*
G01X0080423Y-047588D01*
G01X0080423Y-047588D02*
G01X0080519Y-047553D01*
G01X0080519Y-047553D02*
G01X0080596Y-047331D01*
G01X0080596Y-047331D02*
G01X0080596Y-047760D01*
G01X0080596Y-047760D02*
G01X0080306Y-047760D01*
G01X0080306Y-047760D02*
G01X0080338Y-047673D01*
G01X0080338Y-047673D02*
G01X0080000Y-047334D01*
G01X0080000Y-047334D02*
G01X0079661Y-047673D01*
G01X0079661Y-047673D02*
G01X0079693Y-047760D01*
G01X0079693Y-047760D02*
G01X0079389Y-047760D01*
G01X0079389Y-047760D02*
G01X0079439Y-047637D01*
G01X0079439Y-047637D02*
G01X0079440Y-047455D01*
G01X0079440Y-047455D02*
G01X0079480Y-047553D01*
G01X0079480Y-047553D02*
G01X0079576Y-047588D01*
G01X0079576Y-047588D02*
G01X0079915Y-047250D01*
G01X0079915Y-047250D02*
G01X0079576Y-046911D01*
G01X0079576Y-046911D02*
G01X0079480Y-046946D01*
G01X0079480Y-046946D02*
G01X0079403Y-047168D01*
G01X0079403Y-047168D02*
G01X0079411Y-047294D01*
G01X0079411Y-047294D02*
G01X0079335Y-047109D01*
G01X0079335Y-047109D02*
G01X0079225Y-046999D01*
G01X0079225Y-046999D02*
G01X0079334Y-046891D01*
G01X0079334Y-046891D02*
G01X0079439Y-046637D01*
G01X0079439Y-046637D02*
G01X0079440Y-046363D01*
G01X0079440Y-046363D02*
G01X0079337Y-046114D01*
G01X0079337Y-046114D02*
G01X0079558Y-045117D01*
G01X0079558Y-045117D02*
G01X0079702Y-045020D01*
G01X0079702Y-045020D02*
G01X0079841Y-044813D01*
G01X0079841Y-044813D02*
G01X0079890Y-044568D01*
G01X0079890Y-044568D02*
G01X0079890Y-043931D01*
G01X0079890Y-043931D02*
G01X0079841Y-043686D01*
G01X0079841Y-043686D02*
G01X0079702Y-043479D01*
G01X0079702Y-043479D02*
G01X0079494Y-043340D01*
G01X0079494Y-043340D02*
G01X0079250Y-043291D01*
G01X0079250Y-043291D02*
G01X0079005Y-043340D01*
G01X0079005Y-043340D02*
G01X0078797Y-043479D01*
G01X0078797Y-043479D02*
G01X0078750Y-043550D01*
G01X0078750Y-043550D02*
G01X0078702Y-043479D01*
G01X0078702Y-043479D02*
G01X0078494Y-043340D01*
G01X0078494Y-043340D02*
G01X0078250Y-043291D01*
G01X0078250Y-043291D02*
G01X0078005Y-043340D01*
G01X0078005Y-043340D02*
G01X0077797Y-043479D01*
G01X0077797Y-043479D02*
G01X0077750Y-043550D01*
G01X0077750Y-043550D02*
G01X0077702Y-043479D01*
G01X0077702Y-043479D02*
G01X0077494Y-043340D01*
G01X0077494Y-043340D02*
G01X0077250Y-043291D01*
G01X0077250Y-043291D02*
G01X0077005Y-043340D01*
G01X0077005Y-043340D02*
G01X0076797Y-043479D01*
G01X0076797Y-043479D02*
G01X0076750Y-043550D01*
G01X0076750Y-043550D02*
G01X0076702Y-043479D01*
G01X0076702Y-043479D02*
G01X0076494Y-043340D01*
G01X0076494Y-043340D02*
G01X0076250Y-043291D01*
G01X0076250Y-043291D02*
G01X0076005Y-043340D01*
G01X0076005Y-043340D02*
G01X0075797Y-043479D01*
G01X0075797Y-043479D02*
G01X0075658Y-043686D01*
G01X0075658Y-043686D02*
G01X0075610Y-043931D01*
G01X0075610Y-043931D02*
G01X0075610Y-044568D01*
G01X0075610Y-044568D02*
G01X0075658Y-044813D01*
G01X0075658Y-044813D02*
G01X0075760Y-044964D01*
G01X0075760Y-044964D02*
G01X0075760Y-046014D01*
G01X0075760Y-046014D02*
G01X0075665Y-046108D01*
G01X0075665Y-046108D02*
G01X0075560Y-046362D01*
G01X0075560Y-046362D02*
G01X0075559Y-046636D01*
G01X0075559Y-046636D02*
G01X0075664Y-046890D01*
G01X0075664Y-046890D02*
G01X0075774Y-047000D01*
G01X0075774Y-047000D02*
G01X0075665Y-047108D01*
G01X0075665Y-047108D02*
G01X0075560Y-047362D01*
G01X0075560Y-047362D02*
G01X0075559Y-047636D01*
G01X0075559Y-047636D02*
G01X0075610Y-047760D01*
G01X0075610Y-047760D02*
G01X0073202Y-047760D01*
G01X0073202Y-047760D02*
G01X0073140Y-047697D01*
G01X0073140Y-047697D02*
G01X0073140Y-047623D01*
G01X0073140Y-047623D02*
G01X0073042Y-047387D01*
G01X0073042Y-047387D02*
G01X0072863Y-047207D01*
G01X0072863Y-047207D02*
G01X0072627Y-047110D01*
G01X0072627Y-047110D02*
G01X0072373Y-047109D01*
G01X0072373Y-047109D02*
G01X0072137Y-047207D01*
G01X0072137Y-047207D02*
G01X0072109Y-047235D01*
G01X0072109Y-047235D02*
G01X0072109Y-045790D01*
G01X0072109Y-045790D02*
G01X0074716Y-045790D01*
G01X0074716Y-045790D02*
G01X0074790Y-045716D01*
G01X0074790Y-045716D02*
G01X0074790Y-043109D01*
G01X0074790Y-043109D02*
G01X0095460Y-043109D01*
G01X0095460Y-043109D02*
G01X0095460Y-045716D01*
G01X0095460Y-045716D02*
G01X0095533Y-045790D01*
G01X0095533Y-045790D02*
G01X0098140Y-045790D01*
G01X0098140Y-045790D02*
G01X0098140Y-054710D01*
M02*
