G04 (created by PCBNEW (2013-jul-07)-stable) date Thu 15 Dec 2016 11:15:19 PM CST*
%MOIN*%
G04 Gerber Fmt 3.4, Leading zero omitted, Abs format*
%FSLAX34Y34*%
G01*
G70*
G90*
G04 APERTURE LIST*
%ADD10C,0.00590551*%
%ADD11C,0.07*%
%ADD12R,0.06X0.06*%
%ADD13C,0.06*%
%ADD14R,0.06X0.09*%
%ADD15O,0.06X0.09*%
%ADD16O,0.06X0.12*%
%ADD17O,0.12X0.06*%
%ADD18C,0.03*%
%ADD19C,0.008*%
G04 APERTURE END LIST*
G54D10*
G54D11*
X72500Y-51000D03*
X72500Y-54000D03*
X80000Y-47250D03*
X83000Y-47250D03*
G54D12*
X96000Y-47000D03*
G54D13*
X95000Y-47000D03*
G54D12*
X96000Y-53500D03*
G54D13*
X95000Y-53500D03*
G54D11*
X92750Y-54750D03*
X92750Y-55750D03*
X78750Y-47500D03*
X78750Y-46500D03*
X76250Y-47500D03*
X76250Y-46500D03*
X77250Y-55250D03*
X77250Y-54250D03*
X90250Y-46500D03*
X90250Y-45500D03*
X90750Y-55750D03*
X90750Y-54750D03*
G54D13*
X87250Y-45250D03*
X87250Y-48250D03*
X89250Y-53750D03*
X86250Y-53750D03*
X89250Y-54750D03*
X86250Y-54750D03*
X82250Y-56500D03*
X79250Y-56500D03*
G54D14*
X74250Y-52250D03*
G54D15*
X75250Y-52250D03*
X76250Y-52250D03*
X77250Y-52250D03*
X78250Y-52250D03*
X79250Y-52250D03*
X80250Y-52250D03*
X81250Y-52250D03*
X81250Y-49250D03*
X80250Y-49250D03*
X79250Y-49250D03*
X78250Y-49250D03*
X77250Y-49250D03*
X76250Y-49250D03*
X75250Y-49250D03*
X74250Y-49250D03*
G54D14*
X86250Y-52250D03*
G54D15*
X87250Y-52250D03*
X88250Y-52250D03*
X89250Y-52250D03*
X90250Y-52250D03*
X91250Y-52250D03*
X92250Y-52250D03*
X93250Y-52250D03*
X93250Y-49250D03*
X92250Y-49250D03*
X91250Y-49250D03*
X90250Y-49250D03*
X89250Y-49250D03*
X88250Y-49250D03*
X87250Y-49250D03*
X86250Y-49250D03*
G54D13*
X72500Y-47750D03*
X72500Y-49750D03*
X95000Y-49250D03*
X95000Y-51250D03*
X84500Y-51750D03*
X84500Y-49750D03*
X82750Y-50250D03*
X82750Y-52250D03*
X85500Y-54750D03*
X83500Y-54750D03*
X85500Y-53750D03*
X83500Y-53750D03*
X88250Y-47000D03*
X88250Y-48000D03*
G54D16*
X76250Y-44250D03*
X77250Y-44250D03*
X78250Y-44250D03*
X79250Y-44250D03*
G54D17*
X97000Y-51250D03*
X97000Y-50250D03*
X97000Y-49250D03*
G54D16*
X83250Y-56500D03*
X85250Y-56500D03*
X84250Y-56500D03*
X82250Y-54250D03*
X80250Y-54250D03*
X81250Y-54250D03*
X86250Y-46750D03*
X84250Y-46750D03*
X85250Y-46750D03*
G54D12*
X89250Y-56750D03*
G54D13*
X86250Y-56750D03*
G54D12*
X86250Y-55750D03*
G54D13*
X89250Y-55750D03*
G54D18*
X86250Y-45250D02*
X87000Y-46000D01*
X75750Y-45250D02*
X86250Y-45250D01*
X75250Y-49250D02*
X75250Y-45750D01*
X75250Y-45750D02*
X75750Y-45250D01*
X95000Y-49000D02*
X95000Y-49250D01*
X93250Y-47250D02*
X95000Y-49000D01*
X90000Y-47250D02*
X93250Y-47250D01*
X88750Y-46000D02*
X90000Y-47250D01*
X87000Y-46000D02*
X88750Y-46000D01*
X96000Y-47000D02*
X96000Y-49250D01*
X97000Y-49250D02*
X96000Y-49250D01*
X96000Y-49250D02*
X95000Y-49250D01*
X84000Y-45750D02*
X84250Y-46000D01*
X77250Y-46250D02*
X77750Y-45750D01*
X77750Y-45750D02*
X84000Y-45750D01*
X77250Y-49250D02*
X77250Y-46250D01*
X84250Y-46000D02*
X84250Y-46750D01*
X85250Y-46750D02*
X84250Y-46750D01*
X86250Y-49250D02*
X85250Y-48250D01*
X85250Y-48250D02*
X85250Y-46750D01*
X90750Y-54750D02*
X90750Y-55750D01*
X90750Y-55750D02*
X89250Y-55750D01*
X89250Y-54750D02*
X89250Y-53750D01*
X89250Y-55750D02*
X89250Y-54750D01*
X89250Y-55750D02*
X89250Y-56750D01*
X76250Y-47500D02*
X76250Y-49250D01*
X76250Y-47500D02*
X76250Y-46500D01*
X79250Y-49250D02*
X78750Y-47500D01*
X78750Y-47500D02*
X78750Y-46500D01*
X93250Y-54250D02*
X93250Y-52250D01*
X92750Y-54750D02*
X93250Y-54250D01*
X92750Y-55750D02*
X92750Y-54750D01*
X91250Y-49250D02*
X91250Y-48500D01*
X90750Y-48000D02*
X88250Y-48000D01*
X91250Y-48500D02*
X90750Y-48000D01*
X80250Y-49250D02*
X80000Y-47250D01*
X72500Y-49750D02*
X72500Y-51000D01*
X78250Y-49250D02*
X78250Y-50250D01*
X80250Y-49250D02*
X80250Y-50250D01*
X82750Y-50250D02*
X80250Y-50250D01*
X80250Y-50250D02*
X78250Y-50250D01*
X78250Y-50250D02*
X73000Y-50250D01*
X73000Y-50250D02*
X72500Y-49750D01*
X88250Y-49250D02*
X88250Y-48000D01*
X85250Y-56500D02*
X84250Y-56500D01*
X84250Y-56500D02*
X84250Y-55000D01*
X84250Y-55000D02*
X84000Y-54750D01*
X84000Y-54750D02*
X83500Y-54750D01*
X84500Y-49750D02*
X83250Y-49750D01*
X83250Y-49750D02*
X82750Y-50250D01*
X83500Y-54750D02*
X83500Y-53750D01*
X95000Y-53500D02*
X95000Y-51250D01*
X91250Y-52250D02*
X91250Y-51250D01*
X91500Y-51000D02*
X93250Y-51000D01*
X91250Y-51250D02*
X91500Y-51000D01*
X88250Y-49250D02*
X88250Y-50250D01*
X84500Y-50000D02*
X84500Y-49750D01*
X84750Y-50250D02*
X84500Y-50000D01*
X88250Y-50250D02*
X84750Y-50250D01*
X93250Y-52250D02*
X93250Y-51000D01*
X93250Y-51000D02*
X93250Y-49250D01*
X93250Y-49250D02*
X92250Y-49250D01*
X92250Y-49250D02*
X91250Y-49250D01*
X95000Y-51250D02*
X93500Y-52000D01*
X93500Y-52000D02*
X93250Y-52250D01*
X97000Y-51250D02*
X95000Y-51250D01*
X79250Y-56500D02*
X79250Y-52250D01*
X86250Y-54750D02*
X87000Y-54750D01*
X87250Y-54500D02*
X87250Y-52250D01*
X87000Y-54750D02*
X87250Y-54500D01*
X86250Y-54750D02*
X85500Y-54750D01*
X86250Y-55750D02*
X86250Y-54750D01*
X86250Y-52250D02*
X86250Y-53750D01*
X85500Y-53750D02*
X86250Y-53750D01*
X77250Y-54250D02*
X77250Y-55250D01*
X77250Y-54250D02*
X77250Y-52250D01*
X81250Y-54250D02*
X80250Y-54250D01*
X80250Y-54250D02*
X80250Y-52250D01*
X87250Y-48250D02*
X87250Y-49250D01*
X88250Y-47000D02*
X87250Y-47000D01*
X87250Y-47000D02*
X87250Y-48250D01*
X83250Y-56500D02*
X82250Y-56500D01*
X82250Y-54250D02*
X82250Y-53250D01*
X82250Y-53250D02*
X82750Y-52250D01*
X81250Y-49250D02*
X83000Y-47250D01*
X72500Y-54000D02*
X75000Y-54000D01*
X75250Y-53750D02*
X75250Y-52250D01*
X75000Y-54000D02*
X75250Y-53750D01*
X90250Y-46500D02*
X90250Y-45500D01*
X76250Y-52250D02*
X76250Y-51250D01*
X89250Y-50750D02*
X89250Y-49250D01*
X89000Y-51000D02*
X89250Y-50750D01*
X76500Y-51000D02*
X89000Y-51000D01*
X76250Y-51250D02*
X76500Y-51000D01*
G54D10*
G36*
X98140Y-54710D02*
X97820Y-54710D01*
X97820Y-51393D01*
X97776Y-51310D01*
X97060Y-51310D01*
X97060Y-51790D01*
X97360Y-51790D01*
X97562Y-51725D01*
X97724Y-51589D01*
X97820Y-51393D01*
X97820Y-54710D01*
X96940Y-54710D01*
X96940Y-51790D01*
X96940Y-51310D01*
X96223Y-51310D01*
X96179Y-51393D01*
X96275Y-51589D01*
X96437Y-51725D01*
X96640Y-51790D01*
X96940Y-51790D01*
X96940Y-54710D01*
X96640Y-54710D01*
X96640Y-53732D01*
X96640Y-53132D01*
X96588Y-53007D01*
X96492Y-52911D01*
X96367Y-52860D01*
X96232Y-52859D01*
X95632Y-52859D01*
X95546Y-52895D01*
X95546Y-51319D01*
X95531Y-51105D01*
X95478Y-50976D01*
X95386Y-50948D01*
X95301Y-51032D01*
X95301Y-50863D01*
X95273Y-50771D01*
X95069Y-50703D01*
X94855Y-50718D01*
X94726Y-50771D01*
X94698Y-50863D01*
X95000Y-51165D01*
X95301Y-50863D01*
X95301Y-51032D01*
X95084Y-51250D01*
X95386Y-51551D01*
X95478Y-51523D01*
X95546Y-51319D01*
X95546Y-52895D01*
X95507Y-52911D01*
X95411Y-53007D01*
X95374Y-53097D01*
X95346Y-53068D01*
X95301Y-53113D01*
X95301Y-51636D01*
X95000Y-51334D01*
X94915Y-51419D01*
X94915Y-51250D01*
X94613Y-50948D01*
X94521Y-50976D01*
X94453Y-51180D01*
X94468Y-51394D01*
X94521Y-51523D01*
X94613Y-51551D01*
X94915Y-51250D01*
X94915Y-51419D01*
X94698Y-51636D01*
X94726Y-51728D01*
X94930Y-51796D01*
X95144Y-51781D01*
X95273Y-51728D01*
X95301Y-51636D01*
X95301Y-53113D01*
X95301Y-53113D01*
X95273Y-53021D01*
X95069Y-52953D01*
X94855Y-52968D01*
X94726Y-53021D01*
X94698Y-53113D01*
X95000Y-53415D01*
X95005Y-53409D01*
X95090Y-53494D01*
X95084Y-53500D01*
X95090Y-53505D01*
X95005Y-53590D01*
X95000Y-53584D01*
X94915Y-53669D01*
X94915Y-53500D01*
X94613Y-53198D01*
X94521Y-53226D01*
X94453Y-53430D01*
X94468Y-53644D01*
X94521Y-53773D01*
X94613Y-53801D01*
X94915Y-53500D01*
X94915Y-53669D01*
X94698Y-53886D01*
X94726Y-53978D01*
X94930Y-54046D01*
X95144Y-54031D01*
X95273Y-53978D01*
X95301Y-53886D01*
X95301Y-53886D01*
X95346Y-53931D01*
X95374Y-53902D01*
X95411Y-53992D01*
X95507Y-54088D01*
X95632Y-54139D01*
X95767Y-54140D01*
X96367Y-54140D01*
X96492Y-54088D01*
X96588Y-53992D01*
X96639Y-53867D01*
X96640Y-53732D01*
X96640Y-54710D01*
X95533Y-54710D01*
X95460Y-54783D01*
X95460Y-57390D01*
X95301Y-57390D01*
X93790Y-57390D01*
X93790Y-52460D01*
X93790Y-52310D01*
X93790Y-52190D01*
X93790Y-52040D01*
X93790Y-49460D01*
X93790Y-49310D01*
X93790Y-49190D01*
X93790Y-49040D01*
X93725Y-48837D01*
X93589Y-48675D01*
X93393Y-48579D01*
X93310Y-48623D01*
X93310Y-49190D01*
X93790Y-49190D01*
X93790Y-49310D01*
X93310Y-49310D01*
X93310Y-49876D01*
X93393Y-49920D01*
X93589Y-49824D01*
X93725Y-49662D01*
X93790Y-49460D01*
X93790Y-52040D01*
X93725Y-51837D01*
X93589Y-51675D01*
X93393Y-51579D01*
X93310Y-51623D01*
X93310Y-52190D01*
X93790Y-52190D01*
X93790Y-52310D01*
X93310Y-52310D01*
X93310Y-52876D01*
X93393Y-52920D01*
X93589Y-52824D01*
X93725Y-52662D01*
X93790Y-52460D01*
X93790Y-57390D01*
X93346Y-57390D01*
X93346Y-55831D01*
X93346Y-54831D01*
X93331Y-54597D01*
X93269Y-54446D01*
X93190Y-54417D01*
X93190Y-52876D01*
X93190Y-52310D01*
X93182Y-52310D01*
X93182Y-52190D01*
X93190Y-52190D01*
X93190Y-51623D01*
X93190Y-49876D01*
X93190Y-49310D01*
X93190Y-49190D01*
X93190Y-48623D01*
X93106Y-48579D01*
X92910Y-48675D01*
X92774Y-48837D01*
X92750Y-48913D01*
X92725Y-48837D01*
X92589Y-48675D01*
X92393Y-48579D01*
X92310Y-48623D01*
X92310Y-49190D01*
X92710Y-49190D01*
X92790Y-49190D01*
X93190Y-49190D01*
X93190Y-49310D01*
X92790Y-49310D01*
X92710Y-49310D01*
X92310Y-49310D01*
X92310Y-49876D01*
X92393Y-49920D01*
X92589Y-49824D01*
X92725Y-49662D01*
X92750Y-49586D01*
X92774Y-49662D01*
X92910Y-49824D01*
X93106Y-49920D01*
X93190Y-49876D01*
X93190Y-51623D01*
X93106Y-51579D01*
X92910Y-51675D01*
X92810Y-51794D01*
X92702Y-51631D01*
X92494Y-51493D01*
X92250Y-51444D01*
X92190Y-51456D01*
X92190Y-49876D01*
X92190Y-49310D01*
X92190Y-49190D01*
X92190Y-48623D01*
X92106Y-48579D01*
X91910Y-48675D01*
X91774Y-48837D01*
X91750Y-48913D01*
X91725Y-48837D01*
X91589Y-48675D01*
X91393Y-48579D01*
X91310Y-48623D01*
X91310Y-49190D01*
X91710Y-49190D01*
X91790Y-49190D01*
X92190Y-49190D01*
X92190Y-49310D01*
X91790Y-49310D01*
X91710Y-49310D01*
X91310Y-49310D01*
X91310Y-49876D01*
X91393Y-49920D01*
X91589Y-49824D01*
X91725Y-49662D01*
X91750Y-49586D01*
X91774Y-49662D01*
X91910Y-49824D01*
X92106Y-49920D01*
X92190Y-49876D01*
X92190Y-51456D01*
X92005Y-51493D01*
X91797Y-51631D01*
X91689Y-51794D01*
X91589Y-51675D01*
X91393Y-51579D01*
X91310Y-51623D01*
X91310Y-52190D01*
X91317Y-52190D01*
X91317Y-52310D01*
X91310Y-52310D01*
X91310Y-52876D01*
X91393Y-52920D01*
X91589Y-52824D01*
X91689Y-52705D01*
X91797Y-52868D01*
X92005Y-53006D01*
X92250Y-53055D01*
X92494Y-53006D01*
X92702Y-52868D01*
X92810Y-52705D01*
X92910Y-52824D01*
X93106Y-52920D01*
X93190Y-52876D01*
X93190Y-54417D01*
X93173Y-54411D01*
X93088Y-54496D01*
X93088Y-54326D01*
X93053Y-54230D01*
X92831Y-54153D01*
X92597Y-54168D01*
X92446Y-54230D01*
X92411Y-54326D01*
X92750Y-54665D01*
X93088Y-54326D01*
X93088Y-54496D01*
X92834Y-54750D01*
X93173Y-55088D01*
X93269Y-55053D01*
X93346Y-54831D01*
X93346Y-55831D01*
X93331Y-55597D01*
X93269Y-55446D01*
X93173Y-55411D01*
X93088Y-55496D01*
X93088Y-55326D01*
X93060Y-55250D01*
X93088Y-55173D01*
X92750Y-54834D01*
X92665Y-54919D01*
X92665Y-54750D01*
X92326Y-54411D01*
X92230Y-54446D01*
X92153Y-54668D01*
X92168Y-54902D01*
X92230Y-55053D01*
X92326Y-55088D01*
X92665Y-54750D01*
X92665Y-54919D01*
X92411Y-55173D01*
X92439Y-55250D01*
X92411Y-55326D01*
X92750Y-55665D01*
X93088Y-55326D01*
X93088Y-55496D01*
X92834Y-55750D01*
X93173Y-56088D01*
X93269Y-56053D01*
X93346Y-55831D01*
X93346Y-57390D01*
X93088Y-57390D01*
X93088Y-56173D01*
X92750Y-55834D01*
X92665Y-55919D01*
X92665Y-55750D01*
X92326Y-55411D01*
X92230Y-55446D01*
X92153Y-55668D01*
X92168Y-55902D01*
X92230Y-56053D01*
X92326Y-56088D01*
X92665Y-55750D01*
X92665Y-55919D01*
X92411Y-56173D01*
X92446Y-56269D01*
X92668Y-56346D01*
X92902Y-56331D01*
X93053Y-56269D01*
X93088Y-56173D01*
X93088Y-57390D01*
X91440Y-57390D01*
X91440Y-55613D01*
X91335Y-55359D01*
X91240Y-55264D01*
X91240Y-55235D01*
X91334Y-55141D01*
X91439Y-54887D01*
X91440Y-54613D01*
X91335Y-54359D01*
X91141Y-54165D01*
X90887Y-54060D01*
X90613Y-54059D01*
X90359Y-54164D01*
X90165Y-54358D01*
X90060Y-54612D01*
X90059Y-54886D01*
X90164Y-55140D01*
X90260Y-55235D01*
X90260Y-55260D01*
X89740Y-55260D01*
X89740Y-55165D01*
X89792Y-55113D01*
X89889Y-54877D01*
X89890Y-54623D01*
X89792Y-54387D01*
X89740Y-54334D01*
X89740Y-54165D01*
X89792Y-54113D01*
X89889Y-53877D01*
X89890Y-53623D01*
X89792Y-53387D01*
X89613Y-53207D01*
X89377Y-53110D01*
X89123Y-53109D01*
X88887Y-53207D01*
X88707Y-53386D01*
X88610Y-53622D01*
X88609Y-53876D01*
X88707Y-54112D01*
X88760Y-54165D01*
X88760Y-54334D01*
X88707Y-54386D01*
X88610Y-54622D01*
X88609Y-54876D01*
X88707Y-55112D01*
X88760Y-55165D01*
X88760Y-55334D01*
X88707Y-55386D01*
X88610Y-55622D01*
X88609Y-55876D01*
X88707Y-56112D01*
X88757Y-56162D01*
X88661Y-56257D01*
X88610Y-56382D01*
X88609Y-56517D01*
X88609Y-57117D01*
X88661Y-57242D01*
X88757Y-57338D01*
X88882Y-57389D01*
X89017Y-57390D01*
X89617Y-57390D01*
X89742Y-57338D01*
X89838Y-57242D01*
X89889Y-57117D01*
X89890Y-56982D01*
X89890Y-56382D01*
X89838Y-56257D01*
X89820Y-56240D01*
X90264Y-56240D01*
X90358Y-56334D01*
X90612Y-56439D01*
X90886Y-56440D01*
X91140Y-56335D01*
X91334Y-56141D01*
X91439Y-55887D01*
X91440Y-55613D01*
X91440Y-57390D01*
X85190Y-57390D01*
X85190Y-57276D01*
X85190Y-56560D01*
X85190Y-56440D01*
X85190Y-55723D01*
X85106Y-55679D01*
X84910Y-55775D01*
X84774Y-55937D01*
X84750Y-56013D01*
X84725Y-55937D01*
X84589Y-55775D01*
X84393Y-55679D01*
X84310Y-55723D01*
X84310Y-56440D01*
X84710Y-56440D01*
X84790Y-56440D01*
X85190Y-56440D01*
X85190Y-56560D01*
X84790Y-56560D01*
X84710Y-56560D01*
X84310Y-56560D01*
X84310Y-57276D01*
X84393Y-57320D01*
X84589Y-57224D01*
X84725Y-57062D01*
X84750Y-56986D01*
X84774Y-57062D01*
X84910Y-57224D01*
X85106Y-57320D01*
X85190Y-57276D01*
X85190Y-57390D01*
X83523Y-57390D01*
X83702Y-57270D01*
X83812Y-57107D01*
X83910Y-57224D01*
X84106Y-57320D01*
X84190Y-57276D01*
X84190Y-56560D01*
X84182Y-56560D01*
X84182Y-56440D01*
X84190Y-56440D01*
X84190Y-55723D01*
X84106Y-55679D01*
X84046Y-55709D01*
X84046Y-54819D01*
X84046Y-53819D01*
X84031Y-53605D01*
X83978Y-53476D01*
X83886Y-53448D01*
X83801Y-53532D01*
X83801Y-53363D01*
X83773Y-53271D01*
X83569Y-53203D01*
X83355Y-53218D01*
X83226Y-53271D01*
X83198Y-53363D01*
X83500Y-53665D01*
X83801Y-53363D01*
X83801Y-53532D01*
X83584Y-53750D01*
X83886Y-54051D01*
X83978Y-54023D01*
X84046Y-53819D01*
X84046Y-54819D01*
X84031Y-54605D01*
X83978Y-54476D01*
X83886Y-54448D01*
X83801Y-54532D01*
X83801Y-54363D01*
X83773Y-54271D01*
X83714Y-54252D01*
X83773Y-54228D01*
X83801Y-54136D01*
X83500Y-53834D01*
X83415Y-53919D01*
X83415Y-53750D01*
X83113Y-53448D01*
X83021Y-53476D01*
X82953Y-53680D01*
X82968Y-53894D01*
X83021Y-54023D01*
X83113Y-54051D01*
X83415Y-53750D01*
X83415Y-53919D01*
X83198Y-54136D01*
X83226Y-54228D01*
X83285Y-54247D01*
X83226Y-54271D01*
X83198Y-54363D01*
X83500Y-54665D01*
X83801Y-54363D01*
X83801Y-54532D01*
X83584Y-54750D01*
X83886Y-55051D01*
X83978Y-55023D01*
X84046Y-54819D01*
X84046Y-55709D01*
X83910Y-55775D01*
X83812Y-55892D01*
X83801Y-55877D01*
X83801Y-55136D01*
X83500Y-54834D01*
X83415Y-54919D01*
X83415Y-54750D01*
X83113Y-54448D01*
X83021Y-54476D01*
X82953Y-54680D01*
X82968Y-54894D01*
X83021Y-55023D01*
X83113Y-55051D01*
X83415Y-54750D01*
X83415Y-54919D01*
X83198Y-55136D01*
X83226Y-55228D01*
X83430Y-55296D01*
X83644Y-55281D01*
X83773Y-55228D01*
X83801Y-55136D01*
X83801Y-55877D01*
X83702Y-55729D01*
X83494Y-55590D01*
X83250Y-55541D01*
X83005Y-55590D01*
X82797Y-55729D01*
X82658Y-55936D01*
X82647Y-55992D01*
X82613Y-55957D01*
X82377Y-55860D01*
X82123Y-55859D01*
X81887Y-55957D01*
X81707Y-56136D01*
X81610Y-56372D01*
X81609Y-56626D01*
X81707Y-56862D01*
X81886Y-57042D01*
X82122Y-57139D01*
X82376Y-57140D01*
X82612Y-57042D01*
X82647Y-57007D01*
X82658Y-57063D01*
X82797Y-57270D01*
X82976Y-57390D01*
X74790Y-57390D01*
X74790Y-54783D01*
X74716Y-54710D01*
X72109Y-54710D01*
X72109Y-54585D01*
X72362Y-54689D01*
X72636Y-54690D01*
X72890Y-54585D01*
X72985Y-54490D01*
X75000Y-54490D01*
X75187Y-54452D01*
X75187Y-54452D01*
X75346Y-54346D01*
X75596Y-54096D01*
X75596Y-54096D01*
X75702Y-53937D01*
X75739Y-53750D01*
X75740Y-53750D01*
X75740Y-52811D01*
X75749Y-52797D01*
X75797Y-52868D01*
X76005Y-53006D01*
X76250Y-53055D01*
X76494Y-53006D01*
X76702Y-52868D01*
X76749Y-52797D01*
X76760Y-52811D01*
X76760Y-53764D01*
X76665Y-53858D01*
X76560Y-54112D01*
X76559Y-54386D01*
X76664Y-54640D01*
X76760Y-54735D01*
X76760Y-54764D01*
X76665Y-54858D01*
X76560Y-55112D01*
X76559Y-55386D01*
X76664Y-55640D01*
X76858Y-55834D01*
X77112Y-55939D01*
X77386Y-55940D01*
X77640Y-55835D01*
X77834Y-55641D01*
X77939Y-55387D01*
X77940Y-55113D01*
X77835Y-54859D01*
X77740Y-54764D01*
X77740Y-54735D01*
X77834Y-54641D01*
X77939Y-54387D01*
X77940Y-54113D01*
X77835Y-53859D01*
X77740Y-53764D01*
X77740Y-52811D01*
X77749Y-52797D01*
X77797Y-52868D01*
X78005Y-53006D01*
X78250Y-53055D01*
X78494Y-53006D01*
X78702Y-52868D01*
X78750Y-52797D01*
X78760Y-52811D01*
X78760Y-56084D01*
X78707Y-56136D01*
X78610Y-56372D01*
X78609Y-56626D01*
X78707Y-56862D01*
X78886Y-57042D01*
X79122Y-57139D01*
X79376Y-57140D01*
X79612Y-57042D01*
X79792Y-56863D01*
X79889Y-56627D01*
X79890Y-56373D01*
X79792Y-56137D01*
X79740Y-56084D01*
X79740Y-54934D01*
X79797Y-55020D01*
X80005Y-55159D01*
X80250Y-55208D01*
X80494Y-55159D01*
X80702Y-55020D01*
X80750Y-54949D01*
X80797Y-55020D01*
X81005Y-55159D01*
X81250Y-55208D01*
X81494Y-55159D01*
X81702Y-55020D01*
X81750Y-54949D01*
X81797Y-55020D01*
X82005Y-55159D01*
X82250Y-55208D01*
X82494Y-55159D01*
X82702Y-55020D01*
X82841Y-54813D01*
X82890Y-54568D01*
X82890Y-53931D01*
X82841Y-53686D01*
X82740Y-53535D01*
X82740Y-53365D01*
X83004Y-52837D01*
X83112Y-52792D01*
X83292Y-52613D01*
X83389Y-52377D01*
X83390Y-52123D01*
X83292Y-51887D01*
X83113Y-51707D01*
X82877Y-51610D01*
X82623Y-51609D01*
X82387Y-51707D01*
X82207Y-51886D01*
X82110Y-52122D01*
X82109Y-52376D01*
X82123Y-52408D01*
X81811Y-53030D01*
X81807Y-53047D01*
X81797Y-53062D01*
X81782Y-53139D01*
X81761Y-53214D01*
X81763Y-53232D01*
X81760Y-53250D01*
X81760Y-53535D01*
X81750Y-53550D01*
X81702Y-53479D01*
X81494Y-53340D01*
X81250Y-53291D01*
X81005Y-53340D01*
X80797Y-53479D01*
X80750Y-53550D01*
X80740Y-53535D01*
X80740Y-52811D01*
X80750Y-52797D01*
X80797Y-52868D01*
X81005Y-53006D01*
X81250Y-53055D01*
X81494Y-53006D01*
X81702Y-52868D01*
X81841Y-52660D01*
X81890Y-52415D01*
X81890Y-52084D01*
X81841Y-51839D01*
X81702Y-51631D01*
X81494Y-51493D01*
X81478Y-51490D01*
X83914Y-51490D01*
X83860Y-51622D01*
X83859Y-51876D01*
X83957Y-52112D01*
X84136Y-52292D01*
X84372Y-52389D01*
X84626Y-52390D01*
X84862Y-52292D01*
X85042Y-52113D01*
X85139Y-51877D01*
X85140Y-51623D01*
X85085Y-51490D01*
X85809Y-51490D01*
X85757Y-51511D01*
X85661Y-51607D01*
X85610Y-51732D01*
X85609Y-51867D01*
X85609Y-52767D01*
X85661Y-52892D01*
X85757Y-52988D01*
X85760Y-52989D01*
X85760Y-53164D01*
X85627Y-53110D01*
X85373Y-53109D01*
X85137Y-53207D01*
X84957Y-53386D01*
X84860Y-53622D01*
X84859Y-53876D01*
X84957Y-54112D01*
X85094Y-54250D01*
X84957Y-54386D01*
X84860Y-54622D01*
X84859Y-54876D01*
X84957Y-55112D01*
X85136Y-55292D01*
X85372Y-55389D01*
X85610Y-55390D01*
X85609Y-55517D01*
X85609Y-55800D01*
X85589Y-55775D01*
X85393Y-55679D01*
X85310Y-55723D01*
X85310Y-56440D01*
X85317Y-56440D01*
X85317Y-56560D01*
X85310Y-56560D01*
X85310Y-57276D01*
X85393Y-57320D01*
X85589Y-57224D01*
X85699Y-57093D01*
X85707Y-57112D01*
X85886Y-57292D01*
X86122Y-57389D01*
X86376Y-57390D01*
X86612Y-57292D01*
X86792Y-57113D01*
X86889Y-56877D01*
X86890Y-56623D01*
X86792Y-56387D01*
X86742Y-56337D01*
X86838Y-56242D01*
X86889Y-56117D01*
X86890Y-55982D01*
X86890Y-55382D01*
X86838Y-55257D01*
X86820Y-55240D01*
X87000Y-55240D01*
X87187Y-55202D01*
X87187Y-55202D01*
X87346Y-55096D01*
X87596Y-54846D01*
X87596Y-54846D01*
X87702Y-54687D01*
X87739Y-54500D01*
X87740Y-54500D01*
X87740Y-52811D01*
X87750Y-52797D01*
X87797Y-52868D01*
X88005Y-53006D01*
X88250Y-53055D01*
X88494Y-53006D01*
X88702Y-52868D01*
X88750Y-52797D01*
X88797Y-52868D01*
X89005Y-53006D01*
X89250Y-53055D01*
X89494Y-53006D01*
X89702Y-52868D01*
X89750Y-52797D01*
X89797Y-52868D01*
X90005Y-53006D01*
X90250Y-53055D01*
X90494Y-53006D01*
X90702Y-52868D01*
X90810Y-52705D01*
X90910Y-52824D01*
X91106Y-52920D01*
X91190Y-52876D01*
X91190Y-52310D01*
X91182Y-52310D01*
X91182Y-52190D01*
X91190Y-52190D01*
X91190Y-51623D01*
X91106Y-51579D01*
X90910Y-51675D01*
X90810Y-51794D01*
X90702Y-51631D01*
X90494Y-51493D01*
X90250Y-51444D01*
X90005Y-51493D01*
X89797Y-51631D01*
X89750Y-51702D01*
X89702Y-51631D01*
X89494Y-51493D01*
X89250Y-51444D01*
X89005Y-51493D01*
X88797Y-51631D01*
X88750Y-51702D01*
X88702Y-51631D01*
X88494Y-51493D01*
X88478Y-51490D01*
X89000Y-51490D01*
X89187Y-51452D01*
X89187Y-51452D01*
X89346Y-51346D01*
X89596Y-51096D01*
X89596Y-51096D01*
X89702Y-50937D01*
X89739Y-50750D01*
X89740Y-50750D01*
X89740Y-49811D01*
X89750Y-49797D01*
X89797Y-49868D01*
X90005Y-50006D01*
X90250Y-50055D01*
X90494Y-50006D01*
X90702Y-49868D01*
X90810Y-49705D01*
X90910Y-49824D01*
X91106Y-49920D01*
X91190Y-49876D01*
X91190Y-49310D01*
X91182Y-49310D01*
X91182Y-49190D01*
X91190Y-49190D01*
X91190Y-48623D01*
X91106Y-48579D01*
X90910Y-48675D01*
X90810Y-48794D01*
X90702Y-48631D01*
X90494Y-48493D01*
X90250Y-48444D01*
X90005Y-48493D01*
X89797Y-48631D01*
X89750Y-48702D01*
X89702Y-48631D01*
X89494Y-48493D01*
X89250Y-48444D01*
X89005Y-48493D01*
X88797Y-48631D01*
X88796Y-48633D01*
X88796Y-48069D01*
X88781Y-47855D01*
X88728Y-47726D01*
X88636Y-47698D01*
X88334Y-48000D01*
X88636Y-48301D01*
X88728Y-48273D01*
X88796Y-48069D01*
X88796Y-48633D01*
X88689Y-48794D01*
X88589Y-48675D01*
X88551Y-48657D01*
X88393Y-48579D01*
X88310Y-48623D01*
X88310Y-49190D01*
X88317Y-49190D01*
X88317Y-49310D01*
X88310Y-49310D01*
X88310Y-49876D01*
X88393Y-49920D01*
X88589Y-49824D01*
X88689Y-49705D01*
X88760Y-49811D01*
X88760Y-50510D01*
X85046Y-50510D01*
X85046Y-49819D01*
X85031Y-49605D01*
X84978Y-49476D01*
X84886Y-49448D01*
X84801Y-49532D01*
X84801Y-49363D01*
X84773Y-49271D01*
X84569Y-49203D01*
X84355Y-49218D01*
X84226Y-49271D01*
X84198Y-49363D01*
X84500Y-49665D01*
X84801Y-49363D01*
X84801Y-49532D01*
X84584Y-49750D01*
X84886Y-50051D01*
X84978Y-50023D01*
X85046Y-49819D01*
X85046Y-50510D01*
X84801Y-50510D01*
X84801Y-50136D01*
X84500Y-49834D01*
X84415Y-49919D01*
X84415Y-49750D01*
X84113Y-49448D01*
X84021Y-49476D01*
X83953Y-49680D01*
X83968Y-49894D01*
X84021Y-50023D01*
X84113Y-50051D01*
X84415Y-49750D01*
X84415Y-49919D01*
X84198Y-50136D01*
X84226Y-50228D01*
X84430Y-50296D01*
X84644Y-50281D01*
X84773Y-50228D01*
X84801Y-50136D01*
X84801Y-50510D01*
X83232Y-50510D01*
X83296Y-50319D01*
X83281Y-50105D01*
X83228Y-49976D01*
X83136Y-49948D01*
X83051Y-50032D01*
X83051Y-49863D01*
X83023Y-49771D01*
X82819Y-49703D01*
X82605Y-49718D01*
X82476Y-49771D01*
X82448Y-49863D01*
X82750Y-50165D01*
X83051Y-49863D01*
X83051Y-50032D01*
X82834Y-50250D01*
X82840Y-50255D01*
X82755Y-50340D01*
X82750Y-50334D01*
X82744Y-50340D01*
X82659Y-50255D01*
X82665Y-50250D01*
X82363Y-49948D01*
X82271Y-49976D01*
X82203Y-50180D01*
X82218Y-50394D01*
X82266Y-50510D01*
X76500Y-50510D01*
X76312Y-50547D01*
X76153Y-50653D01*
X75903Y-50903D01*
X75797Y-51062D01*
X75760Y-51250D01*
X75760Y-51688D01*
X75750Y-51702D01*
X75702Y-51631D01*
X75494Y-51493D01*
X75250Y-51444D01*
X75005Y-51493D01*
X74836Y-51605D01*
X74742Y-51511D01*
X74617Y-51460D01*
X74482Y-51459D01*
X73882Y-51459D01*
X73757Y-51511D01*
X73661Y-51607D01*
X73610Y-51732D01*
X73609Y-51867D01*
X73609Y-52767D01*
X73661Y-52892D01*
X73757Y-52988D01*
X73882Y-53039D01*
X74017Y-53040D01*
X74617Y-53040D01*
X74742Y-52988D01*
X74760Y-52970D01*
X74760Y-53510D01*
X73096Y-53510D01*
X73096Y-51081D01*
X73081Y-50847D01*
X73046Y-50761D01*
X73046Y-49819D01*
X73031Y-49605D01*
X72978Y-49476D01*
X72886Y-49448D01*
X72801Y-49532D01*
X72801Y-49363D01*
X72773Y-49271D01*
X72569Y-49203D01*
X72355Y-49218D01*
X72226Y-49271D01*
X72198Y-49363D01*
X72500Y-49665D01*
X72801Y-49363D01*
X72801Y-49532D01*
X72584Y-49750D01*
X72886Y-50051D01*
X72978Y-50023D01*
X73046Y-49819D01*
X73046Y-50761D01*
X73019Y-50696D01*
X72923Y-50661D01*
X72838Y-50746D01*
X72584Y-51000D01*
X72923Y-51338D01*
X73019Y-51303D01*
X73096Y-51081D01*
X73096Y-53510D01*
X72985Y-53510D01*
X72891Y-53415D01*
X72838Y-53393D01*
X72637Y-53310D01*
X72363Y-53309D01*
X72109Y-53414D01*
X72109Y-51459D01*
X72117Y-51467D01*
X72161Y-51423D01*
X72196Y-51519D01*
X72418Y-51596D01*
X72652Y-51581D01*
X72803Y-51519D01*
X72838Y-51423D01*
X72500Y-51084D01*
X72494Y-51090D01*
X72409Y-51005D01*
X72415Y-51000D01*
X72409Y-50994D01*
X72494Y-50909D01*
X72500Y-50915D01*
X72838Y-50576D01*
X72803Y-50480D01*
X72801Y-50479D01*
X72801Y-50136D01*
X72500Y-49834D01*
X72198Y-50136D01*
X72226Y-50228D01*
X72430Y-50296D01*
X72644Y-50281D01*
X72773Y-50228D01*
X72801Y-50136D01*
X72801Y-50479D01*
X72581Y-50403D01*
X72347Y-50418D01*
X72196Y-50480D01*
X72161Y-50576D01*
X72117Y-50532D01*
X72109Y-50540D01*
X72109Y-50050D01*
X72113Y-50051D01*
X72415Y-49750D01*
X72113Y-49448D01*
X72109Y-49449D01*
X72109Y-48264D01*
X72136Y-48292D01*
X72372Y-48389D01*
X72626Y-48390D01*
X72862Y-48292D01*
X73042Y-48113D01*
X73139Y-47877D01*
X73140Y-47623D01*
X73042Y-47387D01*
X72863Y-47207D01*
X72627Y-47110D01*
X72373Y-47109D01*
X72137Y-47207D01*
X72109Y-47235D01*
X72109Y-45790D01*
X74716Y-45790D01*
X74760Y-45745D01*
X74760Y-45750D01*
X74760Y-48688D01*
X74750Y-48702D01*
X74702Y-48631D01*
X74494Y-48493D01*
X74250Y-48444D01*
X74005Y-48493D01*
X73797Y-48631D01*
X73658Y-48839D01*
X73610Y-49084D01*
X73610Y-49415D01*
X73658Y-49660D01*
X73797Y-49868D01*
X74005Y-50006D01*
X74250Y-50055D01*
X74494Y-50006D01*
X74702Y-49868D01*
X74749Y-49797D01*
X74797Y-49868D01*
X75005Y-50006D01*
X75250Y-50055D01*
X75494Y-50006D01*
X75702Y-49868D01*
X75749Y-49797D01*
X75797Y-49868D01*
X76005Y-50006D01*
X76250Y-50055D01*
X76494Y-50006D01*
X76702Y-49868D01*
X76749Y-49797D01*
X76797Y-49868D01*
X77005Y-50006D01*
X77250Y-50055D01*
X77494Y-50006D01*
X77702Y-49868D01*
X77810Y-49705D01*
X77910Y-49824D01*
X78106Y-49920D01*
X78190Y-49876D01*
X78190Y-49310D01*
X78182Y-49310D01*
X78182Y-49190D01*
X78190Y-49190D01*
X78190Y-48623D01*
X78106Y-48579D01*
X77910Y-48675D01*
X77810Y-48794D01*
X77740Y-48688D01*
X77740Y-46452D01*
X77952Y-46240D01*
X78110Y-46240D01*
X78060Y-46362D01*
X78059Y-46636D01*
X78164Y-46890D01*
X78260Y-46985D01*
X78260Y-47014D01*
X78165Y-47108D01*
X78060Y-47362D01*
X78059Y-47636D01*
X78164Y-47890D01*
X78358Y-48084D01*
X78413Y-48107D01*
X78573Y-48667D01*
X78393Y-48579D01*
X78310Y-48623D01*
X78310Y-49190D01*
X78317Y-49190D01*
X78317Y-49310D01*
X78310Y-49310D01*
X78310Y-49876D01*
X78393Y-49920D01*
X78589Y-49824D01*
X78689Y-49705D01*
X78797Y-49868D01*
X79005Y-50006D01*
X79250Y-50055D01*
X79494Y-50006D01*
X79702Y-49868D01*
X79810Y-49705D01*
X79910Y-49824D01*
X80106Y-49920D01*
X80190Y-49876D01*
X80190Y-49310D01*
X80182Y-49310D01*
X80182Y-49190D01*
X80190Y-49190D01*
X80190Y-48623D01*
X80106Y-48579D01*
X79910Y-48675D01*
X79810Y-48794D01*
X79702Y-48631D01*
X79553Y-48532D01*
X79356Y-47839D01*
X79439Y-47637D01*
X79440Y-47455D01*
X79480Y-47553D01*
X79576Y-47588D01*
X79915Y-47250D01*
X79576Y-46911D01*
X79480Y-46946D01*
X79403Y-47168D01*
X79411Y-47294D01*
X79335Y-47109D01*
X79240Y-47014D01*
X79240Y-46985D01*
X79334Y-46891D01*
X79439Y-46637D01*
X79440Y-46363D01*
X79389Y-46240D01*
X83648Y-46240D01*
X83610Y-46431D01*
X83610Y-46919D01*
X83585Y-46859D01*
X83391Y-46665D01*
X83137Y-46560D01*
X82863Y-46559D01*
X82609Y-46664D01*
X82415Y-46858D01*
X82310Y-47112D01*
X82309Y-47295D01*
X81295Y-48453D01*
X81250Y-48444D01*
X81005Y-48493D01*
X80797Y-48631D01*
X80689Y-48794D01*
X80596Y-48683D01*
X80596Y-47331D01*
X80581Y-47097D01*
X80519Y-46946D01*
X80423Y-46911D01*
X80338Y-46996D01*
X80338Y-46826D01*
X80303Y-46730D01*
X80081Y-46653D01*
X79847Y-46668D01*
X79696Y-46730D01*
X79661Y-46826D01*
X80000Y-47165D01*
X80338Y-46826D01*
X80338Y-46996D01*
X80084Y-47250D01*
X80423Y-47588D01*
X80519Y-47553D01*
X80596Y-47331D01*
X80596Y-48683D01*
X80589Y-48675D01*
X80393Y-48579D01*
X80338Y-48608D01*
X80338Y-47673D01*
X80000Y-47334D01*
X79661Y-47673D01*
X79696Y-47769D01*
X79918Y-47846D01*
X80152Y-47831D01*
X80303Y-47769D01*
X80338Y-47673D01*
X80338Y-48608D01*
X80310Y-48623D01*
X80310Y-49190D01*
X80317Y-49190D01*
X80317Y-49310D01*
X80310Y-49310D01*
X80310Y-49876D01*
X80393Y-49920D01*
X80589Y-49824D01*
X80689Y-49705D01*
X80797Y-49868D01*
X81005Y-50006D01*
X81250Y-50055D01*
X81494Y-50006D01*
X81702Y-49868D01*
X81841Y-49660D01*
X81890Y-49415D01*
X81890Y-49262D01*
X83048Y-47940D01*
X83136Y-47940D01*
X83390Y-47835D01*
X83584Y-47641D01*
X83689Y-47387D01*
X83689Y-47360D01*
X83797Y-47520D01*
X84005Y-47659D01*
X84250Y-47708D01*
X84494Y-47659D01*
X84702Y-47520D01*
X84750Y-47449D01*
X84760Y-47464D01*
X84760Y-48250D01*
X84797Y-48437D01*
X84903Y-48596D01*
X85610Y-49302D01*
X85610Y-49415D01*
X85658Y-49660D01*
X85797Y-49868D01*
X86005Y-50006D01*
X86250Y-50055D01*
X86494Y-50006D01*
X86702Y-49868D01*
X86750Y-49797D01*
X86797Y-49868D01*
X87005Y-50006D01*
X87250Y-50055D01*
X87494Y-50006D01*
X87702Y-49868D01*
X87810Y-49705D01*
X87910Y-49824D01*
X88106Y-49920D01*
X88190Y-49876D01*
X88190Y-49310D01*
X88182Y-49310D01*
X88182Y-49190D01*
X88190Y-49190D01*
X88190Y-48623D01*
X88106Y-48579D01*
X87910Y-48675D01*
X87810Y-48794D01*
X87740Y-48688D01*
X87740Y-48665D01*
X87792Y-48613D01*
X87878Y-48405D01*
X87903Y-48431D01*
X87948Y-48386D01*
X87976Y-48478D01*
X88180Y-48546D01*
X88394Y-48531D01*
X88523Y-48478D01*
X88551Y-48386D01*
X88250Y-48084D01*
X88244Y-48090D01*
X88159Y-48005D01*
X88165Y-48000D01*
X87863Y-47698D01*
X87771Y-47726D01*
X87740Y-47822D01*
X87740Y-47490D01*
X87834Y-47490D01*
X87886Y-47542D01*
X87960Y-47572D01*
X87948Y-47613D01*
X88250Y-47915D01*
X88551Y-47613D01*
X88539Y-47572D01*
X88612Y-47542D01*
X88792Y-47363D01*
X88889Y-47127D01*
X88890Y-46873D01*
X88861Y-46804D01*
X89653Y-47596D01*
X89812Y-47702D01*
X89812Y-47702D01*
X90000Y-47740D01*
X93047Y-47740D01*
X94380Y-49073D01*
X94360Y-49122D01*
X94359Y-49376D01*
X94457Y-49612D01*
X94636Y-49792D01*
X94872Y-49889D01*
X95126Y-49890D01*
X95362Y-49792D01*
X95415Y-49740D01*
X96000Y-49740D01*
X96285Y-49740D01*
X96300Y-49750D01*
X96229Y-49797D01*
X96090Y-50005D01*
X96041Y-50250D01*
X96090Y-50494D01*
X96229Y-50702D01*
X96392Y-50812D01*
X96275Y-50910D01*
X96179Y-51106D01*
X96223Y-51190D01*
X96940Y-51190D01*
X96940Y-51182D01*
X97060Y-51182D01*
X97060Y-51190D01*
X97776Y-51190D01*
X97820Y-51106D01*
X97724Y-50910D01*
X97607Y-50812D01*
X97770Y-50702D01*
X97909Y-50494D01*
X97958Y-50250D01*
X97909Y-50005D01*
X97770Y-49797D01*
X97699Y-49749D01*
X97770Y-49702D01*
X97909Y-49494D01*
X97958Y-49250D01*
X97909Y-49005D01*
X97770Y-48797D01*
X97563Y-48658D01*
X97318Y-48610D01*
X96681Y-48610D01*
X96490Y-48648D01*
X96490Y-47589D01*
X96492Y-47588D01*
X96588Y-47492D01*
X96639Y-47367D01*
X96640Y-47232D01*
X96640Y-46632D01*
X96588Y-46507D01*
X96492Y-46411D01*
X96367Y-46360D01*
X96232Y-46359D01*
X95632Y-46359D01*
X95507Y-46411D01*
X95411Y-46507D01*
X95374Y-46597D01*
X95346Y-46568D01*
X95301Y-46613D01*
X95273Y-46521D01*
X95069Y-46453D01*
X94855Y-46468D01*
X94726Y-46521D01*
X94698Y-46613D01*
X95000Y-46915D01*
X95005Y-46909D01*
X95090Y-46994D01*
X95084Y-47000D01*
X95090Y-47005D01*
X95005Y-47090D01*
X95000Y-47084D01*
X94915Y-47169D01*
X94915Y-47000D01*
X94613Y-46698D01*
X94521Y-46726D01*
X94453Y-46930D01*
X94468Y-47144D01*
X94521Y-47273D01*
X94613Y-47301D01*
X94915Y-47000D01*
X94915Y-47169D01*
X94698Y-47386D01*
X94726Y-47478D01*
X94930Y-47546D01*
X95144Y-47531D01*
X95273Y-47478D01*
X95301Y-47386D01*
X95301Y-47386D01*
X95346Y-47431D01*
X95374Y-47402D01*
X95411Y-47492D01*
X95507Y-47588D01*
X95510Y-47589D01*
X95510Y-48760D01*
X95417Y-48760D01*
X95346Y-48653D01*
X95301Y-48608D01*
X93596Y-46903D01*
X93437Y-46797D01*
X93250Y-46760D01*
X90889Y-46760D01*
X90939Y-46637D01*
X90940Y-46363D01*
X90835Y-46109D01*
X90740Y-46014D01*
X90740Y-45985D01*
X90834Y-45891D01*
X90939Y-45637D01*
X90940Y-45363D01*
X90835Y-45109D01*
X90641Y-44915D01*
X90387Y-44810D01*
X90113Y-44809D01*
X89859Y-44914D01*
X89665Y-45108D01*
X89560Y-45362D01*
X89559Y-45636D01*
X89664Y-45890D01*
X89760Y-45985D01*
X89760Y-46014D01*
X89665Y-46108D01*
X89632Y-46189D01*
X89096Y-45653D01*
X88937Y-45547D01*
X88750Y-45510D01*
X87835Y-45510D01*
X87889Y-45377D01*
X87890Y-45123D01*
X87792Y-44887D01*
X87613Y-44707D01*
X87377Y-44610D01*
X87123Y-44609D01*
X86887Y-44707D01*
X86707Y-44886D01*
X86670Y-44977D01*
X86596Y-44903D01*
X86437Y-44797D01*
X86250Y-44760D01*
X79851Y-44760D01*
X79890Y-44568D01*
X79890Y-43931D01*
X79841Y-43686D01*
X79702Y-43479D01*
X79494Y-43340D01*
X79250Y-43291D01*
X79005Y-43340D01*
X78797Y-43479D01*
X78750Y-43550D01*
X78702Y-43479D01*
X78494Y-43340D01*
X78250Y-43291D01*
X78005Y-43340D01*
X77797Y-43479D01*
X77750Y-43550D01*
X77702Y-43479D01*
X77494Y-43340D01*
X77250Y-43291D01*
X77005Y-43340D01*
X76797Y-43479D01*
X76750Y-43550D01*
X76702Y-43479D01*
X76494Y-43340D01*
X76250Y-43291D01*
X76005Y-43340D01*
X75797Y-43479D01*
X75658Y-43686D01*
X75610Y-43931D01*
X75610Y-44568D01*
X75651Y-44779D01*
X75562Y-44797D01*
X75403Y-44903D01*
X74903Y-45403D01*
X74797Y-45562D01*
X74790Y-45599D01*
X74790Y-43109D01*
X95460Y-43109D01*
X95460Y-45716D01*
X95533Y-45790D01*
X98140Y-45790D01*
X98140Y-54710D01*
X98140Y-54710D01*
G37*
G54D19*
X98140Y-54710D02*
X97820Y-54710D01*
X97820Y-51393D01*
X97776Y-51310D01*
X97060Y-51310D01*
X97060Y-51790D01*
X97360Y-51790D01*
X97562Y-51725D01*
X97724Y-51589D01*
X97820Y-51393D01*
X97820Y-54710D01*
X96940Y-54710D01*
X96940Y-51790D01*
X96940Y-51310D01*
X96223Y-51310D01*
X96179Y-51393D01*
X96275Y-51589D01*
X96437Y-51725D01*
X96640Y-51790D01*
X96940Y-51790D01*
X96940Y-54710D01*
X96640Y-54710D01*
X96640Y-53732D01*
X96640Y-53132D01*
X96588Y-53007D01*
X96492Y-52911D01*
X96367Y-52860D01*
X96232Y-52859D01*
X95632Y-52859D01*
X95546Y-52895D01*
X95546Y-51319D01*
X95531Y-51105D01*
X95478Y-50976D01*
X95386Y-50948D01*
X95301Y-51032D01*
X95301Y-50863D01*
X95273Y-50771D01*
X95069Y-50703D01*
X94855Y-50718D01*
X94726Y-50771D01*
X94698Y-50863D01*
X95000Y-51165D01*
X95301Y-50863D01*
X95301Y-51032D01*
X95084Y-51250D01*
X95386Y-51551D01*
X95478Y-51523D01*
X95546Y-51319D01*
X95546Y-52895D01*
X95507Y-52911D01*
X95411Y-53007D01*
X95374Y-53097D01*
X95346Y-53068D01*
X95301Y-53113D01*
X95301Y-51636D01*
X95000Y-51334D01*
X94915Y-51419D01*
X94915Y-51250D01*
X94613Y-50948D01*
X94521Y-50976D01*
X94453Y-51180D01*
X94468Y-51394D01*
X94521Y-51523D01*
X94613Y-51551D01*
X94915Y-51250D01*
X94915Y-51419D01*
X94698Y-51636D01*
X94726Y-51728D01*
X94930Y-51796D01*
X95144Y-51781D01*
X95273Y-51728D01*
X95301Y-51636D01*
X95301Y-53113D01*
X95301Y-53113D01*
X95273Y-53021D01*
X95069Y-52953D01*
X94855Y-52968D01*
X94726Y-53021D01*
X94698Y-53113D01*
X95000Y-53415D01*
X95005Y-53409D01*
X95090Y-53494D01*
X95084Y-53500D01*
X95090Y-53505D01*
X95005Y-53590D01*
X95000Y-53584D01*
X94915Y-53669D01*
X94915Y-53500D01*
X94613Y-53198D01*
X94521Y-53226D01*
X94453Y-53430D01*
X94468Y-53644D01*
X94521Y-53773D01*
X94613Y-53801D01*
X94915Y-53500D01*
X94915Y-53669D01*
X94698Y-53886D01*
X94726Y-53978D01*
X94930Y-54046D01*
X95144Y-54031D01*
X95273Y-53978D01*
X95301Y-53886D01*
X95301Y-53886D01*
X95346Y-53931D01*
X95374Y-53902D01*
X95411Y-53992D01*
X95507Y-54088D01*
X95632Y-54139D01*
X95767Y-54140D01*
X96367Y-54140D01*
X96492Y-54088D01*
X96588Y-53992D01*
X96639Y-53867D01*
X96640Y-53732D01*
X96640Y-54710D01*
X95533Y-54710D01*
X95460Y-54783D01*
X95460Y-57390D01*
X95301Y-57390D01*
X93790Y-57390D01*
X93790Y-52460D01*
X93790Y-52310D01*
X93790Y-52190D01*
X93790Y-52040D01*
X93790Y-49460D01*
X93790Y-49310D01*
X93790Y-49190D01*
X93790Y-49040D01*
X93725Y-48837D01*
X93589Y-48675D01*
X93393Y-48579D01*
X93310Y-48623D01*
X93310Y-49190D01*
X93790Y-49190D01*
X93790Y-49310D01*
X93310Y-49310D01*
X93310Y-49876D01*
X93393Y-49920D01*
X93589Y-49824D01*
X93725Y-49662D01*
X93790Y-49460D01*
X93790Y-52040D01*
X93725Y-51837D01*
X93589Y-51675D01*
X93393Y-51579D01*
X93310Y-51623D01*
X93310Y-52190D01*
X93790Y-52190D01*
X93790Y-52310D01*
X93310Y-52310D01*
X93310Y-52876D01*
X93393Y-52920D01*
X93589Y-52824D01*
X93725Y-52662D01*
X93790Y-52460D01*
X93790Y-57390D01*
X93346Y-57390D01*
X93346Y-55831D01*
X93346Y-54831D01*
X93331Y-54597D01*
X93269Y-54446D01*
X93190Y-54417D01*
X93190Y-52876D01*
X93190Y-52310D01*
X93182Y-52310D01*
X93182Y-52190D01*
X93190Y-52190D01*
X93190Y-51623D01*
X93190Y-49876D01*
X93190Y-49310D01*
X93190Y-49190D01*
X93190Y-48623D01*
X93106Y-48579D01*
X92910Y-48675D01*
X92774Y-48837D01*
X92750Y-48913D01*
X92725Y-48837D01*
X92589Y-48675D01*
X92393Y-48579D01*
X92310Y-48623D01*
X92310Y-49190D01*
X92710Y-49190D01*
X92790Y-49190D01*
X93190Y-49190D01*
X93190Y-49310D01*
X92790Y-49310D01*
X92710Y-49310D01*
X92310Y-49310D01*
X92310Y-49876D01*
X92393Y-49920D01*
X92589Y-49824D01*
X92725Y-49662D01*
X92750Y-49586D01*
X92774Y-49662D01*
X92910Y-49824D01*
X93106Y-49920D01*
X93190Y-49876D01*
X93190Y-51623D01*
X93106Y-51579D01*
X92910Y-51675D01*
X92810Y-51794D01*
X92702Y-51631D01*
X92494Y-51493D01*
X92250Y-51444D01*
X92190Y-51456D01*
X92190Y-49876D01*
X92190Y-49310D01*
X92190Y-49190D01*
X92190Y-48623D01*
X92106Y-48579D01*
X91910Y-48675D01*
X91774Y-48837D01*
X91750Y-48913D01*
X91725Y-48837D01*
X91589Y-48675D01*
X91393Y-48579D01*
X91310Y-48623D01*
X91310Y-49190D01*
X91710Y-49190D01*
X91790Y-49190D01*
X92190Y-49190D01*
X92190Y-49310D01*
X91790Y-49310D01*
X91710Y-49310D01*
X91310Y-49310D01*
X91310Y-49876D01*
X91393Y-49920D01*
X91589Y-49824D01*
X91725Y-49662D01*
X91750Y-49586D01*
X91774Y-49662D01*
X91910Y-49824D01*
X92106Y-49920D01*
X92190Y-49876D01*
X92190Y-51456D01*
X92005Y-51493D01*
X91797Y-51631D01*
X91689Y-51794D01*
X91589Y-51675D01*
X91393Y-51579D01*
X91310Y-51623D01*
X91310Y-52190D01*
X91317Y-52190D01*
X91317Y-52310D01*
X91310Y-52310D01*
X91310Y-52876D01*
X91393Y-52920D01*
X91589Y-52824D01*
X91689Y-52705D01*
X91797Y-52868D01*
X92005Y-53006D01*
X92250Y-53055D01*
X92494Y-53006D01*
X92702Y-52868D01*
X92810Y-52705D01*
X92910Y-52824D01*
X93106Y-52920D01*
X93190Y-52876D01*
X93190Y-54417D01*
X93173Y-54411D01*
X93088Y-54496D01*
X93088Y-54326D01*
X93053Y-54230D01*
X92831Y-54153D01*
X92597Y-54168D01*
X92446Y-54230D01*
X92411Y-54326D01*
X92750Y-54665D01*
X93088Y-54326D01*
X93088Y-54496D01*
X92834Y-54750D01*
X93173Y-55088D01*
X93269Y-55053D01*
X93346Y-54831D01*
X93346Y-55831D01*
X93331Y-55597D01*
X93269Y-55446D01*
X93173Y-55411D01*
X93088Y-55496D01*
X93088Y-55326D01*
X93060Y-55250D01*
X93088Y-55173D01*
X92750Y-54834D01*
X92665Y-54919D01*
X92665Y-54750D01*
X92326Y-54411D01*
X92230Y-54446D01*
X92153Y-54668D01*
X92168Y-54902D01*
X92230Y-55053D01*
X92326Y-55088D01*
X92665Y-54750D01*
X92665Y-54919D01*
X92411Y-55173D01*
X92439Y-55250D01*
X92411Y-55326D01*
X92750Y-55665D01*
X93088Y-55326D01*
X93088Y-55496D01*
X92834Y-55750D01*
X93173Y-56088D01*
X93269Y-56053D01*
X93346Y-55831D01*
X93346Y-57390D01*
X93088Y-57390D01*
X93088Y-56173D01*
X92750Y-55834D01*
X92665Y-55919D01*
X92665Y-55750D01*
X92326Y-55411D01*
X92230Y-55446D01*
X92153Y-55668D01*
X92168Y-55902D01*
X92230Y-56053D01*
X92326Y-56088D01*
X92665Y-55750D01*
X92665Y-55919D01*
X92411Y-56173D01*
X92446Y-56269D01*
X92668Y-56346D01*
X92902Y-56331D01*
X93053Y-56269D01*
X93088Y-56173D01*
X93088Y-57390D01*
X91440Y-57390D01*
X91440Y-55613D01*
X91335Y-55359D01*
X91240Y-55264D01*
X91240Y-55235D01*
X91334Y-55141D01*
X91439Y-54887D01*
X91440Y-54613D01*
X91335Y-54359D01*
X91141Y-54165D01*
X90887Y-54060D01*
X90613Y-54059D01*
X90359Y-54164D01*
X90165Y-54358D01*
X90060Y-54612D01*
X90059Y-54886D01*
X90164Y-55140D01*
X90260Y-55235D01*
X90260Y-55260D01*
X89740Y-55260D01*
X89740Y-55165D01*
X89792Y-55113D01*
X89889Y-54877D01*
X89890Y-54623D01*
X89792Y-54387D01*
X89740Y-54334D01*
X89740Y-54165D01*
X89792Y-54113D01*
X89889Y-53877D01*
X89890Y-53623D01*
X89792Y-53387D01*
X89613Y-53207D01*
X89377Y-53110D01*
X89123Y-53109D01*
X88887Y-53207D01*
X88707Y-53386D01*
X88610Y-53622D01*
X88609Y-53876D01*
X88707Y-54112D01*
X88760Y-54165D01*
X88760Y-54334D01*
X88707Y-54386D01*
X88610Y-54622D01*
X88609Y-54876D01*
X88707Y-55112D01*
X88760Y-55165D01*
X88760Y-55334D01*
X88707Y-55386D01*
X88610Y-55622D01*
X88609Y-55876D01*
X88707Y-56112D01*
X88757Y-56162D01*
X88661Y-56257D01*
X88610Y-56382D01*
X88609Y-56517D01*
X88609Y-57117D01*
X88661Y-57242D01*
X88757Y-57338D01*
X88882Y-57389D01*
X89017Y-57390D01*
X89617Y-57390D01*
X89742Y-57338D01*
X89838Y-57242D01*
X89889Y-57117D01*
X89890Y-56982D01*
X89890Y-56382D01*
X89838Y-56257D01*
X89820Y-56240D01*
X90264Y-56240D01*
X90358Y-56334D01*
X90612Y-56439D01*
X90886Y-56440D01*
X91140Y-56335D01*
X91334Y-56141D01*
X91439Y-55887D01*
X91440Y-55613D01*
X91440Y-57390D01*
X85190Y-57390D01*
X85190Y-57276D01*
X85190Y-56560D01*
X85190Y-56440D01*
X85190Y-55723D01*
X85106Y-55679D01*
X84910Y-55775D01*
X84774Y-55937D01*
X84750Y-56013D01*
X84725Y-55937D01*
X84589Y-55775D01*
X84393Y-55679D01*
X84310Y-55723D01*
X84310Y-56440D01*
X84710Y-56440D01*
X84790Y-56440D01*
X85190Y-56440D01*
X85190Y-56560D01*
X84790Y-56560D01*
X84710Y-56560D01*
X84310Y-56560D01*
X84310Y-57276D01*
X84393Y-57320D01*
X84589Y-57224D01*
X84725Y-57062D01*
X84750Y-56986D01*
X84774Y-57062D01*
X84910Y-57224D01*
X85106Y-57320D01*
X85190Y-57276D01*
X85190Y-57390D01*
X83523Y-57390D01*
X83702Y-57270D01*
X83812Y-57107D01*
X83910Y-57224D01*
X84106Y-57320D01*
X84190Y-57276D01*
X84190Y-56560D01*
X84182Y-56560D01*
X84182Y-56440D01*
X84190Y-56440D01*
X84190Y-55723D01*
X84106Y-55679D01*
X84046Y-55709D01*
X84046Y-54819D01*
X84046Y-53819D01*
X84031Y-53605D01*
X83978Y-53476D01*
X83886Y-53448D01*
X83801Y-53532D01*
X83801Y-53363D01*
X83773Y-53271D01*
X83569Y-53203D01*
X83355Y-53218D01*
X83226Y-53271D01*
X83198Y-53363D01*
X83500Y-53665D01*
X83801Y-53363D01*
X83801Y-53532D01*
X83584Y-53750D01*
X83886Y-54051D01*
X83978Y-54023D01*
X84046Y-53819D01*
X84046Y-54819D01*
X84031Y-54605D01*
X83978Y-54476D01*
X83886Y-54448D01*
X83801Y-54532D01*
X83801Y-54363D01*
X83773Y-54271D01*
X83714Y-54252D01*
X83773Y-54228D01*
X83801Y-54136D01*
X83500Y-53834D01*
X83415Y-53919D01*
X83415Y-53750D01*
X83113Y-53448D01*
X83021Y-53476D01*
X82953Y-53680D01*
X82968Y-53894D01*
X83021Y-54023D01*
X83113Y-54051D01*
X83415Y-53750D01*
X83415Y-53919D01*
X83198Y-54136D01*
X83226Y-54228D01*
X83285Y-54247D01*
X83226Y-54271D01*
X83198Y-54363D01*
X83500Y-54665D01*
X83801Y-54363D01*
X83801Y-54532D01*
X83584Y-54750D01*
X83886Y-55051D01*
X83978Y-55023D01*
X84046Y-54819D01*
X84046Y-55709D01*
X83910Y-55775D01*
X83812Y-55892D01*
X83801Y-55877D01*
X83801Y-55136D01*
X83500Y-54834D01*
X83415Y-54919D01*
X83415Y-54750D01*
X83113Y-54448D01*
X83021Y-54476D01*
X82953Y-54680D01*
X82968Y-54894D01*
X83021Y-55023D01*
X83113Y-55051D01*
X83415Y-54750D01*
X83415Y-54919D01*
X83198Y-55136D01*
X83226Y-55228D01*
X83430Y-55296D01*
X83644Y-55281D01*
X83773Y-55228D01*
X83801Y-55136D01*
X83801Y-55877D01*
X83702Y-55729D01*
X83494Y-55590D01*
X83250Y-55541D01*
X83005Y-55590D01*
X82797Y-55729D01*
X82658Y-55936D01*
X82647Y-55992D01*
X82613Y-55957D01*
X82377Y-55860D01*
X82123Y-55859D01*
X81887Y-55957D01*
X81707Y-56136D01*
X81610Y-56372D01*
X81609Y-56626D01*
X81707Y-56862D01*
X81886Y-57042D01*
X82122Y-57139D01*
X82376Y-57140D01*
X82612Y-57042D01*
X82647Y-57007D01*
X82658Y-57063D01*
X82797Y-57270D01*
X82976Y-57390D01*
X74790Y-57390D01*
X74790Y-54783D01*
X74716Y-54710D01*
X72109Y-54710D01*
X72109Y-54585D01*
X72362Y-54689D01*
X72636Y-54690D01*
X72890Y-54585D01*
X72985Y-54490D01*
X75000Y-54490D01*
X75187Y-54452D01*
X75187Y-54452D01*
X75346Y-54346D01*
X75596Y-54096D01*
X75596Y-54096D01*
X75702Y-53937D01*
X75739Y-53750D01*
X75740Y-53750D01*
X75740Y-52811D01*
X75749Y-52797D01*
X75797Y-52868D01*
X76005Y-53006D01*
X76250Y-53055D01*
X76494Y-53006D01*
X76702Y-52868D01*
X76749Y-52797D01*
X76760Y-52811D01*
X76760Y-53764D01*
X76665Y-53858D01*
X76560Y-54112D01*
X76559Y-54386D01*
X76664Y-54640D01*
X76760Y-54735D01*
X76760Y-54764D01*
X76665Y-54858D01*
X76560Y-55112D01*
X76559Y-55386D01*
X76664Y-55640D01*
X76858Y-55834D01*
X77112Y-55939D01*
X77386Y-55940D01*
X77640Y-55835D01*
X77834Y-55641D01*
X77939Y-55387D01*
X77940Y-55113D01*
X77835Y-54859D01*
X77740Y-54764D01*
X77740Y-54735D01*
X77834Y-54641D01*
X77939Y-54387D01*
X77940Y-54113D01*
X77835Y-53859D01*
X77740Y-53764D01*
X77740Y-52811D01*
X77749Y-52797D01*
X77797Y-52868D01*
X78005Y-53006D01*
X78250Y-53055D01*
X78494Y-53006D01*
X78702Y-52868D01*
X78750Y-52797D01*
X78760Y-52811D01*
X78760Y-56084D01*
X78707Y-56136D01*
X78610Y-56372D01*
X78609Y-56626D01*
X78707Y-56862D01*
X78886Y-57042D01*
X79122Y-57139D01*
X79376Y-57140D01*
X79612Y-57042D01*
X79792Y-56863D01*
X79889Y-56627D01*
X79890Y-56373D01*
X79792Y-56137D01*
X79740Y-56084D01*
X79740Y-54934D01*
X79797Y-55020D01*
X80005Y-55159D01*
X80250Y-55208D01*
X80494Y-55159D01*
X80702Y-55020D01*
X80750Y-54949D01*
X80797Y-55020D01*
X81005Y-55159D01*
X81250Y-55208D01*
X81494Y-55159D01*
X81702Y-55020D01*
X81750Y-54949D01*
X81797Y-55020D01*
X82005Y-55159D01*
X82250Y-55208D01*
X82494Y-55159D01*
X82702Y-55020D01*
X82841Y-54813D01*
X82890Y-54568D01*
X82890Y-53931D01*
X82841Y-53686D01*
X82740Y-53535D01*
X82740Y-53365D01*
X83004Y-52837D01*
X83112Y-52792D01*
X83292Y-52613D01*
X83389Y-52377D01*
X83390Y-52123D01*
X83292Y-51887D01*
X83113Y-51707D01*
X82877Y-51610D01*
X82623Y-51609D01*
X82387Y-51707D01*
X82207Y-51886D01*
X82110Y-52122D01*
X82109Y-52376D01*
X82123Y-52408D01*
X81811Y-53030D01*
X81807Y-53047D01*
X81797Y-53062D01*
X81782Y-53139D01*
X81761Y-53214D01*
X81763Y-53232D01*
X81760Y-53250D01*
X81760Y-53535D01*
X81750Y-53550D01*
X81702Y-53479D01*
X81494Y-53340D01*
X81250Y-53291D01*
X81005Y-53340D01*
X80797Y-53479D01*
X80750Y-53550D01*
X80740Y-53535D01*
X80740Y-52811D01*
X80750Y-52797D01*
X80797Y-52868D01*
X81005Y-53006D01*
X81250Y-53055D01*
X81494Y-53006D01*
X81702Y-52868D01*
X81841Y-52660D01*
X81890Y-52415D01*
X81890Y-52084D01*
X81841Y-51839D01*
X81702Y-51631D01*
X81494Y-51493D01*
X81478Y-51490D01*
X83914Y-51490D01*
X83860Y-51622D01*
X83859Y-51876D01*
X83957Y-52112D01*
X84136Y-52292D01*
X84372Y-52389D01*
X84626Y-52390D01*
X84862Y-52292D01*
X85042Y-52113D01*
X85139Y-51877D01*
X85140Y-51623D01*
X85085Y-51490D01*
X85809Y-51490D01*
X85757Y-51511D01*
X85661Y-51607D01*
X85610Y-51732D01*
X85609Y-51867D01*
X85609Y-52767D01*
X85661Y-52892D01*
X85757Y-52988D01*
X85760Y-52989D01*
X85760Y-53164D01*
X85627Y-53110D01*
X85373Y-53109D01*
X85137Y-53207D01*
X84957Y-53386D01*
X84860Y-53622D01*
X84859Y-53876D01*
X84957Y-54112D01*
X85094Y-54250D01*
X84957Y-54386D01*
X84860Y-54622D01*
X84859Y-54876D01*
X84957Y-55112D01*
X85136Y-55292D01*
X85372Y-55389D01*
X85610Y-55390D01*
X85609Y-55517D01*
X85609Y-55800D01*
X85589Y-55775D01*
X85393Y-55679D01*
X85310Y-55723D01*
X85310Y-56440D01*
X85317Y-56440D01*
X85317Y-56560D01*
X85310Y-56560D01*
X85310Y-57276D01*
X85393Y-57320D01*
X85589Y-57224D01*
X85699Y-57093D01*
X85707Y-57112D01*
X85886Y-57292D01*
X86122Y-57389D01*
X86376Y-57390D01*
X86612Y-57292D01*
X86792Y-57113D01*
X86889Y-56877D01*
X86890Y-56623D01*
X86792Y-56387D01*
X86742Y-56337D01*
X86838Y-56242D01*
X86889Y-56117D01*
X86890Y-55982D01*
X86890Y-55382D01*
X86838Y-55257D01*
X86820Y-55240D01*
X87000Y-55240D01*
X87187Y-55202D01*
X87187Y-55202D01*
X87346Y-55096D01*
X87596Y-54846D01*
X87596Y-54846D01*
X87702Y-54687D01*
X87739Y-54500D01*
X87740Y-54500D01*
X87740Y-52811D01*
X87750Y-52797D01*
X87797Y-52868D01*
X88005Y-53006D01*
X88250Y-53055D01*
X88494Y-53006D01*
X88702Y-52868D01*
X88750Y-52797D01*
X88797Y-52868D01*
X89005Y-53006D01*
X89250Y-53055D01*
X89494Y-53006D01*
X89702Y-52868D01*
X89750Y-52797D01*
X89797Y-52868D01*
X90005Y-53006D01*
X90250Y-53055D01*
X90494Y-53006D01*
X90702Y-52868D01*
X90810Y-52705D01*
X90910Y-52824D01*
X91106Y-52920D01*
X91190Y-52876D01*
X91190Y-52310D01*
X91182Y-52310D01*
X91182Y-52190D01*
X91190Y-52190D01*
X91190Y-51623D01*
X91106Y-51579D01*
X90910Y-51675D01*
X90810Y-51794D01*
X90702Y-51631D01*
X90494Y-51493D01*
X90250Y-51444D01*
X90005Y-51493D01*
X89797Y-51631D01*
X89750Y-51702D01*
X89702Y-51631D01*
X89494Y-51493D01*
X89250Y-51444D01*
X89005Y-51493D01*
X88797Y-51631D01*
X88750Y-51702D01*
X88702Y-51631D01*
X88494Y-51493D01*
X88478Y-51490D01*
X89000Y-51490D01*
X89187Y-51452D01*
X89187Y-51452D01*
X89346Y-51346D01*
X89596Y-51096D01*
X89596Y-51096D01*
X89702Y-50937D01*
X89739Y-50750D01*
X89740Y-50750D01*
X89740Y-49811D01*
X89750Y-49797D01*
X89797Y-49868D01*
X90005Y-50006D01*
X90250Y-50055D01*
X90494Y-50006D01*
X90702Y-49868D01*
X90810Y-49705D01*
X90910Y-49824D01*
X91106Y-49920D01*
X91190Y-49876D01*
X91190Y-49310D01*
X91182Y-49310D01*
X91182Y-49190D01*
X91190Y-49190D01*
X91190Y-48623D01*
X91106Y-48579D01*
X90910Y-48675D01*
X90810Y-48794D01*
X90702Y-48631D01*
X90494Y-48493D01*
X90250Y-48444D01*
X90005Y-48493D01*
X89797Y-48631D01*
X89750Y-48702D01*
X89702Y-48631D01*
X89494Y-48493D01*
X89250Y-48444D01*
X89005Y-48493D01*
X88797Y-48631D01*
X88796Y-48633D01*
X88796Y-48069D01*
X88781Y-47855D01*
X88728Y-47726D01*
X88636Y-47698D01*
X88334Y-48000D01*
X88636Y-48301D01*
X88728Y-48273D01*
X88796Y-48069D01*
X88796Y-48633D01*
X88689Y-48794D01*
X88589Y-48675D01*
X88551Y-48657D01*
X88393Y-48579D01*
X88310Y-48623D01*
X88310Y-49190D01*
X88317Y-49190D01*
X88317Y-49310D01*
X88310Y-49310D01*
X88310Y-49876D01*
X88393Y-49920D01*
X88589Y-49824D01*
X88689Y-49705D01*
X88760Y-49811D01*
X88760Y-50510D01*
X85046Y-50510D01*
X85046Y-49819D01*
X85031Y-49605D01*
X84978Y-49476D01*
X84886Y-49448D01*
X84801Y-49532D01*
X84801Y-49363D01*
X84773Y-49271D01*
X84569Y-49203D01*
X84355Y-49218D01*
X84226Y-49271D01*
X84198Y-49363D01*
X84500Y-49665D01*
X84801Y-49363D01*
X84801Y-49532D01*
X84584Y-49750D01*
X84886Y-50051D01*
X84978Y-50023D01*
X85046Y-49819D01*
X85046Y-50510D01*
X84801Y-50510D01*
X84801Y-50136D01*
X84500Y-49834D01*
X84415Y-49919D01*
X84415Y-49750D01*
X84113Y-49448D01*
X84021Y-49476D01*
X83953Y-49680D01*
X83968Y-49894D01*
X84021Y-50023D01*
X84113Y-50051D01*
X84415Y-49750D01*
X84415Y-49919D01*
X84198Y-50136D01*
X84226Y-50228D01*
X84430Y-50296D01*
X84644Y-50281D01*
X84773Y-50228D01*
X84801Y-50136D01*
X84801Y-50510D01*
X83232Y-50510D01*
X83296Y-50319D01*
X83281Y-50105D01*
X83228Y-49976D01*
X83136Y-49948D01*
X83051Y-50032D01*
X83051Y-49863D01*
X83023Y-49771D01*
X82819Y-49703D01*
X82605Y-49718D01*
X82476Y-49771D01*
X82448Y-49863D01*
X82750Y-50165D01*
X83051Y-49863D01*
X83051Y-50032D01*
X82834Y-50250D01*
X82840Y-50255D01*
X82755Y-50340D01*
X82750Y-50334D01*
X82744Y-50340D01*
X82659Y-50255D01*
X82665Y-50250D01*
X82363Y-49948D01*
X82271Y-49976D01*
X82203Y-50180D01*
X82218Y-50394D01*
X82266Y-50510D01*
X76500Y-50510D01*
X76312Y-50547D01*
X76153Y-50653D01*
X75903Y-50903D01*
X75797Y-51062D01*
X75760Y-51250D01*
X75760Y-51688D01*
X75750Y-51702D01*
X75702Y-51631D01*
X75494Y-51493D01*
X75250Y-51444D01*
X75005Y-51493D01*
X74836Y-51605D01*
X74742Y-51511D01*
X74617Y-51460D01*
X74482Y-51459D01*
X73882Y-51459D01*
X73757Y-51511D01*
X73661Y-51607D01*
X73610Y-51732D01*
X73609Y-51867D01*
X73609Y-52767D01*
X73661Y-52892D01*
X73757Y-52988D01*
X73882Y-53039D01*
X74017Y-53040D01*
X74617Y-53040D01*
X74742Y-52988D01*
X74760Y-52970D01*
X74760Y-53510D01*
X73096Y-53510D01*
X73096Y-51081D01*
X73081Y-50847D01*
X73046Y-50761D01*
X73046Y-49819D01*
X73031Y-49605D01*
X72978Y-49476D01*
X72886Y-49448D01*
X72801Y-49532D01*
X72801Y-49363D01*
X72773Y-49271D01*
X72569Y-49203D01*
X72355Y-49218D01*
X72226Y-49271D01*
X72198Y-49363D01*
X72500Y-49665D01*
X72801Y-49363D01*
X72801Y-49532D01*
X72584Y-49750D01*
X72886Y-50051D01*
X72978Y-50023D01*
X73046Y-49819D01*
X73046Y-50761D01*
X73019Y-50696D01*
X72923Y-50661D01*
X72838Y-50746D01*
X72584Y-51000D01*
X72923Y-51338D01*
X73019Y-51303D01*
X73096Y-51081D01*
X73096Y-53510D01*
X72985Y-53510D01*
X72891Y-53415D01*
X72838Y-53393D01*
X72637Y-53310D01*
X72363Y-53309D01*
X72109Y-53414D01*
X72109Y-51459D01*
X72117Y-51467D01*
X72161Y-51423D01*
X72196Y-51519D01*
X72418Y-51596D01*
X72652Y-51581D01*
X72803Y-51519D01*
X72838Y-51423D01*
X72500Y-51084D01*
X72494Y-51090D01*
X72409Y-51005D01*
X72415Y-51000D01*
X72409Y-50994D01*
X72494Y-50909D01*
X72500Y-50915D01*
X72838Y-50576D01*
X72803Y-50480D01*
X72801Y-50479D01*
X72801Y-50136D01*
X72500Y-49834D01*
X72198Y-50136D01*
X72226Y-50228D01*
X72430Y-50296D01*
X72644Y-50281D01*
X72773Y-50228D01*
X72801Y-50136D01*
X72801Y-50479D01*
X72581Y-50403D01*
X72347Y-50418D01*
X72196Y-50480D01*
X72161Y-50576D01*
X72117Y-50532D01*
X72109Y-50540D01*
X72109Y-50050D01*
X72113Y-50051D01*
X72415Y-49750D01*
X72113Y-49448D01*
X72109Y-49449D01*
X72109Y-48264D01*
X72136Y-48292D01*
X72372Y-48389D01*
X72626Y-48390D01*
X72862Y-48292D01*
X73042Y-48113D01*
X73139Y-47877D01*
X73140Y-47623D01*
X73042Y-47387D01*
X72863Y-47207D01*
X72627Y-47110D01*
X72373Y-47109D01*
X72137Y-47207D01*
X72109Y-47235D01*
X72109Y-45790D01*
X74716Y-45790D01*
X74760Y-45745D01*
X74760Y-45750D01*
X74760Y-48688D01*
X74750Y-48702D01*
X74702Y-48631D01*
X74494Y-48493D01*
X74250Y-48444D01*
X74005Y-48493D01*
X73797Y-48631D01*
X73658Y-48839D01*
X73610Y-49084D01*
X73610Y-49415D01*
X73658Y-49660D01*
X73797Y-49868D01*
X74005Y-50006D01*
X74250Y-50055D01*
X74494Y-50006D01*
X74702Y-49868D01*
X74749Y-49797D01*
X74797Y-49868D01*
X75005Y-50006D01*
X75250Y-50055D01*
X75494Y-50006D01*
X75702Y-49868D01*
X75749Y-49797D01*
X75797Y-49868D01*
X76005Y-50006D01*
X76250Y-50055D01*
X76494Y-50006D01*
X76702Y-49868D01*
X76749Y-49797D01*
X76797Y-49868D01*
X77005Y-50006D01*
X77250Y-50055D01*
X77494Y-50006D01*
X77702Y-49868D01*
X77810Y-49705D01*
X77910Y-49824D01*
X78106Y-49920D01*
X78190Y-49876D01*
X78190Y-49310D01*
X78182Y-49310D01*
X78182Y-49190D01*
X78190Y-49190D01*
X78190Y-48623D01*
X78106Y-48579D01*
X77910Y-48675D01*
X77810Y-48794D01*
X77740Y-48688D01*
X77740Y-46452D01*
X77952Y-46240D01*
X78110Y-46240D01*
X78060Y-46362D01*
X78059Y-46636D01*
X78164Y-46890D01*
X78260Y-46985D01*
X78260Y-47014D01*
X78165Y-47108D01*
X78060Y-47362D01*
X78059Y-47636D01*
X78164Y-47890D01*
X78358Y-48084D01*
X78413Y-48107D01*
X78573Y-48667D01*
X78393Y-48579D01*
X78310Y-48623D01*
X78310Y-49190D01*
X78317Y-49190D01*
X78317Y-49310D01*
X78310Y-49310D01*
X78310Y-49876D01*
X78393Y-49920D01*
X78589Y-49824D01*
X78689Y-49705D01*
X78797Y-49868D01*
X79005Y-50006D01*
X79250Y-50055D01*
X79494Y-50006D01*
X79702Y-49868D01*
X79810Y-49705D01*
X79910Y-49824D01*
X80106Y-49920D01*
X80190Y-49876D01*
X80190Y-49310D01*
X80182Y-49310D01*
X80182Y-49190D01*
X80190Y-49190D01*
X80190Y-48623D01*
X80106Y-48579D01*
X79910Y-48675D01*
X79810Y-48794D01*
X79702Y-48631D01*
X79553Y-48532D01*
X79356Y-47839D01*
X79439Y-47637D01*
X79440Y-47455D01*
X79480Y-47553D01*
X79576Y-47588D01*
X79915Y-47250D01*
X79576Y-46911D01*
X79480Y-46946D01*
X79403Y-47168D01*
X79411Y-47294D01*
X79335Y-47109D01*
X79240Y-47014D01*
X79240Y-46985D01*
X79334Y-46891D01*
X79439Y-46637D01*
X79440Y-46363D01*
X79389Y-46240D01*
X83648Y-46240D01*
X83610Y-46431D01*
X83610Y-46919D01*
X83585Y-46859D01*
X83391Y-46665D01*
X83137Y-46560D01*
X82863Y-46559D01*
X82609Y-46664D01*
X82415Y-46858D01*
X82310Y-47112D01*
X82309Y-47295D01*
X81295Y-48453D01*
X81250Y-48444D01*
X81005Y-48493D01*
X80797Y-48631D01*
X80689Y-48794D01*
X80596Y-48683D01*
X80596Y-47331D01*
X80581Y-47097D01*
X80519Y-46946D01*
X80423Y-46911D01*
X80338Y-46996D01*
X80338Y-46826D01*
X80303Y-46730D01*
X80081Y-46653D01*
X79847Y-46668D01*
X79696Y-46730D01*
X79661Y-46826D01*
X80000Y-47165D01*
X80338Y-46826D01*
X80338Y-46996D01*
X80084Y-47250D01*
X80423Y-47588D01*
X80519Y-47553D01*
X80596Y-47331D01*
X80596Y-48683D01*
X80589Y-48675D01*
X80393Y-48579D01*
X80338Y-48608D01*
X80338Y-47673D01*
X80000Y-47334D01*
X79661Y-47673D01*
X79696Y-47769D01*
X79918Y-47846D01*
X80152Y-47831D01*
X80303Y-47769D01*
X80338Y-47673D01*
X80338Y-48608D01*
X80310Y-48623D01*
X80310Y-49190D01*
X80317Y-49190D01*
X80317Y-49310D01*
X80310Y-49310D01*
X80310Y-49876D01*
X80393Y-49920D01*
X80589Y-49824D01*
X80689Y-49705D01*
X80797Y-49868D01*
X81005Y-50006D01*
X81250Y-50055D01*
X81494Y-50006D01*
X81702Y-49868D01*
X81841Y-49660D01*
X81890Y-49415D01*
X81890Y-49262D01*
X83048Y-47940D01*
X83136Y-47940D01*
X83390Y-47835D01*
X83584Y-47641D01*
X83689Y-47387D01*
X83689Y-47360D01*
X83797Y-47520D01*
X84005Y-47659D01*
X84250Y-47708D01*
X84494Y-47659D01*
X84702Y-47520D01*
X84750Y-47449D01*
X84760Y-47464D01*
X84760Y-48250D01*
X84797Y-48437D01*
X84903Y-48596D01*
X85610Y-49302D01*
X85610Y-49415D01*
X85658Y-49660D01*
X85797Y-49868D01*
X86005Y-50006D01*
X86250Y-50055D01*
X86494Y-50006D01*
X86702Y-49868D01*
X86750Y-49797D01*
X86797Y-49868D01*
X87005Y-50006D01*
X87250Y-50055D01*
X87494Y-50006D01*
X87702Y-49868D01*
X87810Y-49705D01*
X87910Y-49824D01*
X88106Y-49920D01*
X88190Y-49876D01*
X88190Y-49310D01*
X88182Y-49310D01*
X88182Y-49190D01*
X88190Y-49190D01*
X88190Y-48623D01*
X88106Y-48579D01*
X87910Y-48675D01*
X87810Y-48794D01*
X87740Y-48688D01*
X87740Y-48665D01*
X87792Y-48613D01*
X87878Y-48405D01*
X87903Y-48431D01*
X87948Y-48386D01*
X87976Y-48478D01*
X88180Y-48546D01*
X88394Y-48531D01*
X88523Y-48478D01*
X88551Y-48386D01*
X88250Y-48084D01*
X88244Y-48090D01*
X88159Y-48005D01*
X88165Y-48000D01*
X87863Y-47698D01*
X87771Y-47726D01*
X87740Y-47822D01*
X87740Y-47490D01*
X87834Y-47490D01*
X87886Y-47542D01*
X87960Y-47572D01*
X87948Y-47613D01*
X88250Y-47915D01*
X88551Y-47613D01*
X88539Y-47572D01*
X88612Y-47542D01*
X88792Y-47363D01*
X88889Y-47127D01*
X88890Y-46873D01*
X88861Y-46804D01*
X89653Y-47596D01*
X89812Y-47702D01*
X89812Y-47702D01*
X90000Y-47740D01*
X93047Y-47740D01*
X94380Y-49073D01*
X94360Y-49122D01*
X94359Y-49376D01*
X94457Y-49612D01*
X94636Y-49792D01*
X94872Y-49889D01*
X95126Y-49890D01*
X95362Y-49792D01*
X95415Y-49740D01*
X96000Y-49740D01*
X96285Y-49740D01*
X96300Y-49750D01*
X96229Y-49797D01*
X96090Y-50005D01*
X96041Y-50250D01*
X96090Y-50494D01*
X96229Y-50702D01*
X96392Y-50812D01*
X96275Y-50910D01*
X96179Y-51106D01*
X96223Y-51190D01*
X96940Y-51190D01*
X96940Y-51182D01*
X97060Y-51182D01*
X97060Y-51190D01*
X97776Y-51190D01*
X97820Y-51106D01*
X97724Y-50910D01*
X97607Y-50812D01*
X97770Y-50702D01*
X97909Y-50494D01*
X97958Y-50250D01*
X97909Y-50005D01*
X97770Y-49797D01*
X97699Y-49749D01*
X97770Y-49702D01*
X97909Y-49494D01*
X97958Y-49250D01*
X97909Y-49005D01*
X97770Y-48797D01*
X97563Y-48658D01*
X97318Y-48610D01*
X96681Y-48610D01*
X96490Y-48648D01*
X96490Y-47589D01*
X96492Y-47588D01*
X96588Y-47492D01*
X96639Y-47367D01*
X96640Y-47232D01*
X96640Y-46632D01*
X96588Y-46507D01*
X96492Y-46411D01*
X96367Y-46360D01*
X96232Y-46359D01*
X95632Y-46359D01*
X95507Y-46411D01*
X95411Y-46507D01*
X95374Y-46597D01*
X95346Y-46568D01*
X95301Y-46613D01*
X95273Y-46521D01*
X95069Y-46453D01*
X94855Y-46468D01*
X94726Y-46521D01*
X94698Y-46613D01*
X95000Y-46915D01*
X95005Y-46909D01*
X95090Y-46994D01*
X95084Y-47000D01*
X95090Y-47005D01*
X95005Y-47090D01*
X95000Y-47084D01*
X94915Y-47169D01*
X94915Y-47000D01*
X94613Y-46698D01*
X94521Y-46726D01*
X94453Y-46930D01*
X94468Y-47144D01*
X94521Y-47273D01*
X94613Y-47301D01*
X94915Y-47000D01*
X94915Y-47169D01*
X94698Y-47386D01*
X94726Y-47478D01*
X94930Y-47546D01*
X95144Y-47531D01*
X95273Y-47478D01*
X95301Y-47386D01*
X95301Y-47386D01*
X95346Y-47431D01*
X95374Y-47402D01*
X95411Y-47492D01*
X95507Y-47588D01*
X95510Y-47589D01*
X95510Y-48760D01*
X95417Y-48760D01*
X95346Y-48653D01*
X95301Y-48608D01*
X93596Y-46903D01*
X93437Y-46797D01*
X93250Y-46760D01*
X90889Y-46760D01*
X90939Y-46637D01*
X90940Y-46363D01*
X90835Y-46109D01*
X90740Y-46014D01*
X90740Y-45985D01*
X90834Y-45891D01*
X90939Y-45637D01*
X90940Y-45363D01*
X90835Y-45109D01*
X90641Y-44915D01*
X90387Y-44810D01*
X90113Y-44809D01*
X89859Y-44914D01*
X89665Y-45108D01*
X89560Y-45362D01*
X89559Y-45636D01*
X89664Y-45890D01*
X89760Y-45985D01*
X89760Y-46014D01*
X89665Y-46108D01*
X89632Y-46189D01*
X89096Y-45653D01*
X88937Y-45547D01*
X88750Y-45510D01*
X87835Y-45510D01*
X87889Y-45377D01*
X87890Y-45123D01*
X87792Y-44887D01*
X87613Y-44707D01*
X87377Y-44610D01*
X87123Y-44609D01*
X86887Y-44707D01*
X86707Y-44886D01*
X86670Y-44977D01*
X86596Y-44903D01*
X86437Y-44797D01*
X86250Y-44760D01*
X79851Y-44760D01*
X79890Y-44568D01*
X79890Y-43931D01*
X79841Y-43686D01*
X79702Y-43479D01*
X79494Y-43340D01*
X79250Y-43291D01*
X79005Y-43340D01*
X78797Y-43479D01*
X78750Y-43550D01*
X78702Y-43479D01*
X78494Y-43340D01*
X78250Y-43291D01*
X78005Y-43340D01*
X77797Y-43479D01*
X77750Y-43550D01*
X77702Y-43479D01*
X77494Y-43340D01*
X77250Y-43291D01*
X77005Y-43340D01*
X76797Y-43479D01*
X76750Y-43550D01*
X76702Y-43479D01*
X76494Y-43340D01*
X76250Y-43291D01*
X76005Y-43340D01*
X75797Y-43479D01*
X75658Y-43686D01*
X75610Y-43931D01*
X75610Y-44568D01*
X75651Y-44779D01*
X75562Y-44797D01*
X75403Y-44903D01*
X74903Y-45403D01*
X74797Y-45562D01*
X74790Y-45599D01*
X74790Y-43109D01*
X95460Y-43109D01*
X95460Y-45716D01*
X95533Y-45790D01*
X98140Y-45790D01*
X98140Y-54710D01*
M02*
