M48
INCH,TZ
T10C0.035
T11C0.042
T12C0.150
%
T10
X072500Y-47750
X072500Y-49750
X072500Y-51000
X072500Y-54000
X074250Y-49250
X074250Y-52250
X075250Y-49250
X075250Y-52250
X076250Y-49250
X076250Y-52250
X077250Y-49250
X077250Y-52250
X078250Y-49250
X078250Y-52250
X079250Y-49250
X079250Y-52250
X079250Y-56500
X080000Y-47250
X080250Y-49250
X080250Y-52250
X080250Y-54250
X081250Y-49250
X081250Y-52250
X081250Y-54250
X082250Y-54250
X082250Y-56500
X082750Y-50250
X082750Y-52250
X083000Y-47250
X083250Y-56500
X083500Y-53750
X083500Y-54750
X084250Y-46750
X084250Y-56500
X084500Y-49750
X084500Y-51750
X085250Y-46750
X085250Y-56500
X085500Y-53750
X085500Y-54750
X086250Y-46750
X086250Y-49250
X086250Y-52250
X086250Y-53750
X086250Y-54750
X086250Y-55750
X086250Y-56750
X087250Y-45250
X087250Y-48250
X087250Y-49250
X087250Y-52250
X088250Y-47000
X088250Y-48000
X088250Y-49250
X088250Y-52250
X089250Y-49250
X089250Y-52250
X089250Y-53750
X089250Y-54750
X089250Y-55750
X089250Y-56750
X090250Y-49250
X090250Y-52250
X091250Y-49250
X091250Y-52250
X092250Y-49250
X092250Y-52250
X093250Y-49250
X093250Y-52250
X095000Y-47000
X095000Y-49250
X095000Y-51250
X095000Y-53500
X096000Y-47000
X096000Y-53500
T11
X076250Y-44250
X076250Y-46500
X076250Y-47500
X077250Y-44250
X077250Y-54250
X077250Y-55250
X078250Y-44250
X078750Y-46500
X078750Y-47500
X079250Y-44250
X090250Y-45500
X090250Y-46500
X090750Y-54750
X090750Y-55750
X092750Y-54750
X092750Y-55750
X097000Y-49250
X097000Y-50250
X097000Y-51250
T12
X073250Y-44250
X073250Y-56250
X097000Y-44250
X097000Y-56250
M30

