G04 (created by PCBNEW (2013-jul-07)-stable) date Thu 15 Dec 2016 11:15:11 PM CST*
%MOIN*%
G04 Gerber Fmt 3.4, Leading zero omitted, Abs format*
%FSLAX34Y34*%
G01*
G70*
G90*
G04 APERTURE LIST*
%ADD10C,0.005*%
%ADD11C,0.00393701*%
%ADD12C,0.00787402*%
%ADD13C,0.011811*%
G04 APERTURE END LIST*
G54D10*
G54D11*
X71750Y-42750D02*
X71750Y-57750D01*
X98500Y-42750D02*
X71750Y-42750D01*
X98500Y-57750D02*
X98500Y-42750D01*
X71750Y-57750D02*
X98500Y-57750D01*
G54D12*
X72500Y-43500D02*
X74000Y-45000D01*
X74000Y-43500D02*
X72500Y-45000D01*
X72500Y-55500D02*
X74000Y-57000D01*
X74000Y-55500D02*
X72500Y-57000D01*
X96250Y-43500D02*
X97750Y-45000D01*
X97750Y-43500D02*
X96250Y-45000D01*
X96250Y-55500D02*
X97750Y-57000D01*
X97750Y-55500D02*
X96250Y-57000D01*
G54D13*
X72798Y-59546D02*
X72798Y-58365D01*
X73080Y-58365D01*
X73248Y-58422D01*
X73361Y-58534D01*
X73417Y-58647D01*
X73473Y-58872D01*
X73473Y-59040D01*
X73417Y-59265D01*
X73361Y-59378D01*
X73248Y-59490D01*
X73080Y-59546D01*
X72798Y-59546D01*
X73980Y-59546D02*
X73980Y-58759D01*
X73980Y-58984D02*
X74036Y-58872D01*
X74092Y-58815D01*
X74205Y-58759D01*
X74317Y-58759D01*
X74711Y-59546D02*
X74711Y-58759D01*
X74711Y-58365D02*
X74654Y-58422D01*
X74711Y-58478D01*
X74767Y-58422D01*
X74711Y-58365D01*
X74711Y-58478D01*
X75442Y-59546D02*
X75329Y-59490D01*
X75273Y-59378D01*
X75273Y-58365D01*
X76061Y-59546D02*
X75948Y-59490D01*
X75892Y-59378D01*
X75892Y-58365D01*
X77410Y-59546D02*
X77410Y-58365D01*
X77804Y-59209D01*
X78198Y-58365D01*
X78198Y-59546D01*
X79266Y-59546D02*
X79266Y-58928D01*
X79210Y-58815D01*
X79098Y-58759D01*
X78873Y-58759D01*
X78760Y-58815D01*
X79266Y-59490D02*
X79154Y-59546D01*
X78873Y-59546D01*
X78760Y-59490D01*
X78704Y-59378D01*
X78704Y-59265D01*
X78760Y-59153D01*
X78873Y-59097D01*
X79154Y-59097D01*
X79266Y-59040D01*
X79829Y-58759D02*
X79829Y-59940D01*
X79829Y-58815D02*
X79941Y-58759D01*
X80166Y-58759D01*
X80279Y-58815D01*
X80335Y-58872D01*
X80391Y-58984D01*
X80391Y-59321D01*
X80335Y-59434D01*
X80279Y-59490D01*
X80166Y-59546D01*
X79941Y-59546D01*
X79829Y-59490D01*
X80897Y-59434D02*
X80954Y-59490D01*
X80897Y-59546D01*
X80841Y-59490D01*
X80897Y-59434D01*
X80897Y-59546D01*
X80897Y-58815D02*
X80954Y-58872D01*
X80897Y-58928D01*
X80841Y-58872D01*
X80897Y-58815D01*
X80897Y-58928D01*
X70230Y-60799D02*
X71730Y-62299D01*
X71730Y-60799D02*
X70230Y-62299D01*
X72686Y-60846D02*
X73417Y-60846D01*
X73023Y-61296D01*
X73192Y-61296D01*
X73305Y-61352D01*
X73361Y-61408D01*
X73417Y-61521D01*
X73417Y-61802D01*
X73361Y-61914D01*
X73305Y-61971D01*
X73192Y-62027D01*
X72855Y-62027D01*
X72742Y-61971D01*
X72686Y-61914D01*
X73923Y-61914D02*
X73980Y-61971D01*
X73923Y-62027D01*
X73867Y-61971D01*
X73923Y-61914D01*
X73923Y-62027D01*
X74654Y-61352D02*
X74542Y-61296D01*
X74486Y-61239D01*
X74429Y-61127D01*
X74429Y-61071D01*
X74486Y-60958D01*
X74542Y-60902D01*
X74654Y-60846D01*
X74879Y-60846D01*
X74992Y-60902D01*
X75048Y-60958D01*
X75104Y-61071D01*
X75104Y-61127D01*
X75048Y-61239D01*
X74992Y-61296D01*
X74879Y-61352D01*
X74654Y-61352D01*
X74542Y-61408D01*
X74486Y-61464D01*
X74429Y-61577D01*
X74429Y-61802D01*
X74486Y-61914D01*
X74542Y-61971D01*
X74654Y-62027D01*
X74879Y-62027D01*
X74992Y-61971D01*
X75048Y-61914D01*
X75104Y-61802D01*
X75104Y-61577D01*
X75048Y-61464D01*
X74992Y-61408D01*
X74879Y-61352D01*
X76229Y-62027D02*
X75554Y-62027D01*
X75892Y-62027D02*
X75892Y-60846D01*
X75779Y-61014D01*
X75667Y-61127D01*
X75554Y-61183D01*
X76735Y-62027D02*
X76735Y-61239D01*
X76735Y-61352D02*
X76792Y-61296D01*
X76904Y-61239D01*
X77073Y-61239D01*
X77185Y-61296D01*
X77242Y-61408D01*
X77242Y-62027D01*
X77242Y-61408D02*
X77298Y-61296D01*
X77410Y-61239D01*
X77579Y-61239D01*
X77692Y-61296D01*
X77748Y-61408D01*
X77748Y-62027D01*
X78310Y-62027D02*
X78310Y-61239D01*
X78310Y-61352D02*
X78366Y-61296D01*
X78479Y-61239D01*
X78648Y-61239D01*
X78760Y-61296D01*
X78816Y-61408D01*
X78816Y-62027D01*
X78816Y-61408D02*
X78873Y-61296D01*
X78985Y-61239D01*
X79154Y-61239D01*
X79266Y-61296D01*
X79323Y-61408D01*
X79323Y-62027D01*
X81629Y-60789D02*
X80616Y-62308D01*
X83147Y-60846D02*
X83260Y-60846D01*
X83372Y-60902D01*
X83428Y-60958D01*
X83485Y-61071D01*
X83541Y-61296D01*
X83541Y-61577D01*
X83485Y-61802D01*
X83428Y-61914D01*
X83372Y-61971D01*
X83260Y-62027D01*
X83147Y-62027D01*
X83035Y-61971D01*
X82978Y-61914D01*
X82922Y-61802D01*
X82866Y-61577D01*
X82866Y-61296D01*
X82922Y-61071D01*
X82978Y-60958D01*
X83035Y-60902D01*
X83147Y-60846D01*
X84047Y-61914D02*
X84103Y-61971D01*
X84047Y-62027D01*
X83991Y-61971D01*
X84047Y-61914D01*
X84047Y-62027D01*
X85228Y-62027D02*
X84553Y-62027D01*
X84891Y-62027D02*
X84891Y-60846D01*
X84778Y-61014D01*
X84666Y-61127D01*
X84553Y-61183D01*
X86297Y-60846D02*
X85734Y-60846D01*
X85678Y-61408D01*
X85734Y-61352D01*
X85847Y-61296D01*
X86128Y-61296D01*
X86241Y-61352D01*
X86297Y-61408D01*
X86353Y-61521D01*
X86353Y-61802D01*
X86297Y-61914D01*
X86241Y-61971D01*
X86128Y-62027D01*
X85847Y-62027D01*
X85734Y-61971D01*
X85678Y-61914D01*
X87084Y-60846D02*
X87197Y-60846D01*
X87309Y-60902D01*
X87365Y-60958D01*
X87422Y-61071D01*
X87478Y-61296D01*
X87478Y-61577D01*
X87422Y-61802D01*
X87365Y-61914D01*
X87309Y-61971D01*
X87197Y-62027D01*
X87084Y-62027D01*
X86972Y-61971D01*
X86915Y-61914D01*
X86859Y-61802D01*
X86803Y-61577D01*
X86803Y-61296D01*
X86859Y-61071D01*
X86915Y-60958D01*
X86972Y-60902D01*
X87084Y-60846D01*
X87928Y-60846D02*
X87928Y-61071D01*
X88378Y-60846D02*
X88378Y-61071D01*
X90121Y-62477D02*
X90065Y-62420D01*
X89953Y-62252D01*
X89896Y-62139D01*
X89840Y-61971D01*
X89784Y-61689D01*
X89784Y-61464D01*
X89840Y-61183D01*
X89896Y-61014D01*
X89953Y-60902D01*
X90065Y-60733D01*
X90121Y-60677D01*
X91077Y-61239D02*
X91077Y-62027D01*
X90796Y-60789D02*
X90515Y-61633D01*
X91246Y-61633D01*
X92596Y-62027D02*
X92596Y-60846D01*
X93102Y-62027D02*
X93102Y-61408D01*
X93046Y-61296D01*
X92933Y-61239D01*
X92765Y-61239D01*
X92652Y-61296D01*
X92596Y-61352D01*
X93833Y-62027D02*
X93721Y-61971D01*
X93665Y-61914D01*
X93608Y-61802D01*
X93608Y-61464D01*
X93665Y-61352D01*
X93721Y-61296D01*
X93833Y-61239D01*
X94002Y-61239D01*
X94115Y-61296D01*
X94171Y-61352D01*
X94227Y-61464D01*
X94227Y-61802D01*
X94171Y-61914D01*
X94115Y-61971D01*
X94002Y-62027D01*
X93833Y-62027D01*
X94902Y-62027D02*
X94789Y-61971D01*
X94733Y-61858D01*
X94733Y-60846D01*
X95802Y-61971D02*
X95689Y-62027D01*
X95464Y-62027D01*
X95352Y-61971D01*
X95296Y-61858D01*
X95296Y-61408D01*
X95352Y-61296D01*
X95464Y-61239D01*
X95689Y-61239D01*
X95802Y-61296D01*
X95858Y-61408D01*
X95858Y-61521D01*
X95296Y-61633D01*
X96308Y-61971D02*
X96420Y-62027D01*
X96645Y-62027D01*
X96758Y-61971D01*
X96814Y-61858D01*
X96814Y-61802D01*
X96758Y-61689D01*
X96645Y-61633D01*
X96477Y-61633D01*
X96364Y-61577D01*
X96308Y-61464D01*
X96308Y-61408D01*
X96364Y-61296D01*
X96477Y-61239D01*
X96645Y-61239D01*
X96758Y-61296D01*
X97208Y-62477D02*
X97264Y-62420D01*
X97377Y-62252D01*
X97433Y-62139D01*
X97489Y-61971D01*
X97545Y-61689D01*
X97545Y-61464D01*
X97489Y-61183D01*
X97433Y-61014D01*
X97377Y-60902D01*
X97264Y-60733D01*
X97208Y-60677D01*
M02*
